<?xml version="1.0" encoding="UTF-8" standalone="no"?>
<svg
   version="1.0"
   width="600pt"
   height="600pt"
   viewBox="0 0 600 600"
   preserveAspectRatio="xMidYMid"
   id="svg13"
   sodipodi:docname="bleed.svg"
   inkscape:version="1.3.2 (091e20e, 2023-11-25, custom)"
   xmlns:inkscape="http://www.inkscape.org/namespaces/inkscape"
   xmlns:sodipodi="http://sodipodi.sourceforge.net/DTD/sodipodi-0.dtd"
   xmlns="http://www.w3.org/2000/svg"
   xmlns:svg="http://www.w3.org/2000/svg">
  <defs
     id="defs13" />
  <sodipodi:namedview
     id="namedview13"
     pagecolor="#ffffff"
     bordercolor="#000000"
     borderopacity="0.25"
     inkscape:showpageshadow="2"
     inkscape:pageopacity="0.0"
     inkscape:pagecheckerboard="0"
     inkscape:deskcolor="#d1d1d1"
     inkscape:document-units="pt"
     inkscape:zoom="0.59985352"
     inkscape:cx="681.83312"
     inkscape:cy="382.5934"
     inkscape:window-width="2560"
     inkscape:window-height="1369"
     inkscape:window-x="1912"
     inkscape:window-y="515"
     inkscape:window-maximized="1"
     inkscape:current-layer="svg13" />
  <g
     transform="matrix(0.0721854,0,0,-0.0721854,-83.803588,667.55869)"
     fill="#000000"
     stroke="none"
     id="g13"
     inkscape:label="backdrop"
     style="fill:#c80000;fill-opacity:1">
    <path
       id="path1"
       style="fill:#fffefe;fill-opacity:1"
       d="m 7921.1992,8006.1035 c -66.0612,0 -132.1224,0 -198.1836,0 19.5393,66.1646 39.0074,132.3502 58.6195,198.4932 2.8424,9.1013 5.8439,18.1535 9.0544,27.1318 -26.5635,18.416 -53.3236,36.5464 -80.1096,54.6365 -50.084,33.7613 -100.3776,67.2106 -150.8006,100.4631 -49.3892,32.556 -99.0443,65.0252 -148.8413,97.078 -15.2015,9.7773 -30.4355,19.5039 -45.7017,29.1798 -0.2263,0.1371 -1.0156,0.639 -1.4585,0.9164 -3.0757,1.9374 -6.1514,3.8748 -9.227,5.8122 -7.7138,-5.3895 -15.4264,-10.7867 -22.8867,-16.5254 -20.1079,-15.3605 -40.5762,-30.3206 -62.1803,-43.5263 -12.442,-7.5297 -25.6594,-14.0861 -39.8511,-17.5513 -13.3041,-3.303 -27.2518,-4.1885 -40.8345,-2.2348 -5.5093,0.8503 -10.9722,2.0175 -16.3587,3.4491 -7.0567,2.0136 -13.5056,5.5916 -20.1574,8.6053 -8.1728,3.8398 -16.3461,7.6788 -24.5184,11.5197 -5.8535,11.0342 -11.855,21.989 -17.7038,33.0255 -6.4368,12.6216 -9.8721,26.4581 -13.3348,40.1154 -5.6669,22.6982 -10.6934,45.5516 -15.475,68.4509 -3.6748,18.2868 -6.9782,36.6588 -9.4099,55.1555 -2.8102,21.7264 -4.0966,43.6804 -3.1822,65.5811 1.0372,26.2143 4.7456,52.2301 8.9544,78.0966 7.7981,46.9422 20.8712,93.0702 39.717,136.7906 18.2981,42.5321 41.9952,82.7765 70.7005,119.1232 30.9948,39.289 67.7619,74.012 108.7553,102.7148 39.1817,27.4898 82.1063,49.5622 127.0743,65.9149 20.5172,7.4742 41.44,13.8542 62.6723,18.9606 26.683,6.2287 53.9334,9.6393 81.2016,12.0234 35.8337,3.0379 71.8296,3.9311 107.7797,3.3125 31.4606,-0.5899 62.9154,-2.4591 94.1656,-6.1911 22.4043,-2.7236 44.7236,-6.5092 66.5226,-12.4223 15.5483,-4.1643 30.9735,-8.7863 46.2785,-13.7696 67.9582,-22.2401 133.2776,-52.466 194.3634,-89.6199 55.1598,-33.5509 106.8747,-72.8495 153.5056,-117.5253 43.9782,-42.182 83.3945,-89.2865 115.8186,-140.9324 41.5691,-66.4429 70.5028,-140.7059 85.2022,-217.6753 14.3258,-74.8557 15.3052,-152.3717 1.7288,-227.4137 -9.049,-49.9129 -24.5673,-98.7218 -46.8406,-144.3269 -21.632,-44.3324 -49.6404,-85.6384 -83.525,-121.5292 -45.2966,-47.9689 -99.509,-87.5277 -159.135,-115.7937 -40.9716,-19.4202 -84.4904,-33.4924 -129.1151,-41.551 -28.2117,-5.1108 -56.8643,-7.7691 -85.5345,-7.9478 -2.5829,-0.019 -5.166,-0.019 -7.749,-0.014 z" />
    <path
       id="path2"
       style="fill:#fffefe;fill-opacity:1"
       d="m 6063.8066,8128.8359 c -22.1415,0.1492 -44.1114,4.3758 -65.1596,11.0985 -29.0078,8.834 -56.6195,22.8786 -79.8622,42.4669 -24.9094,20.9065 -44.5077,48.1128 -56.3028,78.428 -10.6442,27.0931 -15.2559,56.3748 -14.7006,85.4256 0.5998,36.8165 9.0236,73.1392 21.5927,107.6224 11.7726,32.2786 27.2531,63.1004 44.6828,92.6717 13.1239,22.1891 27.3918,43.6949 42.5466,64.5467 9.8056,13.3149 20.1637,26.281 31.8242,38.0301 10.8322,10.7449 23.3515,19.9768 37.4288,25.9983 19.3899,8.4634 41.3566,10.9535 62.1277,6.872 16.9228,-3.2667 32.9497,-10.7757 46.4981,-21.4 11.5655,-9.0062 21.2975,-20.0877 30.4347,-31.4826 12.4555,-15.711 23.8314,-32.2438 34.8455,-48.9865 23.7289,-36.1789 44.7159,-74.3424 60.2235,-114.7969 13.0954,-34.1355 22.1769,-70.0778 24.0687,-106.6856 1.6326,-31.6647 -2.4219,-63.8328 -13.6564,-93.5721 -10.1578,-27.0082 -26.1646,-51.8398 -46.8267,-72.0059 -20.5089,-20.1229 -45.3043,-35.693 -71.9837,-46.254 -14.5312,-5.7797 -29.549,-10.3448 -44.8399,-13.623 -14.1131,-2.9195 -28.5237,-4.4689 -42.9414,-4.3536 z" />
    <path
       id="path3"
       style="fill:#fffefe;fill-opacity:1"
       d="m 6728.7695,6166.0488 c -16.8535,0.1023 -33.6019,4.2934 -48.6933,11.75 -11.0177,5.3509 -21.3473,11.979 -31.5945,18.6554 -18.3442,12.107 -36.1949,24.9464 -53.8071,38.0905 -10.279,7.6962 -20.8901,15.7814 -30.9307,23.2746 -39.5493,29.3946 -79.8845,57.7257 -120.8379,85.1281 -24.8622,16.6411 -49.9503,32.9435 -75.2361,48.9335 -0.322,0.207 -1.0154,0.6409 -1.4795,0.9347 -1.5335,0.966 -3.2372,2.044 -4.665,2.9403 -39.215,24.676 -78.9053,48.5948 -119.0098,71.7968 -0.2388,0.1331 -1.0401,0.5986 -1.4952,0.8595 -65.2607,37.7091 -131.6385,73.4898 -199.0586,107.1874 -22.0332,11.0075 -44.2168,21.7112 -66.2273,32.7634 -25.1856,12.5916 -50.3291,25.2753 -75.2019,38.4765 -10.754,5.7425 -21.5114,11.5104 -31.8422,17.9941 -7.8628,4.9442 -15.3115,10.5955 -21.8625,17.1968 -5.8327,5.8098 -10.955,12.3189 -15.3045,19.3055 -3.9043,5.7471 -6.8387,12.1076 -9.0208,18.6921 -2.6719,7.1406 -4.5847,14.5755 -5.4898,22.1511 -0.9885,6.4658 -1.5528,12.9846 -2.1105,19.4986 1.5229,6.1124 2.6552,12.311 4.0406,18.4539 1.4541,6.7804 3.8388,13.3293 6.7898,19.5955 3.9423,8.6815 9.2573,16.6503 14.9356,24.2792 7.624,10.4325 15.5697,20.6241 23.4411,30.8696 24.6282,31.8828 49.5872,63.5077 74.5055,95.1638 48.0149,60.8822 96.3269,121.5275 144.6659,182.152 167.4673,210.3733 334.89,420.782 502.3359,631.1724 133.4619,167.7107 266.9297,335.4167 400.383,503.1341 58.7454,73.859 117.5081,147.7044 176.1614,221.6363 18.0195,22.7732 36.0209,45.5711 54.8511,67.6843 11.7857,13.8663 23.8171,27.5351 36.4221,40.665 8.5902,8.8568 17.5391,17.4325 27.4361,24.8296 13.2357,9.7893 28.4407,17.0967 44.6179,20.3877 19.8495,4.1377 40.8674,2.3792 59.7711,-4.9453 12.6387,-4.7964 24.2624,-11.7987 35.8514,-18.6678 18.6697,-11.1985 37.0032,-22.9446 55.3412,-34.6749 37.6737,-24.2203 75.0612,-48.8822 112.3697,-73.6605 49.0906,-32.6347 97.9609,-65.6015 146.6039,-98.8999 30.1707,-20.6968 60.2546,-41.5243 90.0172,-62.8052 13.0193,-9.3404 25.9811,-18.7732 38.564,-28.6974 10.2894,-8.1442 20.1122,-17.0913 27.7852,-27.8058 10.8272,-14.8446 17.7176,-32.5562 19.6006,-50.8431 0.5821,-5.7816 0.9123,-11.6115 0.4231,-17.4134 -0.6987,-8.679 -2.2208,-17.3089 -4.8315,-25.6236 -3.1824,-10.1959 -7.6722,-19.9182 -12.2274,-29.5584 -12.8533,-26.9365 -26.6048,-53.4304 -40.3011,-79.9443 -28.0663,-54.1411 -56.7144,-107.9782 -85.5283,-161.724 -33.5904,-62.5794 -67.5206,-124.977 -101.9554,-187.096 -14.7153,-26.5078 -29.6178,-52.9112 -44.6306,-79.2514 -22.8957,-40.7599 -45.7468,-81.5448 -68.6246,-122.3147 -0.6001,0.3698 -1.1737,0.6678 -1.2972,-0.2594 -3.6342,-8.303 -7.4533,-16.5246 -11.5099,-24.6298 -11.3481,-22.9487 -23.6056,-45.4319 -35.97,-67.8446 -21.8988,-39.5026 -44.6378,-78.5347 -67.87,-117.2668 -15.7498,-26.1609 -31.7426,-52.1836 -48.4981,-77.7151 -7.562,-11.431 -15.2747,-22.7818 -23.7107,-33.5913 -8.6694,-11.0239 -18.6562,-21.174 -30.4429,-28.8692 -0.4608,-0.288 -1.0308,-0.5108 -0.7594,-1.1578 1.1844,-16.0968 -1.6485,-32.3312 -7.2322,-47.4232 -3.3115,-9.0192 -7.4078,-17.7225 -11.5025,-26.4056 -8.6861,-18.0341 -17.9609,-35.7763 -27.2518,-53.5039 -19.8564,-37.6982 -40.2906,-75.0881 -60.8036,-112.4317 -35.9117,-65.2705 -72.3922,-130.2259 -108.9301,-195.1472 -26.2804,-46.7214 -52.5588,-93.444 -78.8407,-140.1646 -0.5691,0.4715 -0.5161,-0.6807 -0.773,-1.041 -2.9641,-8.1726 -6.8251,-15.9977 -11.2669,-23.4641 -5.9896,-10.346 -11.6485,-20.878 -17.433,-31.3389 -16.3463,-29.8086 -32.6179,-59.658 -48.8748,-89.5153 -5.0404,-9.2686 -10.1594,-18.6819 -15.2028,-27.9704 -12.3834,-22.8037 -24.7764,-45.6022 -37.1172,-68.4289 -20.3541,-37.5163 -41.0163,-74.8738 -62.6536,-111.6682 -8.2873,-13.9976 -16.7019,-27.94 -25.981,-41.3088 -8.1541,-11.5628 -17.7085,-22.3161 -29.2808,-30.5584 -10.8544,-7.8615 -23.2238,-13.5856 -36.198,-16.9206 -7.1357,-1.9377 -14.534,-2.6596 -21.897,-3.0484 -1.2161,-0.047 -2.4331,-0.061 -3.6501,-0.053 z" />
    <path
       id="path4"
       style="fill:#fffefe;fill-opacity:1"
       d="m 4374.9473,7553.1309 c -36.5434,0.3967 -73.2107,5.2999 -108.0693,16.4924 -36.009,11.4551 -69.8368,29.8468 -98.8006,54.1395 -18.2328,15.2586 -34.526,32.7709 -48.8471,51.733 -7.9717,10.4789 -15.584,21.2726 -21.9819,32.7968 -7.5486,13.4107 -13.3612,27.7897 -17.2719,42.6733 -4.3157,16.2547 -6.4638,33.0074 -7.4895,49.7706 -1.4351,22.5191 -1.2796,45.0952 -1.3732,67.6483 -0.012,19.7912 0.061,39.5906 0.9179,59.3663 1.0687,22.9122 3.6969,45.8467 9.5019,68.0767 5.4417,21.2956 13.5722,41.7938 22.6094,61.7935 5.1479,11.3914 10.5002,22.6902 15.9732,33.9285 10.8492,21.9222 22.7212,43.3194 34.8443,64.5574 16.76,29.1774 34.2264,57.9548 52.589,86.1531 12.8551,19.6538 26.2151,38.9731 39.8019,58.1268 12.0594,16.8984 24.4074,33.6059 37.5331,49.6957 9.3251,11.324 19.1374,22.427 30.8607,31.343 8.4532,6.4783 17.8044,11.8027 27.7722,15.573 8.9406,3.4361 18.3582,5.5881 27.8882,6.504 4.6905,0.6978 9.4559,0.7299 14.1752,0.3361 10.061,-0.5649 20.0925,-2.2757 29.629,-5.5796 17.021,-5.7346 32.3574,-15.8333 45.2574,-28.24 13.0702,-12.3668 24.4389,-26.3685 35.6429,-40.4063 16.4973,-20.8919 32.0386,-42.5184 47.2477,-64.3596 19.9394,-28.7947 39.0689,-58.1658 56.8597,-88.3405 12.5497,-21.4853 24.0375,-43.584 34.6365,-66.0929 18.7979,-40.0303 34.4402,-81.6201 45.4626,-124.4748 11.35,-44.2837 17.6649,-90.0599 16.2755,-135.8279 -1.2119,-38.906 -8.1761,-77.8136 -22.3571,-114.139 -12.1467,-31.1671 -29.6182,-60.3292 -51.9389,-85.2819 -21.0348,-23.5833 -46.2244,-43.4194 -73.9926,-58.4913 -29.8146,-16.2545 -62.414,-27.1441 -95.7889,-33.1914 -25.5631,-4.6691 -51.5973,-6.5463 -77.5673,-6.2828 z" />
    <path
       id="path5"
       style="fill:#fffefe;fill-opacity:1"
       d="m 3180.2402,6976.1191 c -34.816,0.2764 -69.8201,4.7195 -102.9734,15.6305 -33.0485,10.8175 -63.9835,28.3374 -89.7688,51.7211 -16.4407,14.8232 -30.7214,31.9477 -42.9683,50.3637 -12.0013,17.4584 -22.1197,36.3917 -28.3251,56.7091 -6.6409,21.3144 -9.0371,43.7297 -9.1641,65.9869 -0.1837,18.4987 0.7724,36.9839 1.8115,55.4468 1.6727,27.0334 4.9595,54.0897 12.0346,80.2857 6.9951,26.1977 17.4562,51.3378 29.3859,75.6427 16.4761,33.8806 35.0506,66.7062 54.7458,98.8101 12.698,20.6606 25.7906,41.096 39.9115,60.819 8.7515,12.1906 17.6925,24.2488 26.9467,36.0633 8.2504,10.4616 16.7555,20.7391 25.8531,30.4785 9.0062,9.5764 18.9807,18.3827 30.3778,25.0192 16.8387,9.9592 36.4502,15.2544 56.0284,14.797 18.9467,-0.3705 37.7022,-5.9908 53.8899,-15.8067 12.4847,-7.504 23.3316,-17.4177 33.1505,-28.1093 8.3221,-9.095 16.1163,-18.6591 23.7082,-28.3675 12.3779,-15.9132 24.1565,-32.2841 35.6694,-48.8311 16.8033,-24.2474 32.8661,-49.0144 47.9633,-74.361 18.6318,-31.5605 34.9924,-64.498 48.309,-98.6543 12.0477,-31.0033 21.5197,-63.0763 27.1965,-95.8734 6.6123,-38.2545 7.9233,-77.6577 1.474,-116.0289 -5.0293,-29.8572 -14.8289,-59.0113 -29.8169,-85.366 -13.9065,-24.5529 -32.2046,-46.6288 -53.8876,-64.6993 -22.0795,-18.4794 -47.5072,-32.8434 -74.5155,-42.7579 -34.0788,-12.5855 -70.4446,-18.2996 -106.6922,-18.8653 -3.4476,-0.065 -6.8961,-0.063 -10.3442,-0.053 z" />
    <path
       id="path6"
       style="fill:#fffefe;fill-opacity:1"
       d="m 3934.3672,3250.8184 c -10.1896,0.148 -20.3236,1.9081 -30.0684,4.8496 -6.8617,2.1391 -13.4049,5.187 -19.6625,8.7033 -4.9959,2.7435 -9.8385,5.8028 -14.3282,9.3141 -6.4269,6.3062 -13.2808,12.2896 -18.5965,19.6117 -2.3424,3.3432 -4.2802,6.9444 -6.3971,10.4294 -2.6619,4.6312 -5.1575,9.3862 -7.0855,14.3707 -2.3157,8.017 -4.9296,16.0275 -5.7153,24.3794 -2.6853,21.2336 1.5086,43.1452 11.183,62.1842 5.8222,11.6914 13.3416,22.4182 20.8735,33.0507 2.9914,4.1963 6.0025,8.3784 9.0118,12.5619 0.9682,1.344 2.06,2.8707 3.0758,4.285 7.2982,10.2117 14.5161,20.4807 21.7768,30.7192 28.5389,40.3776 56.8903,80.8873 85.2231,121.4097 21.9132,31.353 43.7305,62.7729 65.6277,94.1369 62.489,89.03 125.0386,178.0179 187.5819,267.0097 60.1589,85.5568 120.3413,171.0967 180.5876,256.5912 59.7314,84.7855 119.5687,169.4964 179.4005,254.2114 97.328,137.8894 194.6079,275.8127 291.7596,413.8263 52.9332,75.1831 105.8328,150.3902 158.6637,225.6454 26.5194,37.7532 53.0376,75.5609 79.5045,113.3176 63.2671,90.2753 126.4367,180.6191 189.388,271.115 12.1619,17.4913 24.3133,34.9896 36.4558,52.4944 41.0304,59.19 82.052,118.5528 122.5948,178.1416 19.8825,29.2912 39.7156,58.6188 59.079,88.2568 1.9437,2.9963 3.8929,5.9891 5.8203,8.9961 -4.8151,14.7367 -10.3933,29.2111 -16.1602,43.5976 -14.0192,34.6651 -29.561,68.6938 -45.7416,102.3973 -19.2049,39.8829 -39.4731,79.2522 -60.6564,118.1196 -20.8624,38.1922 -42.6124,75.9146 -65.8217,112.7333 -12.2014,19.3013 -24.8351,38.3386 -38.2373,56.8299 -0.064,0.079 -0.6767,0.9285 -0.9421,1.2903 -12.5138,17.245 -25.6591,34.0223 -39.1028,50.5496 -0.1457,0.184 -0.7586,0.9289 -1.0844,1.3292 -23.2298,28.4461 -47.3796,56.1313 -72.0534,83.3308 -38.649,42.5481 -78.6074,83.9022 -119.6648,124.1297 -20.7057,20.2833 -41.7102,40.2625 -63.0607,59.8665 -0.2407,0.2248 -0.8853,0.811 -1.2809,1.1743 -33.5936,30.7712 -67.9688,60.7345 -103.9367,88.7135 -1.0378,0.8116 -2.2806,1.7896 -3.1926,2.4989 -14.5345,11.3622 -29.1326,22.6474 -43.4317,34.3065 -17.4133,14.202 -34.4189,29.1642 -48.5127,46.7545 -13.4824,16.7506 -24.0384,35.9905 -29.9773,56.7013 -6.0076,20.8097 -7.4228,42.83 -4.877,64.3066 2.7517,24.4141 10.0721,47.9843 17.5196,71.2985 5.1234,15.8913 10.3882,31.7369 15.5044,47.6306 6.5913,20.0333 14.454,39.6916 24.3217,58.3493 9.0029,17.1235 19.6309,33.3706 31.4715,48.6626 13.3202,17.2499 27.9653,33.4307 43.0684,49.1265 10.1769,10.3801 20.7541,20.3595 31.4405,30.2113 12.6754,11.5683 25.6705,22.8234 39.4662,33.0449 12.2307,8.9929 25.533,16.812 40.0836,21.3742 16.9604,5.4389 35.2884,6.6609 52.7846,3.2437 12.0439,-2.298 23.5947,-6.6665 34.6226,-11.9577 14.1095,-6.6902 27.7891,-14.2395 41.4317,-21.8242 23.5936,-13.2442 46.8715,-27.0452 69.9579,-41.153 12.1253,-7.4203 24.1885,-14.9416 36.2628,-22.4447 0.288,-0.1736 1.0217,-0.6305 1.4806,-0.9127 69.9828,-43.2563 140.0409,-86.3909 210.1778,-129.3967 70.7901,-43.402 141.6918,-86.7288 212.617,-129.9783 41.9305,-25.5645 83.8936,-51.0763 125.8192,-76.6488 105.2022,-64.2729 209.6875,-129.7155 313.803,-195.7333 103.5238,-65.6589 206.6324,-131.9716 309.4318,-198.7591 61.742,-40.1222 123.3667,-80.4249 184.8815,-120.8949 105.7389,-69.5809 211.1468,-139.6652 316.1748,-210.3152 70.1355,-47.1828 140.1003,-94.6205 209.8592,-142.3596 53.9463,-36.9371 107.7725,-74.0501 161.4165,-111.425 20.2611,-14.1473 40.5628,-28.2388 60.7163,-42.5396 18.7356,-13.339 37.404,-26.7999 55.3352,-41.2126 17.4529,-14.091 34.2554,-29.2417 48.1295,-46.9497 11.7963,-14.9988 21.296,-31.9112 27.1303,-50.1157 5.2162,-16.0941 7.5532,-33.1036 6.9236,-50.0083 -0.5498,-16.1312 -3.7742,-32.1004 -8.8519,-47.3984 -6.5599,-19.9421 -16.0864,-38.7065 -25.1468,-57.5875 -4.8234,-10.0414 -9.8373,-20.0007 -15.4553,-29.6251 -14.3623,-24.8774 -31.3042,-48.1926 -49.6122,-70.3003 -20.7796,-25.0233 -43.5075,-48.4254 -67.8601,-69.9852 -22.4435,-19.8235 -46.3663,-38.0714 -72.0809,-53.4618 -9.162,-5.4761 -18.6166,-10.438 -28.1047,-15.3197 -30.0182,-15.6618 -60.0345,-31.3271 -90.054,-46.9866 -50.9302,33.3401 -101.8463,66.7024 -152.7853,100.0289 -36.7261,23.7971 -74.2562,46.3545 -112.5252,67.5825 -0.094,0.046 -1.0067,0.5542 -1.4009,0.7698 -5.5279,3.0554 -11.0665,6.0913 -16.6245,9.0915 -0.2635,0.1355 -1.0577,0.5676 -1.525,0.8169 -1.2111,0.6509 -2.4221,1.3018 -3.6332,1.9526 -0.2931,0.1607 -1.059,0.5657 -1.5334,0.8201 -6.3776,3.4129 -12.7801,6.779 -19.1971,10.1174 -0.2519,0.1261 -1.0662,0.5509 -1.5343,0.7918 -67.1466,34.8113 -136.499,65.3817 -207.5648,91.2769 -48.6594,17.7395 -98.124,33.265 -148.17,46.5972 -17.8306,4.7537 -35.7427,9.198 -53.7133,13.3908 -0.069,0.019 -1.1173,0.2572 -1.5493,0.3575 -6.4353,1.4995 -12.8866,2.9279 -19.3355,4.3671 -0.011,0.01 -1.1148,0.2422 -1.5383,0.335 -50.5082,11.0622 -101.4943,19.9288 -152.755,26.6864 -21.499,2.8187 -43.0639,5.1251 -64.6656,6.9961 -0.042,-0 -1.14,0.094 -1.577,0.1294 -39.7734,3.3698 -79.6711,5.2729 -119.5842,5.7292 -11.352,0.1308 -22.7055,0.1458 -34.0576,0.012 -0.4462,-0 -1.2672,-0.015 -1.8569,-0.021 -12.2825,-0.1515 -24.5626,-0.4838 -36.8365,-0.9688 -0.2447,-0.014 -1.1984,-0.051 -1.7163,-0.074 -15.5439,-0.646 -31.0762,-1.6043 -46.5727,-2.9845 -0.049,-0 -1.1398,-0.1047 -1.5776,-0.1442 -13.3693,-1.2331 -26.715,-2.7949 -39.9693,-4.9476 -6.3677,-1.0645 -12.7203,-2.2479 -18.9922,-3.7871 -11.8298,-14.095 -23.4891,-28.3321 -35.147,-42.5691 -12.5046,-15.2921 -24.9418,-30.6391 -37.3627,-45.9993 -0.7763,-0.9681 -1.7163,-2.1274 -2.5555,-3.169 -19.3943,-24.0048 -38.7207,-48.064 -58.0051,-72.1571 -5.2386,-6.549 -10.6256,-13.2855 -15.8745,-19.86 -4.3797,-5.4861 -8.7594,-10.9722 -13.1392,-16.4584 -52.9724,-66.4895 -106.0445,-133.1313 -159.1363,-199.6156 -79.7186,-99.8801 -159.5455,-199.6738 -239.4714,-299.3883 -71.5844,-89.3039 -143.2414,-178.5507 -214.9867,-267.7269 -50.6592,-62.9717 -101.3562,-125.913 -152.0963,-188.8196 -140.5275,-174.195 -281.3561,-348.1476 -422.7164,-521.6674 -75.799,-93.0317 -151.7546,-185.9362 -228.022,-278.5843 -41.0014,-49.7878 -82.0854,-99.508 -123.3829,-149.0507 -30.6072,-36.7004 -61.3094,-73.3234 -92.3483,-109.6599 -16.2457,-18.9773 -32.5542,-37.9059 -49.3034,-56.4423 -7.7516,-8.5128 -15.5444,-17.0155 -23.9999,-24.8412 -8.3043,-7.6144 -17.249,-14.5912 -26.9875,-20.2839 -16.7258,-9.6431 -36.0231,-14.8948 -55.3594,-14.5175 z" />
    <path
       id="path7"
       style="fill:#fffefe;fill-opacity:1"
       d="m 7856.2207,6366.6582 c -42.9783,0.3349 -85.9464,9.2607 -125.2713,26.6743 -35.9771,15.8543 -68.8324,39.0379 -95.1444,68.3107 -14.9696,16.649 -27.766,35.2502 -37.9107,55.2111 -12.6092,24.799 -21.2527,51.6484 -25.1521,79.2062 -3.7036,26.3513 -3.2839,53.165 -0.1689,79.5531 4.8581,40.7516 15.8021,80.5768 30.0102,119.0089 14.3589,38.8336 32.1448,76.3511 52.2699,112.5158 22.5211,40.3965 47.9174,79.1896 75.9064,116.0086 13.1185,17.2074 26.8253,34.0157 41.9076,49.551 11.0723,11.2915 23.362,21.6332 37.4853,28.9029 15.3081,7.9329 32.4897,12.343 49.7555,12.3058 21.4607,0.035 42.7714,-6.5311 60.8078,-18.0888 15.0268,-9.4836 27.7747,-22.1034 39.3366,-35.493 12.9511,-15.0792 24.5887,-31.228 35.8143,-47.6149 16.1555,-23.7454 31.1609,-48.2564 45.4914,-73.1399 16.5163,-28.7838 31.9811,-58.1707 46.4005,-88.0595 17.7472,-37.0683 33.1205,-75.4418 43.2429,-115.3337 8.966,-35.416 13.5451,-72.1464 11.2705,-108.6853 -1.9495,-32.1321 -9.2843,-63.9518 -21.8353,-93.6055 -9.6124,-22.8098 -22.046,-44.494 -37.4832,-63.8715 -19.8694,-25.0665 -44.4445,-46.345 -71.9466,-62.6564 -33.0542,-19.6347 -70.1567,-32.1953 -108.1848,-37.5778 -15.4282,-2.1938 -31.0194,-3.2204 -46.6016,-3.1221 z" />
    <path
       id="path8"
       style="fill:#fffefe;fill-opacity:1"
       d="m 4084.6465,5546.2051 c -23.8698,0.016 -47.7396,2e-4 -71.6094,0 0.4134,2.209 0.8268,4.4179 1.2402,6.6269 -46.0026,8.2004 -90.7281,24.0542 -131.1917,47.4958 -35.0294,20.3292 -66.8298,46.4147 -92.8523,77.5003 -18.6028,22.1475 -34.1971,46.8041 -46.3327,73.0555 -18.782,40.106 -30.1937,83.5481 -34.4087,127.6011 -4.7837,49.1821 -0.9492,98.9479 8.7325,147.3195 9.6434,48.3077 24.9719,95.3446 43.6478,140.8797 21.104,51.3952 46.5475,100.9209 74.4391,148.9405 28.6509,49.2304 59.9895,96.86 92.9543,143.2994 11.7442,16.5026 23.6663,32.8807 35.8749,49.0429 14.1436,18.3257 29.2229,36.0389 46.3556,51.6563 11.814,10.6203 25.0503,19.8796 39.805,25.9249 18.4271,7.6262 38.9603,10.2008 58.6697,7.0283 19.5116,-3.0391 37.9959,-11.4321 53.7499,-23.2434 15.2953,-11.3218 28.3932,-25.2702 40.7851,-39.6299 16.4335,-19.1586 31.5228,-39.4199 46.2502,-59.9044 22.4412,-31.4259 43.6527,-63.7163 64.0741,-96.4861 20.6401,-33.1943 40.3583,-66.9703 58.8105,-101.4315 14.2607,-26.7027 27.5027,-53.9585 39.3571,-81.8167 19.4595,-45.5935 35.5226,-92.7384 46.2638,-141.1687 10.4547,-47.2668 15.7228,-95.874 13.1955,-144.2881 -2.034,-38.9197 -9.179,-77.6703 -22.3272,-114.3992 -12.8527,-36.0035 -31.3839,-70.0072 -54.9738,-100.1063 -14.9073,-19.077 -31.7041,-36.6688 -49.9789,-52.5445 -33.4378,-28.8972 -72.316,-51.3547 -113.794,-66.5304 -42.6328,-15.6625 -87.9315,-23.8256 -133.315,-24.7533 -4.4732,-0.095 -8.9476,-0.1073 -13.4216,-0.069 z" />
    <path
       id="path9"
       style="fill:#fffefe;fill-opacity:1"
       d="m 2318.2305,920.71875 c -21.6489,-0.14424 -43.495,4.39239 -62.792,14.35717 -18.8414,9.62187 -34.9777,24.4279 -46.2423,42.33033 -7.9591,12.62696 -13.4856,26.80605 -15.9481,41.53805 -1.8281,10.4424 -2.2298,21.0721 -2.1128,31.6545 0.1336,17.3373 1.4391,34.6372 2.8085,51.9124 1.9067,23.0619 4.3045,46.0826 7.0859,69.0549 2.3473,18.1705 5.1101,36.2843 7.9623,54.3814 10.6478,66.7252 24.1634,132.9689 39.4584,198.7762 14.0656,60.363 29.7346,120.345 46.5864,179.988 13.2202,46.7579 27.1502,93.314 41.722,139.6681 33.4844,106.5421 70.2312,212.0443 109.3578,316.6408 25.2285,67.4077 51.4576,134.44 78.5982,201.1005 13.6049,33.3212 27.342,66.5879 40.9766,99.8969 9.2224,22.3961 18.4013,44.8211 28.5117,66.8355 7.0019,15.1329 14.5803,30.1046 24.2897,43.7075 9.0961,12.692 20.2326,24.039 33.3395,32.5987 17.4251,11.4703 38.108,18.0496 58.9968,18.2986 9.584,0.1548 19.1829,-0.9961 28.4736,-3.347 -2.0389,57.6276 -4.0791,115.2552 -6.1172,172.8828 51.31,97.258 102.6019,194.5256 153.9303,291.7739 38.7168,73.1291 77.8614,146.0313 117.351,218.7457 19.4423,35.7384 39.1521,71.3305 58.664,107.031 18.6732,34.086 37.3465,68.1719 56.0196,102.258 29.9981,15.4556 59.9961,30.9115 89.9941,46.3672 -2.4067,4.5932 -4.8123,9.187 -7.2207,13.7793 -0.3138,4.4272 -0.593,8.8569 -0.9453,13.2813 -0.018,0.156 -0.092,1.1227 -0.1353,1.5977 -0.5249,6.3024 -1.0897,12.6232 -0.9893,18.9507 0.9372,10.419 2.5232,20.8726 6.1146,30.7409 4.6625,13.6901 11.9541,26.2562 19.0814,38.7709 11.8193,20.4317 24.2964,40.4721 36.7405,60.5263 22.4421,36.0392 45.301,71.8162 68.2003,107.5661 46.3602,72.3351 93.2114,144.354 140.1589,216.309 70.659,108.2511 141.6889,216.259 212.8818,324.1599 68.6493,104.0337 137.4607,207.9608 206.3894,311.8098 97.7479,147.2692 195.7368,294.3788 293.8866,441.3804 63.0679,94.4572 126.2162,188.8595 189.4218,283.2239 48.6936,72.6947 97.4295,145.3605 146.1997,218.0044 83.119,123.8223 166.3855,247.5435 249.658,371.2623 63.7228,94.6403 127.6652,189.1329 191.9429,283.3963 42.0391,61.638 84.1688,123.2161 126.892,184.3827 10.7499,15.3393 21.5408,30.6531 32.6631,45.7256 6.9618,9.4245 14.4726,18.5784 23.5952,26.0073 6.5355,5.4213 13.7193,10.0686 21.4063,13.6846 5.4768,2.6885 11.1476,5.0691 17.0725,6.5685 7.8088,1.6515 15.6128,3.4251 23.5463,4.3701 4.8779,0.46 9.7888,-0.066 14.574,-1.0369 7.057,-1.2065 14.1631,-2.2705 21.0685,-4.1979 4.4734,-1.2969 8.6125,-3.4711 12.8632,-5.3315 13.1482,-6.0887 24.9191,-15.0209 34.5572,-25.8201 6.4209,-7.1121 11.7876,-15.0978 16.6122,-23.3565 6.6426,-11.433 12.5182,-23.2887 18.3554,-35.1465 8.8406,-18.117 17.2893,-36.422 25.6616,-54.7591 16.7325,-36.7581 32.9113,-73.7657 48.8826,-110.86 20.892,-48.5964 41.2467,-97.4225 61.3166,-146.3641 1.2426,-2.9545 2.4851,-5.9091 3.7277,-8.8637 0.1131,-0.257 0.4696,-1.1044 0.6763,-1.5884 18.4754,-43.4361 36.9458,-86.8743 55.4175,-130.312 -18.1804,-25.4737 -36.4107,-50.912 -54.5413,-76.421 -5.9764,-8.7444 -11.5357,-17.7635 -17.2225,-26.6965 -4.3969,-6.9498 -8.7612,-13.9201 -13.1288,-20.8883 -0.201,-0.3289 -0.635,-1.0191 -0.9252,-1.4863 -20.5928,-32.9889 -40.9485,-66.1252 -61.2834,-99.2735 -49.0928,-80.1325 -97.7791,-160.5121 -147.1583,-240.4686 -11.987,-19.3504 -23.9305,-38.7295 -36.1858,-57.9117 -7.0155,-10.8624 -14.0301,-21.772 -22.2599,-31.7708 -13.7765,-16.859 -30.2877,-31.4402 -48.5736,-43.2413 -13.2699,-8.6288 -27.3661,-15.9153 -41.7642,-22.4611 4.0902,-10.5595 6.6447,-21.7257 7.3586,-33.034 0.6729,-8.2402 0.1471,-16.562 -1.4482,-24.6711 -1.5959,-9.1409 -4.4835,-18.037 -8.4296,-26.431 -4.1168,-8.8748 -9.2205,-17.2373 -14.0604,-25.7253 -12.6221,-21.744 -25.6006,-43.2785 -38.5427,-64.8328 -39.26,-65.2942 -78.9814,-130.3092 -118.7296,-195.3067 -32.7943,-53.5552 -65.7241,-107.0273 -98.6402,-160.5077 -54.0362,-87.8098 -107.9279,-175.7083 -161.7384,-263.6565 -64.9816,-106.211 -129.8003,-212.5216 -194.4765,-318.9189 -11.0424,-18.1901 -22.1467,-36.4688 -33.2129,-54.6929 -89.4157,-147.2835 -178.5741,-294.8285 -267.4412,-442.4842 -68.0306,-113.0303 -135.9402,-226.2369 -203.7085,-339.4651 -24.9304,-41.6322 -49.8307,-83.2814 -74.7624,-124.9125 83.9178,86.1923 168.129,172.0977 252.4706,257.8752 95.7246,97.3334 191.6465,194.4735 287.893,291.2912 26.058,26.1952 52.1489,52.358 78.2985,78.4625 -8.1432,12.2143 -16.2867,24.4283 -24.4297,36.6426 -1.4184,8.0536 -2.9833,16.0806 -4.3871,24.1365 -0.7197,4.2372 -1.3619,8.4949 -1.8612,12.7599 0.871,8.3097 1.117,16.717 2.9657,24.8949 2.5257,11.8215 7.1709,23.1503 13.4312,33.4796 6.1397,10.1682 13.7026,19.3672 21.1348,28.5993 11.7757,14.4079 23.8811,28.5424 36.0143,42.6493 24.901,28.8609 50.0764,57.4837 75.3516,86.0168 48.3193,54.5033 97.0146,108.6728 146.003,162.5752 41.492,45.6005 83.149,91.0537 125.3098,136.0376 26.0011,27.745 52.3018,55.2071 78.5562,82.7117 71.9711,75.3135 144.0392,150.5337 216.1427,225.7192 58.2553,60.7374 116.5164,121.4692 174.8234,182.1569 44.9587,46.7306 89.9884,93.3932 134.9428,140.1284 61.5565,63.9621 123.0408,127.9937 184.3666,192.1769 44.7973,46.9063 89.4844,93.9187 133.8507,141.2332 0.4877,0.5165 1.1841,1.2662 1.7519,1.8722 10.3534,11.066 20.6771,22.1597 30.9552,33.2958 0.2479,0.277 0.8124,0.8841 1.1816,1.2875 13.2389,14.3982 26.4501,28.8249 39.3745,43.507 5.0375,5.7519 10.0526,11.5326 14.8615,17.4746 2.5451,4.537 5.2213,9.008 8.1468,13.311 2.5196,3.69 5.4288,7.0982 8.5945,10.2474 4.9857,5.2433 10.372,10.1402 16.3715,14.2055 14.4525,10.1699 31.4763,16.3815 48.9098,18.9345 14.2854,2.25 28.7468,2.9916 43.1647,3.8727 28.5166,1.5555 57.0693,2.3088 85.6184,2.963 72.2598,1.5939 144.5425,1.7343 216.8168,1.5037 52.5851,-0.2058 105.1724,-0.5164 157.7484,-1.5593 19.9921,-0.4425 39.993,-0.8021 59.9607,-1.9395 8.2209,-0.4589 16.4571,-1.0613 24.5568,-2.6051 9.3694,-1.7052 18.533,-4.5838 27.1189,-8.7173 8.0297,-3.8593 15.6476,-8.6231 22.5008,-14.3236 4.7719,-4.1008 8.9755,-8.7991 13.2985,-13.3559 4.213,-4.5033 8.0924,-9.3738 10.9803,-14.8446 2.6285,-4.7762 4.4537,-9.9336 6.0781,-15.1218 3.1025,-9.3033 6.2037,-18.6071 9.3072,-27.9101 -1.716,-9.4203 -3.15,-18.8877 -4.7227,-28.3321 -0.8895,-5.3068 -2.3864,-10.4925 -4.2733,-15.527 -3.6943,-10.1317 -8.8832,-19.6853 -15.1191,-28.4733 -8.0307,-11.64 -16.7994,-22.7432 -25.4173,-33.9479 -20.5755,-26.5341 -41.5875,-52.7253 -62.5865,-78.9243 -46.6581,-58.1346 -93.7503,-115.9193 -140.9343,-173.6272 -58.671,-71.7435 -117.6297,-143.2505 -176.6408,-214.7144 -154.9338,-187.6952 -309.8798,-375.3794 -464.9723,-562.9412 -62.0714,-75.0633 -124.1714,-150.1032 -186.3375,-225.0887 -62.536,-75.4125 -125.1096,-150.7936 -187.9792,-225.9277 -28.4165,-33.9394 -56.8741,-67.8457 -85.641,-101.489 -12.1857,-14.2082 -24.3871,-28.4079 -36.9612,-42.2752 -1.0044,-1.0953 -2.012,-2.1877 -3.0144,-3.2848 1.1374,-1.1536 2.2747,-2.3073 3.4121,-3.4609 -26.8384,-30.894 -53.7504,-61.7237 -80.5389,-92.661 -7.0594,-8.1166 -13.9023,-16.418 -20.857,-24.6241 -64.2451,-76.2963 -128.1709,-152.8612 -191.8411,-229.6379 -39.0749,-47.0615 -78.137,-94.1391 -118.0501,-140.4944 -18.1747,-21.0406 -36.4898,-41.9795 -55.7419,-62.0473 -13.7644,-14.301 -28.081,-28.2265 -44.262,-39.8009 -9.5878,-6.7923 -19.8952,-12.6184 -30.8301,-16.9473 1.6602,-14.6992 3.3203,-29.3984 4.9805,-44.0976 -94.546,-108.0573 -189.092,-216.1147 -283.6711,-324.1428 -47.5282,-54.1634 -95.1275,-108.2644 -142.8778,-162.2322 -64.8206,-73.2333 -129.9164,-146.225 -195.6789,-218.6144 -63.7684,-70.2129 -128.1879,-139.8375 -193.4942,-208.6237 -53.0221,-55.8745 -106.5855,-111.2334 -160.5722,-166.1765 -48.9949,-49.8928 -98.3217,-99.4586 -147.7563,-148.9151 -67.8404,-67.9729 -136.0195,-135.617 -205.3102,-202.1148 -71.6361,-68.7366 -144.5719,-136.161 -219.9695,-200.7665 -55.4369,-47.5907 -112.1518,-93.677 -169.6484,-138.7527 -31.9996,-25.1226 -64.1803,-50.0199 -96.8234,-74.3023 -62.8947,-46.8853 -127.0735,-92.0622 -192.665,-135.0983 -46.2917,-30.3235 -93.307,-59.5673 -141.3522,-87.0373 -31.7403,-18.1007 -63.9427,-35.42693 -96.9103,-51.19599 -23.5998,-11.23654 -47.6068,-21.70238 -72.3156,-30.26888 -19.7081,-6.78089 -39.9462,-12.3446 -60.6791,-14.83939 -6.7813,-0.79534 -13.6047,-1.26916 -20.434,-1.29419 z" />
    <path
       id="path10"
       style="fill:#fffefe;fill-opacity:1"
       d="m 2743.584,4491.1406 c -26.1168,0.1215 -52.2882,0.4032 -78.2871,3.125 -20.2426,2.1309 -40.327,6.0733 -59.7105,12.3285 -22.781,7.3445 -44.5372,17.4906 -65.8163,28.371 -36.6184,19.0181 -70.8846,42.8756 -100.2942,71.8969 -27.0603,26.63 -49.9298,57.4223 -68.1781,90.6916 -8.399,15.2571 -16.0158,30.9655 -22.3996,47.1756 -15.7122,40.2113 -23.5388,83.1742 -25.9431,126.179 -2.6667,47.8271 1.2796,95.8573 9.5131,142.9899 9.3374,53.2669 24.3116,105.4647 43.3513,156.0522 19.0283,50.4385 42.2884,99.2549 69.0845,146.0229 15.0921,26.4822 30.8857,52.559 47.0011,78.4292 24.3092,38.9522 49.5101,77.3475 75.5378,115.1727 16.5664,24.0083 33.4992,47.7733 51.2206,70.9456 11.4913,14.9405 23.2924,29.6388 34.9229,44.4707 29.328,37.1969 58.6556,74.394 87.9839,111.5906 39.143,-37.8522 78.3331,-75.6562 117.4242,-113.5617 15.7107,-16.023 29.5585,-33.7304 43.1664,-51.5363 19.0833,-25.1683 37.1711,-51.0721 54.9832,-77.1498 28.1054,-41.3239 55.1612,-83.3599 81.2343,-125.9946 17.315,-28.3801 34.1432,-57.069 49.9237,-86.334 9.5967,-17.8407 18.5266,-36.0362 26.8676,-54.4964 27.6616,-60.9011 49.6859,-124.5457 63.0769,-190.1439 10.4888,-51.4984 15.5177,-104.2654 12.8201,-156.8095 -2.27,-43.5961 -9.998,-87.0334 -24.4161,-128.29 -9.3755,-26.8842 -21.6872,-52.718 -36.3028,-77.1416 -15.8692,-26.2602 -35.165,-50.5035 -57.6419,-71.4172 -21.2769,-19.8959 -45.1525,-36.8788 -70.3075,-51.5094 -18.1252,-10.5824 -36.8655,-20.0949 -55.9789,-28.7575 -21.8174,-9.8042 -44.3527,-18.2874 -67.7734,-23.3642 -26.4287,-5.8418 -53.5365,-7.7387 -80.5351,-8.4671 -18.1707,-0.5099 -36.3506,-0.532 -54.527,-0.4682 z m -101.3399,436.5547 c 1.298,0.7526 2.5632,1.7111 3.4366,2.9205 1.249,6.617 2.498,13.234 3.747,19.851 -1.4975,3.9475 -4.6478,7.2073 -8.4471,9.0022 -1.4871,0.4946 -3.009,-0.1799 -4.4998,-0.3257 -1.3081,-0.1765 -2.4095,-1.0114 -3.6232,-1.4886 -1.2224,-0.6076 -2.5143,-1.124 -3.6942,-1.7873 -2.1514,-2.5098 -4.3029,-5.0197 -6.4544,-7.5295 -0.7087,-3.1116 -1.5195,-6.2191 -2.1644,-9.3332 0.2455,-1.5869 0.4911,-3.1737 0.7366,-4.7606 5.7683,-2.6315 11.5365,-5.263 17.3047,-7.8945 1.2194,0.4486 2.4388,0.8971 3.6582,1.3457 z" />
    <path
       id="path11"
       style="fill:#fffefe;fill-opacity:1"
       d="m 5167.3145,951.125 c -40.4994,0.3448 -81.0566,7.22149 -119.043,21.40039 -36.2668,13.48562 -70.017,33.53611 -99.5393,58.51681 -20.3851,17.1695 -38.8003,36.6194 -55.2463,57.5778 -17.7223,22.2971 -33.7116,46.1184 -46.0124,71.8574 -13.3042,27.6709 -22.2257,57.3472 -27.339,87.592 -5.1745,30.0751 -7.0025,60.611 -7.7439,91.0833 -0.5108,23.6967 -0.3355,47.4014 -0.1255,71.1006 0.4741,35.773 2.4177,71.5648 7.0211,107.0587 6.5917,51.4784 17.9671,102.1929 30.3949,152.5344 10.8006,43.5066 22.4846,86.7879 34.3101,130.0252 10.0869,36.8274 20.4152,73.5879 30.6064,110.3867 5.0824,18.3786 10.0758,36.7818 14.9883,55.2065 0.089,0.3497 0.307,1.1609 0.4454,1.6873 0.6679,2.5237 1.3535,5.1059 1.9988,7.5455 2.758,10.4487 5.476,20.908 8.1574,31.3766 0.1431,0.5418 0.363,1.4215 0.5355,2.0928 5.0097,19.5598 9.8317,39.168 14.4118,58.833 0.1961,0.831 0.4507,1.9487 0.6692,2.8898 6.0982,26.3384 11.7159,52.7925 16.5612,79.3914 0.3294,1.8667 0.7025,3.9379 1.0487,5.8832 3.41,19.2183 6.4134,38.5102 8.8947,57.8708 4.0042,31.0568 6.7462,62.3687 8.593,93.6641 0.043,0.694 0.1108,1.8518 0.1372,2.2423 1.7718,31.2631 3.029,62.5652 3.1129,93.8821 0.042,14.8541 -0.172,29.7095 -0.6771,44.5552 -0.01,0.2778 -0.042,1.1994 -0.06,1.7246 -0.031,0.8443 -0.074,2.138 -0.098,2.6859 -0.2255,5.8495 -0.4932,11.6974 -0.8104,17.5426 -0.011,0.2523 -0.067,1.1978 -0.095,1.7171 -0.049,0.8428 -0.1186,2.1433 -0.1529,2.6835 -1.4752,25.2034 -3.9038,50.3602 -7.6287,75.3338 0.01,-0.021 -0.1712,1.1242 -0.2351,1.5477 -4.2004,27.6555 -10.0194,55.1114 -18.387,81.8205 -7.5026,23.7888 -17.0447,47.0599 -29.9695,68.4466 -4.3007,7.0956 -8.9817,13.9653 -14.0998,20.4977 -6.7787,-17.5714 -12.1523,-35.6473 -17.081,-53.8127 -0.3245,-1.2141 -0.6491,-2.4282 -0.9737,-3.6424 -0.01,-0.049 -0.289,-1.1075 -0.3988,-1.5334 -6.2589,-23.8889 -11.5401,-48.0234 -16.3414,-72.2439 -0.042,-0.2336 -0.2297,-1.1772 -0.3279,-1.6845 -2.7042,-13.7561 -5.2278,-27.5471 -7.6331,-41.3585 -0.054,-0.3359 -0.2034,-1.1833 -0.294,-1.7152 -0.9717,-5.6056 -1.9148,-11.2161 -2.8505,-16.8278 -0.052,-0.2958 -0.1945,-1.1845 -0.2812,-1.7079 -2.5157,-15.3518 -4.9306,-30.7221 -7.8077,-46.0117 -5.9594,-32.1302 -13.3105,-64.0469 -23.1809,-95.2155 -9.2738,-29.2038 -20.9052,-57.8028 -36.5649,-84.2014 -14.3489,-24.1189 -32.3234,-46.3105 -54.2945,-63.8959 -19.5954,-15.7271 -42.2814,-27.689 -66.5135,-34.4276 -32.9204,-9.2517 -68.3752,-9.3303 -101.312,-0.1118 -27.0855,7.4799 -52.3828,20.7666 -74.727,37.7124 -27.737,20.9517 -51.1252,47.2586 -70.5308,76.0028 -13.9485,20.7041 -25.8521,42.7629 -35.7894,65.6574 -12.9586,-12.6568 -25.8875,-25.344 -38.8106,-38.0371 -30.2506,-29.7054 -60.4834,-59.6845 -90.6749,-89.5483 -64.2372,-63.4403 -129.1107,-126.2518 -195.3753,-187.578 -54.6892,-50.5824 -110.3167,-100.1823 -167.6915,-147.7097 -39.2292,-32.4969 -79.304,-63.9861 -120.4556,-94.0168 -19.0763,-13.917 -38.3406,-27.5827 -57.9874,-40.685 -24.5555,-16.43 -49.5145,-32.252 -74.7208,-47.6625 -25.4485,-15.5084 -51.1883,-30.5579 -77.4691,-44.6173 -12.6144,-6.6959 -25.3873,-13.1421 -38.6068,-18.5677 -8.3361,-3.3188 -16.8868,-6.0775 -25.5088,-8.5488 -12.6115,-3.5105 -25.7617,-5.3885 -38.8633,-4.6108 -11.4748,0.6182 -22.8282,3.1564 -33.508,7.3894 -5.5241,2.0781 -10.8127,4.7641 -15.7628,7.9769 -6.9059,4.1612 -13.4393,9.0251 -18.9738,14.9142 -4.6153,4.6052 -9.078,9.3795 -13.2285,14.4043 -4.3406,8.6442 -8.9286,17.1814 -12.6961,26.0976 -1.3586,3.3522 -1.6624,6.9836 -2.3925,10.496 -1.3691,7.2548 -2.7955,14.5695 -2.7698,21.9809 0.083,3.5546 0.4391,7.0958 0.6729,10.6421 0.6414,7.6527 2.2121,15.2152 4.5757,22.519 5.6251,17.6305 16.0751,33.5617 29.44,46.3003 8.4616,8.2463 17.8678,15.4232 26.9402,22.9657 5.3125,4.7436 10.3469,9.7875 15.4395,14.7637 16.493,16.2749 32.7712,32.7661 48.9957,49.3083 3.1452,3.2127 6.2903,6.4254 9.4355,9.6381 0.4425,0.4596 1.1172,1.1458 1.6488,1.6923 56.0771,57.4663 111.6782,115.3951 167.123,173.4711 53.6285,56.1919 107.0717,112.5606 160.3299,169.1035 45.0263,47.8141 89.9158,95.7574 134.5587,143.9298 8.3395,9.01 16.6825,18.0166 25.0036,27.0435 1.1941,1.2909 2.5293,2.7461 3.7776,4.1002 11.2108,12.1675 22.3948,24.3598 33.5447,36.5834 0.3998,0.4457 1.0318,1.1347 1.5207,1.6737 10.2378,11.2376 20.437,22.5104 30.5926,33.8224 0.2702,0.2961 0.8013,0.8942 1.1713,1.3059 42.7063,47.6544 85.0961,95.5912 127.422,143.5834 56.3485,63.9563 112.5334,128.0569 168.4723,192.3718 32.9949,37.9553 65.9138,75.9774 98.6101,114.1904 4.4139,5.1625 8.8174,10.334 13.2208,15.5055 0.5043,0.5995 1.2076,1.4237 1.7884,2.1094 1.9019,2.2409 3.8038,4.4818 5.7057,6.7227 0.3167,0.3673 0.8615,1.0183 1.2656,1.4943 11.2067,13.2139 22.3169,26.5098 33.2696,39.9354 0.9636,1.1733 2.0678,2.5289 3.0854,3.7723 19.2551,23.5499 38.527,47.0863 57.7876,70.632 1.3021,-0.4343 2.6042,-0.8685 3.9063,-1.3028 31.5323,38.0504 63.1074,76.0653 94.574,114.17 21.4762,26.729 43.3621,53.125 65.1569,79.5935 63.8312,77.3244 127.9162,154.4383 191.9631,231.5845 117.1549,141.0906 234.3526,282.1498 351.5315,423.2181 124.1376,149.4027 248.2536,298.8188 372.4885,448.14 40.4132,48.5755 80.8524,97.1295 121.2539,145.7147 50.853,61.3242 101.7846,122.583 152.8053,183.7678 56.5825,67.8417 113.259,135.6052 170.0532,203.27 26.2035,31.1896 52.4229,62.366 78.7824,93.424 13.3756,15.583 26.929,31.0131 40.5776,46.3574 17.8334,19.9911 35.9515,39.7572 55.1356,58.468 14.355,13.9119 29.443,27.1913 46.1061,38.2944 15.3984,10.233 32.3053,18.4047 50.2811,22.9231 21.6197,5.4949 44.6546,5.6142 66.2283,-0.1739 19.429,-5.1368 37.5524,-14.8235 52.9843,-27.6539 12.1021,-9.9419 22.9617,-21.5415 31.2414,-34.8797 11.949,-19.0542 19.0874,-40.9154 21.8176,-63.1856 3.2744,-26.1576 0.8885,-52.9041 -6.0931,-78.2847 -4.1793,-15.0834 -10.0164,-29.7399 -17.6975,-43.3868 -9.2696,-14.2732 -19.8906,-27.5933 -30.2857,-41.0478 -23.4298,-30.0095 -47.4679,-59.5401 -71.8162,-88.8076 -17.6117,-21.0748 -35.429,-41.978 -52.8477,-63.2135 -0.4716,-0.5715 -1.0874,-1.3215 -1.4495,-1.7572 -1.961,-2.3925 -3.922,-4.7849 -5.8829,-7.1774 -0.2202,-0.276 -0.7583,-0.931 -1.1002,-1.3522 -29.7863,-36.4925 -58.8472,-73.6034 -86.2376,-111.936 -34.0541,-47.6737 -65.4545,-97.4527 -90.7168,-150.3866 -1.9351,-4.0443 -4.0452,-8.5809 -5.7758,-12.3615 -0.4513,-0.9979 -1.1041,-2.4262 -1.4274,-3.1506 -6.156,-13.6507 -11.9189,-27.4789 -17.2637,-41.4674 -0.083,-0.2078 -0.4262,-1.1207 -0.6097,-1.6007 -1.1816,-3.1009 -2.3334,-6.2131 -3.4802,-9.327 -0.021,-0.073 -0.3905,-1.0784 -0.5406,-1.4966 -10.9284,-30.0639 -20.027,-60.7706 -27.8578,-91.7788 0.01,0.051 -0.2742,-1.0999 -0.3774,-1.511 -6.2896,-25.2152 -11.8866,-50.6038 -16.8032,-76.1223 -2.9995,-15.5976 -5.7099,-31.2511 -8.1202,-46.9507 -0.07,-0.48 -0.2028,-1.3183 -0.2969,-1.9356 -3.2747,-21.6884 -6.0292,-43.4526 -8.4687,-65.2499 -0.038,-0.3166 -0.1317,-1.1933 -0.191,-1.7248 -4.7166,-42.8398 -8.3127,-85.7928 -11.609,-128.7626 -0.3049,-4.0355 -0.6099,-8.0709 -0.9149,-12.1064 -0.044,-0.6364 -0.1172,-1.596 -0.1725,-2.3564 -3.4363,-46.3662 -6.5022,-92.7585 -9.4329,-139.1592 -0.1093,-1.6865 -0.2254,-3.593 -0.3373,-5.3641 -3.4762,-55.1577 -6.7421,-110.3283 -9.9599,-165.5016 -1.3617,-23.7493 -2.8164,-47.4941 -4.6224,-71.2143 -2.2466,-29.5813 -4.8527,-59.1403 -8.2187,-88.6169 -1.8425,-15.7868 -3.8502,-31.5687 -6.7593,-47.1995 -1.7825,-9.4265 -4.0807,-18.7782 -7.4179,-27.7838 -6.4875,-17.5223 -14.7648,-34.4718 -25.574,-49.7528 -10.278,-14.6009 -22.9081,-27.6221 -37.6156,-37.7938 -16.3255,-11.3883 -35.1798,-19.1948 -54.8504,-22.3474 -11.1492,-1.8119 -22.5287,-2.1835 -33.7754,-1.1484 -0.2094,-60.9236 0.1417,-121.848 0.7913,-182.768 0.07,-6.257 0.1391,-12.5141 0.2087,-18.7711 0.012,-1.1944 0.032,-2.6422 0.049,-3.9347 0.4492,-34.69 1.0426,-69.3779 1.656,-104.0653 0.4217,-23.2566 0.9012,-46.6988 1.4166,-70.0253 0.274,-12.1165 0.5789,-24.2322 0.8939,-36.3478 0.025,-1.0306 0.063,-2.3325 0.093,-3.4674 0.098,-3.5968 0.1957,-7.1936 0.2936,-10.7904 0.015,-0.4042 0.036,-1.2001 0.053,-1.7543 0.3759,-12.9455 0.7792,-25.8901 1.2205,-38.8336 0.018,-0.4041 0.043,-1.1999 0.064,-1.7539 0.1298,-3.6497 0.2595,-7.2995 0.3892,-10.9492 0.01,-0.2943 0.046,-1.1994 0.066,-1.7283 0.4936,-13.1541 1.0401,-26.3061 1.6507,-39.4553 0.017,-0.2611 0.059,-1.1984 0.086,-1.7197 0.1849,-3.7803 0.3698,-7.5606 0.5546,-11.3408 0.01,-0.2524 0.063,-1.1981 0.089,-1.7174 1.6964,-32.937 3.8474,-65.8543 6.8331,-98.701 3.1144,-34.5736 7.0967,-69.0678 11.8903,-103.4486 3.3898,-24.4939 7.161,-48.9333 11.1269,-73.3401 1.3395,-8.237 2.735,-16.588 4.1271,-24.8641 0.2728,-1.6259 0.5456,-3.2367 0.8125,-4.7845 4.2719,-25.1048 8.7205,-50.1791 13.242,-75.24 0.2122,-1.1526 0.4642,-2.5583 0.6917,-3.8082 5.66,-31.3168 11.5718,-62.5903 16.7358,-93.9945 7.801,-47.0144 14.4343,-94.2411 18.9656,-141.6892 4.306,-45.5617 6.6525,-91.3806 5.0492,-137.1445 -1.4922,-41.6378 -6.3702,-83.3238 -17.139,-123.6391 -8.5613,-32.0162 -20.9554,-63.1059 -37.8796,-91.6432 -12.6807,-21.4182 -27.7707,-41.453 -45.2134,-59.2268 -15.8898,-16.1008 -33.6077,-30.4053 -52.7337,-42.4874 -16.8264,-10.5605 -34.9354,-19.3504 -54.1971,-24.4334 -12.5636,-3.2701 -25.5123,-4.9172 -38.4686,-5.4869 -31.2278,-1.2624 -62.6155,5.0617 -91.2314,17.5236 -29.22,12.6672 -55.6292,31.3887 -78.1833,53.7973 -31.747,31.4998 -56.1538,69.9789 -73.1401,111.2474 -9.381,22.8413 -16.5784,46.5814 -21.473,70.7838 -4.1565,20.6663 -6.5427,41.6472 -8.1823,62.6499 -3.0307,39.6187 -3.3459,79.3916 -2.668,119.103 0.9872,54.8751 4.1857,109.6876 8.3722,164.4041 5.1112,65.9991 11.9088,131.8586 19.732,197.5884 1.6004,13.606 3.2257,27.4614 4.7501,40.9186 0.3842,3.4381 0.7683,6.8763 1.1524,10.3144 0.034,0.3413 0.1295,1.1937 0.1871,1.7308 3.0485,27.747 5.9096,55.5146 8.5121,83.3071 0.055,0.5847 0.121,1.2525 0.1544,1.6456 1.3295,14.3319 2.6169,28.6677 3.83,43.0099 0.05,0.5612 0.1227,1.4619 0.1814,2.1533 0.1791,2.1416 0.3582,4.2832 0.5373,6.4248 0.026,0.3514 0.097,1.1968 0.1394,1.7375 0.3741,4.6213 0.7482,9.2427 1.1223,13.8641 0.027,0.3099 0.093,1.1968 0.1354,1.7282 2.6748,33.8419 4.9635,67.7145 6.8158,101.6116 0.021,0.3276 0.064,1.1989 0.093,1.735 0.9798,18.1308 1.8442,36.268 2.553,54.4115 0.023,0.4878 0.052,1.3328 0.077,1.9575 0.6014,15.3015 1.0937,30.6071 1.4837,45.9155 0.012,0.4043 0.029,1.2004 0.043,1.7546 0.1636,6.5384 0.3023,13.0773 0.4292,19.6165 0.01,0.4881 0.024,1.3336 0.034,1.9587 0.1115,5.5785 0.1769,11.1576 0.2548,16.7366 4e-4,0.3199 0.012,1.2005 0.017,1.7355 0.5644,48.2604 -0.023,96.5445 -2.3746,144.7548 -0.019,0.2942 -0.061,1.1988 -0.089,1.7274 -1.0477,21.0058 -2.4274,41.9964 -4.2666,62.9484 -0.025,0.243 -0.1077,1.1946 -0.155,1.7107 -0.2907,3.3266 -0.6509,7.1107 -0.9349,10.1485 -2.4253,25.1911 -5.5398,50.3218 -9.6543,75.2951 -0.012,0.045 -0.1902,1.1283 -0.2643,1.5612 -1.3272,7.923 -2.7608,15.8287 -4.3353,23.7063 -16.0168,-25.0524 -31.3581,-50.5416 -45.8008,-76.5351 -0.1071,-0.2031 -0.5782,-1.0505 -0.8258,-1.5022 -5.5213,-10.0141 -11.0251,-20.3598 -16.2182,-30.7736 -0.073,-0.138 -0.509,-1.0239 -0.7255,-1.4579 -2.9356,-5.8982 -5.7984,-11.8325 -8.5957,-17.7976 -0.049,-0.097 -0.4852,-1.042 -0.676,-1.4495 -11.9562,-25.5913 -22.5375,-51.828 -31.545,-78.6016 -11.21,-33.1749 -20.0434,-67.1299 -26.9152,-101.4598 -5.9763,-29.7738 -10.5147,-59.8245 -14.0376,-89.9832 0,-0.025 -0.1281,-1.1351 -0.1758,-1.5681 -2.3855,-20.6929 -4.2806,-41.4409 -5.8223,-62.2132 -0.032,-0.403 -0.086,-1.1976 -0.1264,-1.7505 -0.7262,-9.9518 -1.3603,-19.9102 -1.9243,-29.8725 -0.018,-0.3851 -0.067,-1.162 -0.094,-1.6973 -0.1087,-2.0299 -0.2174,-4.0599 -0.3262,-6.0898 -0.016,-0.3696 -0.061,-1.1992 -0.088,-1.745 -0.2853,-5.5025 -0.5451,-11.0064 -0.7894,-16.5109 -0.011,-0.3361 -0.05,-1.1996 -0.072,-1.7378 -1.0295,-23.803 -1.6562,-47.6219 -2.0235,-71.4438 -0.01,-0.2124 -0.016,-1.1986 -0.023,-1.71 -0.591,-42.2237 -0.3051,-84.4557 0.4876,-126.6748 0.01,-0.5633 0.029,-1.4667 0.042,-2.1605 0.8229,-41.114 2.2164,-82.2163 4.1074,-123.2949 1.4447,-31.5868 3.301,-63.1552 5.6609,-94.6872 0.022,-0.3264 0.091,-1.1971 0.1311,-1.7322 0.6511,-8.6618 1.3434,-17.3205 2.0642,-25.9767 0.031,-0.3264 0.1025,-1.1963 0.149,-1.731 1.2484,-14.8067 2.6114,-29.6036 4.0795,-44.3901 0.03,-0.3334 0.1202,-1.1947 0.1732,-1.7304 3.9098,-39.0162 8.4923,-77.9628 13.5377,-116.8478 0.066,-0.483 0.1733,-1.3225 0.2552,-1.9421 0.8194,-6.3113 1.6555,-12.6203 2.4948,-18.929 0.097,-0.739 0.2398,-1.7841 0.3543,-2.6407 1.2807,-9.5597 2.5902,-19.1156 3.9114,-28.6698 0.052,-0.3898 0.1662,-1.1892 0.242,-1.7357 10.0402,-72.0981 21.1061,-144.0487 32.4356,-215.954 5.9431,-37.744 12.0007,-75.4698 18.0837,-113.1914 6.6754,-41.333 13.2427,-82.6842 19.3883,-124.0997 7.2613,-48.9312 13.9982,-97.9479 19.4932,-147.1119 4.4098,-39.8192 7.9581,-79.7573 9.4949,-119.7991 1.2807,-34.26 1.0222,-68.638 -2.337,-102.7794 -3.5047,-35.2119 -10.5719,-70.2089 -22.8676,-103.4469 -9.3184,-25.3698 -21.6562,-49.5986 -36.3703,-72.2584 -10.6141,-16.3613 -22.4057,-31.9796 -35.4779,-46.4598 -18.9624,-20.9092 -40.9333,-39.2186 -65.5143,-53.17202 -25.4341,-14.48431 -53.4277,-24.30132 -82.1919,-29.57385 -23.0612,-4.29901 -46.5732,-5.82892 -70.0076,-5.66393 z" />
    <path
       id="path12"
       style="fill:#fffefe;fill-opacity:1"
       d="m 7775.9844,4085.7754 c -7.989,0.074 -15.9779,0.1541 -23.9668,0.2305 0.2743,0.8871 -0.751,0.5529 -1.2975,0.6687 -36.3256,2.3334 -72.4655,9.3217 -106.6259,22.0196 -36.3925,13.4788 -70.488,33.4333 -99.447,59.3288 -27.1981,24.2663 -49.8404,53.5797 -66.6422,85.9166 -16.9017,32.3754 -28.1106,67.5952 -34.0758,103.59 -7.783,46.4715 -7.0818,94.1002 -0.5006,140.6708 2.8133,19.8241 6.5879,39.5211 11.5355,58.9257 7.7839,29.8009 18.6248,58.7033 30.4669,87.1033 16.1196,38.4123 34.4885,75.8477 54.0943,112.5916 21.8612,40.8283 45.4224,80.7518 70.7327,119.5382 18.6114,28.4697 38.2366,56.2967 59.307,83.0053 10.0451,12.6456 20.357,25.1156 31.6434,36.6819 9.9379,10.1172 21.0412,19.2793 33.7115,25.7719 13.393,6.9788 28.2622,11.1475 43.3522,11.9524 7.3585,0.519 14.7588,-0.051 22.0436,-1.1254 15.1676,-2.3002 29.7714,-7.9147 42.7497,-16.0658 10.6893,-6.6653 20.2844,-14.9496 29.0534,-23.9627 12.1351,-12.3602 22.9457,-25.931 33.5311,-39.6173 17.8073,-23.2235 34.4103,-47.3412 50.6196,-71.6981 22.4196,-33.8708 43.7433,-68.4684 63.9005,-103.7326 15.6141,-27.4375 30.4072,-55.3562 43.8886,-83.9064 24.8352,-52.9853 44.1113,-108.7163 55.5435,-166.154 8.9778,-45.3614 12.9881,-91.8614 9.8725,-138.0553 -2.6285,-38.549 -10.3685,-76.912 -24.6726,-112.8731 -12.6524,-31.8376 -30.5823,-61.6946 -53.6145,-87.1152 -16.4521,-18.2243 -35.518,-34.0716 -56.4023,-46.9767 -29.5178,-18.4053 -62.089,-31.556 -95.5762,-40.7381 -38.1167,-10.4106 -77.6086,-15.646 -117.1074,-15.9709 -2.0391,-0.014 -4.0781,-0.011 -6.1172,-0 z" />
    <path
       id="path13"
       style="fill:#fffefe;fill-opacity:1"
       inkscape:label="path13"
       d="m 6758.6152,3600.373 c -33.7109,0.1177 -67.4218,0.2356 -101.1328,0.3536 0.7897,3.0306 1.5794,6.0612 2.3692,9.0918 -24.5513,4.7178 -48.8115,11.3154 -71.9671,20.8094 -16.8577,6.8982 -33.088,15.2942 -48.6178,24.802 -32.3897,19.9086 -61.5146,45.1186 -85.821,74.3554 -29.0016,34.784 -51.257,75.0829 -65.8204,117.9404 -14.6628,42.9802 -21.6914,88.465 -21.5146,133.8474 0.205,26.5616 3.4583,53.0083 8.0527,79.1401 5.7211,32.1838 13.5828,63.9641 22.8875,95.2919 9.7957,32.8487 21.2544,65.215 34.6444,96.7743 8.4463,19.8119 17.7818,39.2454 28.0266,58.1906 15.3913,28.7742 32.0019,56.8762 48.9873,84.7326 22.4258,36.6115 45.7681,72.6622 70.0035,108.1018 17.0182,24.8564 34.5241,49.3947 53.0508,73.1539 7.6081,9.7266 15.5481,19.1876 23.6158,28.5346 35.8143,42.3182 71.6291,84.636 107.443,126.9545 38.8988,-44.6242 77.8494,-89.203 116.6696,-133.8953 19.1428,-22.6353 36.6866,-46.5581 53.9608,-70.6314 26.7737,-37.5121 52.365,-75.8577 77.2015,-114.676 20.1358,-31.5722 39.6976,-63.5241 58.0494,-96.1703 9.4286,-16.7962 18.3167,-33.9015 26.404,-51.3858 25.8368,-55.038 46.3475,-112.8509 57.5913,-172.6993 7.8464,-41.6641 11.1595,-84.1958 9.5943,-126.5698 -0.8837,-24.191 -3.2388,-48.344 -7.385,-72.1983 -5.7783,-33.0019 -15.3154,-65.4613 -29.7133,-95.763 -13.1872,-27.8326 -30.4859,-53.7268 -51.2992,-76.437 -19.5639,-21.4152 -42.1498,-39.9744 -66.5092,-55.6807 -20.9918,-13.5453 -43.2569,-25.0672 -66.2188,-34.8847 -27.9528,-11.7787 -57.5558,-19.2417 -87.4453,-24.1015 -31.4205,-5.0974 -63.2903,-7.1875 -95.1072,-6.9812 z" />
  </g>
  <g
     transform="matrix(0.0721854,0,0,-0.0721854,-83.803588,667.55869)"
     fill="#000000"
     stroke="none"
     id="g26">
    <path
       d="m 7501,9144 c -176,-47 -294,-180 -322,-364 -10,-63 -9,-88 4,-154 9,-43 18,-80 20,-83 3,-2 35,19 71,47 37,27 73,50 81,50 13,0 524,-337 554,-366 11,-10 12,-16 2,-28 -7,-8 -21,-42 -31,-75 l -18,-61 h 64 c 115,0 227,51 307,139 131,146 142,393 24,580 -93,147 -265,267 -452,316 -74,19 -232,19 -304,-1 z"
       id="path14" />
    <path
       d="m 6030,8535 c -105,-152 -104,-265 0,-296 28,-9 47,-8 74,1 101,33 102,146 3,292 -18,27 -35,48 -39,48 -4,0 -21,-20 -38,-45 z m 10,-175 c 0,-11 -6,-20 -14,-20 -18,0 -29,16 -21,30 11,18 35,11 35,-10 z"
       id="path15" />
    <path
       d="m 7255,8438 c -72,-91 -287,-361 -1090,-1370 -135,-169 -245,-309 -245,-312 0,-3 60,-34 133,-70 214,-104 425,-233 589,-357 43,-33 82,-59 87,-59 5,0 50,78 101,173 51,94 99,182 106,194 13,21 10,25 -69,79 -110,77 -417,305 -417,310 0,10 309,-141 469,-230 l 80,-44 54,96 c 113,201 177,321 177,331 0,5 -44,40 -97,77 -152,104 -292,208 -288,212 2,3 98,-39 212,-93 114,-53 213,-99 219,-101 9,-4 156,244 182,307 2,3 -64,53 -145,109 -193,134 -255,181 -250,186 4,4 179,-73 345,-152 l 103,-50 23,41 c 84,146 277,508 274,515 -4,13 -447,310 -461,310 -7,0 -48,-46 -92,-102 z"
       id="path16" />
    <path
       d="m 4311,8210 c -34,-49 -78,-124 -99,-167 -35,-73 -37,-84 -37,-174 0,-89 2,-98 28,-132 41,-54 98,-80 177,-80 218,0 278,203 136,458 -42,74 -123,185 -135,185 -5,0 -36,-40 -70,-90 z"
       id="path17" />
    <path
       d="m 3133,7532 c -23,-31 -59,-90 -80,-131 -31,-60 -38,-86 -41,-145 -3,-61 -1,-76 20,-106 32,-48 80,-70 152,-70 174,0 223,152 114,350 -35,63 -105,160 -116,160 -4,0 -26,-26 -49,-58 z m 7,-242 c 17,-17 18,-24 10,-41 -16,-29 -38,-34 -60,-14 -24,22 -25,33 -3,57 21,23 28,23 53,-2 z"
       id="path18" />
    <path
       d="m 4989,7082 c -44,-46 -61,-72 -77,-123 -42,-130 -47,-115 75,-211 135,-107 327,-305 415,-429 103,-144 248,-441 248,-506 0,-16 -291,-435 -985,-1418 -210,-297 -450,-639 -535,-760 -84,-121 -165,-236 -179,-255 -18,-25 -20,-31 -7,-20 49,38 916,1105 1692,2080 94,118 177,220 185,227 41,33 258,42 442,18 291,-38 557,-138 806,-303 l 84,-55 46,24 c 64,33 142,114 174,179 47,98 54,87 -148,228 -455,316 -1076,722 -1490,974 -199,121 -390,238 -537,329 -70,44 -133,79 -140,79 -6,0 -37,-26 -69,-58 z"
       id="path19" />
    <path
       d="m 7805,6949 c -96,-131 -148,-275 -126,-355 39,-146 269,-169 339,-34 36,69 26,149 -33,265 -48,96 -109,185 -125,185 -6,0 -30,-27 -55,-61 z m 9,-255 c 31,-31 13,-74 -31,-74 -55,0 -47,83 9,89 4,1 14,-6 22,-15 z"
       id="path20" />
    <path
       d="m 4041,6436 c -212,-286 -277,-505 -196,-655 81,-149 322,-177 446,-52 99,98 104,254 15,446 -55,119 -187,315 -213,315 -7,0 -30,-24 -52,-54 z"
       id="path21" />
    <path
       d="M 4808,5783 C 3979,4552 3294,3512 3304,3502 c 4,-3 157,38 360,97 38,11 66,17 62,13 -4,-4 -125,-68 -269,-142 l -262,-135 -63,-115 c -35,-63 -116,-213 -179,-333 l -115,-218 16,-452 c 9,-248 16,-459 15,-467 0,-8 -20,80 -44,195 -25,116 -59,275 -76,353 -38,167 -26,172 -117,-48 -174,-423 -290,-808 -328,-1092 -7,-59 -11,-114 -8,-123 21,-53 304,103 595,327 216,167 347,284 639,577 306,306 465,478 842,908 l 238,272 -7,62 c -7,68 -9,67 63,44 17,-5 49,28 214,227 106,128 203,243 214,256 l 20,23 -134,136 c -74,74 -128,132 -120,128 8,-5 79,-50 156,-102 78,-51 146,-93 150,-93 8,1 219,255 994,1194 228,276 380,465 380,471 0,3 -126,5 -280,5 -158,0 -280,-4 -280,-9 0,-12 -117,-137 -550,-586 -195,-203 -400,-417 -455,-475 -145,-153 -432,-475 -413,-464 9,5 182,165 385,355 376,354 707,656 778,712 l 40,31 -44,-49 c -50,-57 -366,-387 -699,-732 -241,-250 -225,-227 -257,-367 l -6,-29 -29,28 c -23,22 -34,26 -48,19 -20,-10 -922,-927 -936,-951 -4,-9 -28,-70 -51,-136 l -42,-121 -22,48 c -11,26 -25,46 -29,44 -5,-1 -40,-42 -78,-89 -98,-122 -318,-378 -322,-375 -1,2 90,155 203,340 113,185 302,500 421,699 299,500 581,966 891,1470 145,235 263,430 263,434 0,3 -10,20 -23,37 -13,17 -26,36 -30,42 -4,7 21,22 70,40 60,23 80,36 98,64 13,19 78,125 145,235 67,110 130,212 141,227 l 20,28 -37,87 c -73,179 -147,343 -154,343 -4,0 -185,-264 -402,-587 z"
       id="path22" />
    <path
       d="m 2711,5530 c -51,-64 -137,-195 -184,-280 -97,-176 -128,-368 -76,-480 32,-69 78,-115 149,-149 48,-23 68,-26 155,-26 87,0 107,4 155,26 76,36 115,71 145,133 56,114 40,277 -44,451 -44,92 -185,307 -229,348 l -30,29 z m -21,-530 c 43,-43 22,-120 -36,-134 -28,-7 -79,16 -88,39 -31,82 64,155 124,95 z"
       id="path23" />
    <path
       d="m 6267,4978 c -62,-73 -248,-295 -412,-493 -165,-198 -464,-558 -665,-800 -201,-242 -394,-474 -428,-517 l -63,-76 16,-57 c 9,-31 14,-59 12,-62 -3,-3 -28,3 -56,12 l -51,17 -27,-33 c -83,-100 -356,-411 -458,-524 -173,-191 -592,-630 -628,-659 -30,-24 -30,-25 -6,-17 31,11 145,79 214,129 133,95 281,226 501,444 132,131 243,238 246,238 3,0 8,-26 12,-57 13,-119 89,-223 162,-223 68,0 110,72 135,230 48,301 112,384 215,276 82,-86 119,-239 111,-456 -6,-159 -23,-254 -86,-481 -84,-300 -95,-355 -95,-484 -1,-131 11,-175 68,-243 50,-58 112,-87 187,-87 74,0 118,23 158,81 65,95 66,205 6,579 -71,438 -85,562 -92,795 -9,337 16,520 97,688 36,76 109,190 161,252 l 21,25 24,-30 c 89,-110 107,-477 49,-960 -30,-251 -36,-444 -16,-522 25,-102 100,-171 170,-157 18,4 46,23 66,45 75,84 85,227 35,503 -55,298 -61,369 -67,739 -3,191 -2,377 2,414 l 7,66 29,-51 c 50,-88 94,-99 119,-30 6,18 15,107 20,198 22,379 32,492 54,601 45,222 112,348 312,585 56,66 106,130 113,141 14,28 14,66 -1,81 -31,31 -56,13 -171,-120 z m -511,-912 c 14,-36 -90,-170 -159,-205 -67,-35 -57,52 15,134 65,74 131,106 144,71 z m -368,-408 c 9,-9 6,-18 -15,-40 -24,-26 -53,-37 -53,-22 0,12 41,74 49,74 4,0 12,-5 19,-12 z M 5256,1255 c 4,-16 0,-34 -10,-50 -46,-70 -118,-72 -178,-4 -42,46 -51,77 -19,59 28,-15 122,-12 151,5 36,21 49,18 56,-10 z"
       id="path24" />
    <path
       d="m 7722,4856 c -75,-106 -149,-251 -168,-331 -38,-165 17,-289 145,-325 89,-25 208,-3 264,48 86,78 85,250 -4,424 -53,106 -157,258 -175,258 -5,0 -33,-33 -62,-74 z"
       id="path25" />
    <path
       d="m 6731,4534 c -47,-53 -146,-205 -188,-288 -40,-79 -73,-199 -73,-266 0,-113 58,-209 152,-251 74,-33 210,-33 283,0 101,45 146,113 153,231 5,87 -14,172 -60,268 -33,71 -148,246 -200,306 l -34,39 z"
       id="path26" />
  </g>
</svg>
