<?xml version="1.0" encoding="UTF-8" standalone="no"?>
<svg
   version="1.0"
   width="1024.000000pt"
   height="1024.000000pt"
   viewBox="0 0 1024.000000 1024.000000"
   preserveAspectRatio="xMidYMid meet"
   id="svg13"
   sodipodi:docname="bleed.svg"
   inkscape:version="1.3.2 (091e20ef0f, 2023-11-25, custom)"
   xmlns:inkscape="http://www.inkscape.org/namespaces/inkscape"
   xmlns:sodipodi="http://sodipodi.sourceforge.net/DTD/sodipodi-0.dtd"
   xmlns="http://www.w3.org/2000/svg"
   xmlns:svg="http://www.w3.org/2000/svg">
  <defs
     id="defs13" />
  <sodipodi:namedview
     id="namedview13"
     pagecolor="#ffffff"
     bordercolor="#000000"
     borderopacity="0.25"
     inkscape:showpageshadow="2"
     inkscape:pageopacity="0.0"
     inkscape:pagecheckerboard="0"
     inkscape:deskcolor="#d1d1d1"
     inkscape:document-units="pt"
     inkscape:zoom="0.59985352"
     inkscape:cx="682.66667"
     inkscape:cy="682.66667"
     inkscape:window-width="1872"
     inkscape:window-height="1032"
     inkscape:window-x="48"
     inkscape:window-y="-36"
     inkscape:window-maximized="1"
     inkscape:current-layer="svg13" />
  <g
     transform="matrix(0.12089982,0,0,-0.12089982,-111.12256,1130.4192)"
     fill="#000000"
     stroke="none"
     id="g13">
    <path
       d="m 7501,9144 c -176,-47 -294,-180 -322,-364 -10,-63 -9,-88 4,-154 9,-43 18,-80 20,-83 3,-2 35,19 71,47 37,27 73,50 81,50 13,0 524,-337 554,-366 11,-10 12,-16 2,-28 -7,-8 -21,-42 -31,-75 l -18,-61 h 64 c 115,0 227,51 307,139 131,146 142,393 24,580 -93,147 -265,267 -452,316 -74,19 -232,19 -304,-1 z"
       id="path1" />
    <path
       d="m 6030,8535 c -105,-152 -104,-265 0,-296 28,-9 47,-8 74,1 101,33 102,146 3,292 -18,27 -35,48 -39,48 -4,0 -21,-20 -38,-45 z m 10,-175 c 0,-11 -6,-20 -14,-20 -18,0 -29,16 -21,30 11,18 35,11 35,-10 z"
       id="path2" />
    <path
       d="m 7255,8438 c -72,-91 -287,-361 -1090,-1370 -135,-169 -245,-309 -245,-312 0,-3 60,-34 133,-70 214,-104 425,-233 589,-357 43,-33 82,-59 87,-59 5,0 50,78 101,173 51,94 99,182 106,194 13,21 10,25 -69,79 -110,77 -417,305 -417,310 0,10 309,-141 469,-230 l 80,-44 54,96 c 113,201 177,321 177,331 0,5 -44,40 -97,77 -152,104 -292,208 -288,212 2,3 98,-39 212,-93 114,-53 213,-99 219,-101 9,-4 156,244 182,307 2,3 -64,53 -145,109 -193,134 -255,181 -250,186 4,4 179,-73 345,-152 l 103,-50 23,41 c 84,146 277,508 274,515 -4,13 -447,310 -461,310 -7,0 -48,-46 -92,-102 z"
       id="path3" />
    <path
       d="m 4311,8210 c -34,-49 -78,-124 -99,-167 -35,-73 -37,-84 -37,-174 0,-89 2,-98 28,-132 41,-54 98,-80 177,-80 218,0 278,203 136,458 -42,74 -123,185 -135,185 -5,0 -36,-40 -70,-90 z"
       id="path4" />
    <path
       d="m 3133,7532 c -23,-31 -59,-90 -80,-131 -31,-60 -38,-86 -41,-145 -3,-61 -1,-76 20,-106 32,-48 80,-70 152,-70 174,0 223,152 114,350 -35,63 -105,160 -116,160 -4,0 -26,-26 -49,-58 z m 7,-242 c 17,-17 18,-24 10,-41 -16,-29 -38,-34 -60,-14 -24,22 -25,33 -3,57 21,23 28,23 53,-2 z"
       id="path5" />
    <path
       d="m 4989,7082 c -44,-46 -61,-72 -77,-123 -42,-130 -47,-115 75,-211 135,-107 327,-305 415,-429 103,-144 248,-441 248,-506 0,-16 -291,-435 -985,-1418 -210,-297 -450,-639 -535,-760 -84,-121 -165,-236 -179,-255 -18,-25 -20,-31 -7,-20 49,38 916,1105 1692,2080 94,118 177,220 185,227 41,33 258,42 442,18 291,-38 557,-138 806,-303 l 84,-55 46,24 c 64,33 142,114 174,179 47,98 54,87 -148,228 -455,316 -1076,722 -1490,974 -199,121 -390,238 -537,329 -70,44 -133,79 -140,79 -6,0 -37,-26 -69,-58 z"
       id="path6" />
    <path
       d="m 7805,6949 c -96,-131 -148,-275 -126,-355 39,-146 269,-169 339,-34 36,69 26,149 -33,265 -48,96 -109,185 -125,185 -6,0 -30,-27 -55,-61 z m 9,-255 c 31,-31 13,-74 -31,-74 -55,0 -47,83 9,89 4,1 14,-6 22,-15 z"
       id="path7" />
    <path
       d="m 4041,6436 c -212,-286 -277,-505 -196,-655 81,-149 322,-177 446,-52 99,98 104,254 15,446 -55,119 -187,315 -213,315 -7,0 -30,-24 -52,-54 z"
       id="path8" />
    <path
       d="M 4808,5783 C 3979,4552 3294,3512 3304,3502 c 4,-3 157,38 360,97 38,11 66,17 62,13 -4,-4 -125,-68 -269,-142 l -262,-135 -63,-115 c -35,-63 -116,-213 -179,-333 l -115,-218 16,-452 c 9,-248 16,-459 15,-467 0,-8 -20,80 -44,195 -25,116 -59,275 -76,353 -38,167 -26,172 -117,-48 -174,-423 -290,-808 -328,-1092 -7,-59 -11,-114 -8,-123 21,-53 304,103 595,327 216,167 347,284 639,577 306,306 465,478 842,908 l 238,272 -7,62 c -7,68 -9,67 63,44 17,-5 49,28 214,227 106,128 203,243 214,256 l 20,23 -134,136 c -74,74 -128,132 -120,128 8,-5 79,-50 156,-102 78,-51 146,-93 150,-93 8,1 219,255 994,1194 228,276 380,465 380,471 0,3 -126,5 -280,5 -158,0 -280,-4 -280,-9 0,-12 -117,-137 -550,-586 -195,-203 -400,-417 -455,-475 -145,-153 -432,-475 -413,-464 9,5 182,165 385,355 376,354 707,656 778,712 l 40,31 -44,-49 c -50,-57 -366,-387 -699,-732 -241,-250 -225,-227 -257,-367 l -6,-29 -29,28 c -23,22 -34,26 -48,19 -20,-10 -922,-927 -936,-951 -4,-9 -28,-70 -51,-136 l -42,-121 -22,48 c -11,26 -25,46 -29,44 -5,-1 -40,-42 -78,-89 -98,-122 -318,-378 -322,-375 -1,2 90,155 203,340 113,185 302,500 421,699 299,500 581,966 891,1470 145,235 263,430 263,434 0,3 -10,20 -23,37 -13,17 -26,36 -30,42 -4,7 21,22 70,40 60,23 80,36 98,64 13,19 78,125 145,235 67,110 130,212 141,227 l 20,28 -37,87 c -73,179 -147,343 -154,343 -4,0 -185,-264 -402,-587 z"
       id="path9" />
    <path
       d="m 2711,5530 c -51,-64 -137,-195 -184,-280 -97,-176 -128,-368 -76,-480 32,-69 78,-115 149,-149 48,-23 68,-26 155,-26 87,0 107,4 155,26 76,36 115,71 145,133 56,114 40,277 -44,451 -44,92 -185,307 -229,348 l -30,29 z m -21,-530 c 43,-43 22,-120 -36,-134 -28,-7 -79,16 -88,39 -31,82 64,155 124,95 z"
       id="path10" />
    <path
       d="m 6267,4978 c -62,-73 -248,-295 -412,-493 -165,-198 -464,-558 -665,-800 -201,-242 -394,-474 -428,-517 l -63,-76 16,-57 c 9,-31 14,-59 12,-62 -3,-3 -28,3 -56,12 l -51,17 -27,-33 c -83,-100 -356,-411 -458,-524 -173,-191 -592,-630 -628,-659 -30,-24 -30,-25 -6,-17 31,11 145,79 214,129 133,95 281,226 501,444 132,131 243,238 246,238 3,0 8,-26 12,-57 13,-119 89,-223 162,-223 68,0 110,72 135,230 48,301 112,384 215,276 82,-86 119,-239 111,-456 -6,-159 -23,-254 -86,-481 -84,-300 -95,-355 -95,-484 -1,-131 11,-175 68,-243 50,-58 112,-87 187,-87 74,0 118,23 158,81 65,95 66,205 6,579 -71,438 -85,562 -92,795 -9,337 16,520 97,688 36,76 109,190 161,252 l 21,25 24,-30 c 89,-110 107,-477 49,-960 -30,-251 -36,-444 -16,-522 25,-102 100,-171 170,-157 18,4 46,23 66,45 75,84 85,227 35,503 -55,298 -61,369 -67,739 -3,191 -2,377 2,414 l 7,66 29,-51 c 50,-88 94,-99 119,-30 6,18 15,107 20,198 22,379 32,492 54,601 45,222 112,348 312,585 56,66 106,130 113,141 14,28 14,66 -1,81 -31,31 -56,13 -171,-120 z m -511,-912 c 14,-36 -90,-170 -159,-205 -67,-35 -57,52 15,134 65,74 131,106 144,71 z m -368,-408 c 9,-9 6,-18 -15,-40 -24,-26 -53,-37 -53,-22 0,12 41,74 49,74 4,0 12,-5 19,-12 z M 5256,1255 c 4,-16 0,-34 -10,-50 -46,-70 -118,-72 -178,-4 -42,46 -51,77 -19,59 28,-15 122,-12 151,5 36,21 49,18 56,-10 z"
       id="path11" />
    <path
       d="m 7722,4856 c -75,-106 -149,-251 -168,-331 -38,-165 17,-289 145,-325 89,-25 208,-3 264,48 86,78 85,250 -4,424 -53,106 -157,258 -175,258 -5,0 -33,-33 -62,-74 z"
       id="path12" />
    <path
       d="m 6731,4534 c -47,-53 -146,-205 -188,-288 -40,-79 -73,-199 -73,-266 0,-113 58,-209 152,-251 74,-33 210,-33 283,0 101,45 146,113 153,231 5,87 -14,172 -60,268 -33,71 -148,246 -200,306 l -34,39 z"
       id="path13" />
  </g>
</svg>
