<?xml version="1.0" encoding="UTF-8" standalone="no"?>
<svg
   version="1.0"
   width="600pt"
   height="600pt"
   viewBox="0 0 600 600"
   preserveAspectRatio="xMidYMid"
   id="svg4"
   sodipodi:docname="fire.svg"
   inkscape:version="1.3.2 (091e20e, 2023-11-25, custom)"
   xmlns:inkscape="http://www.inkscape.org/namespaces/inkscape"
   xmlns:sodipodi="http://sodipodi.sourceforge.net/DTD/sodipodi-0.dtd"
   xmlns="http://www.w3.org/2000/svg"
   xmlns:svg="http://www.w3.org/2000/svg">
  <defs
     id="defs4" />
  <sodipodi:namedview
     id="namedview4"
     pagecolor="#ffffff"
     bordercolor="#000000"
     borderopacity="0.25"
     inkscape:showpageshadow="2"
     inkscape:pageopacity="0.0"
     inkscape:pagecheckerboard="0"
     inkscape:deskcolor="#d1d1d1"
     inkscape:document-units="pt"
     inkscape:zoom="0.84832098"
     inkscape:cx="450.30125"
     inkscape:cy="382.5203"
     inkscape:window-width="2560"
     inkscape:window-height="1369"
     inkscape:window-x="1912"
     inkscape:window-y="515"
     inkscape:window-maximized="1"
     inkscape:current-layer="svg4" />
  <g
     transform="matrix(0.10848596,0,0,-0.1009724,-253.48674,816.63145)"
     fill="#000000"
     stroke="none"
     id="g8"
     inkscape:label="backdrop">
    <path
       id="path5"
       d="m 4406.5879,4812.3613 c -17.0902,0.083 -33.8701,6.2038 -47.6414,16.1917 -13.3199,9.583 -24.2616,21.9315 -35.3078,33.949 -9.8565,10.8404 -19.4337,21.9543 -28.2107,33.6939 -19.5334,25.8494 -36.3715,53.6425 -51.5268,82.251 -19.328,36.6061 -35.7513,74.6878 -50.307,113.4213 -22.0348,58.8449 -39.5383,119.3285 -53.6236,180.5454 -15.5373,67.7658 -26.7279,136.5288 -33.4839,205.724 -2.5258,26.1022 -4.4747,52.2677 -5.4548,78.4757 -2.5263,68.8522 1.3588,137.8212 9.1717,206.2355 9.2729,80.6156 24.1789,160.5185 42.9364,239.4453 18.099,76.0409 39.8574,151.1929 64.563,225.3444 8.7899,26.2052 17.9787,52.2749 27.2925,78.2977 17.1672,47.7781 35.0741,95.2955 54.0332,142.3928 9.5825,23.7019 19.4201,47.3096 30.0795,70.5504 5.7918,12.5485 11.7895,25.0332 18.8536,36.9246 6.0273,10.0469 13.3014,19.5295 22.5772,26.7917 11.7605,9.3534 26.3808,15.1649 41.4141,16.0013 16.9704,1.0307 34.2285,-4.0407 47.9479,-14.0823 10.4937,-7.5587 18.8236,-17.7439 25.5528,-28.7064 8.2637,-13.1929 15.0328,-27.2387 21.7644,-41.2528 12.2849,-25.9146 23.4713,-52.3312 34.4455,-78.822 13.3586,-32.4461 26.1108,-65.1426 38.2465,-98.0655 21.978,33.033 44.4089,65.7629 67.1098,98.3028 35.8162,51.3188 72.2771,102.1888 109.471,152.5186 12.7106,17.2069 25.5329,34.3308 38.3671,51.4456 2.5981,3.4767 5.1962,6.9535 7.7942,10.4302 0.7857,1.0499 1.712,2.2994 2.5517,3.4261 17.6531,23.6944 35.2118,47.4594 52.589,71.3571 0.9759,1.3384 2.076,2.8592 3.0996,4.2677 1.5061,2.0776 3.0509,4.1965 4.4998,6.2069 29.4167,40.6701 58.3779,81.6811 86.1701,123.4825 0.2237,0.3452 0.6624,1.0013 0.9685,1.4656 17.1358,25.8378 33.8245,51.9786 49.7053,78.6086 0.1901,0.3272 0.6128,1.0326 0.8919,1.5046 3.5637,5.9852 7.0718,12.0033 10.5437,18.0423 0.1761,0.3015 0.5958,1.0424 0.8653,1.5122 4.392,7.6739 8.6997,15.396 12.9237,23.1635 0.1385,0.2498 0.5703,1.0561 0.8215,1.5197 5.7465,10.6246 11.3248,21.3408 16.6766,32.1698 0.1434,0.2851 0.5296,1.0774 0.7662,1.557 4.7983,9.7572 9.4185,19.6023 13.8295,29.5407 0.1201,0.2623 0.4847,1.098 0.6987,1.5806 13.5433,30.6549 24.9619,62.271 33.6462,94.6482 3.3105,12.2768 6.2628,24.6497 8.8856,37.0915 0.066,0.332 0.2443,1.1755 0.3532,1.7036 3.0402,14.6722 5.6796,29.4302 7.8327,44.259 0.678,4.8059 1.268,9.6245 1.7379,14.4553 0.01,0.042 0.1057,1.1391 0.1469,1.5756 2.0904,22.2996 2.2403,44.7559 0.9546,67.108 -0,-0.054 -0.065,1.0436 -0.092,1.4278 -1.1385,18.4401 -3.2463,36.8159 -6.1719,55.0566 -0.04,0.2618 -0.1928,1.1843 -0.2762,1.7003 -0.4297,2.6547 -0.8866,5.3048 -1.3488,7.954 -0.051,0.2612 -0.2126,1.1809 -0.3062,1.6955 -3.3594,18.7393 -7.5509,37.3266 -12.4497,55.7225 -7.5025,28.2034 -16.7069,56.0952 -27.274,83.3554 -0.2928,0.7565 -0.5856,1.513 -0.8783,2.2696 -0.026,0.076 -0.4217,1.0669 -0.5844,1.4812 -7.5632,19.2164 -15.8252,38.2901 -24.7247,56.9781 -0.7016,1.4855 -1.5451,3.2256 -2.172,4.5428 -2.1625,4.4853 -4.3649,8.9512 -6.5971,13.4022 -0.1457,0.2964 -0.5407,1.0719 -0.782,1.552 -20.1157,39.8672 -43.0649,78.2991 -68.5441,114.9695 -0.2016,0.2947 -0.6871,0.9847 -0.9974,1.4308 -6.5908,9.4106 -13.2826,18.7556 -20.2872,27.8637 -9.1814,11.8084 -18.9496,23.1456 -28.8172,34.3819 -0.5599,0.6365 -1.3688,1.5507 -1.7694,2.0096 -1.6315,1.8332 -3.263,3.6663 -4.8944,5.4995 -0.2114,0.2284 -0.8027,0.8927 -1.1598,1.2884 -21.1788,23.6154 -43.0414,46.6149 -65.4396,69.0757 -12.2905,12.3226 -24.8197,24.4049 -37.5107,36.3141 -28.5692,27.0246 -57.165,54.0187 -85.6991,81.0791 -3.886,3.8073 -7.0981,8.2242 -10.0991,12.743 -36.3795,52.5155 -72.7597,105.0306 -109.1386,157.5466 65.3996,-17.4348 130.7987,-34.8712 196.1992,-52.3028 38.1324,-19.2898 76.2965,-38.5133 114.3816,-57.8961 48.6035,-25.0632 96.0667,-52.335 142.2157,-81.6725 44.0894,-28.0389 86.9729,-57.9737 128.4961,-89.6893 76.3964,-58.3737 148.1855,-122.8027 214.2097,-192.7012 45.5874,-48.2759 88.4307,-99.1568 128.0173,-152.4685 36.9793,-49.7877 71.1343,-101.6869 101.9768,-155.4967 33.036,-57.6267 62.2554,-117.4608 86.9977,-179.1121 8.5217,-21.2667 16.5184,-42.7407 24.2143,-64.3188 25.2743,-71.1853 45.7931,-144.0909 60.6413,-218.1677 14.4912,-72.0449 23.68,-145.1273 28.1087,-218.4722 2.5551,-41.7189 3.5644,-83.5236 3.4105,-125.3177 -0.066,-35.1237 -1.068,-70.248 -3.2168,-105.3073 -4.9082,-80.7461 -15.4565,-161.1904 -32.4283,-240.3001 -13.3961,-62.3229 -30.8281,-123.8277 -53.1698,-183.5491 -19.7361,-52.6682 -43.355,-103.9693 -71.9609,-152.4311 -23.0608,-39.0002 -49.4485,-76.1457 -79.9404,-109.7061 -30.7317,-33.7944 -65.8109,-63.9401 -105.3078,-87.0558 -11.1054,-6.5107 -22.5654,-12.4055 -34.2655,-17.7711 -15.4003,-7.2266 -30.7724,-14.6074 -46.8008,-20.3619 -13.0038,-4.608 -26.7271,-7.7104 -40.5898,-7.3581 -14.356,0.288 -28.6729,4.264 -40.9399,11.7714 -13.2611,8.05 -24.0693,20.0667 -30.6541,34.1153 -5.8226,12.2315 -8.5115,25.8134 -8.6026,39.321 -0.2209,14.9333 2.2879,29.7213 4.8305,44.3843 2.0372,11.4233 4.3239,22.8007 6.3316,34.2294 0.088,0.4786 0.232,1.3135 0.3414,1.9286 1.339,7.5541 2.626,15.1173 3.8754,22.6866 0.068,0.3971 0.1936,1.185 0.2837,1.7317 5.1527,31.5318 9.5063,63.1945 13.0288,94.95 0.046,0.3926 0.1308,1.1935 0.1916,1.7425 0.3924,3.5428 0.767,7.0876 1.1404,10.6325 0.038,0.401 0.1222,1.1944 0.178,1.7456 1.9166,18.5525 3.5578,37.1334 4.9197,55.7349 0.9104,12.452 1.69,25.065 2.3646,37.5906 0.092,1.7938 0.1997,3.8759 0.2787,5.4878 1.666,33.8226 2.4475,67.6901 2.2618,101.5539 -0.01,4.3681 -0.059,8.736 -0.091,13.104 -0,0.3477 -0.013,1.1862 -0.021,1.7234 -0.2704,18.8496 -0.7572,37.6485 -1.589,56.5007 -0.3257,7.7666 -0.7278,15.5296 -1.1479,23.2915 -0.012,0.2688 -0.07,1.198 -0.099,1.7208 -1.0847,19.1543 -2.4665,38.2916 -4.1314,57.4042 -0.022,0.2756 -0.1073,1.1953 -0.1537,1.7185 -1.9813,22.479 -4.3845,44.9389 -7.1764,67.3128 -0.046,0.3323 -0.1516,1.191 -0.2206,1.7251 -0.2793,2.2016 -0.5586,4.4033 -0.8379,6.6049 -0.043,0.3566 -0.1481,1.1402 -0.2149,1.6602 -3.6264,27.7687 -7.8671,55.4567 -12.7226,83.0371 -0.064,0.3779 -0.2082,1.1825 -0.3028,1.7238 -0.2436,1.3639 -0.5311,2.963 -0.797,4.4499 -0.567,3.1904 -1.158,6.3765 -1.7381,9.5646 -0.097,0.5049 -0.2559,1.3714 -0.3657,1.9667 -1.2052,6.4484 -2.4444,12.8904 -3.7046,19.3282 -0.068,0.3585 -0.2337,1.1778 -0.3392,1.7127 -1.1334,5.7138 -2.2754,11.4261 -3.4714,17.1271 -4.221,-52.7243 -9.3365,-105.3978 -16.5982,-157.7976 -8.3266,-59.6942 -19.732,-119.0675 -36.6886,-176.9487 -15.1743,-52.0395 -34.8846,-102.7333 -58.5002,-151.5178 -30.7882,-63.7827 -67.6728,-124.4129 -106.7265,-183.4252 -26.7472,-40.3434 -54.5552,-79.9733 -82.8183,-119.2658 -24.3457,-33.8105 -49.0743,-67.3439 -73.8201,-100.8623 -14.0201,-19.0319 -27.9419,-38.1361 -41.7543,-57.3193 -0.969,-1.3434 -2.0616,-2.8696 -3.0781,-4.2833 -32.9892,-45.9252 -65.3357,-92.3201 -96.6136,-139.429 -40.4922,-61.0201 -79.1304,-123.3038 -114.7197,-187.3196 -33.3204,-59.8766 -63.8622,-121.2978 -91.5279,-183.9876 -9.1108,-20.6214 -17.9311,-41.3694 -26.8346,-62.0808 -7.1094,-16.6003 -14.1592,-33.2261 -21.1558,-49.8743 -0.5962,-1.4342 -1.2871,-3.0749 -1.9197,-4.5885 -6.8656,-16.4398 -13.7602,-32.8693 -20.3591,-49.4185 -2.6661,-6.9403 -5.3845,-13.8986 -9.1121,-20.3529 -6.232,-11.0581 -14.8823,-20.8296 -25.4666,-27.892 -12.7208,-8.5823 -28.06,-13.2252 -43.4101,-13.0528 z"
       style="fill:#ffffff;fill-opacity:1" />
    <path
       id="path6"
       d="m 4312.2109,6410.4902 c -37.7435,54.2091 -75.4529,108.4176 -113.2118,162.6183 -12.1644,17.451 -24.3515,34.9561 -36.5539,52.4122 -31.6131,44.8977 -63.6011,89.5312 -95.9284,133.9173 -10.3724,14.2454 -20.8802,28.3915 -31.2319,42.6518 -29.8569,41.3608 -57.7268,84.1527 -83.5795,128.1263 -21.0818,35.9396 -40.7555,72.7221 -58.492,110.4304 -14.4386,30.7621 -27.5722,62.1715 -38.44,94.3808 -6.7093,19.9228 -12.4727,40.1893 -16.568,60.8187 -5.2371,26.0415 -8.5276,52.4407 -10.7543,78.8988 -2.8815,34.856 -3.7611,69.8695 -2.8982,104.8305 0.799,31.192 3.0612,62.3708 7.4569,93.2704 2.9999,20.696 7.0402,41.2766 12.9472,61.3516 3.9028,13.286 8.1841,26.4621 12.8378,39.5042 15.7143,43.9278 35.9543,86.236 60.3306,126.0162 27.8719,45.6457 60.8444,88.0303 96.696,127.6609 13.5937,15.0779 27.7238,29.6584 41.6205,44.4546 61.0787,64.6707 122.1565,129.3423 183.2358,194.0125 3.027,-74.0578 5.9906,-148.1182 9.0982,-222.1726 0.3181,-6.047 0.6681,-12.0921 1.0405,-18.136 0.032,-0.5619 0.092,-1.4641 0.1354,-2.1565 0.6052,-9.6024 1.2751,-19.2007 2.0013,-28.7947 0.073,-0.9941 0.1735,-2.2601 0.2571,-3.3587 1.5463,-19.9578 3.2978,-39.8997 5.239,-59.8229 0.036,-0.3928 0.1179,-1.1949 0.1714,-1.7444 1.4697,-15.0217 3.0344,-30.0341 4.6685,-45.0388 0.051,-0.4839 0.1464,-1.3258 0.2143,-1.9468 2.0765,-18.9319 4.2912,-37.8483 6.606,-56.7524 0.1517,-1.1966 0.3276,-2.6466 0.4886,-3.9405 3.371,-27.3589 6.9718,-54.6892 10.7477,-81.9951 0.2324,-1.64 0.4884,-3.4994 0.7299,-5.2238 2.2483,-16.1475 4.568,-32.285 6.94,-48.4148 4.2991,-29.1964 8.8388,-58.5458 13.5052,-87.7585 5.3453,-33.1703 10.9426,-66.4796 16.2054,-99.7353 11.2306,-70.7575 21.6862,-141.6452 30.5513,-212.7407 8.4493,-67.9127 15.5408,-136.0222 19.6895,-204.3433 3.66,-60.447 5.0109,-121.1017 1.8709,-181.6042 -1.5148,-28.905 -4.1529,-57.7531 -8.0207,-86.4392 -9.3669,-78.0423 -18.7321,-156.0848 -28.1004,-234.1269 -7.1686,10.2969 -14.3372,20.5938 -21.5059,30.8906 z"
       style="fill:#ffffff;fill-opacity:1" />
    <path
       id="path7"
       d="m 6098.8945,4479.0234 c 7.666,70.3631 15.3708,140.722 23.0214,211.0866 2.8485,26.4809 5.3714,52.9958 7.7267,79.5248 0.052,0.561 0.1273,1.4615 0.1883,2.1527 4.2726,48.7646 7.7815,97.5982 10.3312,146.484 0.016,0.395 0.06,1.1992 0.087,1.7508 0.9555,18.5688 1.7629,37.145 2.4448,55.7257 0.023,0.5873 0.053,1.5117 0.078,2.2296 0.2905,8.4695 0.5547,16.9399 0.7947,25.4111 0.013,0.3788 0.032,1.2003 0.047,1.7486 0.1819,7.0153 0.3526,14.0669 0.4924,21.0971 0.024,1.4144 0.058,3.0661 0.086,4.5718 0.1479,7.7731 0.258,15.5468 0.346,23.3208 0,0.7472 0.017,1.8001 0.024,2.6647 0.2004,20.0213 0.1877,40.0447 -0.043,60.0657 -0.01,0.8891 -0.026,2.0667 -0.038,3.0666 -0.061,4.8973 -0.1409,9.7944 -0.2339,14.6912 -0.038,1.9979 -0.086,4.1992 -0.128,6.2753 -0.035,1.6498 -0.073,3.6728 -0.107,5.0884 -0.8029,33.6452 -2.1957,67.2809 -4.5189,100.857 -0.023,0.2603 -0.088,1.1967 -0.1267,1.7172 -0.6691,9.521 -1.4656,19.0324 -2.2717,28.5426 -0.083,0.9933 -0.1958,2.2583 -0.2903,3.356 -0.5099,5.9195 -1.0471,11.8367 -1.5887,17.7534 -0.034,0.393 -0.1125,1.1954 -0.1635,1.7451 -0.3889,4.113 -0.7777,8.2259 -1.1665,12.3389 -0.039,0.3678 -0.1179,1.1949 -0.1722,1.7386 -1.7635,18.1936 -3.6673,36.3732 -5.6462,54.5446 -0.036,0.3495 -0.1331,1.1933 -0.1924,1.7322 -0.2998,2.6784 -0.5996,5.3569 -0.8994,8.0353 -17.7863,-40.7462 -36.4635,-81.0987 -55.6326,-121.2113 -16.5207,-34.524 -33.4946,-68.8293 -50.6799,-103.0269 -24.6678,-49.2945 -49.3432,-98.7193 -74.125,-148.0098 -10.2984,-20.4118 -20.5358,-40.8546 -30.9562,-61.2046 -3.4091,-6.6297 -6.8222,-13.2629 -10.4967,-19.7498 -6.9501,-11.7646 -17.0179,-21.7441 -29.0984,-28.1914 -16.7435,-9.0631 -36.9727,-11.3831 -55.3488,-6.4269 -13.8985,3.6278 -26.5592,11.0875 -37.428,20.3676 -13.2262,11.1604 -24.5361,24.3548 -35.3469,37.8089 -15.5915,19.5944 -29.7845,40.264 -43.2155,61.3861 -24.3179,38.6599 -43.6339,80.3396 -58.8498,123.3642 -17.04,48.3422 -29.0037,98.4129 -36.6207,149.0813 -5.9924,40.023 -9.2746,80.4473 -9.9561,120.9086 -0.9216,56.1235 3.1888,112.3544 12.6898,167.6842 8.7475,50.6546 22.1206,100.5826 40.9774,148.4312 6.5319,16.5602 13.8021,32.8274 21.7788,48.7418 20.144,40.525 43.8367,79.289 70.7953,115.6411 39.555,53.5191 85.5686,101.9423 134.1403,147.3139 8.0146,7.5214 16.1588,14.9024 24.2124,22.3815 6.6601,6.2156 13.3091,12.4434 19.893,18.7396 0.2649,0.2604 0.8651,0.8328 1.2583,1.2127 15.7588,15.1588 31.3308,30.5644 45.5939,47.1575 10.2968,11.9833 19.7027,24.7756 27.5017,38.5323 5.9312,10.3625 11.1153,21.1288 16.1442,31.9511 0.4236,0.902 0.9558,2.0554 1.4211,3.054 0.2685,0.5777 0.537,1.1554 0.8054,1.7331 0.085,0.1982 0.4978,1.0905 0.7094,1.5569 4.905,10.7323 9.7252,21.6722 11.8915,33.3405 2.2483,12.3852 2.712,24.9976 3.1239,37.5511 0.5016,19.7527 0.4256,39.5146 0.3233,59.2718 -0.1,14.461 -0.1809,28.9225 -0.4699,43.3812 -0.01,0.4881 -0.029,1.3335 -0.042,1.9585 -0.047,2.176 -0.095,4.3519 -0.142,6.5279 -0.012,0.3362 -0.031,1.1661 -0.045,1.6914 -0.061,2.4824 -0.1309,5.017 -0.1953,7.5195 -0.015,0.3365 -0.037,1.2001 -0.055,1.7386 -0.058,1.9094 -0.1159,3.8188 -0.1739,5.7282 -0.01,0.3111 -0.042,1.1998 -0.059,1.7325 -1.4115,41.8229 -4.482,83.6495 -10.9645,125.0147 -1.2572,8.1253 -2.638,16.2311 -4.1149,24.3192 -0.05,0.2446 -0.2053,1.1149 -0.2989,1.5996 -4.0401,21.8123 -8.9414,43.458 -14.4214,64.9517 -9.3861,36.961 -19.7809,73.6593 -30.6553,110.208 -11.284,37.8035 -23.1141,75.448 -35.808,112.8032 -0.1148,0.3224 -0.3897,1.1357 -0.5659,1.6462 -4.9127,14.399 -9.9865,28.7439 -15.3209,42.9925 -0.096,0.2637 -0.4248,1.1224 -0.6104,1.6148 -3.5007,9.298 -7.2282,18.51 -11.1145,27.6525 -6.1226,15.76 -7.013,33.6177 -1.8586,49.7713 2.5319,8.0664 6.5423,15.6438 11.5651,22.4312 3.2163,4.1685 6.9729,7.9006 10.948,11.3419 13.158,11.1431 30.3974,17.2627 47.6251,17.0926 12.8598,-0.081 25.5758,-3.621 36.928,-9.5881 11.6693,-6.0406 22.1983,-13.9929 32.5488,-22.0233 19.6111,-15.3859 38.2195,-32.0102 56.2888,-49.1683 54.0704,-51.5131 102.3719,-108.8393 146.303,-169.1625 45.8097,-63.006 86.819,-129.4213 124.0253,-197.8355 36.3836,-66.9623 69.0559,-135.915 98.5261,-206.1857 38.4652,-91.7666 71.4196,-185.8202 99.2248,-281.3505 27.6894,-95.2654 50.238,-192.0309 67.3592,-289.7518 11.5051,-65.7075 20.5618,-131.8492 26.8908,-198.2576 3.557,-38.0415 5.5866,-76.296 4.1176,-114.5029 -1.1214,-30.9375 -4.1913,-61.776 -8.2529,-92.4565 -7.1595,-53.1553 -18.484,-105.7085 -32.9378,-157.3448 -16.8243,-59.9668 -37.8532,-118.7351 -62.4694,-175.9389 -26.8969,-62.3944 -57.9891,-122.9995 -93.3238,-181.0407 -28.3096,-46.4425 -59.2848,-91.2955 -93.3195,-133.7354 -21.9413,-27.3493 -45.1654,-53.6799 -69.7788,-78.6564 -53.7175,-54.4435 -107.438,-108.929 -161.1577,-163.3898 -17.4154,-17.6575 -34.8307,-35.3151 -52.2459,-52.9727 1.4883,13.6459 2.9765,27.2917 4.4648,40.9375 z"
       style="fill:#ffffff;fill-opacity:1" />
    <path
       id="path8"
       d="m 5064.7852,2138.5195 c -63.3672,0.3575 -126.7445,2.1524 -189.9755,6.4241 -33.5735,2.2962 -67.1127,5.3792 -100.4262,10.1953 -23.0523,3.2753 -46.0431,6.9763 -68.9824,10.9642 -161.3071,28.2288 -319.5945,74.0276 -470.7248,137.143 -77.361,32.2936 -152.8299,69.1301 -225.8239,110.3575 -100.8986,57.0032 -197.0594,122.452 -286.7276,195.8824 -52.7795,43.2072 -103.3045,89.1748 -151.2158,137.7261 -48.4196,49.0535 -94.1444,100.7703 -136.8281,154.89 -30.4028,38.5714 -59.2799,78.3506 -86.4207,119.2844 -18.0112,27.317 -34.4451,55.6356 -50.3492,84.219 -28.5744,51.4317 -55.2212,103.9156 -80.6802,156.9522 -20.5164,42.8542 -40.1585,86.1377 -58.35,130.0333 -9.2977,22.511 -18.1981,45.1988 -26.0856,68.246 -8.0661,23.915 -15.3287,48.0938 -22.2091,72.374 -12.1334,43.0647 -22.776,86.5403 -32.4174,130.2272 -11.65,52.9662 -21.7071,106.2872 -29.9451,159.8914 -3.9378,25.8202 -7.4491,51.7099 -10.2251,77.6819 -3.3554,35.4785 -4.6328,71.1114 -5.5576,106.7234 -1.212,50.9455 -1.1157,101.918 -0.047,152.8651 0.7241,33.3959 1.9379,66.7885 4.2037,100.1181 1.2687,17.9275 2.8072,35.8661 5.7835,53.6022 1.9154,10.9706 4.6701,21.9167 9.6726,31.9229 7.6441,15.6211 19.393,29.3035 34.0052,38.7942 11.1987,7.3497 24.0041,12.1722 37.2303,14.2325 14.5212,2.3002 29.4613,1.3321 43.713,-2.1605 11.9977,-2.8832 23.5399,-7.4436 34.5665,-12.9453 -9.512,25.5679 -18.2346,51.4407 -25.748,77.669 -3.1213,10.8452 -5.8392,21.8033 -8.2245,32.8331 -8.5726,39.1195 -14.0412,78.8643 -17.7229,118.7244 -5.1565,56.2964 -6.6472,112.903 -5.1651,169.4066 1.2774,47.0042 4.7205,93.9692 10.9212,140.5871 4.0387,30.2302 9.3964,60.2928 16.3726,89.9865 30.0512,130.4343 74.7218,257.4006 131.6772,378.4944 22.3378,47.5309 46.5846,94.162 72.5802,139.7942 24.3777,42.7471 50.288,84.6206 77.6845,125.4988 26.244,38.922 54.974,76.1136 84.9261,112.2403 35.6747,42.9608 73.1925,84.3767 112.0779,124.4492 39.2622,40.4279 79.9136,79.5206 122.1397,116.8473 38.1657,33.6882 77.5821,66.0314 119.0452,95.597 13.3723,9.5256 27.0521,18.6103 40.8522,27.502 28.8175,18.7624 57.6489,37.5071 86.7557,55.8182 6.2708,3.8482 12.6116,7.8 19.7153,9.9237 9.1657,2.868 19.0177,3.3541 28.4573,1.6611 5.5597,-0.762 11.1169,-1.6828 16.5422,-3.1155 7.294,-3.9843 14.7583,-7.7141 21.6498,-12.3812 2.9731,-2.3294 5.4954,-5.1761 7.671,-8.2526 3.8695,-5.0802 7.7677,-10.1691 11.0889,-15.6278 1.0052,-1.9166 1.5815,-4.0053 2.1256,-6.0871 2.0335,-6.5285 4.1109,-13.142 4.4724,-20.018 0.8385,-10.32 -0.4856,-20.9542 -3.959,-30.7695 -3.4411,-10.0607 -9.0949,-19.1399 -14.7126,-28.0975 -5.0057,-8.1622 -10.9603,-15.6787 -16.5218,-23.4582 -30.5466,-41.8893 -61.003,-83.849 -90.7306,-126.3253 -20.7639,-29.7175 -41.121,-59.7345 -60.3273,-90.4871 -15.166,-24.2898 -29.5108,-49.0941 -42.8871,-74.4145 -11.2468,-21.2286 -21.8959,-42.7683 -32.2757,-64.4322 -0.2711,-0.5764 -0.689,-1.4444 -1.0164,-2.1327 -9.4238,-19.7165 -18.7186,-39.5045 -27.1666,-59.663 -1.519,-3.5844 -3.0077,-7.1815 -4.4869,-10.7825 -0.1301,-0.3105 -0.4531,-1.1118 -0.6571,-1.6105 -0.3923,-0.9638 -0.7846,-1.9276 -1.1769,-2.8914 -0.1087,-0.2838 -0.4466,-1.1143 -0.6432,-1.6079 -3.4126,-8.4705 -6.7023,-16.9902 -9.888,-25.5484 -0.1029,-0.2675 -0.4159,-1.1258 -0.5995,-1.6204 -3.1664,-8.5586 -6.2027,-17.165 -9.133,-25.8073 -0.095,-0.2943 -0.3694,-1.1011 -0.5332,-1.5918 -2.2743,-6.7819 -4.476,-13.5879 -6.6074,-20.416 -0.013,-0.059 -0.3351,-1.0954 -0.4631,-1.5179 -2.6445,-8.5632 -5.1678,-17.1639 -7.5408,-25.8063 -0.096,-0.3416 -0.316,-1.1584 -0.4595,-1.682 -0.4651,-1.6893 -1.0148,-3.768 -1.4077,-5.2194 -0.8962,-3.3954 -1.8732,-7.1639 -2.6667,-10.3363 -0.2829,-1.1395 -0.5659,-2.2791 -0.8489,-3.4186 -0.08,-0.3121 -0.2844,-1.1664 -0.4119,-1.6864 -1.5456,-6.3414 -3.0083,-12.703 -4.385,-19.0831 -0.072,-0.3241 -0.2507,-1.1742 -0.3636,-1.6999 -2.3553,-11.0306 -4.4438,-22.1187 -6.2106,-33.2591 -0.039,-0.2303 -0.185,-1.1849 -0.2653,-1.6946 -0.089,-0.5785 -0.241,-1.5276 -0.2867,-1.8555 -3.8326,-25.1727 -6.0963,-50.6591 -5.3401,-76.1381 0.494,-14.6903 1.9931,-29.4317 5.7698,-43.6697 1.3775,-4.9908 2.993,-9.9521 5.3121,-14.5918 3.6301,-5.4161 7.7364,-10.4981 11.7864,-15.6041 10.589,-13.2234 21.6633,-26.0501 32.8707,-38.7508 23.9626,-27.121 48.7224,-53.531 74.0426,-79.3869 29.0488,-29.7649 57.4299,-60.2324 83.8805,-92.3466 22.2662,-27.0716 43.1595,-55.3573 61.1491,-85.471 16.587,-27.6858 30.6601,-56.9301 41.2127,-87.4491 8.905,-25.6069 15.436,-52.0248 19.6851,-78.797 7.8485,-48.9154 8.6202,-98.6684 6.6372,-148.0765 -0.704,-17.5259 -1.5737,-35.0496 -2.9601,-52.5362 -3.0208,-37.8082 -8.5452,-75.4771 -17.7858,-112.2873 -5.2056,-20.9031 -11.6308,-41.485 -18.747,-61.8116 -12.6306,-36.5803 -27.2298,-72.4686 -43.3389,-107.6511 -9.8693,-21.4105 -20.3598,-42.5676 -32.3457,-62.8819 -6.1732,-10.3227 -12.8727,-20.3949 -20.8362,-29.4353 -8.8721,-9.9542 -19.7402,-18.3284 -32.1831,-23.2908 -15.2307,-6.1485 -32.4923,-7.1096 -48.3035,-2.6493 -13.9089,3.8309 -26.5212,11.6082 -36.983,21.4517 -10.9438,10.0676 -20.1027,21.8612 -28.9588,33.7528 -12.6558,17.1881 -24.2491,35.1261 -35.6195,53.1807 -20.7879,33.2095 -40.305,67.1976 -59.217,101.5048 -22.9748,41.7772 -44.8766,84.1506 -65.4083,127.1832 -13.9095,29.2471 -27.1495,58.8346 -38.8372,89.0462 -6.6919,17.4196 -12.6037,35.1271 -18.1623,52.9374 -1.7653,5.609 -3.4902,11.2307 -5.1915,16.8594 -1.9563,-14.6498 -3.8168,-29.3127 -5.5215,-43.9941 -0.048,-0.3924 -0.1368,-1.1929 -0.2004,-1.7415 -1.2874,-11.0648 -2.4349,-22.145 -3.5789,-33.2253 -0.04,-0.3678 -0.12,-1.1947 -0.1754,-1.7383 -0.3419,-3.416 -0.6838,-6.832 -1.0258,-10.248 -0.027,-0.3253 -0.1138,-1.1952 -0.1636,-1.7294 -1.4631,-15.038 -2.7998,-30.0884 -3.979,-45.1515 -0.04,-0.4865 -0.1028,-1.3299 -0.1516,-1.9531 -0.5019,-6.4198 -0.969,-12.8423 -1.4245,-19.2656 -0.036,-0.5617 -0.1002,-1.4637 -0.147,-2.1558 -1.3778,-19.9211 -2.4975,-39.8599 -3.3784,-59.8091 -0.011,-0.3613 -0.05,-1.1997 -0.071,-1.7437 -0.1006,-2.411 -0.2012,-4.8219 -0.3019,-7.2329 -0.019,-0.3955 -0.047,-1.1998 -0.069,-1.7517 -0.093,-2.4116 -0.1856,-4.8231 -0.2784,-7.2346 -0.01,-0.3615 -0.041,-1.2 -0.058,-1.7442 -0.084,-2.4121 -0.1669,-4.8242 -0.2503,-7.2363 -0.015,-0.3787 -0.038,-1.2001 -0.056,-1.7483 -0.1974,-6.2554 -0.3587,-12.6629 -0.5171,-18.978 -0.017,-0.7194 -0.03,-1.0365 -0.041,-1.6786 -0.585,-26.1063 -0.7284,-52.2222 -0.431,-78.3333 0,-0.3789 0.015,-1.2007 0.021,-1.7491 0.1167,-8.1539 0.2729,-16.3071 0.4475,-24.4599 0.011,-0.2623 0.031,-1.168 0.045,-1.6778 0.1506,-6.2573 0.3335,-12.5137 0.5371,-18.7695 0.026,-0.6717 0.057,-1.6659 0.085,-2.4614 0.1295,-3.9465 0.2899,-8.0714 0.44,-11.8745 0.8258,-20.6476 1.9451,-41.2833 3.3653,-61.8985 0.02,-0.3098 0.085,-1.1974 0.1227,-1.729 0.5963,-8.5022 1.2482,-17.0005 1.9398,-25.4956 0.031,-0.3264 0.1014,-1.1963 0.1475,-1.7311 2.0489,-24.7829 4.5671,-49.5264 7.5341,-74.2161 0.033,-0.2902 0.1459,-1.1914 0.2096,-1.7163 2.3068,-19.0806 4.9159,-38.1239 7.7748,-57.1294 0.046,-0.2718 0.183,-1.1861 0.2639,-1.7049 0.425,-2.7631 0.8501,-5.5262 1.2751,-8.2893 0.038,-0.262 0.1884,-1.185 0.2697,-1.7014 3.5635,-22.5943 7.5293,-45.1254 11.9081,-67.5759 0.051,-0.2747 0.2326,-1.1774 0.3339,-1.6935 8.9241,-45.4103 19.527,-90.4941 31.967,-135.0715 4,-14.3477 8.1875,-28.6432 12.5604,-42.8815 0.3643,-1.1862 0.8083,-2.6112 1.2032,-3.8891 0.2313,-0.7435 0.4996,-1.6213 0.6893,-2.2175 14.7466,-47.2948 31.6128,-93.933 50.673,-139.6617 11.5103,-27.6139 23.8483,-54.8822 36.9755,-81.7649 0.1251,-0.2617 0.4999,-1.019 0.7207,-1.4707 32.5211,-66.3175 70.0672,-130.2 112.6681,-190.5512 17.9405,-25.4059 36.7656,-50.1877 56.4608,-74.2594 0.2239,-0.2629 0.763,-0.9271 1.1076,-1.3438 0.5887,-0.7184 1.3456,-1.6337 1.8319,-2.2323 21.0693,-25.5292 43.0799,-50.2884 66.0991,-74.0764 3.2248,-3.2978 6.4814,-6.5644 9.7681,-9.8006 0.2195,-0.2216 0.8573,-0.8403 1.2373,-1.2143 20.77,-20.2639 42.384,-39.6424 64.2959,-58.6587 -9.0465,38.8644 -15.8313,78.2552 -20.2814,117.9101 -4.4891,39.7425 -6.6847,79.7276 -7.0318,119.7161 -0.3858,39.5342 1.0751,79.0643 3.4697,118.5207 2.4575,40.2462 6.254,80.4502 12.7826,120.255 8.972,55.3859 22.4882,109.9044 36.8667,164.0982 9.3575,35.1899 19.2977,70.2203 28.8993,105.3436 7.8355,28.728 15.5306,57.4989 22.5312,86.4434 0.1331,0.5442 0.3403,1.427 0.5018,2.1011 5.4872,22.9461 10.4834,46.0266 14.1955,69.3325 0.04,0.2383 0.1864,1.1848 0.2674,1.6962 1.3654,8.6984 2.5163,17.1875 3.4914,25.7545 0.024,0.2437 0.1278,1.1654 0.1855,1.6941 2.7042,24.1242 3.8749,48.3911 4.4373,72.6509 0.028,1.0101 0.057,2.2281 0.071,3.1089 0.105,5.2574 0.1902,10.5151 0.256,15.7731 0,0.3367 0.011,1.2006 0.015,1.7394 0.241,26.2708 0.1454,52.5433 0.1661,78.8149 -0.01,80.1701 -0.01,160.3401 -0.01,240.5102 57.0522,-54.5797 114.1533,-109.1083 171.1419,-163.7534 40.0808,-39.0444 77.6776,-80.8022 110.4666,-126.1976 28.4475,-39.2839 53.3309,-81.0953 75.0145,-124.4651 29.6142,-59.0413 53.7069,-120.6756 75.4267,-183.001 5.46,-15.7045 10.7607,-31.4638 15.9288,-47.2665 1.9507,18.9475 3.8672,37.9194 5.7513,56.9025 2.3084,23.1463 4.5836,46.3978 6.8335,69.5938 2.2432,23.1471 4.4573,46.4628 6.6242,69.6245 3.2682,34.7857 6.3994,69.5843 9.5649,104.3792 7.1459,78.042 15.6064,155.977 26.3476,233.6104 12.8351,92.7254 28.8703,185.0838 50.7239,276.1363 18.5508,77.2203 41.4006,153.4928 70.3298,227.4865 16.5034,42.2325 34.9793,83.7004 55.5478,124.112 25.1417,49.4677 53.4487,97.3148 84.4948,143.3028 14.6791,21.7268 29.9268,43.0721 45.7893,63.951 18.3351,23.9874 37.7828,47.1049 57.7348,69.7583 25.763,29.1781 52.4926,57.507 80.2032,84.8434 17.5498,17.2539 35.5283,34.0918 54.3108,50.0024 11.5577,9.7275 23.4717,19.0817 36.1721,27.2825 8.1164,5.1446 16.6312,9.664 25.4318,13.5217 10.5362,4.5269 21.8675,7.495 33.3824,7.6099 16.7883,0.2581 33.6699,-5.1753 46.947,-15.5003 14.3609,-11.0555 24.3965,-27.5094 27.7932,-45.3005 2.4748,-12.4566 1.6712,-25.327 -0.5838,-37.7516 -1.0688,-6.1573 -2.5629,-12.251 -3.1129,-18.4891 -0.9321,-7.7803 -1.6606,-15.583 -2.3912,-23.3843 -0.065,-0.6689 -0.1524,-1.66 -0.226,-2.4525 -2.4342,-26.751 -4.3809,-53.5441 -6.1756,-80.3448 -0.5168,-7.8232 -1.0108,-15.6479 -1.4792,-23.4742 -0.022,-0.4451 -0.073,-1.2652 -0.1058,-1.8539 -0.4829,-8.2023 -0.9145,-16.4076 -1.3044,-24.6149 -0.012,-0.3444 -0.053,-1.1995 -0.076,-1.7396 -0.3587,-7.77 -0.6464,-15.5431 -0.9042,-23.317 -0.015,-0.3872 -0.037,-1.2001 -0.055,-1.7503 -0.3014,-9.3951 -0.5157,-18.7926 -0.6735,-28.1911 -0.01,-0.2287 -0.015,-1.199 -0.023,-1.7139 -0.1986,-13.3887 -0.1944,-26.7796 -0.063,-40.1689 0,-0.3782 0.013,-1.1991 0.021,-1.7469 0.1088,-7.235 0.2493,-14.4694 0.4558,-21.7023 0.014,-0.345 0.037,-1.2002 0.054,-1.7406 0.044,-1.4726 0.089,-2.9451 0.1333,-4.4176 0,-0.1881 0.041,-1.2387 0.055,-1.543 0.3972,-10.9647 0.8783,-21.9266 1.5372,-32.8789 0.021,-0.3947 0.072,-1.1985 0.1051,-1.7498 0.07,-1.1382 0.1538,-2.58 0.2158,-3.5238 2.3835,-37.7844 6.4706,-75.5201 12.0719,-112.9877 0.1535,-1.0207 0.3224,-2.178 0.4585,-3.056 6.3487,-41.9736 14.5424,-83.6516 23.9143,-125.0499 0.088,-0.3646 0.2686,-1.1703 0.3921,-1.7038 12.5861,-55.2478 27.1993,-110.0143 42.7624,-164.4919 11.4659,-40.1149 23.516,-80.0599 35.7971,-119.9319 4.2254,-13.7624 8.4509,-27.5246 12.607,-41.308 18.4762,37.0417 38.3254,73.3961 59.3829,109.0324 17.8427,30.1019 36.4917,59.7522 56.7045,88.3267 13.4448,18.9289 27.504,37.5097 43.5119,54.3662 10.2539,10.6634 21.5181,20.5868 34.5393,27.7455 12.9813,7.1125 27.7389,11.2718 42.598,10.9239 14.3554,-0.2962 28.608,-4.8193 40.436,-12.9762 12.3189,-8.4224 21.9446,-20.4793 28.1704,-33.9882 6.0709,-12.735 9.7169,-26.4491 12.7676,-40.1728 1.2777,-5.9608 2.3647,-11.9597 3.4987,-17.9489 0.067,-0.3266 0.2277,-1.1788 0.3306,-1.7069 2.3631,-12.0834 5.1144,-24.0863 7.7683,-36.1081 4.6912,-21.0684 9.5068,-42.1089 14.3621,-63.14 0.4477,-1.9121 0.9356,-4.0261 1.3987,-6.0159 1.7075,-7.3442 3.4237,-14.7554 5.1209,-22.0374 9.7427,-41.7792 19.6339,-83.5237 29.6112,-125.2475 20.7419,-86.5522 41.8317,-173.1435 62.2046,-259.8304 10.103,-43.0501 20.076,-86.134 29.4315,-129.3541 11.0004,-50.9849 21.2753,-102.1716 28.5259,-153.8412 4.1798,-29.6989 7.2573,-59.5535 9.145,-89.4862 3.3753,-53.1473 3.414,-106.4279 3.4207,-159.6604 -0.044,-49.9196 -0.5644,-99.868 -3.5171,-149.7121 -2.5453,-42.0744 -7.1473,-84.0926 -15.5171,-125.4317 -7.4409,-37.0179 -17.7685,-73.4099 -29.8627,-109.1635 -11.9099,-35.3399 -25.3151,-70.1528 -39.0758,-104.8065 -28.3685,-70.4782 -62.8899,-138.4572 -102.7469,-203.1284 -2.1507,-3.4875 -4.3068,-6.9716 -6.4866,-10.441 2.4843,2.1132 4.9604,4.2359 7.4375,6.3574 0.4856,0.4139 1.2129,1.044 1.7912,1.5408 2.3802,2.0447 4.7515,4.0996 7.1229,6.1545 0.3987,0.3429 1.0565,0.9193 1.5545,1.3516 0.9617,0.8373 1.9233,1.6745 2.8849,2.5117 0.477,0.4224 1.2041,1.0541 1.7771,1.5568 14.1798,12.3978 28.1904,24.9891 42.0354,37.7596 0.2932,0.2658 0.8814,0.8154 1.2875,1.1899 27.4029,25.3368 54.1413,51.3937 80.1305,78.1793 1.3867,1.434 2.9144,3.0097 4.3517,4.5033 44.6687,46.3068 87.1055,94.7617 127.2108,145.0709 0.3693,0.4707 0.954,1.2009 1.4059,1.7711 5.8099,7.301 11.5677,14.6431 17.2836,22.018 0.2417,0.3197 0.7331,0.9508 1.0704,1.3898 16.7698,21.6927 33.1162,43.7121 49.0604,66.0184 0.1724,0.2495 0.6951,0.9787 1.002,1.4123 37.994,53.2611 73.6833,108.1528 107.3299,164.2571 31.0885,51.8323 60.4734,104.6784 88.4391,158.2574 19.1916,36.7681 37.7324,73.8751 55.7047,111.2539 14.5359,30.2498 28.6857,60.6861 42.3739,91.329 -7.0635,-7.0799 -14.0436,-14.2428 -20.9433,-21.4824 -0.2199,-0.2379 -0.8253,-0.8719 -1.1931,-1.2618 -13.1262,-13.8641 -25.9508,-28.0273 -38.1024,-42.7575 -0.6847,-0.8366 -1.3694,-1.6733 -2.0541,-2.51 -0.1385,-0.1653 -0.7538,-0.9322 -1.0765,-1.3299 -6.9457,-8.6357 -13.7671,-17.4129 -19.6231,-26.8361 -1.0095,-1.6159 -2.0287,-3.2479 -2.5467,-5.1006 -5.9243,-16.3018 -13.1975,-32.252 -23.1674,-46.5061 -7.3374,-10.356 -16.6466,-19.4759 -27.7811,-25.6805 -14.496,-8.1966 -31.8045,-11.2864 -48.2376,-8.5655 -15.0764,2.3982 -29.249,9.486 -40.6243,19.6066 -11.0042,9.746 -19.5274,21.9421 -26.7318,34.6705 -8.6352,15.2691 -15.7578,31.3448 -22.1647,47.6596 -9.16,23.6094 -16.903,47.7944 -22.6404,72.4682 -1.9969,8.5544 -3.7382,17.1728 -4.9575,25.8748 -2.7416,19.0222 -3.8327,38.2551 -3.9199,57.464 -0.073,26.6265 1.8746,53.2402 5.3447,79.6327 3.7018,27.9341 9.1858,55.6398 16.5594,82.8384 5.0165,18.4748 11.0347,36.6851 18.2598,54.4168 13.2743,32.9548 29.2736,64.731 46.0787,96.0062 21.288,39.5168 44.1458,78.1625 67.418,116.536 31.6611,52.0827 64.3751,103.5161 97.3565,154.7699 28.9926,44.9998 58.3232,89.7796 87.6811,134.5411 7.7923,11.8989 15.6194,23.8583 23.39,35.7195 28.4529,43.5073 56.8153,87.0743 84.9277,130.8027 0.8167,1.2799 1.7634,2.7499 2.6301,4.1029 22.222,34.6457 44.2705,69.4051 65.8308,104.4674 0.5537,0.9112 1.2536,2.0467 1.8634,3.0441 0.9965,1.6288 1.9764,3.2207 2.936,4.7936 1.3074,2.1463 2.6576,4.3491 3.9122,6.4209 17.5352,28.8371 34.6471,57.9335 51.1712,87.3625 0.1883,0.3296 0.5865,1.0477 0.8552,1.5261 23.6346,42.1248 45.9385,84.9755 68.1312,127.8718 13.8039,26.6317 27.7075,53.2144 42.0716,79.5492 8.5706,15.5103 17.141,31.0672 27.1862,45.6877 6.8428,9.8655 14.734,19.1683 24.422,26.3546 12.3755,9.3266 27.569,14.9665 43.0837,15.5479 14.7672,0.6374 29.6895,-3.2739 42.2345,-11.0939 12.8528,-7.9491 23.1737,-19.8409 29.4093,-33.5931 4.8362,-10.4686 7.098,-21.8473 9.5943,-33.0354 3.4198,-15.8747 6.5071,-31.8182 9.6555,-47.7482 8.5116,-43.533 16.4742,-87.1699 24.5459,-130.7862 5.0856,-27.1819 10.1672,-54.3651 15.0816,-81.5789 11.958,-66.149 23.2305,-132.428 33.1204,-198.9197 8.1557,-54.9712 15.352,-110.0957 20.8146,-165.4035 5.6982,-57.6801 9.4399,-115.5933 9.7186,-173.5682 0.2863,-64.6122 -3.9834,-129.3613 -15.0638,-193.0619 -2.1206,-12.2451 -4.4875,-24.4472 -7.0854,-36.5999 16.4379,5.2361 34.7001,4.6435 50.6934,-1.875 16.6284,-6.7012 30.5577,-19.5708 38.9805,-35.3535 6.573,-12.1798 10.0428,-25.78 11.9127,-39.4227 2.7138,-19.1261 3.1097,-38.4819 3.2164,-57.7698 0.048,-33.1544 -1.6615,-66.2834 -3.9431,-99.3503 -3.2895,-46.409 -8.1221,-92.7078 -14.4321,-138.8029 -4.2425,-30.6856 -9.212,-61.2815 -15.4344,-91.6313 -4.7089,-22.5859 -10.0522,-45.0343 -15.6026,-67.4265 -34.1518,-136.6567 -82.3023,-269.8602 -144.1329,-396.4437 -22.8147,-46.7501 -47.4824,-92.5962 -73.9279,-137.3927 -31.8127,-53.9006 -66.2084,-106.2763 -103.0303,-156.8874 -67.2697,-92.4277 -142.6227,-178.9684 -224.9022,-258.3289 -75.8572,-73.1834 -157.5472,-140.3049 -243.9433,-200.6801 -57.9835,-40.5338 -118.081,-78.0383 -179.9181,-112.406 -43.9801,-24.4593 -88.8533,-47.3088 -134.4658,-68.5677 -43.5387,-20.2761 -87.7568,-39.0904 -132.5439,-56.435 -55.3398,-21.4192 -111.5452,-40.5975 -168.4197,-57.524 -95.009,-28.2752 -191.8657,-50.2932 -289.7032,-66.2029 -18.0523,-2.9344 -36.133,-5.7062 -54.2597,-8.1411 -38.1806,-4.9871 -76.6042,-7.8263 -115.0354,-10.0066 -53.1161,-2.9394 -106.314,-4.2117 -159.5072,-4.484 -11.6216,-0.051 -23.2433,-0.045 -34.8648,0.01 z"
       style="fill:#ffffff;fill-opacity:1" />
  </g>
  <g
     transform="matrix(0.10848596,0,0,-0.1009724,-253.48674,816.63145)"
     fill="#000000"
     stroke="none"
     id="g4">
    <path
       d="m 4857,7936 c 51,-48 115,-117 143,-154 136,-182 207,-404 181,-571 -28,-178 -98,-307 -343,-633 -126,-168 -268,-378 -268,-397 0,-6 -4,-11 -10,-11 -5,0 -10,9 -10,20 0,41 -119,342 -134,337 -12,-4 -76,-162 -129,-318 -85,-254 -125,-492 -113,-677 16,-248 98,-505 197,-615 34,-38 38,-40 45,-22 4,11 31,76 60,143 87,204 192,378 384,637 278,376 322,487 350,882 7,87 15,196 18,243 l 7,85 38,-103 c 117,-326 146,-675 83,-1014 -15,-78 -14,-79 62,-43 196,91 335,433 335,830 1,207 -30,385 -100,570 -131,351 -426,666 -797,852 l -91,46 z"
       id="path1" />
    <path
       d="m 4090,7803 c -91,-95 -145,-183 -176,-288 -24,-79 -24,-236 -1,-325 25,-95 96,-230 184,-351 43,-58 103,-142 133,-185 l 55,-79 6,50 c 21,154 6,363 -55,730 -32,194 -53,369 -59,489 l -2,49 z"
       id="path2" />
    <path
       d="m 5975,6935 c 30,-70 87,-257 106,-346 16,-75 22,-141 23,-239 1,-131 0,-137 -30,-200 -25,-52 -49,-82 -128,-155 -109,-99 -171,-180 -216,-277 -92,-204 -75,-499 38,-674 36,-56 69,-92 75,-83 2,2 55,108 118,234 73,145 130,274 154,349 22,65 40,114 42,110 16,-54 44,-266 54,-402 11,-162 5,-349 -17,-562 l -6,-55 72,73 c 167,171 300,450 330,693 9,74 9,121 0,205 -56,528 -288,1058 -569,1301 -34,29 -52,40 -46,28 z"
       id="path3" />
    <path
       d="m 3955,6063 c -143,-95 -346,-300 -447,-453 -130,-196 -222,-410 -270,-627 -32,-147 -30,-363 4,-494 25,-91 78,-212 120,-272 11,-16 18,-30 16,-33 -3,-2 -38,19 -79,48 -41,28 -89,62 -108,75 -40,27 -66,29 -76,6 -13,-36 -17,-300 -6,-408 15,-134 53,-309 92,-424 39,-112 144,-326 207,-421 298,-448 805,-754 1384,-835 145,-20 447,-20 587,1 857,125 1505,705 1686,1510 33,144 49,413 24,399 -27,-17 -84,-59 -111,-84 -15,-13 -30,-23 -32,-20 -2,2 9,42 25,89 71,214 64,424 -31,925 -16,88 -32,171 -36,185 -5,21 -17,2 -78,-115 -88,-171 -123,-230 -339,-559 -171,-261 -243,-385 -272,-466 -25,-72 -35,-166 -24,-228 11,-57 43,-132 57,-132 4,0 14,17 21,38 9,23 47,70 102,125 123,122 187,221 261,402 27,68 28,69 22,25 -17,-136 -101,-373 -213,-605 -227,-471 -478,-765 -877,-1027 -172,-113 -181,-113 -77,-4 169,178 274,335 342,511 65,166 76,233 76,450 0,220 -6,253 -115,705 -38,157 -72,304 -76,328 -4,23 -10,42 -15,42 -33,0 -165,-215 -216,-352 -15,-43 -31,-78 -34,-78 -4,0 -9,18 -13,40 -3,22 -27,106 -52,187 -105,339 -132,505 -120,736 4,71 10,142 13,159 6,29 5,30 -16,19 -42,-23 -153,-136 -217,-220 -189,-251 -273,-529 -319,-1046 -24,-268 -55,-555 -64,-595 l -8,-35 -12,45 c -119,444 -185,585 -345,740 l -46,44 v -121 c 0,-137 -7,-179 -55,-353 -55,-196 -66,-256 -72,-395 -6,-151 10,-269 57,-405 16,-46 28,-86 26,-87 -10,-10 -190,134 -261,209 -326,342 -473,861 -410,1448 13,128 59,397 68,406 3,3 8,-17 11,-43 11,-75 62,-272 89,-343 50,-133 199,-394 221,-387 15,5 64,107 92,192 19,56 28,110 31,180 10,196 -27,285 -191,453 -61,62 -120,130 -131,150 -43,83 -15,260 70,440 64,136 99,191 254,403 7,11 12,19 10,19 -2,-1 -49,-31 -104,-67 z"
       id="path4" />
  </g>
</svg>
