<?xml version="1.0" encoding="UTF-8" standalone="no"?>
<svg
   version="1.0"
   width="600pt"
   height="600pt"
   viewBox="0 0 600 600"
   preserveAspectRatio="xMidYMid"
   id="svg4"
   sodipodi:docname="fire.svg"
   inkscape:version="1.3.2 (091e20ef0f, 2023-11-25, custom)"
   xmlns:inkscape="http://www.inkscape.org/namespaces/inkscape"
   xmlns:sodipodi="http://sodipodi.sourceforge.net/DTD/sodipodi-0.dtd"
   xmlns="http://www.w3.org/2000/svg"
   xmlns:svg="http://www.w3.org/2000/svg">
  <defs
     id="defs4" />
  <sodipodi:namedview
     id="namedview4"
     pagecolor="#ffffff"
     bordercolor="#000000"
     borderopacity="0.25"
     inkscape:showpageshadow="2"
     inkscape:pageopacity="0.0"
     inkscape:pagecheckerboard="0"
     inkscape:deskcolor="#d1d1d1"
     inkscape:document-units="pt"
     inkscape:zoom="0.84832098"
     inkscape:cx="450.89065"
     inkscape:cy="381.34151"
     inkscape:window-width="1872"
     inkscape:window-height="1032"
     inkscape:window-x="48"
     inkscape:window-y="-36"
     inkscape:window-maximized="1"
     inkscape:current-layer="svg4" />
  <g
     transform="matrix(0.10848596,0,0,-0.1009724,-253.48674,816.63145)"
     fill="#000000"
     stroke="none"
     id="g4">
    <path
       d="m 4857,7936 c 51,-48 115,-117 143,-154 136,-182 207,-404 181,-571 -28,-178 -98,-307 -343,-633 -126,-168 -268,-378 -268,-397 0,-6 -4,-11 -10,-11 -5,0 -10,9 -10,20 0,41 -119,342 -134,337 -12,-4 -76,-162 -129,-318 -85,-254 -125,-492 -113,-677 16,-248 98,-505 197,-615 34,-38 38,-40 45,-22 4,11 31,76 60,143 87,204 192,378 384,637 278,376 322,487 350,882 7,87 15,196 18,243 l 7,85 38,-103 c 117,-326 146,-675 83,-1014 -15,-78 -14,-79 62,-43 196,91 335,433 335,830 1,207 -30,385 -100,570 -131,351 -426,666 -797,852 l -91,46 z"
       id="path1" />
    <path
       d="m 4090,7803 c -91,-95 -145,-183 -176,-288 -24,-79 -24,-236 -1,-325 25,-95 96,-230 184,-351 43,-58 103,-142 133,-185 l 55,-79 6,50 c 21,154 6,363 -55,730 -32,194 -53,369 -59,489 l -2,49 z"
       id="path2" />
    <path
       d="m 5975,6935 c 30,-70 87,-257 106,-346 16,-75 22,-141 23,-239 1,-131 0,-137 -30,-200 -25,-52 -49,-82 -128,-155 -109,-99 -171,-180 -216,-277 -92,-204 -75,-499 38,-674 36,-56 69,-92 75,-83 2,2 55,108 118,234 73,145 130,274 154,349 22,65 40,114 42,110 16,-54 44,-266 54,-402 11,-162 5,-349 -17,-562 l -6,-55 72,73 c 167,171 300,450 330,693 9,74 9,121 0,205 -56,528 -288,1058 -569,1301 -34,29 -52,40 -46,28 z"
       id="path3" />
    <path
       d="m 3955,6063 c -143,-95 -346,-300 -447,-453 -130,-196 -222,-410 -270,-627 -32,-147 -30,-363 4,-494 25,-91 78,-212 120,-272 11,-16 18,-30 16,-33 -3,-2 -38,19 -79,48 -41,28 -89,62 -108,75 -40,27 -66,29 -76,6 -13,-36 -17,-300 -6,-408 15,-134 53,-309 92,-424 39,-112 144,-326 207,-421 298,-448 805,-754 1384,-835 145,-20 447,-20 587,1 857,125 1505,705 1686,1510 33,144 49,413 24,399 -27,-17 -84,-59 -111,-84 -15,-13 -30,-23 -32,-20 -2,2 9,42 25,89 71,214 64,424 -31,925 -16,88 -32,171 -36,185 -5,21 -17,2 -78,-115 -88,-171 -123,-230 -339,-559 -171,-261 -243,-385 -272,-466 -25,-72 -35,-166 -24,-228 11,-57 43,-132 57,-132 4,0 14,17 21,38 9,23 47,70 102,125 123,122 187,221 261,402 27,68 28,69 22,25 -17,-136 -101,-373 -213,-605 -227,-471 -478,-765 -877,-1027 -172,-113 -181,-113 -77,-4 169,178 274,335 342,511 65,166 76,233 76,450 0,220 -6,253 -115,705 -38,157 -72,304 -76,328 -4,23 -10,42 -15,42 -33,0 -165,-215 -216,-352 -15,-43 -31,-78 -34,-78 -4,0 -9,18 -13,40 -3,22 -27,106 -52,187 -105,339 -132,505 -120,736 4,71 10,142 13,159 6,29 5,30 -16,19 -42,-23 -153,-136 -217,-220 -189,-251 -273,-529 -319,-1046 -24,-268 -55,-555 -64,-595 l -8,-35 -12,45 c -119,444 -185,585 -345,740 l -46,44 v -121 c 0,-137 -7,-179 -55,-353 -55,-196 -66,-256 -72,-395 -6,-151 10,-269 57,-405 16,-46 28,-86 26,-87 -10,-10 -190,134 -261,209 -326,342 -473,861 -410,1448 13,128 59,397 68,406 3,3 8,-17 11,-43 11,-75 62,-272 89,-343 50,-133 199,-394 221,-387 15,5 64,107 92,192 19,56 28,110 31,180 10,196 -27,285 -191,453 -61,62 -120,130 -131,150 -43,83 -15,260 70,440 64,136 99,191 254,403 7,11 12,19 10,19 -2,-1 -49,-31 -104,-67 z"
       id="path4" />
  </g>
</svg>
