<?xml version="1.0" encoding="UTF-8" standalone="no"?>
<svg
   version="1.0"
   width="600pt"
   height="600pt"
   viewBox="0 0 600 600"
   preserveAspectRatio="xMidYMid"
   id="svg4"
   sodipodi:docname="heal.svg"
   inkscape:version="1.3.2 (091e20e, 2023-11-25, custom)"
   xmlns:inkscape="http://www.inkscape.org/namespaces/inkscape"
   xmlns:sodipodi="http://sodipodi.sourceforge.net/DTD/sodipodi-0.dtd"
   xmlns="http://www.w3.org/2000/svg"
   xmlns:svg="http://www.w3.org/2000/svg">
  <defs
     id="defs4" />
  <sodipodi:namedview
     id="namedview4"
     pagecolor="#ffffff"
     bordercolor="#000000"
     borderopacity="0.25"
     inkscape:showpageshadow="2"
     inkscape:pageopacity="0.0"
     inkscape:pagecheckerboard="0"
     inkscape:deskcolor="#d1d1d1"
     inkscape:document-units="pt"
     inkscape:zoom="0.59985352"
     inkscape:cx="683.5002"
     inkscape:cy="684.33374"
     inkscape:window-width="2560"
     inkscape:window-height="1369"
     inkscape:window-x="1912"
     inkscape:window-y="515"
     inkscape:window-maximized="1"
     inkscape:current-layer="svg4" />
  <g
     transform="matrix(0.08691242,0,0,-0.08691242,-146.5275,742.16302)"
     fill="#000000"
     stroke="none"
     id="g8"
     inkscape:label="backdrop">
    <path
       id="path5"
       d="m 5106.7207,1634.4668 c -107.9216,0.3038 -215.8351,7.2825 -322.8631,21.1755 -132.0183,17.1271 -262.7194,44.6879 -390.2073,83.0626 -38.0477,11.4863 -75.8528,23.779 -113.3805,36.8647 -92.0367,32.0778 -182.385,69.0524 -270.2743,111.2006 -90.4907,43.3829 -178.3591,92.2507 -262.8524,146.3988 -97.6116,62.536 -190.6954,132.0968 -278.6488,207.6032 -66.1587,56.7717 -129.4502,116.8633 -189.9072,179.6656 -84.8142,88.0437 -164.2305,181.326 -237.0212,279.5558 -66.5264,89.7496 -127.5471,183.5897 -182.3829,280.9268 -36.4069,64.5989 -70.0934,130.7298 -101.0035,198.1317 -22.3949,48.8454 -43.3182,98.365 -62.7674,148.456 -38.8217,99.9268 -71.7356,202.1304 -98.9912,305.8043 -30.507,116.1122 -53.6406,234.1642 -69.1402,353.2135 -17.4234,133.6997 -25.164,268.6646 -23.0078,403.4797 2.3065,144.7239 15.9855,289.2655 40.8875,431.8502 26.5475,152.0851 65.7861,301.9406 116.9716,447.589 49.5381,141.0234 110.1618,278.1367 180.8572,409.8267 51.8874,96.6152 109.362,190.2367 172.1932,280.1231 63.1825,90.4196 131.743,177.0742 205.1022,259.4502 47.7842,53.6882 97.5778,105.5848 149.1658,155.6274 73.5758,71.3825 150.7971,138.9823 230.9397,202.8954 67.4747,53.7969 137.0208,104.9838 208.2581,153.6845 77.3462,52.8722 156.6713,102.8336 237.55,150.1194 27.2756,15.9321 54.7363,31.5445 82.1205,47.2888 10.8007,6.1962 21.6013,12.3924 32.402,18.5885 1.4505,66.5306 2.901,133.0612 4.3516,199.5918 -10.4747,15.4818 -21.0344,30.9072 -31.3523,46.494 -14.5779,22.2649 -27.921,45.4931 -37.6823,70.3069 -10.7825,27.0982 -17.4462,55.6865 -21.4839,84.525 -4.4831,31.3903 -6.2814,63.0878 -7.4617,94.7513 -1.4037,39.3245 -1.5385,78.6797 -1.5383,118.0252 0.045,48.3872 0.5946,96.7717 1.1024,145.1554 1.007,104.469 2.0229,209.057 3.0333,313.5717 0.069,10.9218 2.9363,21.7447 7.87,31.4637 10.4037,21.4259 20.6722,42.917 31.1699,64.2971 7.1142,14.2296 15.0878,28.0248 23.7126,41.3907 25.0361,38.7547 55.7764,73.6532 89.9118,104.6231 40.2612,36.5763 85.2321,67.7458 132.5883,94.4057 38.0866,21.4254 77.827,39.8273 118.4665,55.8554 35.1615,13.9721 71.1004,25.9566 107.522,36.1919 50.0878,14.1019 101.0164,25.0224 152.1825,34.3975 54.1463,9.8689 108.5849,18.0563 163.1174,25.4673 6.4977,0.8564 12.9871,1.7966 19.5214,2.3368 17.7994,1.6172 35.6766,2.078 53.5359,2.5179 34.7246,0.7157 69.4608,0.4512 104.1867,-0.021 61.7198,-0.9242 123.42,-2.9368 185.0831,-5.7105 43.7444,-2.0088 87.475,-4.4351 131.1321,-7.8745 21.5967,-1.7235 43.1833,-3.7096 64.6541,-6.6355 10.8798,-1.5326 21.6704,-3.6172 32.4412,-5.7716 73.4764,-14.4881 146.2176,-33.1219 217.0063,-57.6603 62.738,-21.7866 123.9924,-48.2951 181.558,-81.5254 44.7086,-25.864 87.1554,-55.9209 124.9794,-91.1717 34.6883,-32.3608 65.4104,-69.2206 89.2735,-110.2961 6.5419,-11.23 12.4981,-22.7903 18.1244,-34.5028 10.813,-22.0143 21.6272,-44.0281 32.4394,-66.0428 1.1731,-126.9916 2.3423,-253.9833 3.4686,-380.9754 0.5127,-76.2102 0.5909,-152.433 -1.0521,-228.6309 -0.5947,-25.8451 -1.3776,-51.6932 -2.9832,-77.4978 -0.8286,-12.5551 -1.8288,-25.1288 -4.0108,-37.5321 -1.4413,-7.87 -3.6838,-15.5723 -6.393,-23.0945 -6.4402,-18.5744 -14.5338,-36.5234 -23.0427,-54.2284 -9.1497,-18.8597 -19.2785,-37.2421 -30.3101,-55.0663 -6.8304,-11.3131 -13.6608,-22.6263 -20.4911,-33.9395 0,-69.6914 0,-139.3828 0,-209.0742 19.5314,-10.8954 39.1078,-21.7111 58.5476,-32.7694 85.8133,-48.8771 170.151,-100.3727 252.4674,-154.9427 76.6299,-50.796 151.5051,-104.262 224.075,-160.7141 62.5508,-48.6422 123.3801,-99.5083 182.1348,-152.677 73.0181,-66.0689 142.7949,-135.7343 208.7377,-208.8712 40.6383,-45.0736 79.8131,-91.4658 117.4447,-139.0785 46.4785,-58.8251 90.6201,-119.4968 132.2759,-181.8302 27.8919,-41.8215 54.6965,-84.3678 80.3906,-127.5744 43.3331,-72.8884 83.4609,-147.6851 120.0973,-224.1604 35.3437,-73.7681 67.4195,-149.1026 96.0762,-225.7169 22.9726,-61.4324 43.749,-123.6863 62.2523,-186.6095 17.3612,-59.002 32.7148,-118.5933 46.0894,-178.6241 13.5902,-61.0534 25.1104,-122.5659 34.5783,-184.3924 17.5639,-114.7154 28.067,-230.497 31.8037,-346.4843 3.1208,-96.8332 1.5481,-193.823 -4.8843,-290.4945 -4.5243,-68.0182 -11.4765,-135.8756 -20.8699,-203.394 -8.5354,-61.2377 -19.0706,-122.1982 -31.6731,-182.7306 -17.407,-83.6986 -38.6939,-166.5925 -63.8522,-248.2971 -29.4431,-95.6391 -64.1749,-189.649 -103.9691,-281.4649 -25.8,-59.5239 -53.7345,-118.1216 -83.7024,-175.6597 -29.0182,-55.715 -59.9534,-110.4297 -92.6827,-164.0484 -32.7672,-53.6525 -67.333,-106.2061 -103.6113,-157.5497 -33.3139,-47.159 -68.0343,-93.3252 -104.1136,-138.404 -82.0949,-102.3232 -172.5593,-197.8599 -269.4894,-286.2299 -67.8462,-61.8287 -138.8914,-120.1426 -212.6861,-174.7323 -60.6362,-44.862 -123.1319,-87.2105 -187.2747,-126.8974 -55.0404,-34.0363 -111.2953,-66.1112 -168.6568,-96.072 -56.3121,-29.4122 -113.6902,-56.788 -172.0196,-81.9657 -88.0982,-38.0153 -178.3897,-70.9986 -270.4258,-98.1509 -43.2069,-12.7514 -86.8094,-24.1519 -130.6983,-34.3067 -182.0815,-42.216 -368.8266,-64.0712 -555.7135,-65.7506 -9.7594,-0.092 -19.5192,-0.1199 -29.279,-0.1057 z m 19.625,426.877 c 19.2555,0.029 38.5115,0.1879 57.7619,0.6514 5.4998,0.1249 10.999,0.275 16.4979,0.4345 0.3702,0.015 1.2001,0.038 1.7463,0.057 9.3464,0.284 18.6907,0.6321 28.033,1.0274 0.3613,0.012 1.1995,0.053 1.7435,0.076 11.8187,0.5123 23.6329,1.125 35.442,1.8225 0.3442,0.025 1.1984,0.074 1.7381,0.108 16.0414,0.9681 32.0717,2.1176 48.0881,3.4369 0.318,0.031 1.1962,0.1019 1.7291,0.1481 12.1038,1.0135 24.1984,2.136 36.2826,3.3617 0.3332,0.031 1.1943,0.1233 1.7299,0.1778 7.0179,0.7174 14.0312,1.4798 21.0416,2.2675 0.3163,0.04 1.1926,0.1377 1.7237,0.1999 24.1697,2.7538 48.2892,5.9493 72.3388,9.6068 0.3894,0.063 1.1867,0.1825 1.7323,0.2671 30.2975,4.6327 60.4834,9.9979 90.5177,16.1098 0.324,0.064 1.1761,0.2412 1.7026,0.3486 26.473,5.4156 52.8272,11.4114 79.0376,17.9815 0.3686,0.09 1.1643,0.2936 1.6964,0.4271 3.2612,0.8192 6.5187,1.6534 9.7763,2.4869 0.3421,0.085 1.1623,0.3011 1.6876,0.4364 49.716,12.8432 98.8778,27.8116 147.3749,44.6789 0.3506,0.1176 1.096,0.3812 1.5976,0.5547 1.2039,0.4254 2.6427,0.9255 3.9369,1.3796 3.5201,1.2428 7.0823,2.4981 10.5268,3.7363 23.2097,8.3054 46.2571,17.0626 69.1477,26.2102 0.3284,0.1359 1.1139,0.4483 1.6174,0.6517 3.7218,1.4905 7.4373,2.9968 11.1521,4.5046 0.3245,0.1285 1.1114,0.4544 1.6131,0.6585 1.5853,0.649 3.1707,1.298 4.756,1.947 0.3267,0.1402 1.1095,0.4591 1.6109,0.6678 1.5835,0.6544 3.167,1.3087 4.7505,1.963 0.3483,0.1407 1.1085,0.4615 1.6145,0.6711 26.5539,11.0578 52.88,22.6605 78.987,34.7352 0.2908,0.1396 1.0884,0.5068 1.5735,0.7337 40.0185,18.581 79.5525,38.2156 118.4265,59.0885 0.2921,0.1626 1.0566,0.5704 1.5297,0.827 62.2056,33.4702 122.7512,70.0201 181.3961,109.3957 0.2705,0.1878 0.9952,0.6716 1.4399,0.9728 55.6611,37.4502 109.5907,77.472 161.5936,119.8548 73.1732,59.6358 142.5163,123.9605 207.5837,192.3462 0.2662,0.2758 0.8266,0.8709 1.2054,1.269 4.1228,4.3386 8.2251,8.6964 12.3161,13.065 0.2671,0.2919 0.8186,0.8783 1.1946,1.283 13.0351,13.9552 25.8865,28.0818 38.5651,42.3615 0.2986,0.3317 0.8405,0.9485 1.2323,1.3893 0.875,0.9899 1.9276,2.1738 2.6935,3.0443 72.9451,82.592 139.8875,170.4678 200.3653,262.5762 0.1951,0.3048 0.6571,1.005 0.9544,1.4612 3.905,5.9531 7.7767,11.9281 11.6315,17.9138 0.1819,0.2912 0.647,1.0115 0.9374,1.4671 1.0703,1.6718 2.1407,3.3435 3.211,5.0153 0.1919,0.2955 0.6445,1.0131 0.9363,1.4703 9.3398,14.6632 18.5167,29.43 27.5344,44.2934 0.1604,0.2742 0.6198,1.0282 0.8948,1.4865 16.656,27.5115 32.7601,55.357 48.2869,83.5213 0.1586,0.2813 0.5782,1.0522 0.8369,1.5212 2.8681,5.2112 5.7172,10.4329 8.5518,15.6624 0.7984,1.4892 1.7086,3.1687 2.55,4.7311 2.0089,3.7351 4.0055,7.4766 5.9988,11.2201 0.1813,0.3502 0.5612,1.0614 0.8186,1.5498 0.7906,1.4951 1.614,3.0472 2.3548,4.4491 5.5054,10.4365 10.93,20.9156 16.2836,31.4308 0.2344,0.47 0.6331,1.2491 0.9304,1.8377 0.5802,1.1409 1.2601,2.4901 1.7786,3.5021 3.6329,7.1865 7.2273,14.3923 10.7949,21.6113 0.1664,0.3495 0.5291,1.0779 0.7707,1.5724 0.828,1.6877 1.6488,3.348 2.4425,4.9726 3.39,6.9437 6.7545,13.8998 10.0915,20.8691 0.1103,0.2224 0.5149,1.0834 0.7386,1.5519 27.3048,57.2824 52.3624,115.6351 75.1139,174.8734 22.6459,58.9273 43.0294,118.7245 61.0777,179.2186 15.98,53.4949 30.1582,107.5274 42.5225,161.9713 2.0178,8.8739 3.9801,17.7602 5.9067,26.6543 0.072,0.324 0.2517,1.174 0.365,1.6996 0.5522,2.5793 1.1043,5.1586 1.6565,7.7379 0.054,0.276 0.2365,1.1308 0.3398,1.6289 10.2339,48.5342 19.0661,97.3648 26.4402,146.4153 2.2238,14.4613 4.0676,28.979 5.5969,43.5298 4.5094,42.5351 7.1383,85.2483 8.8987,127.9786 0.5773,14.3023 1.0427,28.6091 1.4177,42.9181 0.018,0.8889 0.048,2.0663 0.071,3.066 0.081,3.4552 0.1624,6.9104 0.2436,10.3657 0.01,0.3873 0.025,1.2004 0.037,1.7508 0.2608,12.2041 0.4216,24.4101 0.5486,36.6164 0,0.3282 0.01,1.2005 0.011,1.7374 0.1971,22.6659 0.152,45.3336 -0.095,67.9989 0,0.3641 -0.014,1.1375 -0.019,1.6582 -0.13,9.4608 -0.2923,19.4107 -0.4731,28.5648 -0.2899,12.8223 -0.6102,25.6441 -1.0425,38.4625 -0.018,0.3957 -0.042,1.2 -0.063,1.7521 -0.4472,13.1224 -0.9786,26.2419 -1.5993,39.3573 -0.015,0.3696 -0.059,1.1993 -0.085,1.7451 -0.3667,7.631 -0.772,15.2601 -1.2025,22.8877 -0.024,0.3359 -0.071,1.1986 -0.1042,1.7363 -0.5992,10.3567 -1.2728,20.7089 -2.0091,31.0567 -0.021,0.3182 -0.088,1.1973 -0.1263,1.7307 -0.1584,2.1529 -0.3169,4.3058 -0.4753,6.4587 -0.027,0.3017 -0.093,1.1968 -0.1353,1.7263 -1.3846,18.1774 -3.0283,36.3359 -4.9995,54.4593 -0.035,0.3496 -0.1322,1.1934 -0.1911,1.7323 -0.4503,4.0935 -0.9252,8.1843 -1.4124,12.2735 -0.044,0.3244 -0.1457,1.1918 -0.2117,1.7243 -0.682,5.638 -1.4065,11.2709 -2.1672,16.8988 -0.042,0.3224 -0.1634,1.1894 -0.2357,1.7207 -0.7019,5.1332 -1.4536,10.2595 -2.1842,15.3887 -0.056,0.4061 -0.1729,1.1881 -0.2521,1.7381 -1.0454,7.2139 -2.1234,14.4229 -3.2206,21.6291 -0.059,0.4055 -0.1822,1.1867 -0.2659,1.736 -0.704,4.6108 -1.4266,9.2187 -2.1501,13.8265 -0.066,0.3973 -0.1896,1.1856 -0.2777,1.7325 -6.7402,42.5212 -14.4848,84.883 -23.2418,127.035 -0.069,0.3079 -0.2471,1.1749 -0.3579,1.6972 -6.1844,29.6822 -12.8942,59.2546 -20.1089,88.7032 -0.071,0.3018 -0.2877,1.1655 -0.4145,1.6829 -0.6854,2.7717 -1.3708,5.5435 -2.0562,8.3152 -0.076,0.2859 -0.2933,1.1639 -0.4234,1.6772 -2.3581,9.4313 -4.7784,18.8469 -7.2368,28.2525 -0.071,0.2827 -0.3064,1.1605 -0.4406,1.6718 -4.5742,17.3891 -9.3382,34.7284 -14.284,52.0157 -0.078,0.2558 -0.3335,1.1526 -0.4799,1.6551 -13.4134,46.7147 -28.1876,93.0397 -44.3736,138.8683 -0.1381,0.3794 -0.4015,1.1315 -0.5876,1.6536 -9.146,25.8771 -18.7587,51.5887 -28.805,77.1296 -0.1462,0.3785 -0.4405,1.1169 -0.6434,1.6332 -13.179,33.4265 -27.1348,66.5467 -41.8409,99.3297 -0.1587,0.3442 -0.4934,1.0947 -0.7195,1.5944 -6.3086,14.0411 -12.7692,28.0138 -19.3548,41.9271 -0.1532,0.3136 -0.5165,1.0839 -0.7502,1.5725 -6.6006,13.9042 -13.3467,27.7399 -20.2244,41.5095 -0.1616,0.3307 -0.5382,1.0733 -0.7822,1.5618 -5.6787,11.3405 -11.4504,22.6343 -17.3115,33.8816 -0.1707,0.3344 -0.5563,1.0641 -0.8093,1.5498 -22.3347,42.7664 -46.019,84.8271 -70.9923,126.108 -6.6684,11.0087 -13.418,21.9687 -20.2648,32.8676 -0.2843,0.4417 -0.7469,1.1846 -1.0996,1.7418 -0.6756,1.075 -1.485,2.3537 -2.0782,3.3031 -25.9823,41.1492 -53.2818,81.4636 -81.7634,120.9233 -0.1609,0.2185 -0.6545,0.9003 -0.9714,1.3364 -12.1175,16.7566 -24.4518,33.3564 -36.9976,49.795 -0.321,0.4134 -0.8515,1.1118 -1.2528,1.6344 -0.8526,1.1141 -1.7052,2.2281 -2.5577,3.3421 -0.2413,0.3202 -0.732,0.9518 -1.0688,1.3912 -7.2782,9.4695 -14.6278,18.8841 -22.0445,28.2455 -0.2989,0.3836 -0.8293,1.0448 -1.2169,1.5347 -47.6632,60.0548 -98.1463,117.8639 -151.0538,173.3508 -32.4072,34.003 -65.7999,67.0587 -99.8783,99.3836 -32.0976,30.4264 -64.9576,60.0495 -98.5756,88.7876 -0.2298,0.2001 -0.9139,0.7784 -1.318,1.1237 -43.9058,37.4745 -89.1491,73.3713 -135.441,107.8512 -10.8846,8.1169 -21.8331,16.1479 -32.825,24.1188 -0.301,0.2215 -0.9732,0.7034 -1.4163,1.0246 -72.3813,52.3769 -146.9153,101.7124 -222.3767,149.5211 -9.1503,5.7902 -18.3145,11.5582 -27.4902,17.3079 -1.0507,0.6618 -2.3176,1.4491 -3.4514,2.1592 -29.5487,18.4949 -59.2616,36.7255 -89.0135,54.891 -30.5867,18.7314 -61.1249,37.5906 -90.5933,58.0556 -26.8713,18.6958 -52.8507,38.9442 -75.5805,62.5875 -17.1759,17.8924 -32.3236,37.7945 -44.4243,59.4659 -14.6928,26.1939 -24.8336,54.7754 -31.3944,84.0355 -7.363,32.481 -10.659,65.7181 -12.7119,98.9097 -2.1199,35.8496 -2.6066,71.7693 -2.8791,107.6727 -0.2517,38.367 -0.091,76.735 -0.1469,115.1025 0,54.4347 0,108.8693 0,163.3039 27.4421,24.3341 54.9319,48.6147 82.3,73.0316 7.3081,6.7491 14.7889,13.496 20.4606,21.7383 4.3325,6.6193 6.4372,14.3738 8.133,22.0179 2.7359,12.5897 4.0178,25.4367 5.112,38.2559 1.0238,12.697 1.6307,25.4237 2.0549,38.1536 0.01,0.3028 0.038,1.1998 0.053,1.7307 0.043,1.3658 0.087,2.7316 0.1303,4.0974 0.013,0.3282 0.034,1.2002 0.051,1.7368 0.3213,11.1029 0.5118,22.2093 0.6388,33.316 -6e-4,0.3198 0.01,1.2005 0.013,1.7355 0.3636,38.2526 0.025,76.5072 -0.3278,114.7586 0,0.4882 -0.015,1.3338 -0.021,1.9589 -0.6415,54.7903 -1.1999,109.5819 -2.0188,164.3699 -0.1514,9.7187 -0.3164,19.4371 -0.4798,29.1556 -0.014,0.889 -0.039,2.0664 -0.057,3.0662 -0.174,8.458 -0.3526,16.9159 -0.5564,25.3732 -0.02,0.8889 -0.052,2.0662 -0.077,3.0658 -0.1026,4.2793 -0.2286,8.5578 -0.3493,12.8366 -0.015,0.3449 -0.039,1.2001 -0.057,1.7405 -0.5489,16.9855 -1.137,33.9787 -2.4737,50.9237 -0.6507,7.1939 -1.1907,14.4264 -2.6918,21.5057 -4.9227,7.299 -11.0589,13.6874 -17.4525,19.7029 -12.1817,11.3226 -25.7702,21.0267 -39.8041,29.9066 -22.5936,14.218 -46.5525,26.1495 -71.0054,36.8063 -32.9282,14.2801 -66.876,26.1171 -101.2683,36.3376 -32.1784,9.5377 -64.7817,17.6137 -97.626,24.5044 -0.5146,0.104 -1.3708,0.2865 -2.0164,0.4205 -7.1271,1.4977 -14.2658,2.9416 -21.425,4.2787 -0.01,0 -1.1219,0.2046 -1.5475,0.283 -13.3303,2.4694 -26.7458,4.4494 -40.1869,6.2073 -0.191,0.02 -1.1886,0.1499 -1.6919,0.2124 -13.0405,1.6795 -26.0613,3.1383 -39.1499,4.4751 -0.3761,0.041 -1.1946,0.1204 -1.7402,0.1759 -3.2735,0.3343 -6.5489,0.6487 -9.8242,0.9647 -0.4015,0.034 -1.1955,0.112 -1.7472,0.1628 -27.2351,2.5657 -54.5201,4.5791 -81.8231,6.2649 -0.277,0.013 -1.1981,0.07 -1.7227,0.1 -24.9584,1.5073 -49.9356,2.6948 -74.9219,3.6285 -0.311,0.01 -1.1997,0.041 -1.7324,0.059 -15.3384,0.5557 -30.6807,0.9938 -46.0254,1.3318 -0.3114,0.01 -1.2002,0.024 -1.7332,0.035 -9.9468,0.2081 -19.8946,0.3713 -29.8429,0.4841 -0.3789,2e-4 -1.2007,0.011 -1.7492,0.015 -17.1109,0.1806 -34.2236,0.1921 -51.3348,0.043 -0.3959,0 -1.2006,-0.014 -1.753,-0.019 -6.5675,-0.07 -13.1362,-0.1729 -19.6669,-0.2972 -0.3038,-0.01 -1.1518,-0.026 -1.6641,-0.039 -3.3054,-0.077 -6.6107,-0.1551 -9.916,-0.2324 -0.1609,0 -1.159,-0.033 -1.6445,-0.047 -3.111,-0.083 -6.2217,-0.1783 -9.3321,-0.2812 -0.3787,-0.017 -1.2,-0.043 -1.7481,-0.063 -14.2992,-0.5135 -28.5957,-1.1605 -42.8691,-2.1733 -0.096,-0.012 -1.1453,-0.086 -1.5918,-0.1205 -12.0499,-0.884 -24.0823,-2.0395 -36.0571,-3.6578 -31.2044,-4.1094 -62.3098,-8.9909 -93.2436,-14.8018 -0.2354,-0.049 -1.1782,-0.2251 -1.6862,-0.3232 -7.0455,-1.3293 -14.0799,-2.7158 -21.1068,-4.1397 -0.2254,-0.051 -1.1744,-0.2429 -1.6789,-0.3481 -47.4025,-9.7286 -94.3847,-21.6927 -140.3468,-36.8729 -31.7025,-10.534 -63.0662,-22.6466 -93.2349,-37.1523 -22.0185,-10.6327 -43.4735,-22.5676 -63.4578,-36.6942 -11.8789,-8.4819 -23.2902,-17.7237 -33.318,-28.3606 -4.1717,-4.3867 -7.9295,-9.1384 -11.5828,-13.9586 -1.9571,-2.5625 -3.9095,-5.1284 -5.8632,-7.6934 0,-113.1113 8e-4,-226.2227 0.046,-339.334 0.036,-24.915 0.1419,-49.8299 0.3488,-74.7441 0,-0.3789 0.014,-1.2007 0.02,-1.7491 0.1195,-9.959 0.2449,-19.9179 0.4307,-29.8759 0.01,-0.3958 0.024,-1.2005 0.034,-1.7528 0.041,-2.0459 0.082,-4.0919 0.1223,-6.1378 0.011,-0.3451 0.028,-1.2004 0.042,-1.741 0.4951,-20.8308 1.1233,-41.6313 2.7529,-62.4212 1.0546,-13.371 2.3663,-26.789 5.5361,-39.8496 0.7861,-2.8946 1.5336,-5.877 3.1054,-8.4612 2.1477,-2.8834 4.9693,-5.1579 7.6749,-7.4899 0.069,-0.051 0.8786,-0.7384 1.2208,-1.0241 10.3789,-8.5297 21.262,-16.4173 31.8291,-24.7081 18.9469,-14.6173 37.8942,-29.2341 56.8408,-43.8518 -0.01,-102.4862 0.038,-204.9725 -0.062,-307.4586 -0.1019,-34.7956 -0.1972,-69.5993 -1.3812,-104.3783 -0.7591,-21.2015 -2.0401,-42.4334 -5.3497,-63.4084 -2.9039,-18.1076 -7.6425,-35.9511 -14.5765,-52.9422 -4.9959,-12.3642 -10.8343,-24.3629 -16.6267,-36.3672 -10.9947,-22.2476 -24.1751,-43.532 -40.395,-62.3684 -17.3783,-20.3333 -37.7838,-37.8692 -59.2975,-53.6766 -22.7727,-16.7984 -46.7196,-31.9188 -70.7895,-46.7697 -32.861,-20.1417 -66.2421,-39.4189 -99.1172,-59.5376 -6.0379,-3.6713 -12.0631,-7.3635 -18.0846,-11.0618 -0.7302,-0.4437 -1.7032,-1.0487 -2.5266,-1.5544 -1.8593,-1.1475 -3.8139,-2.3467 -5.5774,-3.4409 -49.7478,-30.7407 -98.9024,-62.4434 -147.3169,-95.2454 -10.318,-6.9855 -20.5999,-14.0247 -30.8487,-21.1108 -0.4651,-0.3184 -1.2058,-0.8356 -1.7766,-1.2302 -55.1698,-38.2346 -109.3058,-77.9705 -162.1228,-119.3979 -19.8205,-15.553 -39.4529,-31.3457 -58.8798,-47.3876 -0.2386,-0.1912 -0.9245,-0.7658 -1.3347,-1.1042 -16.4016,-13.5672 -32.6619,-27.3054 -48.765,-41.2258 -0.2684,-0.2378 -0.9067,-0.7871 -1.3168,-1.1442 -77.3432,-66.9449 -151.0048,-138.1904 -219.816,-213.8943 -27.9873,-30.7737 -55.1896,-62.2893 -81.5097,-94.483 -0.2324,-0.2799 -0.7589,-0.9305 -1.1039,-1.3524 -5.1236,-6.276 -10.2142,-12.5788 -15.275,-18.9054 -0.232,-0.2972 -0.748,-0.9394 -1.0887,-1.3686 -44.3811,-55.6149 -86.211,-113.2617 -125.3887,-172.6561 -6.3207,-9.5847 -12.5708,-19.2159 -18.7609,-28.8855 -0.8495,-1.3375 -1.7952,-2.8141 -2.6817,-4.2051 -0.1895,-0.2909 -0.6246,-0.9859 -0.9082,-1.4316 -4.6042,-7.2508 -9.1697,-14.5267 -13.7031,-21.8223 -0.1996,-0.3298 -0.6315,-1.0213 -0.92,-1.4895 -1.9523,-3.1458 -3.8897,-6.3006 -5.83,-9.4538 -0.2313,-0.3855 -0.6609,-1.0813 -0.9681,-1.5856 -13.1134,-21.407 -25.89,-43.0199 -38.3581,-64.809 -0.1985,-0.3576 -0.5941,-1.0433 -0.8681,-1.5266 -24.1484,-42.2714 -47.0663,-85.2422 -68.8662,-128.7702 -0.1692,-0.3482 -0.5359,-1.0745 -0.7807,-1.5675 -18.5149,-36.9396 -36.0606,-74.3651 -52.5759,-112.2411 -7.2647,-16.6142 -14.3111,-33.3234 -21.1786,-50.1055 -0.1355,-0.3421 -0.4522,-1.1123 -0.6571,-1.6184 -2.5888,-6.3403 -5.1427,-12.6947 -7.6808,-19.0554 -0.1219,-0.3189 -0.4413,-1.1167 -0.6388,-1.6191 -1.6135,-4.063 -3.2103,-8.1326 -4.8045,-12.2032 -0.1384,-0.3477 -0.4354,-1.119 -0.6345,-1.6289 -9.9484,-25.538 -19.4608,-51.2462 -28.5081,-77.1172 -0.1268,-0.3549 -0.3953,-1.1338 -0.5763,-1.651 -5.5812,-15.9577 -10.9729,-31.9812 -16.2128,-48.0541 -0.1057,-0.3169 -0.3699,-1.1422 -0.5364,-1.654 -4.3627,-13.4336 -8.6046,-26.9063 -12.7312,-40.4143 -0.1033,-0.3287 -0.349,-1.1489 -0.5068,-1.6659 -15.5344,-50.9787 -29.3461,-102.4798 -41.4854,-154.3712 -0.062,-0.2871 -0.2703,-1.1695 -0.3886,-1.6852 -15.2105,-65.2467 -27.7079,-131.122 -37.5586,-197.3891 -0.056,-0.406 -0.1748,-1.1878 -0.255,-1.7377 -2.3148,-15.766 -4.5435,-31.5464 -6.485,-47.3631 -1.3387,-11.1968 -2.4699,-22.4176 -3.4729,-33.6492 -0.029,-0.3679 -0.1043,-1.1962 -0.1511,-1.7404 -2.714,-31.2544 -4.6041,-62.5754 -6.0208,-93.9139 -0.013,-0.3782 -0.052,-1.1996 -0.075,-1.7475 -0.2519,-5.6337 -0.4863,-11.2682 -0.7162,-16.9028 -0.049,-1.1954 -0.1064,-2.6407 -0.1544,-3.9346 -0.553,-14.5149 -1.0036,-29.0334 -1.3886,-43.5537 -0.014,-0.4462 -0.032,-1.2669 -0.047,-1.8565 -0.5033,-19.7753 -0.8401,-39.5545 -1.0586,-59.3349 3e-4,-0.3536 -0.01,-1.2007 -0.014,-1.7433 -0.4512,-47.1146 -0.1281,-94.2401 1.2541,-141.3375 0.2904,-9.4512 0.6351,-18.9006 1.0058,-28.3489 0.011,-0.3614 0.049,-1.1997 0.071,-1.7438 1.1597,-27.8652 2.7356,-55.7231 5.3627,-83.4919 0.3667,-3.8356 0.7591,-7.6685 1.1604,-11.5006 0.028,-0.2256 0.13,-1.1921 0.1865,-1.7036 2.2688,-20.7495 4.8492,-41.4646 7.6525,-62.1485 5.5194,-40.5317 12.0814,-80.949 19.6512,-121.1616 0.064,-0.351 0.2238,-1.1797 0.3243,-1.7137 0.8568,-4.5401 1.7329,-9.0765 2.6113,-13.6125 0.073,-0.3575 0.2206,-1.1231 0.3223,-1.6367 2.4417,-12.4696 4.9851,-24.9192 7.6191,-37.3496 0.08,-0.3579 0.2515,-1.1741 0.3666,-1.7075 4.6336,-21.7701 9.5749,-43.4744 14.8131,-65.107 0.085,-0.3613 0.2841,-1.1666 0.4128,-1.6979 6.3255,-26.0131 13.075,-51.9233 20.2669,-77.7103 0.1055,-0.3897 0.3237,-1.1562 0.4723,-1.6902 0.9996,-3.5791 2.012,-7.1546 3.0257,-10.7297 0.1109,-0.3737 0.3308,-1.1543 0.4834,-1.6837 3.3802,-11.8428 6.8565,-23.6581 10.4131,-35.4491 0.1116,-0.3541 0.3495,-1.1488 0.5094,-1.6716 1.0755,-3.5565 2.1665,-7.1083 3.2562,-10.6604 0.1406,-0.4661 0.394,-1.2744 0.5778,-1.8715 2.9795,-9.6492 6.0259,-19.2777 9.1214,-28.8903 0.1216,-0.3594 0.371,-1.142 0.5415,-1.6634 5.8593,-18.1113 11.9289,-36.1546 18.2222,-54.1198 0.1258,-0.3692 0.3981,-1.1328 0.58,-1.653 2.0775,-5.9204 4.1824,-11.8312 6.3048,-17.7356 0.1298,-0.3679 0.4078,-1.1294 0.5944,-1.6479 0.5785,-1.6004 1.1571,-3.2009 1.7357,-4.8014 0.1337,-0.3524 0.4121,-1.1277 0.6013,-1.6421 0.5834,-1.5991 1.1668,-3.1982 1.7502,-4.7973 0.1251,-0.3495 0.4146,-1.1269 0.6026,-1.6402 17.1388,-46.6554 35.7339,-92.7757 55.7568,-138.268 0.1517,-0.352 0.4849,-1.0985 0.7061,-1.6015 27.357,-62.0223 57.3725,-122.8718 89.9464,-182.3202 26.1424,-47.6878 53.9302,-94.4734 83.3142,-140.2353 0.1805,-0.2755 0.6154,-0.9519 0.9202,-1.4238 35.9542,-55.8956 74.2952,-110.2568 114.9121,-162.8622 4.1437,-5.3711 8.3193,-10.7175 12.5037,-16.057 0.191,-0.2356 0.7441,-0.942 1.0741,-1.3583 23.3215,-29.6122 47.3679,-58.6535 72.1173,-87.0831 0.2611,-0.3052 0.7891,-0.905 1.1523,-1.323 4.0192,-4.616 8.065,-9.2088 12.1212,-13.7922 0.2562,-0.2935 0.7973,-0.8978 1.1626,-1.3103 20.3817,-22.9652 41.229,-45.517 62.5229,-67.639 0.2611,-0.2641 0.8346,-0.8633 1.2153,-1.2557 28.6705,-29.7392 58.167,-58.6812 88.4293,-86.799 0.293,-0.2659 0.8809,-0.8158 1.2868,-1.1905 65.5832,-60.8163 134.8282,-117.6891 207.2952,-170.1161 0.1849,-0.1371 0.9732,-0.7007 1.3909,-1.0023 33.5496,-24.2244 67.7965,-47.482 102.6716,-69.7555 0.3174,-0.1974 1.0133,-0.6442 1.4756,-0.9371 49.1121,-31.2965 99.5005,-60.5908 151.0068,-87.768 0.3341,-0.1714 1.0631,-0.5581 1.5485,-0.812 1.3432,-0.7059 2.6864,-1.4118 4.0296,-2.1177 0.3212,-0.1722 1.0644,-0.5557 1.5472,-0.8089 1.8862,-0.984 3.7186,-1.9403 5.5603,-2.8942 0.3559,-0.1876 1.0666,-0.5512 1.5584,-0.8062 58.9524,-30.5272 119.3479,-58.2668 180.924,-83.0805 0.2451,-0.1018 1.1138,-0.4462 1.5989,-0.6414 2.2575,-0.902 4.8625,-1.9483 6.9042,-2.7606 2.8225,-1.116 5.6451,-2.232 8.4676,-3.348 0.2387,-0.097 1.1176,-0.4365 1.6027,-0.6267 7.9666,-3.1226 15.9561,-6.186 23.9578,-9.2171 0.2498,-0.098 1.1234,-0.4218 1.6131,-0.6066 2.2732,-0.8511 4.9149,-1.8462 6.9592,-2.6078 2.8464,-1.0535 5.6927,-2.107 8.5391,-3.1606 0.268,-0.1014 1.1272,-0.4122 1.6224,-0.594 13.8191,-5.0678 27.693,-9.9859 41.6158,-14.7614 0.3375,-0.1114 1.1367,-0.387 1.651,-0.5612 1.3937,-0.4751 2.7874,-0.9501 4.1811,-1.4252 0.3484,-0.1211 1.1375,-0.3843 1.6547,-0.5599 29.437,-9.9529 59.095,-19.2527 88.9468,-27.8815 0.348,-0.1033 1.154,-0.3318 1.6774,-0.4831 1.4734,-0.4216 3.2377,-0.9327 4.5282,-1.2981 2.0415,-0.5788 4.083,-1.1576 6.1245,-1.7364 0.3744,-0.1083 1.156,-0.3246 1.6863,-0.4743 25.0654,-7.0573 50.2767,-13.5873 75.5736,-19.7604 12.2132,-3.0081 24.4457,-5.9369 36.6913,-8.8102 0.3051,-0.074 1.1694,-0.2714 1.689,-0.3927 3.2495,-0.7532 6.499,-1.5064 9.7485,-2.2596 0.2794,-0.06 1.1704,-0.2656 1.6849,-0.3815 15.949,-3.648 31.9287,-7.1628 47.9479,-10.4896 0.3322,-0.064 1.1762,-0.2414 1.7045,-0.3489 16.1642,-3.3451 32.3707,-6.4851 48.6139,-9.4226 0.3819,-0.064 1.1397,-0.2048 1.666,-0.2969 2.0813,-0.3691 4.1627,-0.7383 6.2441,-1.1074 0.3116,-0.057 1.1828,-0.2054 1.7091,-0.2975 24.7194,-4.3108 49.543,-8.0682 74.4607,-11.2088 1.8767,-0.2363 3.7541,-0.4666 5.631,-0.7007 0.3658,-0.041 1.1921,-0.1437 1.7342,-0.2082 31.5475,-3.8339 63.2143,-6.6538 94.9299,-8.6551 0.361,-0.026 1.1984,-0.074 1.7419,-0.1085 22.7141,-1.4093 45.4527,-2.4069 68.1995,-3.1044 6.2057,-0.1857 12.5641,-0.3668 18.8303,-0.5031 12.5215,-0.3053 25.3057,-0.5087 37.997,-0.6546 0.5528,0 1.4925,-0.014 2.1948,-0.02 16.0428,-0.1681 32.0866,-0.2266 48.1302,-0.2325 z"
       style="fill:#ffffff;fill-opacity:1" />
    <path
       id="path6"
       d="m 5079.832,7140.5527 c -38.5307,0.1167 -77.065,0.3693 -115.5826,1.4452 -32.4603,0.9066 -64.9131,2.3267 -97.2987,4.7374 -44.9069,3.3685 -89.7017,8.7837 -133.907,17.4633 -37.3864,7.3003 -74.3314,16.7443 -110.8491,27.5562 -11.811,3.5068 -23.4675,7.5265 -34.9308,12.0418 -28.2186,11.0711 -55.3952,24.7112 -81.465,40.1557 -22.371,13.3008 -43.897,28.0803 -63.9668,44.6665 -15.0465,12.5043 -29.2389,26.1502 -41.41,41.5015 -8.0474,10.2806 -15.1521,21.2933 -21.3338,32.7893 -6.5924,12.424 -11.5932,25.6838 -14.8734,39.3599 -4.9386,20.2451 -6.5839,41.1025 -7.6704,61.8569 -1.1871,24.12 -1.4021,48.2736 -1.6367,72.4177 -0.334,39.9007 -0.217,79.8031 -0.2516,119.7047 0,99.0903 -0.01,198.1805 -0.01,297.2707 7.8886,-2.5664 15.7774,-5.1326 23.666,-7.6992 1.0515,19.2953 6.6294,38.2159 15.4693,55.357 8.8137,17.1825 20.7291,32.6317 34.2215,46.391 17.402,17.7943 37.3359,32.9334 58.2022,46.4225 28.9561,18.6849 59.8483,34.194 91.4354,47.8939 40.5315,17.5261 82.3938,31.8427 124.8249,44.0095 19.5656,5.6497 39.2081,11.1844 59.249,14.9018 11.9504,2.1617 24.1296,3.6646 36.2882,2.7875 12.2189,-0.7703 24.3064,-3.9221 35.2392,-9.4592 14.4621,-7.2701 26.8641,-18.6205 35.2348,-32.4878 6.9824,-11.5348 11.2704,-24.7166 12.2828,-38.1677 0.8513,-11.7647 -0.5941,-23.7127 -4.4825,-34.8614 -5.1919,-15.0866 -14.5765,-28.6556 -26.7021,-39.0051 -10.6081,-9.2067 -23.0484,-15.9608 -35.6566,-21.9968 -9.9585,-4.7483 -20.1853,-8.8976 -30.3346,-13.2129 22.848,-12.8233 46.4169,-24.3537 70.4973,-34.6735 23.9369,-10.1829 48.357,-19.4035 73.5515,-25.9808 8.1901,-2.0891 16.4983,-3.6904 24.8609,-4.9087 18.7848,-3.0377 37.5475,-6.2151 56.2835,-9.5374 10.1415,-1.0987 20.3615,-0.2869 30.4829,0.6328 21.182,2.1264 42.0972,6.3828 62.7119,11.6245 23.0097,5.9486 45.6734,13.3048 67.6553,22.3547 19.0084,7.8301 37.4365,17.0845 54.9769,27.8128 21.4006,12.9719 41.759,27.6318 61.0911,43.5135 0.071,0.055 0.8832,0.7334 1.2275,1.0181 14.7156,12.24 28.8628,25.2147 41.766,39.3677 4.3418,4.8011 8.5413,9.741 12.3678,14.9657 -0.741,13.7911 1.1795,27.7895 6.2015,40.6863 6.555,17.0558 18.302,32.094 33.3723,42.4474 13.1862,9.1263 28.746,14.6817 44.6818,16.3048 14.8375,1.5727 29.8177,-0.1281 44.3669,-3.1388 13.6917,-2.7977 27.1656,-6.5423 40.6132,-10.3179 22.8068,-6.4791 45.4757,-13.4289 68.1712,-20.283 17.6922,-5.3642 35.2085,-11.3166 52.4498,-17.9925 33.2589,-12.8519 65.5843,-28.2646 96.0293,-46.8591 24.6542,-15.1126 48.0644,-32.4455 68.7055,-52.7508 13.7402,-13.5665 26.2402,-28.4781 36.4638,-44.8848 8.803,-14.3172 15.0268,-30.162 18.7132,-46.5452 4.4057,-19.1557 5.9217,-38.818 7.0455,-58.3957 1.2212,-22.864 1.5756,-45.7626 1.9028,-68.6535 0.5576,-45.5323 0.5184,-91.0692 0.5674,-136.6043 -0.019,-36.1775 -0.2141,-72.3547 -0.4495,-108.5313 -0.2265,-32.2357 -0.5422,-64.4727 -1.3213,-96.7003 -0.5671,-21.5953 -1.3613,-43.2051 -3.471,-64.7128 -1.8544,-18.1861 -4.9885,-36.4031 -11.5045,-53.5511 -4.2197,-11.1936 -9.8302,-21.8531 -16.6291,-31.6944 -7.4209,-10.8878 -15.8549,-21.0577 -24.784,-30.7356 -22.443,-24.0381 -49.0522,-43.9554 -77.6097,-60.1547 -34.336,-19.5389 -71.2446,-34.1183 -108.724,-46.3877 -40.0316,-13.0175 -80.8771,-23.3664 -121.9291,-32.6031 -33.4994,-7.4964 -67.2094,-14.2389 -101.282,-18.5541 -26.918,-3.4492 -54.0086,-5.3738 -81.11,-6.6318 -28.1486,-1.2655 -56.3243,-1.7872 -84.4969,-2.1643 -48.1521,-0.5918 -96.3095,-0.4445 -144.4641,-0.6294 -0.9112,0 -1.8224,0.01 -2.7336,0.01 z m -189.5078,377.1953 c 31.2072,0.6846 61.9305,9.6787 89.4045,24.2993 16.5546,8.7984 32.0394,19.5807 46.1463,31.9215 -3.3327,0.1471 -6.6654,0.2942 -9.998,0.4414 -0.3868,0.011 -1.1998,0.049 -1.7497,0.07 -4.0716,0.1694 -8.3623,0.3432 -12.2972,0.5097 -5.7004,0.2201 -11.7123,0.4425 -17.3281,0.6602 -14.8987,0.5412 -29.7992,1.0323 -44.7012,1.4726 -0.6719,0.021 -1.6663,0.047 -2.4619,0.071 -14.0728,0.4069 -28.1469,0.7691 -42.2217,1.0975 -0.8889,0.017 -2.0663,0.045 -3.0661,0.066 -24.8089,0.546 -49.6179,1.0878 -74.4241,1.7444 9.6837,-15.2879 14.4902,-33.5993 13.5514,-51.6729 0.076,-0.4485 -0.3586,-1.2312 0.3178,-1.2695 7.2382,-2.4728 14.5865,-4.6576 22.0946,-6.1492 12.0725,-2.4523 24.4194,-3.5139 36.7334,-3.262 z"
       style="fill:#ffffff;fill-opacity:1" />
    <path
       id="path7"
       d="m 5103.8711,2080.1875 c -149.4237,0.4092 -298.8111,16.696 -444.7726,48.7011 -63.1236,13.8253 -125.6061,30.5767 -187.1814,50.1776 -71.2273,22.6894 -141.2344,49.2086 -209.6172,79.4064 -62.5563,27.6239 -123.7469,58.3438 -183.2309,92.0804 -94.0758,53.3387 -183.9643,114.0269 -268.8112,181.072 -96.8625,76.538 -187.1686,161.3294 -269.9992,252.8581 -72.3122,79.9025 -138.9448,164.9315 -199.4137,254.1297 -76.5854,112.9746 -143.3,232.6276 -199.2823,357.1011 -25.0795,55.7527 -48.0073,112.4728 -68.7205,169.9906 -18.4986,51.3857 -35.2278,103.4081 -50.1417,155.9464 -29.6133,104.2861 -52.0329,210.6167 -66.994,317.9892 -4.106,29.4697 -7.6545,59.0186 -10.4782,88.6395 -9.3096,96.9019 -12.1078,194.3946 -9.2567,291.689 3.3405,112.6601 14.256,225.0779 32.2155,336.3412 15.0984,93.4902 35.179,186.1815 60.272,277.4996 27.0318,98.3605 59.8739,195.1511 98.9431,289.3905 20.7994,50.1697 43.3958,99.5969 67.844,148.0939 29.9599,59.4685 62.5179,117.6231 97.3732,174.3593 33.0939,53.8544 68.2905,106.4138 105.3912,157.5893 56.1725,77.5046 116.7083,151.8288 180.93,222.7999 92.2925,101.9773 192.1849,197.0157 297.9668,284.8976 77.205,64.1563 157.5565,124.5093 240.4694,181.0892 64.4138,43.9631 130.3958,85.6218 197.6811,125.0476 8.178,4.82 16.4051,9.5643 24.3683,14.7368 19.3537,12.4314 37.7926,26.3032 54.9704,41.6064 0,0 0.8474,0.762 1.1673,1.0517 20.3662,18.3162 39.0135,38.6464 54.7028,61.1289 8.1152,11.6797 15.5008,23.9019 21.5738,36.7726 1.8293,4.0958 2.8122,8.4966 3.5285,12.9062 1.6298,9.787 2.2923,19.7006 2.9924,29.5879 0.4902,7.6749 0.8638,15.3566 1.168,23.041 0.01,0.3027 0.045,1.1996 0.064,1.7304 0.3868,10.1809 0.7015,20.3643 0.9729,30.5489 0.012,0.3366 0.03,1.2003 0.044,1.7389 1.5066,62.1685 1.8597,124.3594 3.4649,186.5257 0.9003,36.474 2.0068,72.9467 3.8376,109.3872 0.7869,14.6914 1.6534,29.3904 3.3183,44.0127 1.3768,11.5169 3.8646,23.0356 8.8678,33.5619 4.864,10.5298 11.8688,20.0565 20.4445,27.8642 4.376,4.2906 9.4563,7.8083 14.8426,10.7082 5.0189,2.9133 10.1775,5.6144 15.4882,7.9428 7.8944,1.0807 15.6584,3.1849 23.6553,3.4376 12.1446,0.4005 24.1518,-2.0014 35.9037,-4.8134 24.9362,-5.7718 49.568,-12.7582 74.383,-19.0144 12.6503,-3.1296 25.357,-6.0296 38.1057,-8.7303 0.2744,-0.061 1.1745,-0.2465 1.6895,-0.3553 1.2096,-0.2533 2.4192,-0.5066 3.6288,-0.7599 0.2572,-0.048 1.1757,-0.2399 1.6873,-0.3433 2.9851,-0.6165 5.9743,-1.2128 8.9631,-1.811 0.2927,-0.061 1.1779,-0.2315 1.698,-0.3346 10.1069,-1.991 20.2392,-3.852 30.388,-5.6166 0.3118,-0.056 1.1832,-0.2029 1.7097,-0.2938 10.1635,-1.7487 20.3455,-3.3882 30.5422,-4.9308 0.3646,-0.057 1.1373,-0.1721 1.6582,-0.25 17.4733,-2.6207 34.9895,-4.9535 52.5371,-7.0176 0.4424,-0.054 1.2587,-0.147 1.8443,-0.2159 4.6538,-0.5463 9.3104,-1.068 13.9682,-1.579 0.4092,-0.041 1.1938,-0.1285 1.7467,-0.1874 22.6911,-2.4577 45.428,-4.4851 68.1908,-6.1486 0.2769,-0.023 1.1971,-0.085 1.7214,-0.1226 34.7176,-2.4955 69.4958,-4.1253 104.2923,-4.9711 1.4143,-0.03 3.0659,-0.071 4.5714,-0.1056 3.1596,-0.073 6.3196,-0.126 9.4794,-0.1893 0.3958,0 1.2005,-0.02 1.7529,-0.028 6.4706,-0.114 12.9418,-0.1945 19.4131,-0.2572 0.2207,0 1.1506,-0.01 1.6445,-0.01 26.0557,-0.1822 52.1149,0 78.1629,0.6746 0.7003,0.015 1.0297,0.026 1.6579,0.044 2.5463,0.068 5.1149,0.1431 7.6734,0.2148 0.4042,0.016 1.2001,0.037 1.7542,0.055 8.3476,0.2506 16.6939,0.5459 25.0387,0.8762 0.1838,0.011 1.1531,0.052 1.5313,0.066 6.7363,0.2901 13.4711,0.6027 20.2051,0.9414 0.3695,0.016 1.1991,0.062 1.7448,0.09 4.5278,0.2302 9.0547,0.4772 13.5813,0.7288 0.3864,0.02 1.1988,0.069 1.7482,0.1 1.972,0.1138 3.9439,0.2277 5.9159,0.3415 0.3162,0.024 1.1427,0.07 1.6543,0.1035 2.8125,0.1759 5.625,0.3544 8.4375,0.5313 0.31,0.017 1.1978,0.08 1.7296,0.1145 28.2343,1.8696 56.4366,4.244 84.577,7.2117 0.3001,0.036 1.1935,0.1291 1.7213,0.187 2.3878,0.2573 4.7757,0.5146 7.1635,0.7719 0.266,0.027 1.1925,0.1334 1.7126,0.1909 5.3476,0.5912 10.6918,1.211 16.0355,1.8365 0.2577,0.035 1.191,0.1447 1.7088,0.2084 23.055,2.7585 46.0615,5.9256 68.9982,9.5396 0.2127,0.031 1.1837,0.1896 1.6893,0.2698 25.4732,4.0445 50.8555,8.6674 76.0997,13.9587 0.2743,0.062 1.174,0.2496 1.6886,0.3598 27.8619,5.8748 55.543,12.6236 82.9362,20.4016 15.5977,4.375 31.2486,8.5578 46.8706,12.8447 29.0888,7.9341 58.1774,15.8688 87.2664,23.8021 0.01,-114.9098 -0.032,-229.8198 0.051,-344.7296 0.071,-24.544 0.2468,-49.0887 0.7656,-73.6278 0.011,-0.2947 0.029,-1.2 0.042,-1.7292 0.46,-19.7446 1.1129,-39.4925 2.5156,-59.1954 1.3329,-17.9235 3.0748,-35.8919 7.0981,-53.4401 2.9596,-13.166 7.8472,-25.9246 14.7583,-37.5295 2.9821,-5.1552 6.2154,-10.1611 9.5704,-15.0804 -0.053,0.072 0.6408,-0.9291 0.8778,-1.2741 4.8639,-7.0223 9.9392,-13.8974 15.1172,-20.6902 7.4627,-9.3602 15.7595,-18.0165 24.2258,-26.4659 11.5276,-11.398 23.5954,-22.2707 36.3728,-32.2549 6.2095,-4.8186 12.7265,-9.2197 19.3131,-13.5019 71.6927,-47.501 143.5208,-94.7999 215.3035,-142.1627 32.2936,-21.3639 64.2538,-43.2327 95.811,-65.6705 141.9105,-100.8498 276.0899,-212.8723 398.3523,-336.9005 72.0999,-73.1178 140.0441,-150.3614 202.9197,-231.5569 40.9974,-52.9271 79.8364,-107.528 116.3341,-163.6534 35.3727,-54.4003 68.521,-110.2468 99.3198,-167.3614 30.5699,-56.715 58.8247,-114.6774 84.6753,-173.6932 25.637,-58.546 48.9147,-118.123 69.7968,-178.528 31.3572,-90.6782 57.5328,-183.1488 78.3132,-276.819 28.6989,-129.4604 47.0401,-261.2241 54.594,-393.6153 7.9904,-139.559 3.9924,-279.8065 -12.0464,-418.6729 -7.8858,-68.2806 -18.679,-136.2258 -32.3596,-203.5853 -23.1729,-114.0932 -54.6542,-226.5024 -94.2289,-335.9943 -26.7817,-74.1114 -57.2695,-146.8848 -91.3575,-217.9332 -34.201,-71.2736 -72.0084,-140.8187 -113.2913,-208.2384 -60.0647,-98.0841 -127.4918,-191.6666 -201.6312,-279.5997 -38.5245,-45.6951 -78.8612,-89.863 -120.887,-132.3602 -85.6382,-86.6065 -178.3354,-166.2311 -276.871,-237.8223 -42.1799,-30.6424 -85.4025,-59.8572 -129.6477,-87.4366 -78.0536,-48.6034 -159.3962,-91.9168 -243.2611,-129.6149 -73.7251,-33.1164 -149.3853,-61.9258 -226.4767,-86.1961 -77.112,-24.2921 -155.6451,-44.0688 -235.0548,-59.2485 -81.6054,-15.6086 -164.1415,-26.3414 -247.0201,-32.1771 -51.0727,-3.5949 -102.2756,-5.3217 -153.4743,-5.2011 z m -589.0117,654.8457 c 2.202,0.4037 4.4118,0.7666 6.6308,1.0645 -2.7343,3.6458 -5.4687,7.2916 -8.2031,10.9375 0.5258,-4.0092 0.9485,-8.0323 1.25,-12.0645 0.1074,0.021 0.2149,0.042 0.3223,0.062 z m 1236.0898,8.7246 c 3.362,5.2795 7.3141,10.1678 11.5938,14.7285 -0.5293,0.2608 -1.0475,0.5432 -1.5703,0.8164 -3.8794,-4.8229 -8.1243,-9.3506 -12.67,-13.5507 0.7762,-0.8351 1.5666,-1.6571 2.3321,-2.502 0.1048,0.1693 0.2096,0.3385 0.3144,0.5078 z M 5120,3165.3516 c 41.5495,0 83.099,0 124.6484,0 0,21.6308 0,43.2617 0,64.8925 -24.0653,-11.1127 -48.5818,-21.2213 -73.2633,-30.8774 -27.3772,-10.6683 -54.9736,-20.7662 -82.6605,-30.5994 -3.2298,-1.1386 -6.4596,-2.2772 -9.6894,-3.4157 13.6549,0 27.3099,0 40.9648,0 z m -139.1973,254.9882 c 37.2165,15.2222 74.9597,29.1916 113.2919,41.3488 30.4326,9.5929 61.2565,18.0651 92.5711,24.2628 19.1402,3.7424 38.4934,6.5807 57.9827,7.6013 0,48.0365 0,96.073 0,144.1094 -16.6344,-8.7893 -33.628,-16.8904 -50.8337,-24.4969 -15.6664,-6.901 -31.5088,-13.4091 -47.5381,-19.4202 -25.8299,-9.4324 -51.5676,-19.1157 -77.2559,-28.9268 -21.9554,-8.3879 -43.8425,-16.9533 -65.7096,-25.5679 -9.294,-3.5636 -18.6457,-6.9766 -27.9615,-10.4808 -4e-4,-36.8841 -0.019,-73.7683 0.066,-110.6523 1.7956,0.7409 3.5912,1.4818 5.3867,2.2226 z m -2.3672,551.0098 c 15.5059,6.1047 31.1302,12.2451 46.7987,18.0584 30.3136,11.2934 60.8574,21.9871 91.7159,31.6995 17.9607,5.6066 36.0431,10.9365 54.4959,14.6864 18.1467,3.6731 36.3762,7.5242 54.9336,8.2474 6.0912,0.2505 12.1999,0.075 18.2688,-0.5003 0,67.1498 0,134.2995 0,201.4492 189.0942,0.8065 378.1884,1.6115 567.2824,2.4555 122.5725,0.7863 245.1451,1.5727 367.7176,2.359 0,83.4635 0,166.9271 0,250.3906 -132.43,0.8473 -264.86,1.701 -397.2902,2.518 -179.2366,0.7654 -358.4732,1.5317 -537.7098,2.2965 0,132.0397 0,264.0794 0,396.1191 -12.9568,-12.0945 -27.7058,-22.0629 -42.7201,-31.4001 -20.6428,-12.7533 -42.1092,-24.1 -63.629,-35.285 -27.202,-14.0358 -54.7998,-27.2819 -82.2684,-40.783 -26.8931,-13.2522 -53.7862,-26.5043 -80.6793,-39.7565 0,-83.0853 0,-166.1706 0,-249.2559 -313.3334,0 -626.6667,0 -940,0 0,-86.4323 0,-172.8645 0,-259.2968 313.3333,0 626.6666,0 940,0 0.01,-85.8115 -0.036,-171.623 0.055,-257.4344 0.027,-5.3182 0.066,-10.6362 0.1093,-15.9543 10e-5,-0.3416 0.012,-1.1085 0.016,-1.6133 0.2756,-0.2151 1.0998,0.3864 1.5849,0.4833 0.4398,0.1722 0.8796,0.3445 1.3194,0.5167 z m -1558.5917,611.9766 c 6.6385,15.6876 12.9382,31.5172 18.9504,47.455 5.327,14.0294 10.6914,28.0446 16.176,42.0135 34.0775,87.1351 71.0783,173.1292 111.0251,257.7355 50.5665,107.0487 105.7722,211.9295 166.0811,313.8172 62.6276,105.7827 130.7008,208.419 205.3471,306.1233 55.4229,72.4779 114.5132,142.2253 178.1296,207.6598 40.1816,41.3088 82.2227,80.8373 126.3816,117.8756 29.6746,24.9585 59.8699,49.2916 90.2873,73.3371 32.5868,25.7284 65.4452,51.1186 98.7843,75.8664 17.1015,12.6654 34.2946,25.2278 52.0562,36.9584 10.0342,6.4916 20.3974,12.7201 31.7813,16.5488 8.9903,3.0587 18.4574,4.7725 27.9609,4.8496 2.5762,5.5636 5.8251,10.8091 9.5208,15.6963 6.5916,8.7056 14.81,16.0261 23.4733,22.6117 13.3143,10.2627 27.235,19.7002 41.0981,29.197 28.2204,19.1287 56.8245,37.686 85.5962,55.973 27.8296,17.6705 55.8513,35.0357 83.7159,52.6509 0.3212,0.2083 1.0134,0.6439 1.4767,0.9393 20.5055,12.991 40.9689,26.0488 61.2928,39.3224 0.2828,0.1903 1.0038,0.6589 1.4545,0.9558 5.8114,3.7979 11.6037,7.625 17.3893,11.4622 0.2716,0.186 0.9983,0.6669 1.4444,0.966 1.0617,0.7074 2.3422,1.565 3.2655,2.1777 20.3382,13.6556 40.5369,27.5471 60.0101,42.4203 12.1968,9.4004 24.2142,19.1103 35.0838,30.0439 6.0238,6.1838 11.9393,12.6884 15.8965,20.4325 2.7418,5.376 3.9809,11.3586 4.9266,17.2741 1.618,11.2406 2.0562,22.6085 2.4106,33.9469 0.2903,10.2094 0.508,20.4344 0.023,30.6409 -5.465,3.1809 -11.3053,5.8822 -17.5485,7.0865 -18.3812,4.0204 -37.2845,5.1608 -56.0609,4.7495 -21.1343,-0.5113 -42.1783,-3.0513 -62.9746,-6.7754 -0.1791,-0.037 -1.1783,-0.215 -1.6752,-0.3066 -0.92,-0.1646 -1.8386,-0.3373 -2.7564,-0.5137 -0.3169,-0.058 -1.1788,-0.2279 -1.7047,-0.3287 -35.506,-6.8174 -70.3004,-16.9415 -104.4697,-28.6812 -24.548,-8.4712 -48.7738,-17.8572 -72.7455,-27.8378 -0.095,-0.036 -1.0592,-0.4451 -1.4733,-0.6181 -12.6455,-5.2861 -25.6449,-10.9563 -37.8776,-16.4465 -31.5761,-14.1918 -62.7168,-29.3346 -93.5386,-45.0936 -0.5207,-0.2658 -1.1214,-0.5683 -1.4613,-0.7465 -18.6146,-9.5351 -37.1393,-19.2452 -55.5535,-29.1617 -0.339,-0.1781 -1.0567,-0.5703 -1.5406,-0.8303 -60.6689,-32.7065 -120.1731,-67.5929 -178.1254,-104.908 -0.332,-0.2095 -1.0089,-0.651 -1.4729,-0.9493 -1.4069,-0.9088 -2.8137,-1.8176 -4.2205,-2.7264 -0.372,-0.2477 -1.0625,-0.6907 -1.5565,-1.0132 -14.6413,-9.4934 -29.1734,-19.155 -43.6056,-28.9634 -0.3104,-0.2164 -0.9916,-0.6772 -1.444,-0.9871 -1.3832,-0.9438 -2.7665,-1.8875 -4.1498,-2.8313 -0.3313,-0.223 -0.9903,-0.6789 -1.447,-0.9911 -34.4363,-23.6072 -68.2412,-48.1371 -101.3241,-73.607 -13.103,-10.0867 -26.0924,-20.3209 -38.9613,-30.7046 -4.8483,-3.9083 -9.7893,-7.9281 -14.6403,-11.9203 -0.8721,-0.7183 -1.9702,-1.6156 -2.7004,-2.2216 -51.7977,-42.6926 -101.5681,-87.8489 -148.9927,-135.3541 -27.3919,-27.4416 -54.0154,-55.6499 -79.817,-84.5919 -0.248,-0.2847 -0.7974,-0.8977 -1.1608,-1.3081 -17.534,-19.7011 -34.6875,-39.7402 -51.4661,-60.0884 -0.2136,-0.2661 -0.7618,-0.928 -1.1036,-1.3458 -16.8834,-20.5061 -33.3577,-41.3478 -49.4726,-62.4628 -0.1377,-0.1887 -0.7242,-0.9559 -1.035,-1.3677 -15.5715,-20.4514 -30.7708,-41.1851 -45.6271,-62.1616 -0.1393,-0.1891 -0.691,-0.9802 -0.9893,-1.4015 -21.4828,-30.4165 -42.225,-61.356 -62.2339,-92.7615 -7.4063,-11.6006 -14.6926,-23.2806 -21.5915,-35.1916 -3.3382,-5.6751 -6.8207,-11.7742 -9.9651,-17.246 -17.2788,-30.327 -33.9125,-61.0169 -50.2774,-91.845 -1.9277,-3.6268 -3.8398,-7.262 -5.7573,-10.8942 -0.6288,-1.1896 -1.3648,-2.5965 -2.0349,-3.8697 -5.7226,-10.876 -11.381,-21.7857 -17.0139,-32.7084 -0.1865,-0.3565 -0.5486,-1.0681 -0.8023,-1.5605 -5.9476,-11.5625 -11.8399,-23.1534 -17.6899,-34.7657 -0.4439,-0.8926 -1.0169,-2.0259 -1.5103,-3.011 -8.841,-17.5902 -17.4991,-35.2714 -26.0815,-52.989 -0.1636,-0.3296 -0.5218,-1.0814 -0.7599,-1.5727 -1.9837,-4.1164 -3.9673,-8.2328 -5.951,-12.3492 -0.1432,-0.3103 -0.5169,-1.0837 -0.7485,-1.5715 -20.1838,-42.1321 -39.7587,-84.5609 -58.316,-127.4363 -0.158,-0.3567 -0.476,-1.1023 -0.6953,-1.6079 -6.8991,-15.9561 -13.6454,-31.9781 -20.2363,-48.064 -0.1302,-0.3105 -0.4534,-1.1117 -0.6575,-1.6103 -6.9208,-16.926 -13.6391,-33.9345 -20.1394,-51.0264 -0.1198,-0.3265 -0.4034,-1.0648 -0.5859,-1.5488 -1.2311,-3.2536 -2.4532,-6.5105 -3.6699,-9.7695 -0.1094,-0.307 -0.416,-1.1263 -0.601,-1.6297 -12.2609,-33.0338 -23.6347,-66.4102 -33.5143,-100.2375 -0.097,-0.3223 -0.3347,-1.1531 -0.4855,-1.6703 -0.2029,-0.7034 -0.5073,-1.7437 -0.6473,-2.2379 -9.1672,-31.9262 -17.0547,-64.2609 -22.4643,-97.0482 -1.4524,-8.8207 -2.7234,-17.6719 -3.7759,-26.5495 -0.024,-0.1845 -0.1375,-1.1899 -0.1962,-1.6925 -0.8677,-7.5932 -1.5813,-15.205 -2.0909,-22.8309 -0.025,-0.445 -0.079,-1.2648 -0.1152,-1.8533 -0.715,-11.4363 -0.9841,-22.9041 -0.6641,-34.3596 0,0.074 0.036,-1.1302 0.049,-1.5507 0.8818,-26.6932 5.034,-53.5551 14.9985,-78.4502 5.6669,-14.1912 13.2614,-27.6085 22.5364,-39.7538 5.9838,-7.8592 12.5629,-15.288 19.8291,-21.9862 11.6094,-10.5347 24.7064,-19.3354 38.4255,-26.8753 2.1557,-1.1722 4.3298,-2.3111 6.5251,-3.4073 0.8542,1.9968 1.7084,3.9935 2.5626,5.9903 z m 1560.7519,585.5644 c 31.2384,12.4132 62.7641,24.1413 94.7525,34.485 23.6962,7.6314 47.6713,14.4808 72.0269,19.6776 18.7621,3.942 37.8053,6.8546 56.991,7.4495 13.4891,0.3886 27.0614,-0.4783 40.2823,-3.2703 0,69.1387 0,138.2774 0,207.416 -90.0748,0 -180.1497,0 -270.2246,0 0.6613,-52.9782 1.3222,-105.9565 2.0314,-158.9341 0.4705,-22.3665 0.9578,-44.6835 1.5917,-67.0444 0.032,-1.2056 0.077,-2.6656 0.1137,-3.969 0.3539,-12.1064 0.7365,-24.2121 1.1695,-36.3161 0.4219,0.1686 0.8437,0.3372 1.2656,0.5058 z m 264.0098,1746.4766 c 6.9199,8.3192 14.3555,16.1928 21.959,23.8867 -11.1476,2.3344 -22.6209,4.0724 -34.0159,2.7242 -3.1709,-0.3287 -6.3255,-0.8018 -9.4646,-1.3551 7.6866,-8.0236 14.6744,-16.6973 21.123,-25.7402 0.1328,0.1615 0.2657,0.3229 0.3985,0.4844 z"
       style="fill:#ffffff;fill-opacity:1" />
    <path
       id="path8"
       d="m 4910.0176,5116.498 c -5.6882,0 -11.3763,0 -17.0645,0.01 0,4.0514 0,8.1029 0,12.1543 -12.415,6.4141 -23.4525,15.4493 -32.222,26.327 -11.4202,14.1098 -19.1932,31.1016 -22.6785,48.9004 -3.4184,17.5902 -2.4507,36.0639 3.1618,53.1046 6.0719,18.6983 17.4215,35.4671 31.746,48.8431 14.598,13.7874 31.8476,24.3711 49.4922,33.7778 19.4326,10.3482 39.5735,19.2826 59.7691,28.019 26.9727,11.6201 54.1866,22.681 81.6135,33.184 21.8847,8.3346 43.9803,16.1829 66.5131,22.5936 18.5772,5.2099 37.5799,9.2839 56.8795,10.4281 19.5461,1.1196 39.4651,-1.1324 57.8346,-8.1126 16.0954,-6.0563 30.8725,-15.5938 42.9675,-27.8244 14.3151,-14.3245 25.1626,-32.3142 30.1244,-52.014 4.7928,-18.9321 4.1093,-39.2419 -2.1591,-57.7529 -6.0401,-18.1268 -17.075,-34.3922 -30.9574,-47.4394 -14.7559,-14.046 -32.3302,-24.7125 -50.3863,-33.9506 -20.4998,-10.4377 -41.8746,-19.0237 -63.3631,-27.1833 -32.7647,-12.338 -66.0692,-23.1691 -99.4001,-33.8593 -20.5138,-6.5019 -41.0499,-12.9667 -61.838,-18.5452 -19.7062,-5.2107 -39.749,-9.8959 -60.204,-10.5755 -7.1481,-0.1683 -14.2998,-0.043 -21.4494,-0.083 -6.1265,0 -12.2529,5e-4 -18.3793,0 z"
       style="fill:#ffffff;fill-opacity:1" />
  </g>
  <g
     transform="matrix(0.08691242,0,0,-0.08691242,-146.5275,742.16302)"
     fill="#000000"
     stroke="none"
     id="g4">
    <path
       d="m 4915,8424 c -200,-27 -315,-53 -418,-95 -152,-61 -262,-151 -313,-254 l -29,-60 -3,-310 c -4,-353 0,-386 59,-474 l 40,-59 -3,-138 -3,-137 -129,-74 C 3535,6489 3128,6072 2870,5545 2584,4961 2515,4314 2670,3690 c 121,-485 358,-901 714,-1255 290,-288 619,-486 1016,-609 419,-130 886,-141 1320,-31 508,129 1009,460 1340,887 393,505 588,1109 567,1757 -17,519 -171,1000 -459,1431 -261,389 -610,699 -1100,976 l -88,49 v 141 142 l 35,58 c 20,32 40,76 46,97 6,23 9,163 7,365 l -3,327 -28,57 c -75,153 -280,267 -584,324 -84,15 -463,28 -538,18 z m 529,-234 c 195,-38 344,-107 399,-184 21,-30 22,-41 25,-311 4,-321 1,-338 -74,-404 l -44,-39 v -194 c 0,-295 11,-318 217,-444 329,-200 505,-334 693,-523 393,-397 626,-872 705,-1436 24,-167 24,-463 2,-620 -117,-800 -592,-1482 -1275,-1829 -316,-160 -615,-231 -972,-230 -221,0 -346,16 -555,69 -918,235 -1606,1058 -1715,2050 -15,136 -12,418 5,552 36,276 116,541 236,783 243,491 593,849 1159,1185 139,82 166,105 196,170 23,48 24,60 24,262 v 212 l -35,27 c -75,57 -75,56 -75,389 v 298 l 26,34 c 72,95 269,171 521,203 120,15 415,4 537,-20 z"
       id="path1" />
    <path
       d="m 4730,8105 c -174,-49 -285,-125 -264,-180 18,-47 215,-94 504,-121 136,-13 183,-21 187,-32 3,-8 0,-18 -7,-22 -62,-38 -441,-3 -627,59 l -83,27 v -206 c 0,-199 1,-208 23,-241 27,-40 112,-94 182,-115 132,-39 225,-49 470,-48 209,0 253,3 343,22 167,36 251,74 296,135 19,26 20,41 21,291 0,252 -1,266 -21,293 -33,45 -105,88 -195,116 -135,41 -137,41 -131,11 7,-38 -101,-140 -199,-187 -76,-37 -181,-60 -234,-52 -16,3 -46,8 -65,11 -95,16 -270,108 -270,143 0,31 32,60 95,86 64,26 50,32 -25,10 z m 888,-257 c 7,-7 12,-22 12,-35 0,-32 -35,-45 -76,-28 -28,11 -31,11 -40,-9 -11,-25 -67,-34 -90,-15 -40,33 22,89 67,61 18,-11 23,-10 40,12 22,28 66,35 87,14 z m -738,-184 c 146,-3 269,-10 274,-15 16,-15 -24,-96 -66,-134 -81,-74 -187,-101 -280,-70 -82,27 -139,75 -89,75 11,0 23,5 26,10 4,6 -5,10 -20,10 -17,0 -28,7 -34,23 -7,17 -24,27 -68,40 -72,20 -99,38 -90,62 6,14 15,16 45,11 20,-3 156,-9 302,-12 z"
       id="path2" />
    <path
       d="m 4568,6988 c -3,-211 -4,-225 -26,-266 -36,-67 -99,-129 -176,-174 -493,-287 -873,-674 -1096,-1118 -198,-394 -286,-892 -236,-1330 86,-734 530,-1391 1159,-1714 638,-327 1410,-288 2007,102 848,554 1209,1636 879,2636 -174,528 -524,965 -1054,1313 -88,58 -185,122 -215,142 -30,20 -71,59 -92,86 -62,82 -68,112 -68,343 v 204 l -22,-6 c -280,-81 -713,-86 -988,-11 -30,8 -58,15 -62,15 -4,0 -8,-100 -10,-222 z m 189,25 c 44,-96 32,-195 -26,-210 -57,-14 -77,69 -45,190 25,99 34,101 71,20 z m 594,-8 c 46,-14 100,-24 119,-23 26,2 35,-1 38,-15 2,-12 -7,-22 -33,-33 -20,-8 -41,-14 -48,-13 -39,5 -64,-5 -98,-40 -32,-32 -39,-46 -39,-78 0,-38 -14,-63 -34,-63 -6,0 -27,29 -46,65 -50,94 -61,103 -165,118 -69,9 -91,16 -93,29 -4,18 48,38 103,38 17,1 59,9 95,20 86,25 102,24 201,-5 z m -356,-425 c 22,-5 50,-20 62,-34 18,-21 21,-35 19,-95 -4,-105 -27,-128 -304,-301 -83,-52 -152,-99 -152,-103 0,-5 27,-41 60,-82 78,-95 91,-123 66,-141 -13,-9 -24,-10 -37,-4 -13,8 -124,128 -165,178 -4,6 -184,-132 -269,-206 -290,-253 -571,-698 -760,-1201 -22,-57 -45,-106 -52,-108 -31,-12 -108,22 -154,67 -134,134 -101,362 116,805 46,94 109,211 140,260 230,365 527,630 943,841 215,109 375,150 487,124 z m 525,-345 c 0,-46 5,-96 12,-109 14,-32 59,-46 121,-39 63,7 91,-2 106,-33 15,-35 -2,-58 -22,-30 -13,18 -16,18 -88,1 -41,-10 -81,-21 -89,-25 -16,-8 -16,-6 -25,-132 -7,-92 -20,-124 -44,-109 -10,7 -17,43 -22,123 -11,140 -11,141 -131,136 -55,-2 -91,1 -98,8 -21,21 16,41 97,53 109,16 120,25 128,108 8,86 23,133 41,133 11,0 14,-18 14,-85 z m 769,-674 c 27,-17 0,-60 -96,-153 -54,-51 -145,-142 -203,-203 -291,-305 -419,-402 -468,-353 -7,7 -12,15 -12,19 0,4 57,63 127,131 70,67 223,216 339,330 222,219 272,255 313,229 z m -959,-506 v -465 l 468,-2 467,-3 v -210 -210 l -467,-3 -468,-2 v -540 -540 h -210 c -115,0 -213,0 -217,0 -5,0 -8,25 -8,56 v 56 l 139,48 c 210,73 279,113 263,154 -14,36 -162,3 -336,-75 -35,-16 -65,-29 -67,-29 -2,0 -4,67 -4,149 v 149 l 83,31 c 45,18 111,43 147,56 70,27 130,60 130,72 -1,46 -62,45 -208,-1 -95,-31 -104,-32 -79,-13 15,12 87,54 160,94 144,78 161,93 135,120 -15,15 -23,15 -75,4 -32,-7 -108,-33 -168,-57 -61,-24 -114,-44 -118,-44 -4,0 -7,70 -7,155 v 155 h -470 -470 v 215 215 h 470 470 v 108 109 l 140,69 c 141,68 178,94 165,113 -11,19 -61,12 -141,-19 -43,-16 -79,-28 -81,-26 -6,5 147,97 220,132 45,22 57,33 55,49 -6,44 -127,16 -343,-81 -6,-3 -11,81 -14,236 l -3,240 h 221 221 z m -1139,325 c 55,-42 469,-456 469,-470 0,-4 -8,-18 -18,-30 -26,-32 -75,-21 -149,34 -71,53 -112,96 -287,300 -129,151 -152,188 -123,199 30,13 57,4 108,-33 z m 2484,-195 c 9,-67 38,-94 105,-102 52,-5 80,-17 80,-33 0,-7 -86,-64 -111,-73 -12,-4 -18,-24 -24,-74 -8,-80 -28,-121 -51,-102 -8,6 -14,19 -14,28 0,9 -16,49 -35,89 -38,80 -55,92 -134,92 -26,0 -56,6 -67,14 -17,13 -18,16 -3,31 11,11 36,16 95,16 117,1 118,2 111,61 -11,91 34,142 48,53 z m 15,-1014 c 0,-85 1,-91 26,-110 22,-17 41,-21 105,-21 67,0 80,-3 89,-19 22,-42 5,-67 -26,-37 -12,12 -21,12 -66,1 -29,-8 -64,-15 -78,-17 -23,-3 -25,-8 -32,-78 -12,-129 -14,-141 -29,-150 -25,-16 -33,7 -37,108 -6,136 -4,134 -113,131 -59,-2 -93,1 -101,9 -20,20 4,33 93,48 102,18 119,33 119,109 0,62 17,115 36,115 11,0 14,-19 14,-89 z M 3427,4039 c 7,-13 13,-38 13,-56 0,-39 13,-75 35,-96 12,-13 36,-17 88,-18 183,-3 180,-47 -4,-73 -92,-13 -96,-17 -110,-104 -19,-119 -22,-132 -35,-142 -22,-19 -37,25 -30,91 12,104 -36,169 -125,169 -48,0 -70,13 -51,32 5,5 35,13 67,17 71,10 90,29 101,103 5,29 9,58 10,63 1,6 2,18 3,28 1,25 23,17 38,-14 z m 1163,-107 c 0,-60 -58,-149 -178,-273 -117,-122 -407,-393 -465,-436 -40,-30 -71,-27 -75,8 -3,21 23,51 160,184 288,281 402,398 461,473 63,79 97,94 97,44 z m 1082,-38 c 71,-48 139,-110 264,-244 39,-41 122,-125 186,-186 64,-61 130,-131 147,-154 56,-78 30,-136 -42,-91 -69,43 -677,671 -677,700 0,35 45,26 122,-25 z M 4605,2991 c 3,-5 0,-52 -6,-105 l -12,-95 27,-36 c 15,-19 44,-51 64,-71 35,-34 36,-36 18,-49 -16,-12 -23,-12 -47,0 -28,15 -62,20 -111,17 -20,-1 -32,-11 -44,-34 -23,-46 -54,-78 -76,-78 -22,0 -22,10 -3,74 8,27 15,70 15,96 0,40 -5,52 -36,83 -55,55 -32,87 37,52 45,-24 86,8 103,80 14,58 53,94 71,66 z m 1146,-57 c 11,-90 41,-114 139,-114 52,0 60,-3 60,-18 0,-23 -22,-43 -77,-71 -23,-11 -45,-26 -50,-33 -4,-7 -10,-47 -13,-88 -4,-61 -8,-75 -22,-78 -12,-2 -22,6 -29,25 -23,63 -55,116 -82,139 -26,22 -35,24 -91,18 -49,-5 -64,-3 -74,9 -11,13 -10,18 10,30 13,8 50,20 83,26 95,20 104,29 98,100 -7,75 2,113 25,109 12,-2 19,-17 23,-54 z"
       id="path3" />
    <path
       d="m 5056,5306 c -115,-47 -142,-65 -133,-90 9,-23 29,-20 163,24 129,43 166,68 144,95 -20,24 -58,18 -174,-29 z"
       id="path4" />
  </g>
</svg>
