<?xml version="1.0" encoding="UTF-8" standalone="no"?>
<svg
   version="1.0"
   width="600pt"
   height="600pt"
   viewBox="0 0 600 600"
   preserveAspectRatio="xMidYMid"
   id="svg4"
   sodipodi:docname="heal.svg"
   inkscape:version="1.3.2 (091e20ef0f, 2023-11-25, custom)"
   xmlns:inkscape="http://www.inkscape.org/namespaces/inkscape"
   xmlns:sodipodi="http://sodipodi.sourceforge.net/DTD/sodipodi-0.dtd"
   xmlns="http://www.w3.org/2000/svg"
   xmlns:svg="http://www.w3.org/2000/svg">
  <defs
     id="defs4" />
  <sodipodi:namedview
     id="namedview4"
     pagecolor="#ffffff"
     bordercolor="#000000"
     borderopacity="0.25"
     inkscape:showpageshadow="2"
     inkscape:pageopacity="0.0"
     inkscape:pagecheckerboard="0"
     inkscape:deskcolor="#d1d1d1"
     inkscape:document-units="pt"
     inkscape:zoom="0.59985352"
     inkscape:cx="682.66667"
     inkscape:cy="682.66667"
     inkscape:window-width="1872"
     inkscape:window-height="1032"
     inkscape:window-x="48"
     inkscape:window-y="-36"
     inkscape:window-maximized="1"
     inkscape:current-layer="svg4" />
  <g
     transform="matrix(0.08787236,0,0,-0.08787236,-148.9311,745.83482)"
     fill="#000000"
     stroke="none"
     id="g4">
    <path
       d="m 4915,8424 c -200,-27 -315,-53 -418,-95 -152,-61 -262,-151 -313,-254 l -29,-60 -3,-310 c -4,-353 0,-386 59,-474 l 40,-59 -3,-138 -3,-137 -129,-74 C 3535,6489 3128,6072 2870,5545 2584,4961 2515,4314 2670,3690 c 121,-485 358,-901 714,-1255 290,-288 619,-486 1016,-609 419,-130 886,-141 1320,-31 508,129 1009,460 1340,887 393,505 588,1109 567,1757 -17,519 -171,1000 -459,1431 -261,389 -610,699 -1100,976 l -88,49 v 141 142 l 35,58 c 20,32 40,76 46,97 6,23 9,163 7,365 l -3,327 -28,57 c -75,153 -280,267 -584,324 -84,15 -463,28 -538,18 z m 529,-234 c 195,-38 344,-107 399,-184 21,-30 22,-41 25,-311 4,-321 1,-338 -74,-404 l -44,-39 v -194 c 0,-295 11,-318 217,-444 329,-200 505,-334 693,-523 393,-397 626,-872 705,-1436 24,-167 24,-463 2,-620 -117,-800 -592,-1482 -1275,-1829 -316,-160 -615,-231 -972,-230 -221,0 -346,16 -555,69 -918,235 -1606,1058 -1715,2050 -15,136 -12,418 5,552 36,276 116,541 236,783 243,491 593,849 1159,1185 139,82 166,105 196,170 23,48 24,60 24,262 v 212 l -35,27 c -75,57 -75,56 -75,389 v 298 l 26,34 c 72,95 269,171 521,203 120,15 415,4 537,-20 z"
       id="path1" />
    <path
       d="m 4730,8105 c -174,-49 -285,-125 -264,-180 18,-47 215,-94 504,-121 136,-13 183,-21 187,-32 3,-8 0,-18 -7,-22 -62,-38 -441,-3 -627,59 l -83,27 v -206 c 0,-199 1,-208 23,-241 27,-40 112,-94 182,-115 132,-39 225,-49 470,-48 209,0 253,3 343,22 167,36 251,74 296,135 19,26 20,41 21,291 0,252 -1,266 -21,293 -33,45 -105,88 -195,116 -135,41 -137,41 -131,11 7,-38 -101,-140 -199,-187 -76,-37 -181,-60 -234,-52 -16,3 -46,8 -65,11 -95,16 -270,108 -270,143 0,31 32,60 95,86 64,26 50,32 -25,10 z m 888,-257 c 7,-7 12,-22 12,-35 0,-32 -35,-45 -76,-28 -28,11 -31,11 -40,-9 -11,-25 -67,-34 -90,-15 -40,33 22,89 67,61 18,-11 23,-10 40,12 22,28 66,35 87,14 z m -738,-184 c 146,-3 269,-10 274,-15 16,-15 -24,-96 -66,-134 -81,-74 -187,-101 -280,-70 -82,27 -139,75 -89,75 11,0 23,5 26,10 4,6 -5,10 -20,10 -17,0 -28,7 -34,23 -7,17 -24,27 -68,40 -72,20 -99,38 -90,62 6,14 15,16 45,11 20,-3 156,-9 302,-12 z"
       id="path2" />
    <path
       d="m 4568,6988 c -3,-211 -4,-225 -26,-266 -36,-67 -99,-129 -176,-174 -493,-287 -873,-674 -1096,-1118 -198,-394 -286,-892 -236,-1330 86,-734 530,-1391 1159,-1714 638,-327 1410,-288 2007,102 848,554 1209,1636 879,2636 -174,528 -524,965 -1054,1313 -88,58 -185,122 -215,142 -30,20 -71,59 -92,86 -62,82 -68,112 -68,343 v 204 l -22,-6 c -280,-81 -713,-86 -988,-11 -30,8 -58,15 -62,15 -4,0 -8,-100 -10,-222 z m 189,25 c 44,-96 32,-195 -26,-210 -57,-14 -77,69 -45,190 25,99 34,101 71,20 z m 594,-8 c 46,-14 100,-24 119,-23 26,2 35,-1 38,-15 2,-12 -7,-22 -33,-33 -20,-8 -41,-14 -48,-13 -39,5 -64,-5 -98,-40 -32,-32 -39,-46 -39,-78 0,-38 -14,-63 -34,-63 -6,0 -27,29 -46,65 -50,94 -61,103 -165,118 -69,9 -91,16 -93,29 -4,18 48,38 103,38 17,1 59,9 95,20 86,25 102,24 201,-5 z m -356,-425 c 22,-5 50,-20 62,-34 18,-21 21,-35 19,-95 -4,-105 -27,-128 -304,-301 -83,-52 -152,-99 -152,-103 0,-5 27,-41 60,-82 78,-95 91,-123 66,-141 -13,-9 -24,-10 -37,-4 -13,8 -124,128 -165,178 -4,6 -184,-132 -269,-206 -290,-253 -571,-698 -760,-1201 -22,-57 -45,-106 -52,-108 -31,-12 -108,22 -154,67 -134,134 -101,362 116,805 46,94 109,211 140,260 230,365 527,630 943,841 215,109 375,150 487,124 z m 525,-345 c 0,-46 5,-96 12,-109 14,-32 59,-46 121,-39 63,7 91,-2 106,-33 15,-35 -2,-58 -22,-30 -13,18 -16,18 -88,1 -41,-10 -81,-21 -89,-25 -16,-8 -16,-6 -25,-132 -7,-92 -20,-124 -44,-109 -10,7 -17,43 -22,123 -11,140 -11,141 -131,136 -55,-2 -91,1 -98,8 -21,21 16,41 97,53 109,16 120,25 128,108 8,86 23,133 41,133 11,0 14,-18 14,-85 z m 769,-674 c 27,-17 0,-60 -96,-153 -54,-51 -145,-142 -203,-203 -291,-305 -419,-402 -468,-353 -7,7 -12,15 -12,19 0,4 57,63 127,131 70,67 223,216 339,330 222,219 272,255 313,229 z m -959,-506 v -465 l 468,-2 467,-3 v -210 -210 l -467,-3 -468,-2 v -540 -540 h -210 c -115,0 -213,0 -217,0 -5,0 -8,25 -8,56 v 56 l 139,48 c 210,73 279,113 263,154 -14,36 -162,3 -336,-75 -35,-16 -65,-29 -67,-29 -2,0 -4,67 -4,149 v 149 l 83,31 c 45,18 111,43 147,56 70,27 130,60 130,72 -1,46 -62,45 -208,-1 -95,-31 -104,-32 -79,-13 15,12 87,54 160,94 144,78 161,93 135,120 -15,15 -23,15 -75,4 -32,-7 -108,-33 -168,-57 -61,-24 -114,-44 -118,-44 -4,0 -7,70 -7,155 v 155 h -470 -470 v 215 215 h 470 470 v 108 109 l 140,69 c 141,68 178,94 165,113 -11,19 -61,12 -141,-19 -43,-16 -79,-28 -81,-26 -6,5 147,97 220,132 45,22 57,33 55,49 -6,44 -127,16 -343,-81 -6,-3 -11,81 -14,236 l -3,240 h 221 221 z m -1139,325 c 55,-42 469,-456 469,-470 0,-4 -8,-18 -18,-30 -26,-32 -75,-21 -149,34 -71,53 -112,96 -287,300 -129,151 -152,188 -123,199 30,13 57,4 108,-33 z m 2484,-195 c 9,-67 38,-94 105,-102 52,-5 80,-17 80,-33 0,-7 -86,-64 -111,-73 -12,-4 -18,-24 -24,-74 -8,-80 -28,-121 -51,-102 -8,6 -14,19 -14,28 0,9 -16,49 -35,89 -38,80 -55,92 -134,92 -26,0 -56,6 -67,14 -17,13 -18,16 -3,31 11,11 36,16 95,16 117,1 118,2 111,61 -11,91 34,142 48,53 z m 15,-1014 c 0,-85 1,-91 26,-110 22,-17 41,-21 105,-21 67,0 80,-3 89,-19 22,-42 5,-67 -26,-37 -12,12 -21,12 -66,1 -29,-8 -64,-15 -78,-17 -23,-3 -25,-8 -32,-78 -12,-129 -14,-141 -29,-150 -25,-16 -33,7 -37,108 -6,136 -4,134 -113,131 -59,-2 -93,1 -101,9 -20,20 4,33 93,48 102,18 119,33 119,109 0,62 17,115 36,115 11,0 14,-19 14,-89 z M 3427,4039 c 7,-13 13,-38 13,-56 0,-39 13,-75 35,-96 12,-13 36,-17 88,-18 183,-3 180,-47 -4,-73 -92,-13 -96,-17 -110,-104 -19,-119 -22,-132 -35,-142 -22,-19 -37,25 -30,91 12,104 -36,169 -125,169 -48,0 -70,13 -51,32 5,5 35,13 67,17 71,10 90,29 101,103 5,29 9,58 10,63 1,6 2,18 3,28 1,25 23,17 38,-14 z m 1163,-107 c 0,-60 -58,-149 -178,-273 -117,-122 -407,-393 -465,-436 -40,-30 -71,-27 -75,8 -3,21 23,51 160,184 288,281 402,398 461,473 63,79 97,94 97,44 z m 1082,-38 c 71,-48 139,-110 264,-244 39,-41 122,-125 186,-186 64,-61 130,-131 147,-154 56,-78 30,-136 -42,-91 -69,43 -677,671 -677,700 0,35 45,26 122,-25 z M 4605,2991 c 3,-5 0,-52 -6,-105 l -12,-95 27,-36 c 15,-19 44,-51 64,-71 35,-34 36,-36 18,-49 -16,-12 -23,-12 -47,0 -28,15 -62,20 -111,17 -20,-1 -32,-11 -44,-34 -23,-46 -54,-78 -76,-78 -22,0 -22,10 -3,74 8,27 15,70 15,96 0,40 -5,52 -36,83 -55,55 -32,87 37,52 45,-24 86,8 103,80 14,58 53,94 71,66 z m 1146,-57 c 11,-90 41,-114 139,-114 52,0 60,-3 60,-18 0,-23 -22,-43 -77,-71 -23,-11 -45,-26 -50,-33 -4,-7 -10,-47 -13,-88 -4,-61 -8,-75 -22,-78 -12,-2 -22,6 -29,25 -23,63 -55,116 -82,139 -26,22 -35,24 -91,18 -49,-5 -64,-3 -74,9 -11,13 -10,18 10,30 13,8 50,20 83,26 95,20 104,29 98,100 -7,75 2,113 25,109 12,-2 19,-17 23,-54 z"
       id="path3" />
    <path
       d="m 5056,5306 c -115,-47 -142,-65 -133,-90 9,-23 29,-20 163,24 129,43 166,68 144,95 -20,24 -58,18 -174,-29 z"
       id="path4" />
  </g>
</svg>
