<?xml version="1.0" encoding="UTF-8" standalone="no"?>
<svg
   version="1.0"
   width="600pt"
   height="600pt"
   viewBox="0 0 600 600"
   preserveAspectRatio="xMidYMid"
   id="svg5"
   sodipodi:docname="poison.svg"
   inkscape:version="1.3.2 (091e20ef0f, 2023-11-25, custom)"
   xmlns:inkscape="http://www.inkscape.org/namespaces/inkscape"
   xmlns:sodipodi="http://sodipodi.sourceforge.net/DTD/sodipodi-0.dtd"
   xmlns="http://www.w3.org/2000/svg"
   xmlns:svg="http://www.w3.org/2000/svg">
  <defs
     id="defs5" />
  <sodipodi:namedview
     id="namedview5"
     pagecolor="#ffffff"
     bordercolor="#000000"
     borderopacity="0.25"
     inkscape:showpageshadow="2"
     inkscape:pageopacity="0.0"
     inkscape:pagecheckerboard="0"
     inkscape:deskcolor="#d1d1d1"
     inkscape:document-units="pt"
     inkscape:zoom="1.0323529"
     inkscape:cx="396.66667"
     inkscape:cy="396.66667"
     inkscape:window-width="1872"
     inkscape:window-height="1032"
     inkscape:window-x="48"
     inkscape:window-y="-36"
     inkscape:window-maximized="1"
     inkscape:current-layer="svg5" />
  <g
     transform="matrix(0.15199391,0,0,-0.15199391,-153.09383,745.09029)"
     fill="#000000"
     stroke="none"
     id="g5">
    <path
       d="m 2830,4879 c -118,-11 -226,-34 -328,-70 -287,-102 -482,-260 -592,-479 -78,-156 -109,-295 -117,-530 -9,-263 19,-453 88,-599 l 30,-65 -23,-64 c -19,-53 -30,-69 -70,-98 -129,-92 -117,-185 41,-337 118,-113 164,-145 232,-159 l 58,-12 11,-48 c 5,-27 10,-75 10,-106 0,-53 -30,-352 -36,-361 -2,-1 -59,16 -128,39 l -125,41 -25,56 c -14,30 -39,72 -56,92 -32,42 -133,115 -148,110 -6,-2 -42,-31 -80,-64 l -71,-60 23,-30 c 22,-29 62,-123 55,-129 -2,-2 -26,-14 -54,-27 -53,-25 -145,-109 -145,-131 0,-25 101,-178 113,-171 7,3 38,24 70,46 70,46 148,83 198,92 28,5 87,-10 300,-80 235,-78 303,-105 288,-119 -2,-2 -129,-45 -281,-95 -265,-88 -278,-92 -320,-81 -51,14 -158,70 -209,111 -20,16 -41,29 -47,29 -11,0 -112,-153 -112,-170 0,-20 85,-95 142,-125 32,-17 58,-33 58,-36 0,-20 -34,-97 -54,-124 l -24,-31 57,-50 c 92,-83 91,-83 150,-45 63,41 114,99 146,167 24,51 26,53 107,82 46,16 188,64 316,106 l 234,77 45,-41 c 57,-53 98,-70 172,-70 63,0 167,28 217,59 l 31,19 80,-40 c 109,-54 181,-61 255,-25 30,15 72,42 94,61 l 41,35 316,-105 c 308,-103 315,-106 328,-137 25,-63 80,-134 135,-175 31,-23 62,-42 68,-42 7,0 45,28 84,61 70,59 72,63 57,83 -16,22 -65,124 -65,135 0,3 23,17 52,30 29,13 76,48 106,78 l 54,53 -23,38 c -13,20 -38,61 -56,90 l -34,52 -52,-39 c -62,-47 -156,-95 -215,-111 -42,-11 -55,-7 -318,80 -239,80 -273,94 -265,108 14,26 533,196 574,188 45,-8 146,-58 217,-106 l 60,-40 55,85 c 44,69 53,90 45,104 -21,41 -123,116 -198,147 -8,4 42,112 61,132 l 22,24 -35,30 c -19,16 -54,46 -77,65 l -43,35 -43,-25 c -62,-36 -129,-113 -156,-178 l -23,-55 -127,-42 c -70,-23 -130,-42 -134,-42 -4,0 -7,19 -7,43 0,23 -7,92 -15,152 -17,130 -18,213 -2,274 12,43 13,45 74,61 77,21 96,34 205,133 107,97 151,162 151,222 0,55 -32,107 -86,139 -34,21 -45,36 -68,94 l -27,68 29,62 c 17,34 42,106 56,160 22,85 26,123 30,309 7,289 -20,464 -101,637 -122,264 -376,453 -727,540 -165,41 -324,52 -499,35 z m 418,-109 c 160,-32 334,-103 452,-183 71,-48 176,-154 220,-221 37,-58 95,-184 88,-192 -2,-2 -27,27 -55,64 -87,113 -99,118 -52,17 55,-116 68,-192 47,-271 -63,-238 -61,-225 -49,-294 8,-44 33,-107 77,-194 74,-146 74,-136 13,-266 l -40,-85 37,-97 c 36,-96 37,-98 90,-128 67,-37 81,-67 58,-117 -20,-41 -176,-183 -235,-213 -63,-32 -132,-36 -204,-10 -117,42 -285,35 -350,-14 -19,-14 -17,-15 15,-6 44,12 97,13 104,1 3,-5 -3,-29 -14,-52 -23,-52 -25,-119 -4,-174 8,-22 17,-47 20,-55 3,-9 -11,-26 -36,-44 -38,-26 -42,-27 -59,-12 -23,21 -30,20 -59,-6 l -24,-23 -26,33 c -15,18 -31,32 -37,32 -5,0 -24,-14 -42,-32 l -33,-32 -40,42 c -47,48 -60,47 -106,-14 l -27,-35 -29,36 c -50,60 -62,61 -108,14 l -41,-42 -32,31 c -18,18 -38,32 -44,32 -6,0 -23,-14 -36,-31 l -24,-31 -32,22 c -29,23 -31,23 -50,6 -19,-17 -21,-17 -58,10 -21,16 -40,29 -42,31 -2,1 5,19 15,40 28,58 30,151 6,206 -11,25 -18,48 -14,51 8,9 63,7 102,-4 32,-9 33,-8 15,6 -65,49 -201,56 -331,18 -153,-44 -216,-23 -366,126 -84,81 -98,100 -98,128 0,26 8,37 41,62 23,16 49,32 59,35 11,3 32,43 57,109 l 40,104 -18,33 c -10,19 -32,67 -49,107 l -31,73 61,122 c 33,67 68,153 77,191 18,76 16,93 -37,298 -22,84 -23,90 -7,152 9,36 32,100 51,142 41,87 32,84 -50,-21 -32,-41 -60,-73 -62,-71 -8,8 70,161 112,221 146,204 435,354 762,395 106,13 317,4 432,-20 z M 2436,2383 c 4,-31 1,-57 -11,-89 -17,-45 -17,-46 6,-72 20,-23 24,-36 21,-84 -2,-47 -6,-58 -20,-58 -12,0 -25,20 -42,63 -31,76 -32,163 -5,256 16,56 20,62 31,46 7,-10 16,-38 20,-62 z m 1140,-16 c 20,-83 15,-161 -16,-234 -16,-37 -28,-53 -41,-53 -17,0 -19,8 -19,62 0,49 4,66 21,84 19,20 20,27 10,55 -14,40 -14,119 0,156 13,35 22,21 45,-70 z m 143,-268 c 31,-142 1,-221 -139,-373 -50,-54 -124,-141 -165,-192 -129,-160 -156,-167 -318,-85 -56,28 -109,51 -116,51 -8,0 -60,-21 -115,-47 -78,-36 -113,-47 -153,-48 -63,0 -66,3 -209,175 -57,69 -141,166 -188,215 -62,65 -87,100 -92,125 -4,19 -1,87 6,150 7,63 16,158 20,210 l 6,95 17,-55 c 9,-30 27,-91 41,-135 13,-44 36,-114 50,-155 14,-41 31,-95 37,-119 l 10,-43 50,4 c 48,5 50,4 65,-28 16,-34 37,-42 64,-24 11,7 22,2 42,-23 l 27,-32 22,22 23,23 27,-33 27,-32 30,28 29,28 27,-36 c 15,-19 33,-35 41,-35 7,0 31,20 51,44 l 38,43 42,-46 42,-46 39,38 39,37 24,-25 24,-25 31,30 31,30 22,-22 22,-22 28,34 c 19,22 31,30 36,22 15,-25 52,-13 69,22 16,34 16,35 71,29 l 54,-6 11,59 c 7,33 27,102 46,154 19,52 47,144 62,203 l 28,108 7,-121 c 4,-67 11,-144 17,-171 z m -780,23 c 6,-20 13,-56 17,-79 l 7,-43 h -68 -68 l 5,63 c 3,36 15,81 28,107 l 23,44 23,-27 c 13,-15 28,-44 33,-65 z m 165,21 c 9,-26 16,-68 16,-95 v -48 h -66 -65 l 7,48 c 7,50 26,103 50,140 20,30 37,17 58,-45 z m -343,3 c 10,-24 22,-65 25,-90 l 7,-46 h -39 c -60,0 -67,10 -62,71 6,62 23,109 38,109 6,0 20,-20 31,-44 z m 485,3 c 7,-19 13,-55 13,-81 1,-51 3,-49 -73,-61 l -28,-5 7,52 c 8,63 40,139 57,134 6,-2 17,-20 24,-39 z m -697,-50 c 5,-24 8,-45 7,-47 -2,-2 -15,0 -30,4 -24,6 -26,10 -26,58 0,29 3,56 7,59 10,11 31,-27 42,-74 z m 80,44 c 6,-16 15,-47 20,-70 10,-46 5,-50 -46,-37 -26,7 -30,35 -12,97 12,44 23,47 38,10 z m 730,-4 c 19,-55 14,-96 -11,-103 -52,-13 -57,-9 -47,37 12,54 29,97 39,97 5,0 13,-14 19,-31 z m 93,-16 c 5,-55 3,-59 -34,-68 l -26,-7 9,42 c 20,89 45,105 51,33 z m -955,-111 c 19,-12 5,-82 -17,-82 -18,0 -30,27 -30,68 0,23 23,30 47,14 z m 1001,-34 c -2,-35 -7,-43 -23,-43 -14,0 -21,9 -26,35 -9,42 -5,50 27,50 23,0 25,-3 22,-42 z m -920,16 c 12,-4 22,-14 22,-23 0,-28 -21,-91 -29,-91 -12,0 -31,57 -31,91 0,31 2,32 38,23 z m 832,-23 c 0,-34 -19,-91 -31,-91 -9,0 -29,63 -29,92 0,15 15,24 48,27 7,1 12,-11 12,-28 z m -724,1 c 21,-7 21,-8 5,-61 -9,-30 -21,-56 -27,-58 -12,-4 -34,61 -34,101 0,27 12,31 56,18 z m 630,-37 c -7,-58 -24,-91 -38,-77 -6,6 -16,32 -23,59 -12,48 -12,48 14,54 53,13 54,12 47,-36 z m -509,-15 c -5,-41 -30,-90 -46,-90 -12,0 -19,21 -27,80 l -7,50 h 43 43 z m 409,-7 c -9,-64 -15,-83 -27,-83 -13,0 -48,79 -49,108 0,19 5,22 41,22 h 41 z m -266,14 c 0,-26 -48,-127 -60,-127 -12,0 -37,60 -44,108 l -6,42 h 55 c 51,0 55,-2 55,-23 z m 155,-19 c -9,-55 -34,-110 -49,-105 -13,4 -52,81 -60,120 l -6,27 h 61 61 z"
       id="path1" />
    <path
       d="m 3745,3640 c -6,-10 16,-45 40,-62 6,-4 -4,-21 -23,-41 -18,-18 -29,-37 -25,-41 5,-5 -2,-5 -14,-2 -48,15 -171,23 -238,15 -38,-4 -103,-19 -144,-33 -114,-40 -157,-42 -215,-12 l -49,25 7,-72 c 10,-104 32,-182 77,-266 35,-65 148,-241 154,-241 2,0 -15,41 -37,91 -21,50 -38,93 -36,94 2,2 28,-27 58,-63 74,-90 161,-135 268,-141 132,-6 198,38 229,156 8,32 35,96 61,143 74,138 64,200 -46,266 l -51,31 28,27 29,27 27,-25 c 29,-27 41,-31 49,-18 3,5 -8,22 -24,37 l -30,29 30,31 c 26,26 28,34 17,43 -11,9 -19,6 -37,-13 -29,-31 -37,-31 -71,1 -18,17 -29,22 -34,14 z"
       id="path2" />
    <path
       d="m 2295,3508 c -90,-10 -191,-60 -222,-107 -37,-55 -31,-109 21,-205 24,-45 52,-108 61,-141 35,-123 88,-165 206,-165 133,0 229,54 329,185 21,28 22,29 15,5 -4,-14 -20,-54 -36,-89 -16,-35 -27,-66 -25,-68 4,-4 135,196 161,246 35,70 56,148 62,233 l 6,87 -48,-25 c -57,-28 -78,-29 -165,-5 -151,43 -178,49 -235,53 -33,3 -91,1 -130,-4 z"
       id="path3" />
    <path
       d="m 2931,3177 c -37,-19 -58,-55 -81,-140 -11,-43 -37,-110 -57,-149 -48,-92 -56,-170 -23,-246 50,-115 147,-109 191,13 l 13,35 30,-57 c 63,-119 163,-87 196,62 14,65 7,102 -40,194 -21,42 -48,109 -60,150 -26,88 -43,117 -81,137 -34,17 -56,18 -88,1 z"
       id="path4" />
    <path
       d="m 2950,2547 -25,-32 25,16 c 23,15 27,15 50,0 l 25,-16 -23,33 c -13,17 -24,32 -25,31 -1,0 -13,-14 -27,-32 z"
       id="path5" />
  </g>
</svg>
