<?xml version="1.0" encoding="UTF-8" standalone="no"?>
<svg
   version="1.0"
   width="600pt"
   height="600pt"
   viewBox="0 0 600 600"
   preserveAspectRatio="xMidYMid"
   id="svg5"
   sodipodi:docname="poison.svg"
   inkscape:version="1.3.2 (091e20e, 2023-11-25, custom)"
   xmlns:inkscape="http://www.inkscape.org/namespaces/inkscape"
   xmlns:sodipodi="http://sodipodi.sourceforge.net/DTD/sodipodi-0.dtd"
   xmlns="http://www.w3.org/2000/svg"
   xmlns:svg="http://www.w3.org/2000/svg">
  <defs
     id="defs5" />
  <sodipodi:namedview
     id="namedview5"
     pagecolor="#ffffff"
     bordercolor="#000000"
     borderopacity="0.25"
     inkscape:showpageshadow="2"
     inkscape:pageopacity="0.0"
     inkscape:pagecheckerboard="0"
     inkscape:deskcolor="#d1d1d1"
     inkscape:document-units="pt"
     inkscape:zoom="1.0323529"
     inkscape:cx="396.18235"
     inkscape:cy="396.66668"
     inkscape:window-width="2560"
     inkscape:window-height="1369"
     inkscape:window-x="1912"
     inkscape:window-y="515"
     inkscape:window-maximized="1"
     inkscape:current-layer="svg5" />
  <g
     transform="matrix(0.14826688,0,0,-0.14826688,-146.63433,734.19363)"
     fill="#000000"
     stroke="none"
     id="g10"
     inkscape:label="backdrop">
    <path
       id="path6"
       d="m 4293.0938,920.66797 c -10.2614,0.15304 -20.1899,3.56012 -29.2465,8.19712 -14.1101,7.10567 -27.343,15.78726 -40.4622,24.54962 -12.2851,8.31194 -24.3797,16.92153 -36.0287,26.10797 -27.5884,22.02332 -52.1323,47.67942 -74.1587,75.21692 -20.5396,25.7731 -38.7997,53.4174 -53.8335,82.7616 -5.4334,10.6343 -10.3132,21.5448 -14.8212,32.6004 -0.7541,0.7592 -1.7975,1.2532 -2.7051,1.8437 -8.9278,5.0271 -18.3782,9.0397 -27.8494,12.9145 -22.6095,9.1103 -45.5919,17.2544 -68.5856,25.3329 -48.8854,17.0571 -97.9936,33.4652 -147.0775,49.9399 -62.4571,20.9563 -124.9884,41.6396 -187.5103,62.4379 -50.9833,16.9414 -101.9666,33.8827 -152.9499,50.824 -8.8709,-7.5512 -17.6803,-15.1774 -26.6719,-22.585 -17.6196,-14.137 -36.4489,-26.6866 -55.6366,-38.5776 -14.9739,-9.2275 -30.2736,-17.9676 -46.1374,-25.5808 -26.2366,-12.3607 -54.4234,-20.7959 -83.2993,-23.8744 -27.5866,-2.9871 -55.5769,-1.1707 -82.7517,4.2542 -33.6433,6.6513 -66.0594,18.4075 -97.3683,32.2328 -16.3883,7.2461 -32.4366,15.2264 -48.4388,23.2811 -12.7086,6.3575 -25.4171,12.7149 -38.1257,19.0724 -8.8518,-5.4534 -17.7543,-10.8533 -27.0654,-15.4968 -20.2747,-10.2802 -41.5469,-18.4538 -63.0882,-25.6495 -28.0493,-9.2603 -56.7288,-16.6064 -85.7636,-22.0316 -20.7489,-3.824 -41.7231,-6.6169 -62.8142,-7.52 -16.347,-0.6113 -32.7289,-0.1003 -49.0244,1.2955 -22.7217,2.0571 -45.3181,6.5301 -66.7315,14.5083 -22.4111,8.3133 -43.3726,20.2524 -62.5588,34.4571 -15.2252,11.1815 -29.3942,23.7136 -43.2324,36.549 -6.3636,5.7973 -12.7271,11.5946 -19.0906,17.3919 -81.7064,-26.8893 -163.4128,-53.7787 -245.1191,-80.668 -80.4243,-26.5743 -160.8669,-53.5036 -241.0938,-80.822 -14.4201,-4.9184 -28.8445,-9.8262 -43.1914,-14.9553 -0.368,-0.1292 -1.1299,-0.4063 -1.6487,-0.5922 -13.4708,-4.9104 -27.0107,-9.6895 -40.115,-15.5301 -4.2748,-1.9864 -8.6294,-3.9787 -12.3204,-6.96 -2.8863,-2.6073 -4.6542,-6.1566 -6.5499,-9.4915 -5.7768,-10.7632 -10.5745,-22.0127 -16.142,-32.8817 -32.4646,-64.1173 -80.5702,-120.1589 -138.7335,-162.33215 -12.1068,-8.81664 -24.7165,-16.91554 -37.4579,-24.77738 -12.1686,-7.5199 -24.9716,-14.37619 -38.8833,-18.0302 -13.8624,-3.6716 -28.6666,-3.9172 -42.5723,-0.32528 -13.2851,3.33203 -25.5858,9.77054 -36.8477,17.45529 -12.6431,8.56285 -24.2466,18.52902 -35.7877,28.4952 -16.9761,14.81228 -33.5017,30.13152 -50.4944,44.92522 -26.191,22.95 -52.3622,45.9229 -78.5448,68.8827 17.4342,22.5302 34.9253,45.0171 52.2864,67.6034 5.8637,8.3384 10.5463,17.4211 15.2599,26.437 4.4953,8.7839 8.7092,17.7109 12.6822,26.7428 0.1332,0.3189 0.4787,1.1011 0.6933,1.5975 0.2346,0.5403 0.4976,1.1401 0.6731,1.5453 1.2299,2.8454 2.4294,5.7037 3.614,8.5681 0.1283,0.3247 0.4538,1.1117 0.6577,1.6135 0.8777,2.1504 1.7473,4.3044 2.5806,6.4725 -9.9732,5.7362 -20.1339,11.1362 -30.2285,16.653 -21.9462,12.2422 -42.5576,26.7265 -62.4593,42.0312 -20.2501,15.6359 -39.688,32.3569 -57.8239,50.4118 -9.6461,9.6848 -18.8755,19.8534 -26.7913,31.0187 -6.7382,9.6248 -12.2462,20.3986 -14.2236,32.0759 -1.6062,9.5719 -0.7867,19.5388 2.4198,28.7036 3.2611,10.0041 8.2799,19.3003 13.2243,28.5473 8.828,16.1341 18.4889,31.7943 28.2821,47.3554 14.4463,22.8042 29.4756,45.2426 45.1779,67.2017 8.1585,11.3136 16.4986,22.5229 25.6549,33.056 6.4988,7.349 13.7763,14.3027 22.6615,18.6741 4.1999,2.0918 8.6731,3.6372 13.2741,4.5603 -7.326,1.3804 -14.3142,4.3445 -20.5078,8.4776 -9.5303,6.214 -17.258,14.7031 -24.6557,23.2436 -9.7763,11.4616 -18.6967,23.6183 -27.4637,35.8591 -16.1859,22.7885 -31.361,46.2904 -45.6226,70.3282 -8.3527,14.1655 -16.3369,28.5771 -23.1881,43.5363 -3.9839,8.869 -7.5055,18.0484 -9.1771,27.6621 -1.6085,9.5305 -1.0439,19.4543 1.9363,28.6661 3.6065,11.7251 10.284,22.2151 17.6526,31.915 11.0316,14.5113 23.8249,27.5657 36.9136,40.2107 18.5377,17.7287 38.2151,34.2556 58.742,49.6324 14.7845,10.9924 30.1035,21.3237 46.2713,30.1818 9.2297,4.994 18.8479,9.2067 28.3004,13.75 -6.3994,15.926 -13.5183,31.5636 -21.2946,46.8642 -2.3057,4.5298 -4.7049,9.012 -7.2172,13.4307 -0.1001,0.1814 -0.5979,1.0388 -0.8517,1.4815 -3.1772,5.5943 -6.6826,11.0134 -10.744,16.0107 -16.0233,20.8925 -32.043,41.7877 -48.0644,62.6817 37.3858,31.6116 74.8233,63.1623 112.1412,94.854 21.1469,18.1637 42.4372,36.1887 64.6264,53.0756 6.1356,4.5723 12.3774,9.0794 19.1992,12.584 8.6671,4.2754 18.4486,6.3251 28.1035,5.6426 11.2658,-0.6692 22.0482,-4.5991 32.1152,-9.4986 13.8965,-6.7023 26.899,-15.0747 39.6977,-23.6467 20.7558,-14.0602 40.6379,-29.3917 59.7423,-45.6182 14.1744,-12.123 27.886,-24.8418 40.3716,-38.715 6.0226,-6.8218 11.6996,-13.9431 17.2081,-21.184 10.167,-13.5903 19.2084,-27.9793 27.9172,-42.5341 9.5226,-16.0792 18.4601,-32.5218 26.3614,-49.4616 5.5743,-12.2076 10.9543,-24.5029 16.4576,-36.7422 44.6443,-14.6381 89.2781,-29.3077 133.923,-43.9439 8.0773,-2.6318 16.1682,-5.2214 24.2625,-7.8002 1.7957,-0.5724 3.7931,-1.2016 5.6669,-1.7923 4.2057,-1.3284 8.4151,-2.645 12.6281,-3.9499 3.2594,27.3808 6.2149,54.7972 9.0573,82.2243 0.4913,4.7794 0.9826,9.5588 1.4739,14.3382 0.1345,1.3737 0.2978,2.9852 0.4434,4.4504 3.3205,33.0926 6.4697,66.2028 9.3515,99.3367 0.1136,1.3757 0.2542,2.9893 0.3781,4.4564 2.0199,23.8471 3.9989,47.701 5.4227,71.5924 0.02,0.4033 0.068,1.1988 0.099,1.7522 0.2807,4.9641 0.5523,9.9296 0.6901,14.9002 0.012,0.3703 0.03,1.2003 0.044,1.7467 0.1588,6.38 -0.066,12.762 -0.3308,19.1361 -0.063,1.2047 -0.1322,2.6634 -0.1976,3.9658 -0.5616,10.7175 -1.4371,21.4166 -2.488,32.0967 -0.023,0.2499 -0.1244,1.1931 -0.1775,1.7101 -0.8657,8.2869 -1.8201,16.697 -2.9787,25.0006 -0.1758,1.3387 -0.4146,2.9703 -0.5712,4.1167 -0.9684,6.7336 -2.0594,13.4571 -3.6573,20.0737 -0.7302,3.2062 -1.4731,6.4097 -2.209,9.6145 -12.5487,2.613 -25.1194,5.1286 -37.6236,7.9477 -24.6921,5.8486 -48.6551,14.8567 -70.9487,26.9957 -30.6184,16.5467 -58.2587,37.9608 -84.8052,60.322 -26.1309,22.0895 -51.153,45.4448 -76.0201,68.9351 -18.6987,17.6911 -37.1287,35.6866 -54.6397,54.5622 -18.3791,19.7924 -35.8829,40.4522 -51.5519,62.4703 -14.3201,20.1819 -27.0436,41.6226 -36.4714,64.5439 -9.3413,22.8015 -15.1969,47.2477 -15.3007,71.9676 -0.1234,21.5787 4.1355,43.1696 12.4704,63.0754 8.6358,20.8482 21.3732,39.8224 36.3198,56.6601 15.2881,17.2492 32.7933,32.4119 51.2189,46.209 10.8845,8.1424 22.2587,15.7662 31.9501,25.3659 4.6643,4.6146 8.7464,9.8261 11.9575,15.5544 5.7757,10.0228 9.8764,20.8815 13.9777,31.6638 4.9679,13.4608 9.7153,27.0014 14.6108,40.4881 1.5347,4.271 3.0694,8.542 4.6041,12.813 -9.2494,20.0681 -18.5634,40.1026 -27.7415,60.2035 -27.1023,60.4672 -46.1943,124.3097 -59.4348,189.1704 -15.3453,75.2485 -23.1103,151.8696 -26.4835,228.5365 -3.117,70.8893 -2.4176,141.9033 0.4932,212.7869 2.9201,70.0193 8.2391,140.0365 19.0631,209.3144 7.5549,48.1548 17.8746,95.9134 31.8185,142.635 12.6313,42.4396 28.1634,84.0016 46.1841,124.4437 10.0049,22.5051 20.684,44.713 32.0844,66.545 31.7345,60.406 70.3773,117.1899 115.0386,168.783 43.4852,50.2883 92.5583,95.6663 145.5623,135.7652 59.7015,45.2308 124.2584,83.8551 191.4812,116.7982 52.7149,25.8452 107.0848,48.2503 162.4378,67.7874 74.2052,26.0594 150.8213,45.0749 228.4145,57.7874 42.2879,6.9551 84.8789,11.9722 127.5749,15.6144 83.2018,7.2201 166.9951,8.3624 250.2949,2.0555 70.3155,-5.2952 140.2218,-15.8326 209.0308,-31.2282 40.4639,-9.0159 80.5805,-19.5956 120.2307,-31.6981 109.367,-33.4729 215.2994,-79.3219 312.3471,-140.088 37.2143,-23.3028 73.0631,-48.7997 107.1489,-76.4827 36.389,-29.5588 70.7314,-61.6527 102.487,-96.1471 40.5385,-44.0263 76.8467,-91.9751 107.9141,-143.1363 17.5085,-28.787 33.3296,-58.5936 47.4792,-89.1703 17.0281,-36.5623 32.1848,-74.0125 44.9373,-112.2825 16.7431,-50.0958 29.4575,-101.5075 38.5634,-153.5271 14.7562,-83.9882 20.563,-169.2928 22.2365,-254.4695 0.8327,-42.8259 0.5518,-85.6667 -0.355,-128.4889 -0.5146,-24.015 -1.0895,-48.0291 -1.7397,-72.0411 -0.9043,-31.8151 -2.0024,-63.6308 -3.9468,-95.4014 -2.1185,-33.7481 -5.4948,-67.4807 -11.9265,-100.7038 -4.5523,-23.7723 -10.3845,-47.2783 -16.6369,-70.6539 -7.8858,-29.0433 -16.9895,-57.7495 -26.9953,-86.1297 -7.1853,-20.2912 -14.7715,-40.4603 -23.5178,-60.1367 -4.1878,-9.3253 -8.6998,-18.5007 -12.9836,-27.7817 -4.3557,-9.3129 -8.7113,-18.6258 -13.0669,-27.9388 4.4512,-11.2011 8.8942,-22.4292 13.3446,-33.5872 3.8844,-9.6969 7.6969,-19.4237 11.7012,-29.0718 4.9678,-11.7934 10.0584,-23.6421 17.1397,-34.3527 3.5371,-5.1617 7.9819,-9.6777 13.0367,-13.361 7.8897,-5.8953 16.5918,-10.5725 24.7005,-16.1458 26.9818,-18.3823 50.4168,-42.1999 67.3927,-70.1517 16.9372,-27.7843 27.2581,-59.695 29.0131,-92.2298 1.1843,-20.6663 -1.2997,-41.5212 -7.1975,-61.3594 -8.0605,-27.5519 -21.9391,-53.057 -38.2107,-76.5783 -17.1833,-24.8106 -37.0287,-47.6568 -57.8059,-69.5017 -24.3727,-25.5589 -50.2614,-49.6139 -76.5184,-73.2137 -22.3944,-20.2127 -44.8342,-40.3985 -68.1871,-59.5063 -19.2982,-15.7039 -39.4343,-30.5759 -61.4294,-42.3142 -16.2414,-8.7574 -33.4416,-15.6188 -50.9834,-21.2863 -15.7598,-5.1299 -31.8017,-9.3167 -47.7925,-13.6498 -6.2128,-1.7349 -12.4525,-3.4295 -18.479,-5.7489 -1.7575,-5.2084 -3.2208,-10.5116 -4.6768,-15.8106 -5.1036,-19.3447 -7.5725,-39.2859 -8.8457,-59.2206 -0.8802,-14.114 -1.0757,-28.2624 -0.917,-42.4004 0,-0.3362 0.016,-1.1492 0.022,-1.668 0.1944,-12.0282 0.6889,-24.05 1.3613,-36.0605 0.022,-0.2859 0.07,-1.149 0.1016,-1.6563 0.5621,-9.296 1.2252,-18.5859 1.9941,-27.8672 0.045,-0.4861 0.1133,-1.329 0.1672,-1.9518 0.5676,-6.77 1.194,-13.535 1.8582,-20.2962 0.1054,-1.0255 0.2328,-2.3218 0.3466,-3.4514 2.1579,-21.5693 4.7985,-43.0865 7.5939,-64.5814 4.2491,-32.774 8.1174,-65.6018 11.2034,-98.5072 1.0675,-11.6393 2.1192,-23.2823 2.8542,-34.9483 6.7276,2.1371 13.4771,4.2914 20.1474,6.4413 8.0811,2.5942 16.1587,5.2263 24.2739,7.8546 38.2636,12.4683 76.6509,25.228 114.9397,37.8768 7.7586,2.5661 15.5171,5.1323 23.2757,7.6984 5.8644,13.9838 11.6415,28.0056 17.6647,41.9218 13.184,29.1747 30.6223,56.2594 50.1299,81.5812 21.3872,27.6355 45.5202,53.1782 72.1559,75.8114 16.896,14.3344 34.9457,27.3549 54.1917,38.3577 23.1337,13.4496 46.2665,26.9008 69.4008,40.3494 25.145,-20.5045 50.3742,-40.9061 75.4359,-61.5113 25.1131,-20.9682 49.9923,-42.2141 74.9414,-63.3768 23.5962,-20.219 47.1926,-40.4377 70.7887,-60.6568 -18.9642,-20.6983 -37.9869,-41.3439 -56.8758,-62.1103 -3.2614,-4.3098 -5.9523,-9.0128 -8.6936,-13.6608 -8.9726,-15.5992 -16.9054,-31.7717 -24.4458,-48.1033 -1.5229,-3.3254 -3.019,-6.6633 -4.4712,-10.0202 24.6026,-13.0185 48.2891,-27.7264 71.1856,-43.5418 20.9155,-14.5221 41.1435,-30.0731 60.1726,-47.0033 12.9665,-11.6095 25.3679,-23.9304 36.2315,-37.5528 7.108,-9.015 13.492,-18.7077 18.008,-29.2946 5.2528,-12.9572 6.2132,-27.4472 3.5538,-41.1191 -2.6557,-14.1234 -8.5423,-27.3786 -15.0572,-40.1003 -8.0623,-15.6441 -17.2488,-30.6714 -26.4843,-45.6411 -10.8342,-17.4044 -22.0427,-34.5746 -33.1803,-51.7802 -13.8232,-21.3857 -27.7252,-42.8562 -41.5793,-64.274 -0.6233,-0.9633 -1.2466,-1.9267 -1.8699,-2.89 14.6373,-22.4074 29.3254,-44.782 43.8743,-67.2466 18.0753,-29.171 35.9371,-58.4769 54.3544,-87.435 6.5084,-10.5059 12.8157,-21.1345 19.2446,-31.6887 8.2022,-13.5531 16.4057,-27.1054 24.6068,-40.659 -29.5191,-28.9622 -58.9957,-57.9655 -88.5767,-86.8637 -20.9694,-19.8587 -43.6057,-37.9282 -67.3675,-54.3304 -13.0761,-8.9487 -26.5681,-17.3568 -40.7986,-24.3557 -5.5832,-2.7134 -11.266,-5.2152 -16.8529,-7.9209 8.7878,-19.2944 18.1265,-38.3371 27.9213,-57.1396 4.8416,-9.228 9.7475,-18.4409 15.3222,-27.2517 3.7026,-5.3134 7.6394,-10.5145 10.4752,-16.3665 5.8258,-11.3898 8.4921,-24.4973 6.8588,-37.2339 -1.4865,-12.14 -6.5625,-23.6708 -13.7908,-33.4761 -7.7665,-10.7902 -17.5167,-19.9254 -27.2578,-28.8946 -13.2949,-12.0659 -27.0609,-23.5964 -40.7634,-35.19272 -20.5658,-17.29273 -41.4764,-34.21782 -63.4072,-49.76148 -8.7835,-6.1818 -17.7363,-12.23067 -27.456,-16.85921 -8.0061,-3.73442 -16.7655,-6.0267 -25.6425,-5.82422 z M 3242.8496,1446.7637 c 9.3076,-0.042 18.479,2.7763 26.5215,7.375 11.3557,6.3234 21.26,14.8781 30.7094,23.7212 14.6765,13.8893 28.0579,29.0647 41.2203,44.374 22.1436,25.9414 43.1232,52.8449 64.9939,79.0128 29.7914,35.8816 60.0763,71.3541 90.8576,106.39 15.9742,18.1844 32.1533,36.189 48.5509,53.9928 13.7516,14.9862 27.2946,30.168 40.4003,45.724 0.2558,0.3 0.7718,0.9198 1.1272,1.3422 1.9571,2.3224 3.8921,4.6631 5.8298,7.0016 0.213,0.2666 0.7602,0.9294 1.1012,1.3479 13.6539,16.6653 26.8073,33.7678 38.8115,51.6669 16.1543,24.1376 30.338,49.9298 38.8345,77.8194 4.5379,14.8025 7.3096,30.1302 8.3848,45.5718 0.4799,6.8082 0.6416,13.6372 0.5419,20.4612 0,0.33 -0.017,1.2041 -0.03,1.5335 -0.2666,12.3995 -1.4828,25.2742 -3.1618,37.2334 -1.7262,12.3782 -4.0659,24.6609 -6.6808,36.8796 -1.4785,6.8931 -2.6933,13.8403 -3.7072,20.8163 -5.6968,-17.4543 -11.7371,-34.7941 -17.9856,-52.0581 -1.464,-4.0414 -2.8723,-8.1026 -4.2781,-12.1645 -0.2025,-0.6032 -0.5176,-1.5143 -0.7633,-2.2356 -0.7889,-2.2926 -1.5613,-4.5908 -2.3382,-6.8875 -0.2509,-0.7419 -0.5917,-1.7706 -0.8771,-2.6226 -7.2537,-21.7628 -14.0076,-43.692 -20.3164,-65.7469 -4.3446,-15.2962 -8.5309,-30.6446 -12.1096,-46.1402 -1.6905,-7.4006 -2.9057,-14.8972 -4.3516,-22.3471 -5.3594,-28.6176 -10.6875,-57.2885 -16.025,-85.9342 -37.3958,4.1325 -74.778,8.39 -112.1888,12.3859 -2.2949,0.2335 -4.5916,0.4503 -6.8894,0.6532 -2.9399,-6.2277 -6.0923,-12.3773 -9.962,-18.0868 -10.9706,-16.6183 -26.0753,-30.7095 -44.0543,-39.4368 -14.9834,-7.2839 -32.0799,-10.5841 -48.6542,-8.2953 -4.9143,0.6729 -9.7602,1.8386 -14.4466,3.4634 -19.4495,-23.6396 -38.9162,-47.2652 -58.3711,-70.9004 -16.0362,16.0362 -32.073,32.0716 -48.1094,48.1074 -20.9076,-20.2311 -41.815,-40.4623 -62.7227,-60.6933 -16.108,16.7819 -32.2175,33.5624 -48.3261,50.3437 -15.2039,-14.6157 -30.2416,-29.4029 -45.3663,-44.1003 -11.0296,-10.7465 -22.0591,-21.4931 -33.0888,-32.2395 -27.1024,29.6828 -54.2044,59.3659 -81.3067,89.0488 -5.8749,-6.7401 -11.7396,-13.4974 -18.0208,-19.8662 -9.6096,-9.8331 -19.8304,-19.1119 -30.9161,-27.2619 -8.6007,-6.2098 -18.0697,-11.575 -28.4927,-13.9559 -8.9876,-2.0323 -18.4762,-1.8455 -27.348,0.6729 -11.3867,3.073 -21.5926,9.4199 -30.694,16.7786 -10.2523,8.2088 -19.4103,17.6971 -27.9229,27.6755 -19.163,-17.8852 -38.3234,-35.7731 -57.4883,-53.6563 -17.7436,21.0645 -35.5444,42.0793 -53.2656,63.1622 -14.8509,-14.8503 -29.7022,-29.7002 -44.5527,-44.5508 -20.9187,24.8016 -41.8773,49.5679 -62.7403,74.416 -13.254,-4.7778 -27.7107,-6.5714 -41.6573,-4.229 -13.9721,2.2698 -27.2534,8.4047 -38.1618,17.4078 -11.7245,9.5319 -20.8261,21.9251 -27.9453,35.169 -1.6563,3.0924 -3.1711,6.2578 -4.6848,9.4217 -8.8051,-0.7473 -17.5886,-1.7379 -26.4044,-2.3621 -27.2539,-2.1801 -54.5077,-4.3602 -81.7616,-6.5402 -6.7008,28.6958 -13.2879,57.4179 -20.0883,86.0907 -0.3521,1.3155 -0.7042,2.6309 -1.0562,3.9464 -0.085,0.323 -0.3175,1.1579 -0.4591,1.6771 -0.588,2.1644 -1.1998,4.3219 -1.8066,6.4811 -0.1109,0.3736 -0.331,1.1542 -0.4837,1.6836 -2.997,10.5062 -6.22,20.946 -9.4362,31.3867 -0.1248,0.3865 -0.3588,1.1458 -0.5254,1.675 -7.3849,23.7841 -15.1975,47.4328 -23.2081,71.0128 -10.6761,31.5103 -21.0925,63.1083 -31.2098,94.8024 -2.0651,-20.3354 -4.2695,-40.6561 -6.4612,-60.9783 -2.9702,-29.6343 -5.2242,-59.355 -6.0605,-89.1313 -0.243,-10.8463 -0.4357,-21.7191 0.3923,-32.546 0.144,-2.1849 0.8808,-4.2586 1.7772,-6.2368 2.9255,-6.7654 7.0715,-12.9034 11.1916,-18.9828 5.0789,-7.2906 10.552,-14.2979 16.186,-21.1658 0.1759,-0.2027 0.7667,-0.9231 1.1022,-1.3249 7.1898,-8.6956 14.6132,-17.2362 22.1493,-25.5776 1.2951,-1.4465 2.6041,-2.8803 3.9086,-4.3182 0.2419,-0.2573 0.8127,-0.8838 1.1806,-1.2826 15.1369,-16.534 30.8146,-32.5632 45.9316,-49.1157 25.31,-27.5557 50.0424,-55.6368 74.5944,-83.8687 30.741,-35.3652 61.0627,-71.0938 90.981,-107.1569 24.4279,-29.3367 48.765,-58.7518 73.5956,-87.7499 0.289,-0.3411 0.8276,-0.9597 1.2122,-1.4071 12.0363,-13.9557 24.1542,-27.8579 36.9642,-41.1138 6.7162,-6.8551 13.5657,-13.6307 21.1547,-19.5273 4.0464,-3.0231 8.3564,-6.0289 13.3934,-7.0638 5.603,-1.0566 11.3275,-1.1542 17.0118,-1.2279 0.5635,0 1.467,-0.014 2.1609,-0.019 16.5008,-0.3995 32.9512,2.382 48.7441,7.0381 21.4919,6.3751 42.1694,15.1386 62.6919,24.0845 4.4418,1.9476 8.8656,3.9361 13.286,5.9319 0.5133,0.2302 1.3352,0.6077 1.9669,0.8943 3.4859,1.5852 7.0443,3.2146 10.4445,4.7868 13.9771,6.4945 27.9547,12.9906 42.0604,19.2026 17.4173,7.6788 34.9398,15.1356 52.7134,21.9557 8.7792,3.3069 17.5911,6.6062 26.6893,8.9385 6.6461,1.7112 13.5612,2.5166 20.4147,1.9124 4.9087,-0.3519 9.7024,-1.549 14.3931,-2.9875 8.9382,-2.7172 17.5504,-6.3705 26.1909,-9.894 20.8474,-8.7158 41.3493,-18.2315 61.7531,-27.9328 16.3248,-7.7935 32.4908,-15.9126 48.6801,-23.9823 8.822,-4.3481 17.6702,-8.645 26.5998,-12.7687 0.3399,-0.1513 1.0917,-0.4999 1.5894,-0.7267 12.6837,-5.7935 25.5092,-11.3234 38.684,-15.912 10.7945,-3.6698 21.8546,-6.9135 33.2581,-7.906 2.0058,-0.1703 4.0181,-0.2555 6.031,-0.2541 z m 931.4727,38.2246 c 5.6912,0.1554 11.2076,1.7419 16.6783,3.1763 6.5962,1.8227 13.0774,4.0313 19.5326,6.2963 0.2583,0.089 1.1287,0.4075 1.6224,0.5847 25.4689,9.2058 50.0661,20.6553 74.1604,32.9784 19.735,10.1932 39.0784,21.1517 57.9202,32.9159 15.892,9.9221 31.3634,20.5224 46.2772,31.8639 16.6758,12.5094 33.3517,25.0188 50.0276,37.5282 -23.0642,15.3679 -46.1048,30.7717 -69.2097,46.0783 -13.4129,8.7211 -27.0849,17.04 -40.9387,25.0409 -0.3436,0.2019 -1.0411,0.5981 -1.5202,0.8744 -10.0368,5.7737 -20.1747,11.3706 -30.3958,16.8111 -0.3076,0.1566 -1.0621,0.5601 -1.541,0.8113 -21.8072,11.5318 -43.9978,22.3724 -66.7403,31.9426 -11.6447,4.8192 -23.3992,9.4419 -35.5019,12.9922 -2.3544,0.6524 -4.7197,1.34 -7.1091,1.8123 -4.435,-0.5195 -8.8243,-1.3578 -13.1995,-2.2381 -0.3421,-0.074 -1.1762,-0.2417 -1.7067,-0.3517 -15.739,-3.2085 -31.2981,-7.2312 -46.8315,-11.3001 -31.3071,-8.3047 -62.3997,-17.3958 -93.4101,-26.7413 -16.679,-5.0278 -33.3224,-10.1736 -49.9482,-15.3744 -1.3831,-0.4317 -2.9887,-0.9411 -4.4574,-1.4026 -27.2233,-8.5655 -54.388,-17.3173 -81.484,-26.2771 -25.9637,-8.5737 -51.9898,-17.3679 -77.8689,-26.3457 -4.0193,-1.3887 -7.9939,-2.7843 -12.0471,-4.1966 -19.766,-6.9225 -39.6898,-14.0485 -59.4183,-21.3245 -5.7255,-2.1269 -11.4505,-4.2555 -17.1618,-6.4203 25.4546,-9.086 51.0243,-17.8464 76.6021,-26.5787 29.9978,-10.2164 60.1303,-20.3255 90.2389,-30.411 44.3942,-14.7201 88.7697,-29.3943 133.2595,-43.8595 23.8617,-7.7321 47.7504,-15.3884 71.7684,-22.6232 16.7266,-5.0009 33.5114,-9.8898 50.5925,-13.5438 6.7424,-1.3746 13.5625,-2.6338 20.4624,-2.7329 0.4493,-0.01 0.8984,0.01 1.3477,0.015 z m -2396.959,0 c 7.9028,0.1838 15.6815,1.8028 23.3805,3.4726 5.3734,1.1833 10.7084,2.5324 16.0296,3.9297 0.3155,0.082 1.1593,0.3123 1.6774,0.4511 18.059,4.8473 35.9287,10.366 53.7732,15.9425 17.6567,5.5307 35.335,11.255 52.8795,16.9736 20.1881,6.6007 40.3988,13.2563 60.5925,19.9416 34.201,11.3178 68.4536,22.7 102.696,33.9829 46.3309,15.3102 92.6382,30.6918 138.8814,46.265 -43.9049,15.8843 -88.1347,30.8504 -132.3914,45.7206 -26.4904,8.8805 -53.0012,17.7004 -79.5636,26.3634 -8.0149,2.6069 -16.1502,5.2591 -24.2156,7.8704 -40.0865,12.9719 -80.3876,25.8516 -120.8455,37.8655 -9.9329,2.9254 -19.8816,5.7975 -29.8608,8.5609 -0.3081,0.087 -1.1583,0.3158 -1.6743,0.4572 -1.9491,0.5305 -3.8981,1.0611 -5.8472,1.5917 -0.3495,0.089 -1.1604,0.3085 -1.6866,0.4476 -13.3803,3.537 -26.8098,6.9511 -40.4267,9.4606 -0.3017,0.049 -1.1821,0.2089 -1.7059,0.3005 -5.7915,0.9466 -11.6205,1.9318 -17.5054,1.9236 -3.7805,-0.1387 -7.4181,-1.3044 -11.0925,-2.0977 -19.3124,-4.7913 -37.8973,-12.0702 -56.1317,-19.9507 -18.1627,-7.9369 -35.9076,-16.8065 -53.334,-26.2441 -0.3379,-0.18 -1.0541,-0.5751 -1.5368,-0.8374 -0.5838,-0.3197 -1.1744,-0.6388 -1.6454,-0.9029 -13.9048,-7.6254 -27.5821,-15.6631 -41.0405,-24.0507 -0.2224,-0.1466 -1.0149,-0.6401 -1.4567,-0.9202 -8.3036,-5.1792 -16.4886,-10.5472 -24.5229,-16.1355 -9.4971,-6.5304 -19.0503,-12.9793 -28.6057,-19.424 -9.8367,-6.58 -19.7153,-13.1091 -29.8694,-19.1916 -6.2956,-3.7085 -12.9955,-6.9572 -20.2132,-8.3678 9.5951,-1.759 18.5174,-5.9709 26.9627,-10.7205 10.5121,-5.9009 20.4202,-12.8065 30.1269,-19.9359 8.5121,-6.3898 16.7081,-13.1994 25.4295,-19.3097 7.8802,-5.6087 15.9605,-10.9315 24.1313,-16.1061 0.3061,-0.1969 1.0168,-0.6386 1.4779,-0.9292 4.1201,-2.6012 8.6456,-5.3377 12.5865,-7.7295 24.3407,-14.6212 49.3787,-28.078 74.9604,-40.3976 16.0339,-7.6652 32.2883,-14.9183 48.9852,-21.0272 7.0115,-2.521 14.1195,-4.8655 21.4372,-6.323 3.0194,-0.5775 6.0826,-1.0047 9.1641,-0.9197 z M 2895,2049.3457 c 3.2363,0 6.4727,0 9.709,0 -0.1229,0.6557 -0.2232,1.2151 -0.33,1.7724 -0.2435,1.2777 -0.487,2.5554 -0.7306,3.8331 -0.077,0.3685 -0.2314,1.1782 -0.338,1.7156 -1.493,7.6302 -2.9967,15.2589 -4.6385,22.8586 -0.2322,1.0772 -0.5263,2.4099 -0.7822,3.5854 -2.0697,9.3568 -4.3743,18.6631 -7.0088,27.8775 -4.7685,-17.4222 -8.2747,-35.2248 -9.7938,-53.2374 -0.2387,-2.831 -0.4486,-5.5705 -0.673,-8.4052 4.8619,0 9.7239,0 14.5859,0 z m 159,0 c 5.5339,0 11.0677,0 16.6016,0 0,0.6581 -0.017,0.9051 -0.032,1.6661 -0.2082,9.3715 -1.2131,18.709 -2.5133,27.9862 -1.4984,10.2504 -3.3667,20.453 -5.761,30.5332 -0.1191,-0.3211 -0.3611,-0.9968 -0.5628,-1.5485 -6.896,-19.0385 -12.2075,-38.6648 -15.5778,-58.637 2.6152,0 5.2305,0 7.8457,0 z m -400.9297,216.1582 c 9.9052,11.8259 21.0582,22.7155 33.7698,31.5077 9.3941,6.4116 20.1908,11.1924 31.6227,12.143 10.6764,0.8867 21.4772,-1.5599 31.0372,-6.299 10.4131,-4.9628 19.7652,-11.825 28.8319,-18.8869 6.849,-5.4446 13.3752,-11.2836 19.7111,-17.3144 11.1078,11.2982 22.0883,22.8154 34.5373,32.6689 9.3969,7.4075 19.6779,13.9071 31.0343,17.8472 10.5411,3.7408 21.8945,5.2764 33.0371,4.1257 12.8781,-1.2713 25.308,-5.9254 36.1835,-12.8794 12.6137,-7.9267 23.3596,-18.4103 33.4502,-29.2781 3.269,-3.5318 6.4675,-7.1288 9.6169,-10.7675 16.3503,21.1665 32.6602,42.3646 48.9903,63.5469 -0.6973,-6.7155 -1.3946,-13.431 -2.0918,-20.1465 10.628,5.8188 22.597,9.2603 34.7298,9.5862 11.4033,0.3805 22.819,-2.0219 33.2679,-6.5501 11.396,-4.8844 21.6254,-12.098 31.0377,-20.0952 10.2909,-8.717 19.7388,-18.3675 29.0521,-28.1053 0.4096,-0.8456 0.8512,-0.2108 1.2889,0.2418 10.1408,9.7628 20.7931,19.0417 32.3192,27.1439 6.777,4.7488 13.9021,9.1392 21.7263,11.9427 6.826,2.5052 14.14,3.7081 21.4101,3.3243 8.475,-0.4059 16.7822,-2.875 24.2793,-6.8086 10.2648,-5.2971 19.1006,-12.895 27.4652,-20.7663 4.9069,-4.683 9.6002,-9.5882 14.0973,-14.6654 9.5431,7.5738 20.0345,14.283 31.7601,17.8854 11.8382,3.7136 24.7103,4.2174 36.7419,1.1009 11.2477,-2.8461 21.6042,-8.5578 30.6855,-15.6992 0.8864,0.5855 1.7667,1.18 2.6504,1.7696 0.257,0.1702 0.9931,0.6744 1.434,0.9727 5.208,3.5493 10.3377,7.2319 15.1285,11.3339 -5.0032,13.8027 -10.0675,27.5826 -14.9903,41.4141 -12.5673,36.8052 -16.9162,76.2399 -13.8326,114.9577 2.1226,26.3765 7.7679,52.5208 17.3073,77.2239 -11.3289,-1.5992 -22.5161,-4.111 -33.5081,-7.2719 -9.3277,-2.5389 -18.7456,-5.0719 -28.4236,-5.7743 -10.9641,-0.6819 -22.2164,1.8499 -31.533,7.7578 -12.5157,7.7846 -21.261,21.3678 -23.0161,36.0178 -1.0057,7.6803 -0.1133,15.5882 2.4015,22.9043 3.3859,9.7198 9.7737,18.2175 17.6255,24.7972 6.1151,5.2577 12.6401,10.0211 19.3031,14.5562 20.4817,13.5783 43.5913,22.667 67.1292,29.3957 26.7703,7.5921 54.3699,11.9327 82.0568,14.3932 38.6046,3.3488 77.5178,2.7093 116.0498,-1.2642 37.0614,-3.8804 73.8512,-11.0139 109.3719,-22.3594 7.2595,-2.3217 14.4278,-4.9138 21.6426,-7.3672 1.3774,-0.4515 2.7586,-0.8911 4.1426,-1.3223 0.2429,-0.069 1.1475,-0.3497 1.6453,-0.5002 0.4454,-0.1409 0.807,-0.2423 1.4809,-0.4404 0.537,-0.1583 0.9658,-0.2769 1.5877,-0.4571 3.9593,-1.1405 7.9489,-2.1753 11.9618,-3.1101 0.1903,-0.046 1.1685,-0.2653 1.6637,-0.3784 14.5108,-3.2695 29.3545,-5.1304 44.2348,-5.2661 0.3451,0 1.2007,-0.01 1.7413,-0.01 10.9401,-0.019 21.8794,0.9329 32.6571,2.8071 0.1049,0.024 1.1313,0.2033 1.5738,0.2843 18.8513,3.437 37.139,9.7966 54.2015,18.4932 5.6978,2.9217 11.1201,6.345 16.4552,9.8768 0.1841,0.1183 0.9959,0.6675 1.4224,0.9522 6.8836,4.6089 13.5808,9.4894 20.2182,14.4443 0.3113,0.2391 0.9591,0.7224 1.3992,1.055 24.693,18.6215 48.3225,38.6114 71.4421,59.1412 20.4772,18.2397 40.5007,36.9993 59.7893,56.495 10.7426,10.8894 21.2839,21.9962 31.1639,33.6797 3.0285,3.6082 5.9825,7.2827 8.729,11.1115 0,0.01 0.5774,0.8153 0.8008,1.143 1.4092,1.851 2.4347,3.9463 3.2558,6.1149 1.7758,4.5813 3.694,9.4117 3.8828,14.4486 0.1499,2.2129 -1.4774,3.9695 -2.6985,5.6348 -3.6851,4.55 -8.2983,8.229 -12.9221,11.774 -13.608,10.1832 -28.8802,17.769 -43.4422,26.4388 -13.1853,7.7703 -26.0593,16.3487 -36.9141,27.2228 -7.8858,7.8088 -14.633,16.7156 -20.3375,26.2234 -8.8099,14.6513 -15.3838,30.4897 -21.7209,46.3252 -7.8168,19.7006 -15.0656,39.6201 -22.6778,59.3992 -12.9214,33.8926 -25.8483,67.7827 -38.7791,101.6718 19.3654,41.1614 38.7621,82.308 58.0742,123.4942 5.3544,11.4346 10.7887,22.9101 15.8769,34.4958 0.7698,1.7422 1.531,3.4881 2.2774,5.2405 0.1372,0.316 0.4675,1.1059 0.6787,1.6035 0.8209,1.9363 1.7661,4.2457 2.4559,5.968 3.4044,8.6327 6.7699,17.3752 8.3725,26.5531 0.8926,4.9582 0.9928,10.0588 0.1615,15.0328 -1.3319,8.227 -4.2258,16.0966 -7.2858,23.8148 -6.0114,14.7536 -13.0888,29.0399 -20.1736,43.2992 -16.1748,32.3284 -32.9679,64.355 -48.2804,97.1079 -15.2759,32.4784 -29.6087,65.456 -41.3391,99.3969 -7.113,20.6718 -13.0626,41.7951 -16.7039,63.3709 -1.624,9.381 -3.3507,18.7494 -4.6062,28.1889 -1.7568,13.3253 -2.4404,26.8227 -1.4581,40.2403 1.43,21.3914 5.9444,42.4129 10.6727,63.2752 6.0917,26.3945 13.0016,52.5903 19.8153,78.8051 8.9364,34.1505 18.0468,68.248 27.0323,102.3805 0.061,0.2276 0.295,1.1625 0.4226,1.6628 1.5937,6.3932 2.9124,12.8547 3.9544,19.3606 0.031,0.1815 0.1836,1.1837 0.2616,1.6832 0.4051,2.6596 0.7607,5.3266 1.0743,7.9985 0.021,0.2327 0.1326,1.1919 0.1884,1.7048 0.5715,5.1643 0.9643,10.862 1.1389,15.735 0.02,0.6392 0.04,1.2784 0.059,1.9176 6e-4,0.2367 0.026,1.1991 0.036,1.7156 0.011,0.3035 0.014,1.0399 0.023,1.6183 0.1995,19.0347 -2.1328,38.0343 -6.1237,56.627 -0.011,0.062 -0.2465,1.119 -0.3408,1.5508 -5.5991,25.3772 -14.0833,50.0252 -23.7341,74.1227 -7.248,18.078 -15.3737,35.7858 -23.6257,53.4227 -7.3426,15.9053 -14.5956,31.8694 -20.9081,48.2173 -3.6168,9.5105 -7.0228,19.2197 -8.3581,29.3523 -1.0782,8.22 -0.5577,16.6935 1.9724,24.6119 3.7564,11.9866 12.0306,22.5447 22.9505,28.8049 1.4895,0.8679 3.0248,1.6587 4.5986,2.3628 -7.9013,9.903 -16.0877,19.5759 -24.4571,29.0859 -0.2636,0.3029 -0.7953,0.8995 -1.1616,1.3148 -9.0551,10.2498 -18.3359,20.299 -27.7739,30.1969 -0.3397,0.3479 -0.9236,0.9624 -1.3568,1.4124 -14.1496,14.7285 -28.6495,29.1232 -43.5456,43.0974 -0.4347,0.411 -1.1201,1.0476 -1.651,1.5451 -2.7063,2.5341 -5.4327,5.0468 -8.1654,7.5525 -0.4452,0.4004 -1.1337,1.0329 -1.6722,1.5223 -16.4056,14.9154 -33.221,29.4034 -50.7985,42.9269 -10.6785,8.2157 -21.7003,15.9824 -33.0331,23.2692 -1.1374,0.7461 -2.4935,1.6123 -3.4981,2.2719 -35.7853,23.0421 -73.2637,43.3748 -111.6066,61.8162 -43.4167,20.8514 -88.0207,39.2031 -133.4147,55.2888 -26.4974,9.3825 -53.2817,17.9557 -80.3088,25.6821 -1.0264,0.2882 -2.3089,0.6554 -3.4337,0.974 -33.7362,9.5425 -67.8721,17.684 -102.3124,24.2525 -0.3694,0.073 -1.1803,0.2205 -1.7188,0.3219 -1.9912,0.3764 -3.9863,0.7314 -5.9804,1.0922 -0.3863,0.064 -1.1827,0.2072 -1.726,0.3016 -5.8592,1.0362 -11.7324,1.9919 -17.6119,2.9054 -0.3811,0.061 -1.187,0.1808 -1.7308,0.2644 -5.8989,0.9068 -11.8101,1.731 -17.7223,2.5462 -0.2984,0.042 -1.1901,0.1572 -1.7162,0.2273 -17.6115,2.3519 -35.2699,4.3447 -52.9557,6.0461 -0.8849,0.086 -2.0576,0.1949 -3.053,0.2898 -4.7862,0.4567 -9.5754,0.8824 -14.365,1.302 -0.9934,0.082 -2.2586,0.1916 -3.3565,0.2841 -9.8876,0.8411 -19.783,1.5886 -29.6825,2.2745 -0.8534,0.053 -1.9957,0.133 -2.9601,0.1965 -2.9581,0.2013 -5.8368,0.3865 -8.8277,0.5788 -1.9649,0.1194 -4.2001,0.2553 -6.2791,0.382 -2.5503,0.1516 -5.3267,0.314 -7.968,0.4604 -5.6654,0.3183 -11.3325,0.6063 -17.0003,0.8804 -1.4132,0.068 -3.0634,0.1419 -4.5677,0.2123 -5.383,0.2469 -10.8934,0.4801 -16.1999,0.6802 -2.4664,0.089 -5.1527,0.1827 -7.4824,0.2696 -14.947,0.499 -29.8991,0.8411 -44.8535,1.0117 -0.3874,-4e-4 -1.2007,0.01 -1.7511,0.013 -17.385,0.1527 -34.7735,0.1206 -52.1551,-0.2766 -0.6719,-0.014 -1.6665,-0.04 -2.4622,-0.059 -1.2776,-0.032 -2.8177,-0.067 -3.9324,-0.097 -2.1595,-0.063 -4.319,-0.1263 -6.4785,-0.1895 -0.2653,-0.01 -1.1751,-0.041 -1.6875,-0.062 -10.6406,-0.3476 -21.2753,-0.8629 -31.9004,-1.5332 -0.3043,-0.018 -1.1703,-0.077 -1.6894,-0.1133 -14.8985,-0.9421 -29.7591,-2.4491 -44.5547,-4.4297 -0.3224,-0.042 -1.1893,-0.1641 -1.7206,-0.2368 -11.2434,-1.5349 -22.4734,-3.169 -33.6798,-4.9546 -0.4794,-0.075 -1.3168,-0.2122 -1.9334,-0.311 -16.7307,-2.6827 -33.41,-5.6836 -50.0315,-8.9761 -0.3847,-0.081 -1.177,-0.2371 -1.7178,-0.3469 -7.0944,-1.4181 -14.1773,-2.8934 -21.249,-4.4207 -0.5134,-0.1093 -1.3682,-0.2987 -2.0124,-0.4387 -14.6095,-3.1824 -29.1647,-6.6126 -43.6614,-10.2742 -0.3865,-0.1027 -1.1632,-0.2978 -1.699,-0.4358 -1.2866,-0.3276 -2.7864,-0.7144 -3.9416,-1.0056 -26.0102,-6.7035 -51.8179,-14.1921 -77.3731,-22.4628 -0.3823,-0.1211 -1.1415,-0.3721 -1.6682,-0.5429 -58.343,-18.9977 -115.3736,-42.1276 -170.177,-69.7449 -1.4338,-0.7272 -2.9766,-1.5057 -4.3002,-2.1789 -1.3988,-0.7155 -2.7976,-1.4311 -4.1964,-2.1466 -0.3217,-0.1711 -1.0658,-0.5529 -1.5493,-0.8047 -5.7207,-2.954 -11.4115,-5.9656 -17.0796,-9.0195 -0.3553,-0.1876 -1.0557,-0.572 -1.5431,-0.8349 -0.9847,-0.5354 -2.2027,-1.1923 -3.0447,-1.6534 -1.5528,-0.8522 -3.1055,-1.7045 -4.6583,-2.5567 -0.3361,-0.1832 -1.0498,-0.5827 -1.5305,-0.8487 -45.3456,-25.1471 -88.9106,-53.5927 -129.6394,-85.7079 -0.2979,-0.231 -0.9412,-0.7456 -1.3713,-1.0852 -10.7463,-8.5051 -21.2824,-17.2761 -31.5896,-26.3074 -0.2188,-0.1878 -0.9002,-0.7939 -1.2967,-1.1424 -17.1558,-15.0831 -33.6383,-30.9334 -49.3478,-47.5177 -0.1837,-0.203 -0.785,-0.8368 -1.1289,-1.2051 -18.0029,-19.1409 -34.9665,-39.2767 -50.502,-60.4746 10.6426,-5.0957 19.373,-14.0491 24.1596,-24.8377 3.8614,-8.5349 5.2807,-18.095 4.3599,-27.4006 -1.0355,-10.8911 -4.9014,-21.2338 -8.8583,-31.347 -4.0241,-10.0649 -8.4944,-19.9442 -13.0089,-29.7965 -4.577,-9.912 -9.2054,-19.8053 -13.3778,-29.897 -9.3743,-22.3136 -17.8403,-45.0008 -25.7599,-67.8682 -6.3035,-18.3426 -12.1242,-36.8689 -16.7499,-55.7118 -2.4854,-10.1828 -5.1764,-20.343 -6.7266,-30.7224 -0.9629,-6.4544 -1.2933,-13.0257 -0.5826,-19.5243 1.1038,-11.376 3.8575,-22.4994 6.4686,-33.6004 4.8319,-19.6686 10.0922,-39.2284 15.0928,-58.8539 10.5737,-41.3264 21.2703,-82.6352 30.4189,-124.3063 4.8278,-22.2768 9.1127,-44.7182 11.3629,-67.4188 1.8707,-19.3476 1.9397,-38.913 -0.5192,-58.2125 -2.347,-18.8753 -6.5452,-37.4601 -11.1471,-55.8964 -5.229,-19.6498 -12.1828,-38.7825 -19.3009,-57.8117 -11.7348,-31.0371 -24.704,-61.5953 -38.3301,-91.8453 -9.8792,-21.8961 -20.3237,-43.5337 -31.1616,-64.9705 -13.7975,-27.5912 -27.595,-55.1824 -41.3925,-82.7737 10.2555,-24.1066 20.4182,-48.2533 30.8539,-72.2827 10.389,-23.729 21.0442,-47.3468 32.3065,-70.6755 3.1802,-6.6516 6.5729,-13.1601 10.1943,-19.7329 8.2137,-14.9967 16.3727,-30.024 24.571,-45.0296 -17.8657,-46.43 -35.6848,-92.8778 -53.6029,-139.2869 -9.7354,-24.8192 -20.1328,-49.4345 -32.6474,-72.9984 -5.774,-10.7305 -12.1511,-21.2183 -20.0246,-30.5535 -7.2499,-8.4269 -16.2113,-15.663 -26.7005,-19.5929 -2.164,-0.7804 -4.3123,-1.6153 -6.3127,-2.7627 -3.741,-1.9481 -7.3904,-4.0667 -11.0048,-6.2392 -0.2319,-0.1365 -1.0259,-0.6225 -1.4739,-0.8935 -0.5862,-0.355 -0.9212,-0.5595 -1.4118,-0.8647 -9.9914,-6.1239 -19.815,-12.5315 -29.356,-19.3368 -6.6496,-5.1927 -13.4937,-10.2562 -19.145,-16.569 -0.2554,-2.3461 -0.3309,-4.7463 -6e-4,-7.0828 0.9251,-2.8244 2.7396,-5.238 4.3378,-7.7084 4.6966,-6.7411 10.1583,-12.9012 15.6003,-19.0408 0.1887,-0.2013 0.8071,-0.8881 1.1611,-1.2761 10.7286,-11.7882 22.02,-23.0465 33.311,-34.2918 13.9672,-13.7785 28.0963,-27.3918 42.0893,-41.1441 19.5371,-19.0434 39.469,-37.7136 60.4282,-55.1926 15.0406,-12.5218 30.6177,-24.4623 47.233,-34.8337 0.2533,-0.1504 1.021,-0.6313 1.4718,-0.9086 18.8833,-11.663 39.4611,-21.0891 61.3739,-25.2262 15.7997,-3.0195 32.0152,-3.4056 48.016,-2.0395 13.0426,1.0693 25.9757,3.2009 38.7868,5.8364 0.2485,0.049 1.1742,0.2459 1.6835,0.352 6.0679,1.271 12.1065,2.6791 18.1231,4.1734 0.3531,0.093 1.1643,0.2936 1.6928,0.4277 12.1023,3.023 24.0792,6.5151 36.0941,9.8612 49.1734,13.4712 99.9053,21.4409 150.8851,22.9854 37.0896,1.087 74.3975,-1.3295 110.7686,-8.8904 27.4933,-5.7659 54.5111,-14.6663 79.161,-28.2787 12.6731,-7.0459 24.6425,-15.404 35.426,-25.1079 6.7765,-6.2094 12.5086,-13.757 15.687,-22.4426 4.8095,-12.8455 4.2177,-27.7215 -2.0701,-39.9649 -3.4865,-7.0464 -8.6647,-13.2403 -15.009,-17.887 -7.7675,-5.7567 -17.2081,-9.1578 -26.843,-9.8335 -8.2153,-0.6352 -16.4075,0.825 -24.3662,2.7385 -5.7456,1.3646 -11.4218,2.9976 -17.1197,4.5445 -0.3675,0.1021 -1.1594,0.3122 -1.6894,0.4556 -7.4507,2.0458 -15.0379,3.5561 -22.6699,4.7417 7.3825,-21.4971 11.4682,-44.0155 13.4666,-66.6213 2.8085,-32.0754 1.2475,-64.5191 -4.4556,-96.2029 -4.2447,-23.2584 -10.9164,-46.1668 -21.0029,-67.5895 -0.3409,-0.7421 -0.6822,-1.4839 -1.0296,-2.223 6.0515,-4.4556 12.0275,-9.0138 18.1211,-13.4121 7.99,6.3213 17.0706,11.4595 26.9901,13.9998 9.2118,2.4273 18.9843,2.6768 28.3019,0.6827 9.4256,-1.9435 18.2906,-6.0504 26.333,-11.2743 4.5449,-2.8971 8.8731,-6.1164 13.1445,-9.3985 l 0.064,0.077 z"
       style="fill:#ffffff;fill-opacity:1" />
    <path
       id="path7"
       d="m 3570.1406,2841.2422 c -1.7103,0.011 -3.4205,0.022 -5.1308,0.033 -0.2252,0.7315 -0.9685,0.535 -1.5675,0.5968 -42.0644,2.4146 -83.8885,10.7493 -123.2975,25.7656 -26.6164,10.0997 -52.04,23.2813 -75.7796,38.9813 -0.4659,-7.3426 -2.5472,-14.6133 -6.3411,-20.938 -2.585,-4.4915 -5.5883,-8.7603 -9.0032,-12.6533 -1.898,-1.7528 -4.29,-2.7761 -6.4699,-4.1102 -4.2337,-2.4511 -8.4861,-5.0491 -13.2326,-6.3785 -2.9534,-0.7578 -5.9844,-1.1532 -8.9903,-1.6387 -4.6987,-0.626 -9.5258,-0.6219 -14.1465,0.5297 -5.3805,1.0313 -10.6794,2.7247 -15.419,5.5154 -7.6192,4.1708 -14.0142,10.5886 -19.1669,17.3357 -8.7021,11.0598 -16.4923,22.7927 -24.4238,34.4063 -18.647,27.6647 -36.6755,55.7407 -54.5212,83.9268 -18.2466,28.8941 -36.2185,57.9651 -53.6409,87.3645 -10.8383,18.3306 -21.4055,36.8381 -30.9394,55.8871 -18.4698,36.7052 -33.9058,74.9792 -45.3723,114.4521 -11.5618,39.5678 -19.321,80.1782 -24.3962,121.0654 -2.6549,21.1136 -4.4844,42.3174 -6.5898,63.4899 -4.1815,43.011 -8.3621,86.022 -12.5441,129.0329 34.9319,-17.8202 69.8905,-35.6804 104.7949,-53.4667 10.182,-5.1616 20.3365,-10.3784 30.5357,-15.5051 6.5527,-3.1668 13.3104,-5.9343 20.2807,-8.0418 0.064,-0.011 0.9984,-0.2999 1.4035,-0.4094 8.7683,-2.5595 17.9168,-3.6729 27.0398,-3.6387 12.248,0.038 24.4092,1.9175 36.3831,4.3665 6.4277,1.3345 12.8087,2.8847 19.158,4.5507 0.3495,0.089 1.1605,0.3083 1.6867,0.4472 11.2574,3.0115 22.4085,6.4059 33.4988,9.9806 0.3674,0.1233 1.1416,0.3721 1.6647,0.5435 11.1443,3.6077 22.2055,7.4641 33.2953,11.2335 22.682,7.5433 45.8164,13.6418 69.0625,19.1707 23.5996,5.5576 47.4009,10.3419 71.4228,13.6733 24.3335,3.2574 48.8955,4.5307 73.4342,4.6497 34.3465,0.228 68.6973,-1.4008 102.8929,-4.5927 20.4997,-1.946 40.955,-4.5257 61.1983,-8.3304 5.227,7.1067 11.0139,13.7859 17.0762,20.1895 -7.229,8.9486 -13.7158,18.5344 -18.9733,28.7764 -5.1956,10.2202 -9.1375,21.2597 -10.1288,32.7433 -0.9527,11.2457 1.0805,22.8382 6.4719,32.8057 7.9809,15.0145 23.002,26.1706 39.7943,29.0925 13.6761,2.5287 28.0051,-0.3223 40.2556,-6.6995 12.0228,-6.1707 22.3767,-15.0328 32.1764,-24.2273 0.494,-0.4554 0.988,-0.9107 1.482,-1.3661 6.8561,7.1866 14.0659,14.1249 22.3026,19.727 8.5277,5.8683 18.2312,10.1807 28.4916,11.8168 10.7773,1.7729 22.0089,0.6186 32.1991,-3.3148 11.2754,-4.3054 21.2375,-11.6744 29.2763,-20.6177 8.7211,-9.9061 14.3593,-22.6325 15.1741,-35.8544 0.8941,-12.939 -2.659,-25.9733 -9.1956,-37.1065 -6.279,-10.9663 -14.8543,-20.3656 -23.5664,-29.4297 9.3885,-9.5723 17.9577,-20.0677 24.5422,-31.783 4.4767,-7.872 7.7702,-16.4949 8.9935,-25.4972 1.3939,-9.7533 0.126,-19.8896 -3.8098,-28.9343 -2.9281,-6.8498 -7.3055,-13.0117 -12.4084,-18.4097 -5.9018,-6.1588 -13.0499,-11.1442 -20.9328,-14.4208 14.4825,-14.8605 26.8612,-31.9456 35.3359,-50.9405 8.0978,-17.9843 12.4919,-37.5625 13.3133,-57.2496 0.8657,-20.5746 -2.0314,-41.1714 -7.1473,-61.072 -5.6576,-21.933 -13.8535,-43.1311 -23.1439,-63.7611 -8.0001,-17.7368 -16.9059,-35.0487 -26.1719,-52.153 -0.7224,-1.3407 -1.3464,-2.5208 -2.072,-3.882 -7.7413,-14.5616 -14.9275,-29.4146 -21.7513,-44.4265 -6.9498,-15.3682 -13.5042,-30.9202 -19.4818,-46.6933 -3.1362,-8.445 -6.2068,-16.9271 -8.7005,-25.5878 -2.3144,-8.1798 -4.3769,-16.4327 -6.9611,-24.5344 -8.9669,-28.8962 -21.2737,-56.9879 -38.665,-81.8513 -15.1213,-21.5646 -34.1877,-40.4695 -56.3945,-54.7001 -21.6469,-13.9722 -45.9264,-23.6121 -70.9819,-29.427 -27.821,-6.5609 -56.5022,-8.7221 -85.0303,-8.6159 -6.0493,0.025 -12.0985,0.075 -18.1477,0.1094 z"
       style="fill:#ffffff;fill-opacity:1" />
    <path
       id="path8"
       d="m 2355.7793,2840.6875 c -30.4212,0.3142 -61.0496,3.219 -90.3535,11.7344 -24.7032,7.2024 -48.2936,18.6862 -68.4873,34.719 -19.6513,15.5147 -36.0117,34.96 -48.956,56.3376 -13.868,22.7151 -24.1545,47.4241 -32.6055,72.6043 -3.536,10.5295 -6.5945,21.2097 -9.7553,31.8549 -1.931,6.1236 -4.0726,12.1792 -6.3365,18.1873 -0.115,0.3132 -0.427,1.1222 -0.6175,1.6254 -2.2182,5.8268 -4.5604,11.6054 -6.9333,17.3707 -0.148,0.3658 -0.4601,1.1091 -0.6709,1.6194 -9.8602,23.6837 -20.6718,46.9678 -32.2203,69.874 -5.4802,10.8947 -11.3749,21.5734 -16.9429,32.4224 -12.007,23.4666 -22.9417,47.5858 -30.8232,72.7776 -6.3118,20.1907 -10.5333,41.1578 -11.0067,62.3533 -0.452,17.4786 1.7889,35.0305 6.7457,51.8022 3.8911,13.3134 9.4762,26.1034 16.3331,38.1518 6.4783,11.4522 13.9315,22.4087 22.7911,32.1611 12.7263,14.1314 27.5986,26.172 43.2129,36.9598 22.5673,15.4956 46.9398,28.2284 72.0643,39.0328 32.5037,13.8865 66.495,24.3651 101.2649,30.7756 17.1063,3.0988 34.4024,5.0065 51.7093,6.5609 23.7642,2.0488 47.6165,3.0095 71.4661,3.1351 15.7271,0.059 31.4598,-0.4944 47.131,-1.8411 24.051,-1.6996 48.0292,-4.7466 71.6307,-9.7216 28.9482,-5.9443 57.4834,-13.6846 85.9937,-21.4156 29.788,-8.1113 59.4482,-16.679 89.1888,-24.9605 13.3461,-3.5971 26.7277,-7.1097 40.2792,-9.8538 1.525,-0.3035 3.0513,-0.6006 4.5797,-0.8861 0.2775,-0.054 1.1808,-0.2152 1.6987,-0.3103 10.1269,-1.7929 20.4706,-3.1046 30.7584,-2.1097 7.9209,0.7585 15.5496,3.2329 22.9386,6.0802 7.9352,3.1147 15.6366,6.7896 23.2839,10.5459 11.2551,5.8055 22.6133,11.7694 33.9159,17.6408 30.407,15.8382 60.8142,31.6758 91.2209,47.5144 -4.1786,-60.4956 -8.2861,-120.9962 -12.5629,-181.4848 -4.7103,-59.5259 -16.6697,-118.5756 -36.7364,-174.854 -8.9639,-25.1494 -19.4167,-49.7866 -31.6307,-73.5342 -10.2021,-18.8881 -21.5158,-37.1433 -32.7542,-55.4244 -21.8639,-35.3086 -44.4015,-70.1963 -67.2449,-104.8777 -14.8644,-22.4791 -29.8721,-44.8688 -45.4262,-66.8782 -5.6944,-7.9877 -11.4504,-15.9515 -17.801,-23.4354 -5.8826,-6.7361 -13.0776,-12.5107 -21.4628,-15.7887 -8.1402,-3.2653 -17.1288,-4.2603 -25.8122,-3.1655 -4.0717,0.5995 -8.0035,1.9076 -11.8304,3.3882 -5.745,2.3472 -10.9454,5.9185 -15.4472,10.168 -4.4311,4.2736 -7.9547,9.4504 -10.5331,15.0288 -1.3348,2.9263 -2.3872,5.9811 -3.1408,9.1079 -26.8259,-18.7734 -55.8889,-34.4315 -86.5864,-45.8754 -27.6538,-10.3499 -56.5276,-17.3554 -85.797,-21.1828 -22.4419,-2.9652 -45.1023,-4.1406 -67.7318,-3.934 z"
       style="fill:#ffffff;fill-opacity:1" />
    <path
       id="path9"
       d="m 2862.2324,2510.1445 c -22.6949,0.2045 -45.0966,7.4067 -64.1894,19.5586 -20.4348,12.8931 -37.276,30.8792 -50.6744,50.8636 -13.9646,20.7954 -24.4721,43.7637 -32.4441,67.4666 -10.2171,30.8561 -15.131,63.4906 -14.1318,95.9914 0.8775,31.2175 6.9125,62.1615 16.5335,91.8288 8.3169,25.781 19.3072,50.6328 31.7586,74.6679 7.8291,15.3698 14.7404,31.1879 21.343,47.1169 0.3086,0.7512 0.6176,1.4932 0.8797,2.1452 0.546,1.3466 1.0954,2.6853 1.6045,3.9499 1.8197,4.5023 3.5951,9.0223 5.3458,13.5518 0.2446,0.6264 0.5978,1.556 0.8841,2.2988 0.6301,1.6336 1.2444,3.2732 1.8659,4.9101 0.1803,0.4931 0.4901,1.3119 0.72,1.9299 6.4341,17.2658 12.5078,34.6802 17.6042,52.3924 0.082,0.3047 0.3276,1.155 0.4724,1.669 2.5493,9.0527 4.9021,18.16 7.5558,27.1837 6.9392,23.7266 14.7605,47.2814 25.253,69.701 9.2488,19.7773 20.9433,38.6312 36.231,54.3289 11.3044,11.6105 24.4916,21.3721 38.8873,28.8112 14.6443,7.7912 30.322,13.9653 46.7607,16.6011 14.3727,2.3419 29.1669,1.8789 43.4017,-1.153 15.3795,-3.2393 30.0718,-9.1693 44.034,-16.3005 17.54,-9.0925 33.6034,-21.2268 46.5038,-36.2396 14.2668,-16.4706 24.7474,-35.8416 33.2246,-55.817 10.596,-24.8868 18.5216,-50.7878 26.2891,-76.6633 5.2347,-17.3816 11.4322,-34.4551 17.9107,-51.4068 8.3874,-21.8321 17.3703,-43.4381 27.0154,-64.745 2.623,-5.7612 5.3216,-11.4878 8.0738,-17.1884 0.1491,-0.2948 0.5272,-1.0787 0.7641,-1.561 5.073,-10.3804 10.3961,-20.6372 15.3746,-31.064 9.2379,-19.2681 17.8716,-38.8692 24.7709,-59.1079 6.8905,-20.2752 11.8173,-41.3167 13.3243,-62.7147 1.7056,-22.7585 -0.5153,-45.6511 -4.8136,-68.0131 -5.1812,-27.01 -12.9712,-53.5862 -24.1019,-78.7614 -9.6853,-21.7381 -22.1339,-42.4174 -38.1764,-60.0755 -13.5321,-14.8461 -29.8108,-27.4136 -48.2885,-35.4622 -17.6737,-7.7093 -37.2853,-11.1278 -56.5098,-9.2597 -18.5757,1.7251 -36.5931,8.1164 -52.4584,17.8636 -20.6496,12.5901 -37.7659,30.3063 -51.7102,49.9307 -0.3555,0.8971 -0.6945,0.5088 -1.0299,-0.1653 -12.4953,-18.5553 -28.0145,-35.3149 -46.6979,-47.758 -13.913,-9.282 -29.5802,-16.039 -46.032,-19.1937 -7.6134,-1.4724 -15.373,-2.1967 -23.1282,-2.111 z"
       style="fill:#ffffff;fill-opacity:1" />
    <path
       id="path10"
       d="m 3114.7793,2415.6426 c -38.2699,18.9306 -76.5665,37.8067 -114.8086,56.7929 -8.3563,5.3318 -16.6279,10.6672 -24.9824,15.9747 -8.8707,-5.6624 -17.7015,-11.3947 -26.6465,-16.9361 -45.081,-19.4537 -90.1619,-38.9076 -135.2422,-58.3628 23.7049,43.2831 47.368,86.5883 71.1231,129.8438 13.2038,16.8268 26.2222,33.8007 39.6662,50.4375 5.6122,6.8743 11.2865,13.7226 17.5304,20.0377 6.1442,5.923 13.5186,10.7987 21.8016,13.087 6.3861,1.6737 13.0795,2.4445 19.6514,1.5432 3.181,-0.3479 6.355,-0.8897 9.3718,-1.9863 7.1604,-2.3923 13.8604,-6.2388 19.3455,-11.4477 6.125,-5.652 10.997,-12.4588 16.1278,-18.9823 5.2199,-6.8191 10.4675,-13.6206 15.5372,-20.5523 7.9365,-11.4025 15.9356,-22.7653 23.7788,-34.2303 25.232,-46.344 50.4626,-92.6887 75.6932,-139.0335 -9.3158,4.6048 -18.6315,9.2097 -27.9473,13.8145 z"
       style="fill:#ffffff;fill-opacity:1" />
  </g>
  <g
     transform="matrix(0.14826688,0,0,-0.14826688,-146.63433,734.19363)"
     fill="#000000"
     stroke="none"
     id="g5">
    <path
       d="m 2830,4879 c -118,-11 -226,-34 -328,-70 -287,-102 -482,-260 -592,-479 -78,-156 -109,-295 -117,-530 -9,-263 19,-453 88,-599 l 30,-65 -23,-64 c -19,-53 -30,-69 -70,-98 -129,-92 -117,-185 41,-337 118,-113 164,-145 232,-159 l 58,-12 11,-48 c 5,-27 10,-75 10,-106 0,-53 -30,-352 -36,-361 -2,-1 -59,16 -128,39 l -125,41 -25,56 c -14,30 -39,72 -56,92 -32,42 -133,115 -148,110 -6,-2 -42,-31 -80,-64 l -71,-60 23,-30 c 22,-29 62,-123 55,-129 -2,-2 -26,-14 -54,-27 -53,-25 -145,-109 -145,-131 0,-25 101,-178 113,-171 7,3 38,24 70,46 70,46 148,83 198,92 28,5 87,-10 300,-80 235,-78 303,-105 288,-119 -2,-2 -129,-45 -281,-95 -265,-88 -278,-92 -320,-81 -51,14 -158,70 -209,111 -20,16 -41,29 -47,29 -11,0 -112,-153 -112,-170 0,-20 85,-95 142,-125 32,-17 58,-33 58,-36 0,-20 -34,-97 -54,-124 l -24,-31 57,-50 c 92,-83 91,-83 150,-45 63,41 114,99 146,167 24,51 26,53 107,82 46,16 188,64 316,106 l 234,77 45,-41 c 57,-53 98,-70 172,-70 63,0 167,28 217,59 l 31,19 80,-40 c 109,-54 181,-61 255,-25 30,15 72,42 94,61 l 41,35 316,-105 c 308,-103 315,-106 328,-137 25,-63 80,-134 135,-175 31,-23 62,-42 68,-42 7,0 45,28 84,61 70,59 72,63 57,83 -16,22 -65,124 -65,135 0,3 23,17 52,30 29,13 76,48 106,78 l 54,53 -23,38 c -13,20 -38,61 -56,90 l -34,52 -52,-39 c -62,-47 -156,-95 -215,-111 -42,-11 -55,-7 -318,80 -239,80 -273,94 -265,108 14,26 533,196 574,188 45,-8 146,-58 217,-106 l 60,-40 55,85 c 44,69 53,90 45,104 -21,41 -123,116 -198,147 -8,4 42,112 61,132 l 22,24 -35,30 c -19,16 -54,46 -77,65 l -43,35 -43,-25 c -62,-36 -129,-113 -156,-178 l -23,-55 -127,-42 c -70,-23 -130,-42 -134,-42 -4,0 -7,19 -7,43 0,23 -7,92 -15,152 -17,130 -18,213 -2,274 12,43 13,45 74,61 77,21 96,34 205,133 107,97 151,162 151,222 0,55 -32,107 -86,139 -34,21 -45,36 -68,94 l -27,68 29,62 c 17,34 42,106 56,160 22,85 26,123 30,309 7,289 -20,464 -101,637 -122,264 -376,453 -727,540 -165,41 -324,52 -499,35 z m 418,-109 c 160,-32 334,-103 452,-183 71,-48 176,-154 220,-221 37,-58 95,-184 88,-192 -2,-2 -27,27 -55,64 -87,113 -99,118 -52,17 55,-116 68,-192 47,-271 -63,-238 -61,-225 -49,-294 8,-44 33,-107 77,-194 74,-146 74,-136 13,-266 l -40,-85 37,-97 c 36,-96 37,-98 90,-128 67,-37 81,-67 58,-117 -20,-41 -176,-183 -235,-213 -63,-32 -132,-36 -204,-10 -117,42 -285,35 -350,-14 -19,-14 -17,-15 15,-6 44,12 97,13 104,1 3,-5 -3,-29 -14,-52 -23,-52 -25,-119 -4,-174 8,-22 17,-47 20,-55 3,-9 -11,-26 -36,-44 -38,-26 -42,-27 -59,-12 -23,21 -30,20 -59,-6 l -24,-23 -26,33 c -15,18 -31,32 -37,32 -5,0 -24,-14 -42,-32 l -33,-32 -40,42 c -47,48 -60,47 -106,-14 l -27,-35 -29,36 c -50,60 -62,61 -108,14 l -41,-42 -32,31 c -18,18 -38,32 -44,32 -6,0 -23,-14 -36,-31 l -24,-31 -32,22 c -29,23 -31,23 -50,6 -19,-17 -21,-17 -58,10 -21,16 -40,29 -42,31 -2,1 5,19 15,40 28,58 30,151 6,206 -11,25 -18,48 -14,51 8,9 63,7 102,-4 32,-9 33,-8 15,6 -65,49 -201,56 -331,18 -153,-44 -216,-23 -366,126 -84,81 -98,100 -98,128 0,26 8,37 41,62 23,16 49,32 59,35 11,3 32,43 57,109 l 40,104 -18,33 c -10,19 -32,67 -49,107 l -31,73 61,122 c 33,67 68,153 77,191 18,76 16,93 -37,298 -22,84 -23,90 -7,152 9,36 32,100 51,142 41,87 32,84 -50,-21 -32,-41 -60,-73 -62,-71 -8,8 70,161 112,221 146,204 435,354 762,395 106,13 317,4 432,-20 z M 2436,2383 c 4,-31 1,-57 -11,-89 -17,-45 -17,-46 6,-72 20,-23 24,-36 21,-84 -2,-47 -6,-58 -20,-58 -12,0 -25,20 -42,63 -31,76 -32,163 -5,256 16,56 20,62 31,46 7,-10 16,-38 20,-62 z m 1140,-16 c 20,-83 15,-161 -16,-234 -16,-37 -28,-53 -41,-53 -17,0 -19,8 -19,62 0,49 4,66 21,84 19,20 20,27 10,55 -14,40 -14,119 0,156 13,35 22,21 45,-70 z m 143,-268 c 31,-142 1,-221 -139,-373 -50,-54 -124,-141 -165,-192 -129,-160 -156,-167 -318,-85 -56,28 -109,51 -116,51 -8,0 -60,-21 -115,-47 -78,-36 -113,-47 -153,-48 -63,0 -66,3 -209,175 -57,69 -141,166 -188,215 -62,65 -87,100 -92,125 -4,19 -1,87 6,150 7,63 16,158 20,210 l 6,95 17,-55 c 9,-30 27,-91 41,-135 13,-44 36,-114 50,-155 14,-41 31,-95 37,-119 l 10,-43 50,4 c 48,5 50,4 65,-28 16,-34 37,-42 64,-24 11,7 22,2 42,-23 l 27,-32 22,22 23,23 27,-33 27,-32 30,28 29,28 27,-36 c 15,-19 33,-35 41,-35 7,0 31,20 51,44 l 38,43 42,-46 42,-46 39,38 39,37 24,-25 24,-25 31,30 31,30 22,-22 22,-22 28,34 c 19,22 31,30 36,22 15,-25 52,-13 69,22 16,34 16,35 71,29 l 54,-6 11,59 c 7,33 27,102 46,154 19,52 47,144 62,203 l 28,108 7,-121 c 4,-67 11,-144 17,-171 z m -780,23 c 6,-20 13,-56 17,-79 l 7,-43 h -68 -68 l 5,63 c 3,36 15,81 28,107 l 23,44 23,-27 c 13,-15 28,-44 33,-65 z m 165,21 c 9,-26 16,-68 16,-95 v -48 h -66 -65 l 7,48 c 7,50 26,103 50,140 20,30 37,17 58,-45 z m -343,3 c 10,-24 22,-65 25,-90 l 7,-46 h -39 c -60,0 -67,10 -62,71 6,62 23,109 38,109 6,0 20,-20 31,-44 z m 485,3 c 7,-19 13,-55 13,-81 1,-51 3,-49 -73,-61 l -28,-5 7,52 c 8,63 40,139 57,134 6,-2 17,-20 24,-39 z m -697,-50 c 5,-24 8,-45 7,-47 -2,-2 -15,0 -30,4 -24,6 -26,10 -26,58 0,29 3,56 7,59 10,11 31,-27 42,-74 z m 80,44 c 6,-16 15,-47 20,-70 10,-46 5,-50 -46,-37 -26,7 -30,35 -12,97 12,44 23,47 38,10 z m 730,-4 c 19,-55 14,-96 -11,-103 -52,-13 -57,-9 -47,37 12,54 29,97 39,97 5,0 13,-14 19,-31 z m 93,-16 c 5,-55 3,-59 -34,-68 l -26,-7 9,42 c 20,89 45,105 51,33 z m -955,-111 c 19,-12 5,-82 -17,-82 -18,0 -30,27 -30,68 0,23 23,30 47,14 z m 1001,-34 c -2,-35 -7,-43 -23,-43 -14,0 -21,9 -26,35 -9,42 -5,50 27,50 23,0 25,-3 22,-42 z m -920,16 c 12,-4 22,-14 22,-23 0,-28 -21,-91 -29,-91 -12,0 -31,57 -31,91 0,31 2,32 38,23 z m 832,-23 c 0,-34 -19,-91 -31,-91 -9,0 -29,63 -29,92 0,15 15,24 48,27 7,1 12,-11 12,-28 z m -724,1 c 21,-7 21,-8 5,-61 -9,-30 -21,-56 -27,-58 -12,-4 -34,61 -34,101 0,27 12,31 56,18 z m 630,-37 c -7,-58 -24,-91 -38,-77 -6,6 -16,32 -23,59 -12,48 -12,48 14,54 53,13 54,12 47,-36 z m -509,-15 c -5,-41 -30,-90 -46,-90 -12,0 -19,21 -27,80 l -7,50 h 43 43 z m 409,-7 c -9,-64 -15,-83 -27,-83 -13,0 -48,79 -49,108 0,19 5,22 41,22 h 41 z m -266,14 c 0,-26 -48,-127 -60,-127 -12,0 -37,60 -44,108 l -6,42 h 55 c 51,0 55,-2 55,-23 z m 155,-19 c -9,-55 -34,-110 -49,-105 -13,4 -52,81 -60,120 l -6,27 h 61 61 z"
       id="path1" />
    <path
       d="m 3745,3640 c -6,-10 16,-45 40,-62 6,-4 -4,-21 -23,-41 -18,-18 -29,-37 -25,-41 5,-5 -2,-5 -14,-2 -48,15 -171,23 -238,15 -38,-4 -103,-19 -144,-33 -114,-40 -157,-42 -215,-12 l -49,25 7,-72 c 10,-104 32,-182 77,-266 35,-65 148,-241 154,-241 2,0 -15,41 -37,91 -21,50 -38,93 -36,94 2,2 28,-27 58,-63 74,-90 161,-135 268,-141 132,-6 198,38 229,156 8,32 35,96 61,143 74,138 64,200 -46,266 l -51,31 28,27 29,27 27,-25 c 29,-27 41,-31 49,-18 3,5 -8,22 -24,37 l -30,29 30,31 c 26,26 28,34 17,43 -11,9 -19,6 -37,-13 -29,-31 -37,-31 -71,1 -18,17 -29,22 -34,14 z"
       id="path2" />
    <path
       d="m 2295,3508 c -90,-10 -191,-60 -222,-107 -37,-55 -31,-109 21,-205 24,-45 52,-108 61,-141 35,-123 88,-165 206,-165 133,0 229,54 329,185 21,28 22,29 15,5 -4,-14 -20,-54 -36,-89 -16,-35 -27,-66 -25,-68 4,-4 135,196 161,246 35,70 56,148 62,233 l 6,87 -48,-25 c -57,-28 -78,-29 -165,-5 -151,43 -178,49 -235,53 -33,3 -91,1 -130,-4 z"
       id="path3" />
    <path
       d="m 2931,3177 c -37,-19 -58,-55 -81,-140 -11,-43 -37,-110 -57,-149 -48,-92 -56,-170 -23,-246 50,-115 147,-109 191,13 l 13,35 30,-57 c 63,-119 163,-87 196,62 14,65 7,102 -40,194 -21,42 -48,109 -60,150 -26,88 -43,117 -81,137 -34,17 -56,18 -88,1 z"
       id="path4" />
    <path
       d="m 2950,2547 -25,-32 25,16 c 23,15 27,15 50,0 l 25,-16 -23,33 c -13,17 -24,32 -25,31 -1,0 -13,-14 -27,-32 z"
       id="path5" />
  </g>
</svg>
