<?xml version="1.0" encoding="UTF-8" standalone="no"?>
<svg
   version="1.0"
   width="600pt"
   height="600pt"
   viewBox="0 0 600 600"
   preserveAspectRatio="xMidYMid"
   id="svg2"
   sodipodi:docname="pull.svg"
   inkscape:version="1.3.2 (091e20ef0f, 2023-11-25, custom)"
   xmlns:inkscape="http://www.inkscape.org/namespaces/inkscape"
   xmlns:sodipodi="http://sodipodi.sourceforge.net/DTD/sodipodi-0.dtd"
   xmlns="http://www.w3.org/2000/svg"
   xmlns:svg="http://www.w3.org/2000/svg">
  <defs
     id="defs2" />
  <sodipodi:namedview
     id="namedview2"
     pagecolor="#ffffff"
     bordercolor="#000000"
     borderopacity="0.25"
     inkscape:showpageshadow="2"
     inkscape:pageopacity="0.0"
     inkscape:pagecheckerboard="0"
     inkscape:deskcolor="#d1d1d1"
     inkscape:document-units="pt"
     inkscape:zoom="0.84832098"
     inkscape:cx="364.83832"
     inkscape:cy="391.9507"
     inkscape:window-width="1872"
     inkscape:window-height="1032"
     inkscape:window-x="48"
     inkscape:window-y="-36"
     inkscape:window-maximized="1"
     inkscape:current-layer="svg2" />
  <g
     transform="matrix(0.07130519,0,0,-0.07908715,-51.59485,685.284)"
     fill="#000000"
     stroke="none"
     id="g2">
    <path
       d="m 5464,8591 c -133,-36 -247,-108 -317,-199 -31,-42 -43,-50 -79,-55 -22,-3 -74,-22 -113,-41 -66,-33 -102,-66 -376,-339 -488,-487 -976,-915 -1726,-1514 -261,-209 -292,-236 -283,-254 6,-10 13,-19 16,-19 13,0 468,365 829,666 517,430 861,743 1250,1134 217,219 258,255 319,285 38,19 74,35 81,35 9,0 4,-22 -15,-72 -16,-40 -37,-113 -47,-163 -17,-85 -18,-167 -14,-1560 l 3,-1470 -257,-723 c -142,-398 -256,-724 -254,-726 38,-27 613,-375 616,-372 1,1 -19,63 -46,137 l -49,134 43,515 c 24,283 47,565 51,625 5,61 10,101 11,90 2,-11 28,-291 58,-623 l 55,-603 -51,-130 c -28,-72 -49,-133 -46,-135 3,-3 96,51 208,119 407,248 410,250 403,266 -3,9 -28,77 -54,151 -27,74 -143,396 -259,715 l -211,579 v 658 657 l 55,-38 c 201,-141 508,-147 730,-13 132,79 239,227 280,387 10,39 19,71 20,73 1,1 26,-9 56,-23 210,-96 483,-19 582,163 48,89 61,160 60,342 -2,244 -36,508 -108,830 -58,258 -58,258 -67,96 -8,-169 -41,-455 -71,-633 -13,-73 -22,-133 -20,-133 1,0 22,37 48,83 l 46,82 -4,-255 c -2,-216 -6,-261 -20,-293 -25,-53 -85,-117 -132,-138 -54,-25 -166,-25 -221,0 -53,24 -109,91 -123,146 -7,28 -11,179 -11,417 0,520 -12,613 -101,795 -83,169 -198,277 -351,330 -102,35 -290,42 -394,14 z m 330,-232 c 65,-24 155,-101 192,-166 40,-66 71,-169 84,-274 8,-65 10,-249 8,-594 -4,-460 -6,-506 -24,-571 -40,-144 -130,-247 -258,-296 -50,-19 -81,-23 -166,-23 -97,0 -110,2 -172,32 -120,57 -188,140 -225,274 -16,58 -18,120 -18,644 0,642 2,666 66,794 87,175 314,255 513,180 z"
       id="path1" />
    <path
       d="m 3170,5914 c -110,-331 -184,-610 -221,-824 -20,-116 -23,-169 -24,-380 0,-212 3,-261 23,-361 156,-820 743,-1630 1774,-2449 59,-47 107,-88 108,-92 0,-4 -15,-28 -34,-52 -56,-73 -71,-126 -71,-246 0,-97 2,-110 30,-164 38,-76 108,-146 182,-183 53,-26 67,-28 168,-28 104,0 114,2 177,33 76,37 151,113 189,189 21,42 24,62 24,158 0,98 -3,116 -26,165 -14,31 -41,73 -59,93 -18,21 -31,39 -29,41 493,372 997,858 1285,1241 320,424 525,866 601,1295 21,120 26,177 26,335 1,365 -64,682 -263,1275 -82,241 -89,259 -85,200 28,-363 33,-658 15,-841 -48,-483 -204,-892 -479,-1259 -267,-355 -595,-629 -1096,-915 -93,-53 -175,-102 -181,-108 -6,-7 -19,-97 -28,-202 -44,-482 -63,-676 -69,-682 -4,-3 -7,12 -7,35 0,22 -12,163 -26,314 -14,150 -31,331 -37,403 l -12,129 -130,74 c -410,232 -649,405 -891,646 -349,350 -573,734 -683,1174 -81,322 -97,705 -52,1187 6,55 8,101 6,103 -2,2 -49,-135 -105,-304 z m 1865,-4264 72,-49 72,49 c 40,28 76,50 81,50 4,0 19,-13 33,-30 111,-132 48,-335 -120,-386 -178,-55 -345,119 -293,306 9,32 64,110 78,110 3,0 38,-22 77,-50 z"
       id="path2" />
  </g>
</svg>
