<?xml version="1.0" encoding="UTF-8" standalone="no"?>
<svg
   version="1.0"
   width="600pt"
   height="600pt"
   viewBox="0 0 600 600"
   preserveAspectRatio="xMidYMid"
   id="svg2"
   sodipodi:docname="pull.svg"
   inkscape:version="1.3.2 (091e20e, 2023-11-25, custom)"
   xmlns:inkscape="http://www.inkscape.org/namespaces/inkscape"
   xmlns:sodipodi="http://sodipodi.sourceforge.net/DTD/sodipodi-0.dtd"
   xmlns="http://www.w3.org/2000/svg"
   xmlns:svg="http://www.w3.org/2000/svg">
  <defs
     id="defs2" />
  <sodipodi:namedview
     id="namedview2"
     pagecolor="#ffffff"
     bordercolor="#000000"
     borderopacity="0.25"
     inkscape:showpageshadow="2"
     inkscape:pageopacity="0.0"
     inkscape:pagecheckerboard="0"
     inkscape:deskcolor="#d1d1d1"
     inkscape:document-units="pt"
     inkscape:zoom="0.84832098"
     inkscape:cx="365.42772"
     inkscape:cy="393.1295"
     inkscape:window-width="2560"
     inkscape:window-height="1369"
     inkscape:window-x="1912"
     inkscape:window-y="515"
     inkscape:window-maximized="1"
     inkscape:current-layer="svg2" />
  <g
     transform="matrix(0.07022791,0,0,-0.0778923,-45.935248,679.37909)"
     fill="#000000"
     stroke="none"
     id="g2"
     inkscape:label="backdrop">
    <path
       id="path1"
       d="m 5102.375,3102.7285 c -2.6937,0.3251 -5.3875,0.6485 -8.0801,0.9824 -0.1843,0.025 -1.1895,0.141 -1.6919,0.2013 -6.7827,0.8196 -13.6215,1.4504 -20.2444,3.2111 -10.2141,2.5836 -19.8866,6.9368 -29.092,12.0049 -23.0489,12.7208 -45.6521,26.2266 -68.3359,39.5823 -62.851,37.1692 -125.4048,74.8373 -187.9438,112.528 -81.2247,48.9908 -162.306,98.2195 -243.1893,147.7722 -33.7876,20.7149 -67.5478,41.4776 -101.0474,62.6565 -9.5602,6.063 -18.9585,12.3773 -28.233,18.8682 -4.4401,3.0694 -8.8805,6.1384 -13.3199,9.2087 -4.4736,10.3087 -9.2278,20.4928 -13.6764,30.8121 -1.5159,3.585 -3.0809,7.1631 -4.3891,10.8247 -0.4507,6.2478 -1.4147,12.4446 -1.8625,18.6921 -1.0012,13.9967 1.5753,28.0223 5.837,41.317 4.7022,15.3386 9.9444,30.5037 15.0533,45.7094 15.7083,46.377 31.8551,92.6037 47.9609,138.8435 24.0944,69.0413 48.3876,138.0133 72.7231,206.9699 25.8725,73.2602 51.8407,146.4869 77.8721,219.6911 15.4865,43.5147 30.9774,87.028 46.4698,130.5406 81.4439,229.1119 162.9107,458.3068 244.3634,687.4506 0.2944,0.819 0.6773,1.6228 0.5369,2.5162 -1.0072,491.0945 -2.0058,982.1891 -3.0184,1473.2836 -0.4768,173.6382 -0.9768,347.2764 -1.3561,520.9149 -0.2779,131.1534 -0.5047,262.3069 -0.5239,393.4605 0.014,92.671 0.088,185.3425 0.6516,278.012 0.3835,59.1402 0.8728,118.2828 2.2021,177.4104 0.7845,33.0306 1.7429,66.0671 3.8491,99.0439 1.642,25.6605 4.1721,51.3 8.7522,76.6166 0.2518,1.3781 0.5009,2.7568 0.7619,4.1331 -28.1592,-26.9943 -55.8775,-54.4438 -83.5078,-81.9777 -47.3507,-47.2213 -94.2535,-94.8893 -141.6607,-142.054 -103.7417,-103.3994 -208.7606,-205.5236 -315.3201,-306.019 -108.9422,-102.7641 -219.4938,-203.8176 -331.4402,-303.2996 -56.0403,-49.8085 -112.4163,-99.2386 -169.0775,-148.3396 -65.4018,-56.6794 -131.1727,-112.9313 -197.2358,-168.8384 -58.4944,-49.4889 -117.2174,-98.707 -176.0921,-147.7427 -76.5094,-63.771 -153.2549,-127.2597 -230.2608,-190.4308 -60.7933,-49.8781 -121.7135,-99.6017 -182.7757,-149.1504 -66.9739,-54.3256 -134.0841,-108.4834 -201.4785,-162.2861 -54.9873,-43.8839 -110.0836,-87.6373 -165.818,-130.571 -16.6929,-12.7905 -33.4189,-25.5469 -50.5357,-37.7676 -9.9873,-7.0442 -20.184,-13.9763 -31.4559,-18.8216 -16.4527,-7.2209 -34.8376,-10.0448 -52.6868,-7.878 -6.5667,0.5892 -12.9816,2.2696 -19.2574,4.2312 -13.5666,4.3285 -26.1532,11.5593 -36.9101,20.8716 -9.7137,8.3562 -17.9518,18.2889 -25.2082,28.8156 -4.4224,6.3804 -8.5784,12.9645 -12.152,19.8604 -11.354,22.7197 -14.6505,49.3756 -9.0404,74.1579 4.2208,19.2067 13.52,37.0488 25.6131,52.4597 12.5938,16.2242 27.6076,30.3412 42.7401,44.1493 18.9575,17.1474 38.567,33.5539 58.2139,49.9007 33.3682,27.697 67.1271,54.9184 100.8809,82.1428 62.389,50.2548 125.0305,100.1894 187.4989,150.3451 1.5018,1.2125 3.1688,2.5489 4.7341,3.809 59.9832,48.2027 119.8375,96.5662 179.5199,145.1406 39.9619,32.5015 79.829,65.1194 119.6347,97.8122 1.17,0.9676 2.5221,2.0761 3.7621,3.0979 48.2491,39.6683 96.3722,79.4899 144.357,119.4776 40.4379,33.708 80.7788,67.5321 120.9981,101.5006 113.3495,95.7212 225.8964,192.6559 337.1323,290.9239 50.1741,44.3409 100.1028,88.9596 149.7589,133.8798 36.5146,33.0459 72.883,66.2532 109.099,99.626 1.2895,1.1955 2.7434,2.5322 4.0961,3.7819 19.4671,17.9473 38.8801,35.9532 58.2574,53.9974 1.2829,1.2026 2.7297,2.5469 4.0757,3.804 6.2396,5.815 12.4048,11.5746 18.6503,17.4149 72.6707,67.9903 144.806,136.7994 216.2081,206.2138 15.6156,15.1747 31.1881,30.3936 46.7417,45.6318 1.4288,1.3969 2.9981,2.9414 4.4809,4.395 34.433,33.7635 68.6822,67.7137 102.8405,101.7549 39.4949,39.3254 78.9776,78.6624 118.6441,117.8148 30.6066,30.2019 61.2737,60.3448 92.2982,90.1183 20.8081,19.9283 41.7925,39.6791 63.2662,58.8909 19.2276,17.14 38.9323,33.7938 59.7649,48.9634 17.8351,12.9494 36.6093,24.6119 56.1888,34.7375 19.8971,10.3445 40.4847,19.3009 61.2949,27.6327 18.8662,7.4798 37.9938,14.3445 57.4806,20.0333 11.5169,3.3386 23.2173,6.1183 35.0944,7.8213 6.3547,7.6937 12.1109,15.8555 18.3318,23.6554 12.6661,15.8674 26.1908,31.047 40.4849,45.4655 33.959,34.2415 72.0864,64.2454 112.7904,90.0618 53.021,33.6277 110.4381,60.1595 170.0467,79.7862 16.7788,5.4854 33.7106,10.5275 50.8365,14.8167 34.1003,8.3415 69.0151,12.8991 103.9813,15.6022 40.3059,3.0597 80.7935,3.4053 121.1717,1.7246 42.3003,-1.7995 84.5293,-5.9262 126.2709,-13.0683 28.0496,-4.8435 55.9018,-11.0917 83.0338,-19.7524 18.4927,-5.9572 36.6415,-12.947 54.5167,-20.5491 48.2125,-20.6131 94.0271,-46.8932 135.9375,-78.4199 43.1596,-32.4122 82.2038,-70.2068 116.5627,-111.8091 42.748,-51.7019 78.4305,-109.0082 108.1485,-169.0846 9.0406,-18.2277 17.6842,-36.6524 25.9754,-55.2327 14.8626,-33.5417 28.1423,-67.8272 38.6907,-102.9808 11.7537,-38.9667 20.3025,-78.8584 26.3914,-119.088 7.3228,-48.0836 11.4405,-96.5934 14.3237,-145.1263 3.4297,-58.343 4.9493,-116.7782 5.9743,-175.2065 1.0408,-62.805 1.3934,-125.619 1.5217,-188.4318 0.108,-61.2386 0.028,-122.4782 0.5237,-183.7155 0.072,-11.085 0.1799,-22.3784 0.2748,-33.333 0.2142,-21.0222 0.497,-42.0437 0.83,-63.0644 0.012,-0.866 0.034,-2.0138 0.051,-2.9914 0.3722,-21.2561 0.8071,-42.5112 1.3949,-63.7625 0.017,-0.4881 0.039,-1.3333 0.057,-1.9582 0.7146,-24.7486 1.5512,-49.4982 3.0461,-74.2137 0.016,-0.3101 0.076,-1.1981 0.1084,-1.73 0.5657,-8.624 1.1215,-17.2579 2.249,-25.8306 2.1337,-6.627 5.3024,-12.8739 8.779,-18.8879 7.3916,-12.5448 16.4092,-24.1085 26.5394,-34.5561 7.7234,-7.8452 16.0571,-15.1913 25.4234,-21.0257 3.551,-2.2314 7.3556,-4.0647 11.3749,-5.281 12.2606,-3.7727 25.0302,-5.5458 37.7702,-6.7354 17.8214,-1.5737 35.7825,-1.5257 53.6033,0.027 11.9538,1.0938 23.9032,2.8538 35.4445,6.2251 4.5236,1.3712 8.8793,3.312 12.8405,5.9005 9.1196,5.7035 17.3499,12.7 25.2379,19.9798 12.9,12.0441 24.6211,25.3461 35.0298,39.5957 5.7205,7.8964 11.0463,16.1157 15.4191,24.8405 1.2064,3.1528 1.7806,6.505 2.4099,9.8098 1.8862,11.5062 2.8747,23.1371 3.7195,34.7593 0.6146,8.8687 1.0703,17.7475 1.4848,26.6275 0.013,0.3867 0.053,1.1996 0.077,1.7494 0.4143,9.0514 0.7474,18.1064 1.0322,27.1628 0.014,0.3449 0.036,1.2001 0.053,1.7406 0.3528,11.6221 0.6447,23.246 0.9017,34.8707 0.019,1.0203 0.049,2.3071 0.071,3.4326 0.7263,33.7862 1.0849,67.5788 1.4757,101.3701 -11.5547,3.0144 -23.1095,6.028 -34.6641,9.043 -11.0605,8.425 -22.1198,16.8515 -33.1797,25.2773 -1.2411,2.3193 -2.4824,4.6384 -3.7246,6.9571 -0.1371,0.2421 -0.5712,1.0554 -0.8224,1.5172 -4.1016,7.6013 -8.2662,15.1834 -11.9414,23.0013 -2.7455,10.1709 -5.3539,20.4915 -5.7402,31.0699 -0.5704,14.3788 1.6104,28.6615 3.5204,42.8681 3.4411,24.6277 7.5247,49.1599 11.6392,73.6824 3.564,20.8665 7.327,41.6995 10.6311,62.6102 0.2573,1.598 0.5146,3.1959 0.7719,4.7938 0.058,0.3466 0.188,1.1859 0.2735,1.7213 2.8329,17.7957 5.5484,35.61 8.1777,53.4369 0.066,0.4807 0.1924,1.3199 0.2815,1.938 1.3553,9.209 2.676,18.423 3.988,27.6382 0.1152,0.8289 0.2745,1.948 0.4046,2.8876 4.8199,34.1793 9.3635,68.3972 13.6794,102.6437 0.043,0.3739 0.1479,1.1916 0.2146,1.7354 2.1724,17.3204 4.2772,34.6493 6.3382,51.9833 0.05,0.4006 0.1403,1.1925 0.2058,1.7428 2.163,18.3049 4.2585,36.6177 6.2961,54.9369 0.05,0.4839 0.1454,1.3259 0.2129,1.947 0.5627,5.1075 1.1496,10.4649 1.6973,15.4163 1.8091,16.8378 3.5921,33.6785 5.2968,50.5273 0.1355,1.3737 0.2999,2.985 0.4465,4.4501 0.2455,2.4443 0.5029,4.9936 0.7378,7.3362 1.4204,14.2724 2.7944,28.5494 4.1204,42.8309 0.055,0.5608 0.1343,1.4609 0.1987,2.1518 2.6186,28.3977 5.0158,56.816 7.147,85.2545 0.032,0.3775 0.089,1.1974 0.13,1.7443 0.5704,7.6677 1.1156,15.3373 1.6493,23.0076 0.018,0.3268 0.079,1.198 0.1134,1.7336 1.4018,20.4375 2.4629,40.8959 3.5585,61.3515 1.4456,25.7515 2.7829,51.5169 5.0676,77.211 1.3493,14.6783 3.1358,29.402 7.1046,43.6335 4.5446,15.9313 12.2588,31.0886 23.3229,43.4905 15.4698,17.5712 37.1388,29.6172 60.2897,33.2301 21.5219,3.4586 44.1323,-0.2545 63.3882,-10.4822 17.94,-9.4206 32.8212,-24.3157 42.7645,-41.9258 8.0523,-14.0594 13.105,-29.5597 17.6118,-45.048 5.8836,-20.4479 10.7979,-41.1568 15.726,-61.8507 8.4761,-35.9143 16.5122,-71.9297 24.638,-107.9244 8.6254,-38.2841 17.0081,-76.6237 24.9459,-115.0568 25.4526,-122.8602 47.0879,-246.56 62.7473,-371.0662 11.7389,-93.3459 20.0553,-187.1443 24.0116,-281.1507 2.1463,-51.1618 3.0533,-102.3811 2.4097,-153.5857 -0.6255,-48.1104 -2.4635,-96.3063 -8.7758,-144.0469 -5.0119,-37.6392 -13.1992,-74.9464 -25.888,-110.7719 -10.4383,-29.6121 -23.72,-58.171 -38.8089,-85.6865 -16.9033,-30.6075 -37.7261,-59.0046 -61.4612,-84.6613 -23.8305,-25.7597 -50.6218,-48.7338 -79.452,-68.722 -37.0605,-25.7037 -77.458,-46.4974 -119.6587,-62.3597 -73.8757,-27.7528 -153.2716,-40.5431 -232.1226,-37.9076 -49.552,1.6767 -98.926,9.52 -146.4431,23.7178 -6.2954,1.8832 -12.5582,3.8761 -18.7827,5.9819 -20.4003,-65.0849 -49.7753,-127.2993 -86.5526,-184.7212 -36.9257,-57.6294 -81.4056,-110.518 -132.5998,-155.9952 -32.274,-28.6331 -67.2931,-54.2158 -104.6606,-75.806 -86.557,-50.5316 -183.3318,-82.8108 -282.4133,-97.1288 -60.1741,-8.6994 -121.2994,-10.8111 -181.9285,-6.2471 -67.0224,5.0597 -133.4932,18.3154 -197.0517,40.2568 -22.5037,7.7723 -44.6284,16.6482 -66.2428,26.6318 0,-372.9981 0,-745.9961 0,-1118.9942 71.5171,-196.2495 143.0364,-392.4983 214.5235,-588.7586 44.2256,-121.7148 88.3366,-243.4709 132.3918,-365.2477 38.4441,-106.259 76.84,-212.5145 115.3285,-318.7525 5.576,-15.4799 10.9993,-31.0145 16.5345,-46.5091 5.3043,-14.9168 10.6735,-29.8104 16.0186,-44.7126 2.8491,-7.9036 5.7559,-15.9899 8.6066,-23.9057 5.4314,-15.0583 10.8612,-30.1179 16.2985,-45.1735 8.0012,-23.5517 7.5954,-49.9014 -1.3836,-73.12 -6.6532,-17.5439 -17.971,-33.0812 -31.6774,-45.7937 -13.8281,-12.8952 -29.4624,-23.6232 -45.0709,-34.2145 -22.7589,-15.287 -45.99,-29.8536 -69.2254,-44.4007 -45.0049,-28.122 -90.2895,-55.7931 -135.5593,-83.4852 -55.0874,-33.6687 -110.2217,-67.261 -165.3636,-100.8408 -41.1586,-24.9822 -82.4416,-49.7631 -124.0254,-74.0324 -20.2679,-11.8087 -40.5882,-23.536 -61.2018,-34.7334 -8.7813,-4.7331 -17.6198,-9.3821 -26.7117,-13.495 -1.3572,-0.6291 -2.8133,-1.0698 -3.9965,-2.014 -2.6886,-1.8124 -5.6941,-3.0696 -8.7045,-4.2361 -1.9815,-0.6506 -4.0097,-1.1439 -5.9779,-1.8414 -14.6502,-4.722 -29.2997,-9.4463 -43.9504,-14.1667 -1.4506,0.1752 -2.9011,0.3503 -4.3516,0.5254 z m 16.0137,390.7422 c -2.5443,27.901 -5.0886,55.8021 -7.6328,83.7031 -2.4649,-29.5189 -4.9297,-59.0377 -7.3946,-88.5566 2.1107,-5.7721 4.2214,-11.5443 6.3321,-17.3164 2.8984,7.39 5.7968,14.7799 8.6953,22.1699 z m 511.9648,3041.4043 c 6.3816,0.027 12.7632,0.04 19.1445,0.1 0.3032,6e-4 1.2004,0.013 1.7316,0.018 16.2624,0.1755 32.5363,0.5945 48.7489,1.937 13.9519,1.2139 27.8698,3.4848 41.2389,7.7352 14.5878,4.5151 28.8072,10.1855 42.6244,16.6769 31.0014,14.7074 59.6325,34.5164 83.951,58.7531 22.991,22.8129 42.1863,49.3351 57.362,77.9194 15.2203,28.5957 26.584,59.1623 34.6874,90.5006 1.18,4.5636 2.2163,9.1635 3.148,13.7839 -0.021,-0.076 0.2169,1.1092 0.2962,1.5217 2.2385,11.5549 3.5717,23.2637 4.6764,34.9744 1.0905,11.9568 1.8441,24.4009 2.511,36.0999 1.6419,31.248 2.5119,63.049 3.2486,94.545 0.041,1.8266 0.09,3.8111 0.124,5.5132 0.27,12.5054 0.4958,25.0117 0.7376,37.5177 0,0.4043 0.02,1.2005 0.028,1.7548 1.1247,65.1426 1.7893,130.292 2.456,195.4405 0.3659,40.3801 0.7549,80.8959 1.0819,121.3287 0.5827,108.1672 1.0055,216.3379 0.3699,324.506 -0.101,17.3067 -0.2688,34.6129 -0.4225,51.9192 -0.01,1.1965 -0.028,2.6472 -0.039,3.9414 -0.194,15.7531 -0.4148,31.5058 -0.6797,47.2578 0,0.3958 -0.022,1.2005 -0.031,1.7529 -0.1472,8.3624 -0.3097,16.7237 -0.502,25.085 -0.018,0.8889 -0.048,2.0663 -0.071,3.066 -0.7226,30.4369 -1.611,60.8792 -3.5432,91.2669 -0.3707,5.7725 -0.8175,11.5401 -1.3506,17.2999 -0.01,0.027 -0.11,1.1372 -0.1531,1.5711 -1.4663,14.7918 -3.7177,29.4932 -6.1227,44.1574 -0.63,3.7373 -1.2857,7.4702 -1.9625,11.1993 -0.036,0.2103 -0.217,1.1789 -0.3089,1.6822 -6.0646,32.8304 -14.0348,65.3282 -24.3083,97.101 -7.4158,22.6789 -15.9315,45.0464 -26.4865,66.4641 -5.3521,10.8384 -11.3098,21.3786 -17.8225,31.5614 -6.3789,9.7695 -13.7279,18.8721 -21.4478,27.6075 -18.9047,21.2545 -40.1782,40.3644 -63.0522,57.2564 -13.211,9.6547 -27.0113,18.6016 -41.7555,25.7457 -8.174,3.8598 -16.7617,6.739 -25.3339,9.5661 -44.0046,14.1534 -90.9225,19.1754 -136.9243,14.6221 -53.3145,-5.2396 -105.6393,-23.2046 -149.8676,-53.6371 -27.3338,-18.8128 -51.4623,-42.4679 -69.9697,-70.0617 -7.0274,-10.4367 -13.1836,-21.4434 -18.616,-32.7881 -10.9699,-22.1471 -21.8938,-44.5003 -28.8939,-68.2815 -7.0852,-23.9117 -10.6801,-48.684 -13.3442,-73.4287 -0.076,-0.7224 -0.1521,-1.4448 -0.2281,-2.1672 -0.024,-0.2097 -0.1204,-1.1926 -0.1724,-1.7011 -0.5096,-5.0082 -1.0084,-10.4049 -1.4121,-15.1798 -1.6681,-19.7022 -2.8064,-39.4455 -3.7299,-59.1953 -0.013,-0.3613 -0.053,-1.1996 -0.077,-1.7435 -1.1035,-24.3852 -1.8424,-48.7853 -2.4193,-73.1881 -0.011,-0.3959 -0.027,-1.2004 -0.04,-1.7527 -0.2824,-12.2028 -0.5187,-24.4065 -0.7333,-36.6106 -0.01,-0.5634 -0.023,-1.4669 -0.034,-2.1607 -0.4274,-25.1532 -0.6994,-50.3087 -0.9312,-75.4643 -6e-4,-0.5635 -0.011,-1.467 -0.015,-2.1609 -0.7836,-96.7224 -0.7877,-193.4486 -0.8317,-290.1735 -0.01,-100.4224 -0.01,-200.8451 0.3232,-301.2671 0.152,-41.6126 0.3847,-83.2249 0.7698,-124.836 0,-0.4463 0.014,-1.2672 0.019,-1.8569 0.2037,-19.1844 0.4289,-38.3686 0.7563,-57.5513 0.01,-0.672 0.029,-1.6667 0.043,-2.4625 0.1877,-11.0517 0.4207,-22.1025 0.6798,-33.1528 0.012,-0.3619 0.031,-1.2003 0.046,-1.7447 0.2322,-9.5226 0.512,-19.0439 0.835,-28.5639 0.01,-0.2694 0.043,-1.1991 0.062,-1.7226 0.615,-17.4058 1.4087,-34.8086 2.7135,-52.1777 -0.011,0.1034 0.089,-1.123 0.1218,-1.5384 0.6157,-8.0008 1.3939,-15.9913 2.47,-23.9441 -0.017,0.1616 0.1564,-1.1064 0.215,-1.5116 1.3318,-9.7965 3.3829,-19.4924 6.1595,-28.9817 0.2255,-0.7896 0.2222,-0.8031 0.4262,-1.4972 8.501,-29.7642 19.4902,-58.9684 34.7178,-85.9826 10.4636,-18.6213 23.0798,-36.0526 37.7325,-51.6051 1.5589,-1.6565 3.1395,-3.2928 4.7392,-4.9101 -0.092,0.1006 0.7939,-0.7924 1.0868,-1.0829 0.4943,-0.4959 0.4249,-0.4282 1.0383,-1.0303 23.4316,-23.0388 51.1753,-41.3095 80.4276,-56.0873 9.6912,-4.865 19.4882,-9.518 29.3396,-14.0493 8.5247,-3.8203 17.1325,-7.6708 26.2773,-9.7559 9.4396,-2.0805 19.1328,-2.542 28.7581,-3.0189 4.7756,-0.209 9.9382,-0.3323 14.477,-0.4264 2.7965,-0.045 5.9401,-0.1162 8.5215,-0.1417 10.9031,-0.1191 21.8068,-0.1439 32.7105,-0.1553 z"
       style="fill:#ffffff;fill-opacity:1;stroke:none;stroke-opacity:1" />
    <path
       id="path2"
       d="m 5097.2852,1035.1387 c -28.68,0.1149 -57.4097,0.047 -86.0075,2.5088 -23.025,2.0549 -45.9487,6.3012 -67.7996,13.9578 -19.492,6.7051 -38.171,15.5275 -56.5366,24.8317 -40.9196,21.2061 -78.4338,48.6866 -112.0204,80.1809 -35.6676,33.5164 -66.9905,71.7422 -92.2105,113.7141 -7.068,11.7798 -13.5478,23.9019 -19.7018,36.1809 -10.4176,20.3444 -20.0071,41.2636 -26.1834,63.3281 -6.7737,23.694 -9.5829,48.3265 -10.6663,72.8865 -1.066,23.7038 -0.9987,47.4382 -1.0159,71.1604 0.1491,39.4906 1.6424,79.1268 8.0596,118.1552 4.8843,29.57 12.7675,58.7179 24.4862,86.3332 10.5398,25.056 23.9998,48.8203 39.3465,71.2335 0.1955,0.4962 1.0396,1.0857 0.7961,1.5188 -24.8105,20.3516 -50.0183,40.2107 -75.0481,60.2902 -134.0598,107.5967 -265.2742,218.7731 -392.6461,334.2213 -102.268,92.6931 -202.055,188.1434 -298.6621,286.7289 -86.7843,88.559 -171.0015,179.6532 -251.9587,273.5749 -109.4367,126.9584 -212.9627,259.1007 -308.2973,396.9932 -64.1494,92.8024 -124.5483,188.2213 -180.3304,286.2902 -60.9672,107.2035 -116.3952,217.598 -164.947,330.9806 -17.285,40.3806 -33.6998,81.1339 -49.1929,122.2356 -21.0562,55.9021 -40.4027,112.4504 -57.8635,169.5786 -25.3856,83.0226 -46.8131,167.2634 -63.9177,252.3815 -1.4938,7.412 -2.9747,14.9565 -4.3936,22.3015 -3.6175,18.421 -7.1867,36.8552 -10.1791,55.39 -4.0695,24.8648 -7.204,49.8845 -9.2783,74.9957 -3.5549,42.2304 -4.6453,84.6193 -5.2869,126.9794 -0.6375,44.2608 -0.717,88.5276 -0.6669,132.7923 0.3563,58.9177 0.6695,117.8472 2.7089,176.7358 1.5842,43.7713 4.4709,87.532 10.1019,130.9831 5.2817,41.3437 12.4099,82.4247 20.0139,123.3964 13.4595,71.9863 29.3142,143.5088 46.6356,214.6591 16.3463,67.0961 34.0424,133.8599 52.7253,200.3422 32.2111,114.6362 67.325,228.4426 104.3897,341.598 12.9641,39.5905 26.1802,79.0976 39.3613,118.6163 17.6507,52.7475 35.4527,105.4454 53.6531,158.0059 7.3475,21.1092 14.7174,42.2153 22.6711,63.1054 3.8967,10.1201 8.2278,20.1713 14.3536,29.1697 5.1765,7.7036 11.4204,14.6738 18.4464,20.7337 2.9928,2.7849 6.0826,5.4762 9.2506,8.053 7.1489,3.5804 14.368,7.0446 21.8441,9.8954 11.0142,4.4647 22.0284,8.9298 33.0428,13.3943 21.5723,-8.4725 43.1448,-16.9448 64.7168,-25.418 6.8714,-9.799 13.981,-19.4293 20.7795,-29.2793 3.1929,-4.6716 5.4373,-9.8985 7.6411,-15.0858 3.4416,-8.3505 5.7802,-17.15 6.9144,-26.1111 1.7473,-12.9609 1.2082,-26.0764 0.7555,-39.1041 -0.8467,-19.9962 -2.409,-39.9553 -4.2215,-59.8849 -1.5096,-15.8623 -3.2152,-31.7061 -4.5695,-47.5831 -0.8091,-8.9114 -1.5787,-17.8264 -2.3542,-26.7407 -0.028,-0.3682 -0.1005,-1.1966 -0.1455,-1.7409 -2.7318,-31.9964 -5.2233,-64.0133 -7.458,-96.0482 -0.067,-1.0128 -0.1582,-2.297 -0.2322,-3.4129 -0.8361,-12.2099 -1.6535,-24.661 -2.4084,-36.7258 -2.0414,-32.7592 -3.7858,-65.5369 -5.2246,-98.3281 -0.4609,-10.5201 -0.8733,-21.1954 -1.2729,-31.7768 -0.034,-0.8571 -0.073,-1.9768 -0.1037,-2.6708 -0.1297,-3.5981 -0.2577,-7.3829 -0.3851,-10.8805 -0.1486,-4.5038 -0.2946,-9.0727 -0.4434,-13.625 -0.015,-0.3873 -0.036,-1.2002 -0.054,-1.7504 -0.3321,-10.7293 -0.6168,-21.4599 -0.8797,-32.191 -0.011,-0.3874 -0.028,-1.2004 -0.041,-1.7508 -0.2336,-9.9502 -0.4297,-19.9013 -0.6038,-29.8528 0,-0.3788 -0.018,-1.2005 -0.026,-1.749 -0.1626,-9.9497 -0.2912,-19.9 -0.3899,-29.8506 9e-4,-0.3337 -0.01,-1.2116 -0.012,-1.7539 -0.227,-25.9102 -0.2154,-51.8225 0.043,-77.7324 0.012,-1.6745 0.039,-3.5659 0.06,-5.3243 0.086,-7.4502 0.2053,-14.9 0.3347,-22.3495 0.016,-1.0309 0.043,-2.3331 0.062,-3.4682 0.2738,-14.7976 0.6443,-29.5938 1.0959,-44.3873 0.016,-0.3872 0.039,-1.2001 0.057,-1.7502 0.3991,-12.7413 0.8671,-25.4802 1.3995,-38.2166 0.029,-0.5762 0.063,-1.4875 0.097,-2.1948 2.6385,-61.3546 6.9472,-122.6434 13.2668,-183.731 0.04,-0.4093 0.1245,-1.1941 0.1815,-1.7472 1.6309,-15.6735 3.4001,-31.3326 5.3028,-46.9754 0.058,-0.442 0.155,-1.2578 0.2278,-1.8429 0.7727,-6.3381 1.5764,-12.6724 2.3953,-19.0048 0.05,-0.3572 0.157,-1.1904 0.2288,-1.7299 0.8318,-6.3665 1.6876,-12.7299 2.5642,-19.0904 0.054,-0.3567 0.1666,-1.1891 0.2431,-1.728 0.5875,-4.2265 1.2056,-8.6013 1.7979,-12.7329 1.4865,-10.2467 3.1025,-20.9299 4.6602,-30.88 7.1013,-45.1406 15.4896,-90.0811 25.3027,-134.7118 0.019,-0.1 0.2494,-1.1215 0.3461,-1.5598 2.7949,-12.6827 5.8425,-25.8525 8.8005,-38.1565 12.6185,-52.3405 26.9547,-104.2698 43.128,-155.6244 6.5198,-20.7456 13.3495,-41.3925 20.4675,-61.9406 0.1156,-0.3445 0.3943,-1.1342 0.5723,-1.6491 0.5084,-1.4573 1.1018,-3.1714 1.5566,-4.4667 9.0693,-25.9254 18.5999,-51.6895 28.6036,-77.2689 0.1386,-0.3391 0.4394,-1.1175 0.6401,-1.6248 1.9491,-4.9777 3.9217,-9.9462 5.9048,-14.9104 0.1412,-0.3602 0.4471,-1.1144 0.6513,-1.6254 0.5192,-1.2928 1.0385,-2.5857 1.5577,-3.8785 0.137,-0.328 0.4509,-1.1128 0.6557,-1.6158 8.6673,-21.4418 17.6682,-42.7487 26.9869,-63.9155 0.154,-0.3377 0.4859,-1.098 0.7081,-1.5975 15.0996,-34.218 31.074,-68.0492 47.8622,-101.4708 0.1456,-0.2966 0.5404,-1.0722 0.7815,-1.5524 16.4954,-32.7661 33.7862,-65.1315 51.8376,-97.0668 0.182,-0.3113 0.593,-1.044 0.8627,-1.5168 0.8628,-1.5211 1.7257,-3.0422 2.5885,-4.5632 0.1563,-0.2816 0.5952,-1.0427 0.8599,-1.5082 2.0189,-3.5432 4.0534,-7.0775 6.0893,-10.611 0.1875,-0.3167 0.6021,-1.0388 0.8766,-1.5108 19.0849,-32.9879 38.9898,-65.5009 59.6449,-97.5282 0.1457,-0.2178 0.6528,-1.0067 0.9377,-1.4443 7.2565,-11.229 14.6087,-22.396 22.0506,-33.503 0.1758,-0.2672 0.6696,-0.9965 0.9674,-1.4409 1.2158,-1.8051 2.6336,-3.9214 3.7234,-5.5325 6.2391,-9.238 12.5423,-18.4325 18.9029,-27.5871 0.1843,-0.2698 0.6866,-0.985 0.9928,-1.4255 29.4976,-42.3611 60.3322,-83.7885 92.3471,-124.2796 0.259,-0.3196 0.7462,-0.9406 1.0926,-1.3755 30.7802,-38.8818 62.6744,-76.8784 95.5245,-114.0269 0.2337,-0.2561 0.7973,-0.8978 1.1573,-1.3017 7.0631,-7.9789 14.1751,-15.9144 21.3252,-23.8155 0.2272,-0.2552 0.8069,-0.8891 1.1692,-1.2894 11.817,-13.0329 23.7524,-25.9584 35.8015,-38.777 0.2606,-0.2815 0.8232,-0.8741 1.1994,-1.2747 1.2428,-1.3186 2.4855,-2.6372 3.7283,-3.9557 0.414,-0.432 1.0542,-1.1139 1.555,-1.6418 2.773,-2.939 5.5599,-5.8648 8.3434,-8.7938 0.3249,-0.3336 0.8881,-0.9321 1.3083,-1.367 23.5995,-24.7093 47.5938,-49.0432 72.0727,-72.8822 64.0827,-62.602 130.6802,-122.6567 200.0023,-179.4115 54.5148,-44.6827 110.6681,-87.3538 168.0777,-128.2455 0.2872,-0.2087 0.9787,-0.6956 1.4208,-1.0109 9.1141,-6.4837 18.2595,-12.9233 27.4327,-19.3231 0.3242,-0.2296 0.9855,-0.686 1.4387,-1.0024 16.792,-11.6961 33.6845,-23.2476 50.659,-34.6773 0.3433,-0.2264 0.997,-0.6689 1.4592,-0.978 1.6679,-1.1212 3.4906,-2.3408 5.0622,-3.4009 2.1608,-1.4437 4.5237,-3.0294 6.5586,-4.3848 32.8752,-21.9304 66.063,-43.39 99.4903,-64.4687 0.277,-0.1693 1.017,-0.6381 1.4715,-0.9222 25.6332,-16.1436 51.4136,-32.0525 77.3058,-47.777 0.3416,-0.2028 1.0273,-0.6215 1.5007,-0.907 19.3274,-11.7254 38.7212,-23.341 58.1673,-34.8684 0.4852,-0.2826 1.2631,-0.7463 1.8605,-1.0983 46.2819,-27.4121 92.8895,-54.2706 139.6742,-80.8143 58.5663,-33.3068 117.1098,-66.654 175.6666,-99.9779 0.8417,-0.4792 1.6835,-0.9584 2.5252,-1.4377 0.1244,-1.3333 0.2487,-2.6666 0.3731,-4 6.3238,9.7592 14.3142,18.4333 23.5521,25.5001 8.9016,6.9718 18.6018,12.8174 28.1398,18.8576 21.0374,13.1318 42.3966,25.7372 63.7394,38.3635 38.3864,22.6539 77.0609,44.8147 115.746,66.9534 43.4104,24.9553 86.5419,50.3988 129.3025,76.4523 3.1004,1.8926 6.2009,3.7852 9.3014,5.6778 0.3178,0.2002 1.023,0.6287 1.4892,0.9163 11.1407,6.8244 22.2543,13.693 33.3468,20.5954 0.3065,0.1962 1.0179,0.6368 1.4796,0.9266 38.0948,23.7469 75.8693,48.0087 113.2723,72.8313 0.2719,0.1856 0.999,0.666 1.4453,0.9647 55.0558,36.5896 109.2882,74.4253 162.4429,113.7286 83.5295,61.773 164.396,127.2036 241.4666,196.8872 20.914,18.8896 41.5317,38.1068 61.8737,57.6109 0.16,0.1489 0.8635,0.8317 1.2334,1.1868 45.5014,43.7261 89.5104,89.0069 131.8685,135.7852 0.4952,0.5471 0.7062,0.7728 1.1442,1.2608 2.2556,2.5044 4.8109,5.3334 6.8792,7.6347 35.7604,39.8529 70.3497,80.7551 103.7283,122.6227 0.2316,0.2974 0.747,0.94 1.0873,1.3696 31.5292,39.5857 62.0454,79.9867 91.1728,121.3748 46.6435,66.197 89.9873,134.7311 129.535,205.4007 2.8963,5.1964 5.7843,10.3975 8.6502,15.6108 0.1493,0.265 0.5765,1.0529 0.8325,1.5186 30.4035,55.4339 58.4701,112.1488 84.0888,169.95 28.2064,63.6525 53.3994,128.6341 75.6086,194.617 4.2747,12.7301 8.4496,25.494 12.513,38.2933 0.096,0.3157 0.3418,1.0738 0.4922,1.5605 21.0311,66.5181 39.0506,133.9818 54.2134,202.0757 5.3119,23.7958 10.2283,47.679 14.8628,71.6157 3.9877,20.7066 7.755,41.6283 11.2521,62.4895 0.1782,1.0541 0.3928,2.3524 0.5487,3.2566 4.9781,29.9438 9.4504,59.9711 13.4394,90.0625 0.038,0.3146 0.1553,1.1905 0.2237,1.7204 0.2894,2.213 0.5787,4.426 0.8681,6.639 0.048,0.3575 0.1527,1.191 0.2226,1.7308 1.0061,7.7931 1.9692,15.5917 2.9161,23.3922 0.043,0.3413 0.1421,1.1923 0.2066,1.7289 2.7423,22.9494 5.253,45.9275 7.395,68.9411 0.023,0.2921 0.1072,1.1955 0.1537,1.7224 0.3565,3.9095 0.6955,7.8206 1.024,11.7326 0.092,1.17 0.2153,2.5912 0.3133,3.86 0.6361,7.8353 1.1911,15.6767 1.7336,23.5189 0,0.013 0.072,1.1388 0.098,1.5716 3.4986,53.1581 5.0418,106.4278 5.581,159.6924 0.2775,27.6019 0.2601,55.2062 0.023,82.8083 -4e-4,0.3874 -0.011,1.2007 -0.016,1.7511 -0.1263,13.6032 -0.3122,27.2057 -0.5426,40.8075 -0.01,0.5634 -0.026,1.4668 -0.038,2.1606 -0.2194,12.765 -0.504,25.5287 -0.7824,38.2925 0,0.1242 -0.026,1.0846 -0.041,1.5332 -0.19,7.966 -0.4069,15.9313 -0.625,23.8965 -0.017,0.4881 -0.039,1.3333 -0.058,1.9581 -0.4882,17.1007 -1.0394,34.1995 -1.6585,51.2958 -0.07,1.9969 -0.1523,4.1973 -0.2271,6.2724 -2.0522,55.2064 -4.7351,110.3887 -7.9018,165.5421 -0.064,1.0292 -0.1369,2.3294 -0.2044,3.4627 -3.326,57.3238 -7.2098,114.6143 -11.5091,171.873 -1.0007,13.9126 -2.2752,27.817 -2.5803,41.7685 -0.2127,11.3609 0.4032,22.8124 3.0043,33.9064 2.8503,12.5433 7.968,24.5833 15.2009,35.2308 7.4477,11.0553 17.0945,20.625 28.2576,27.9174 6.3964,4.3015 13.3795,7.6584 20.5697,10.4043 5.6894,2.1824 11.6172,3.7008 17.6298,4.6707 7.8874,1.3994 15.9447,1.8411 23.9343,1.2271 8.1027,-0.5239 16.1336,-2.0567 23.8574,-4.5625 15.9607,-5.0848 30.574,-14.235 42.2194,-26.265 7.9593,-8.1414 14.488,-17.5984 19.7669,-27.6666 6.0794,-11.5962 10.8819,-23.8011 15.5975,-35.9986 8.3942,-22.0023 16.172,-44.233 23.9476,-66.4595 12.8105,-36.7974 25.372,-73.6809 37.9477,-110.5589 12.7664,-37.3959 25.1957,-74.906 37.5336,-112.4452 27.5197,-83.894 54.1674,-168.0794 79.3182,-252.7158 24.2369,-81.5733 47.0487,-163.5825 67.5152,-246.1868 24.7594,-99.9587 45.9798,-200.8488 61.5675,-302.662 8.8434,-57.6457 15.8268,-115.5783 20.8453,-173.6826 5.5843,-64.574 8.6712,-129.3567 9.5552,-194.1634 0.355,-24.597 0.3376,-49.1975 0.2234,-73.7963 -0.1658,-49.5655 -0.9252,-99.1592 -4.1518,-148.6322 -2.2499,-33.875 -5.8256,-67.66 -10.6746,-101.2613 -4.712,-32.9778 -10.3165,-65.822 -16.3217,-98.587 -18.9006,-101.6436 -44.3678,-202.0363 -75.455,-300.6271 -28.3305,-89.8251 -61.2812,-178.1781 -98.2606,-264.7968 -33.134,-77.6225 -69.4643,-153.8722 -108.6119,-228.6397 -44.7075,-85.4094 -93.0442,-168.9078 -144.5236,-250.4105 -46.6562,-73.885 -95.8778,-146.1424 -147.3334,-216.7661 -26.4166,-36.2176 -53.3569,-72.0563 -80.9577,-107.3809 -41.2461,-52.7593 -83.9415,-104.3761 -127.6276,-155.1298 -46.0396,-53.481 -93.2119,-105.9824 -141.2565,-157.6678 -61.7345,-66.4092 -124.9009,-131.4812 -189.2179,-195.3907 -44.2363,-43.9443 -89.0143,-87.3432 -134.2933,-130.2119 -71.9653,-68.1306 -145.1847,-134.9355 -219.561,-200.4244 -110.7307,-97.4643 -224.0142,-192.0384 -339.9614,-283.24 -11.8446,-9.3145 -23.7168,-18.5936 -35.6186,-27.8347 12.4334,-18.8086 23.9996,-38.2148 34.127,-58.3671 4.6382,-9.2172 8.9249,-18.6063 13.1193,-28.032 7.4532,-16.9009 13.8949,-34.2995 18.268,-52.2657 4.5466,-18.4542 7.0613,-37.3548 8.3859,-56.2982 1.452,-20.3996 1.7233,-40.8589 1.9127,-61.302 0.1269,-21.1217 0.09,-42.2454 -0.2131,-63.3653 -0.3605,-20.972 -1.1056,-41.9722 -3.5413,-62.8191 -2.4634,-20.8023 -6.8829,-41.4379 -14.1121,-61.1259 -6.9116,-19.0705 -15.8918,-37.3212 -25.658,-55.075 -21.4406,-38.5282 -48.2171,-73.9588 -78.3849,-106.0632 -29.386,-31.1955 -62.1764,-59.2558 -97.9798,-82.8446 -17.1042,-11.2266 -34.9395,-21.3467 -53.4002,-30.1704 -0.4257,-0.204 -1.253,-0.6053 -1.6935,-0.822 -22.3107,-10.9125 -45.0089,-21.3781 -68.9917,-28.086 -19.4191,-5.5212 -39.465,-8.6094 -59.579,-10.0974 -21.4386,-1.6424 -42.9526,-1.7975 -64.4424,-1.9551 -9.8367,-0.051 -19.6735,-0.059 -29.5102,-0.045 z m 8.3769,338.4179 c 18.3285,-0.053 36.4463,4.3919 53.309,11.3899 19.8298,8.2807 37.9128,20.8429 52.2804,36.852 18.2339,20.2145 30.6761,45.6108 35.3302,72.4427 3.7112,21.1711 2.5966,43.2463 -3.7883,63.8014 -1.2258,3.9794 -2.6416,7.9002 -4.2368,11.7465 -16.3443,-11.2592 -32.7975,-22.3592 -49.1919,-33.5453 -27.455,-18.6839 -54.9082,-37.3705 -82.3647,-56.0524 -42.7485,29.0957 -85.516,58.1629 -128.2246,87.3164 -1.1549,-2.2727 -2.4377,-4.5086 -3.2845,-6.9172 -3.7129,-14.3807 -5.5738,-29.2584 -5.2057,-44.1154 0.5188,-22.3598 6.1102,-44.5753 16.2209,-64.5242 12.6277,-25.0289 32.234,-46.6563 56.4556,-60.889 16.1442,-9.5095 34.3717,-15.6232 53.0837,-17.1035 3.1984,-0.2655 6.4077,-0.3886 9.6167,-0.4019 z"
       style="fill:#ffffff;fill-opacity:1;stroke:none;stroke-opacity:1" />
  </g>
  <g
     transform="matrix(0.07022791,0,0,-0.0778923,-45.935248,679.37909)"
     fill="#000000"
     stroke="none"
     id="g4">
    <path
       d="m 5464,8591 c -133,-36 -247,-108 -317,-199 -31,-42 -43,-50 -79,-55 -22,-3 -74,-22 -113,-41 -66,-33 -102,-66 -376,-339 -488,-487 -976,-915 -1726,-1514 -261,-209 -292,-236 -283,-254 6,-10 13,-19 16,-19 13,0 468,365 829,666 517,430 861,743 1250,1134 217,219 258,255 319,285 38,19 74,35 81,35 9,0 4,-22 -15,-72 -16,-40 -37,-113 -47,-163 -17,-85 -18,-167 -14,-1560 l 3,-1470 -257,-723 c -142,-398 -256,-724 -254,-726 38,-27 613,-375 616,-372 1,1 -19,63 -46,137 l -49,134 43,515 c 24,283 47,565 51,625 5,61 10,101 11,90 2,-11 28,-291 58,-623 l 55,-603 -51,-130 c -28,-72 -49,-133 -46,-135 3,-3 96,51 208,119 407,248 410,250 403,266 -3,9 -28,77 -54,151 -27,74 -143,396 -259,715 l -211,579 v 658 657 l 55,-38 c 201,-141 508,-147 730,-13 132,79 239,227 280,387 10,39 19,71 20,73 1,1 26,-9 56,-23 210,-96 483,-19 582,163 48,89 61,160 60,342 -2,244 -36,508 -108,830 -58,258 -58,258 -67,96 -8,-169 -41,-455 -71,-633 -13,-73 -22,-133 -20,-133 1,0 22,37 48,83 l 46,82 -4,-255 c -2,-216 -6,-261 -20,-293 -25,-53 -85,-117 -132,-138 -54,-25 -166,-25 -221,0 -53,24 -109,91 -123,146 -7,28 -11,179 -11,417 0,520 -12,613 -101,795 -83,169 -198,277 -351,330 -102,35 -290,42 -394,14 z m 330,-232 c 65,-24 155,-101 192,-166 40,-66 71,-169 84,-274 8,-65 10,-249 8,-594 -4,-460 -6,-506 -24,-571 -40,-144 -130,-247 -258,-296 -50,-19 -81,-23 -166,-23 -97,0 -110,2 -172,32 -120,57 -188,140 -225,274 -16,58 -18,120 -18,644 0,642 2,666 66,794 87,175 314,255 513,180 z"
       id="path3" />
    <path
       d="m 3170,5914 c -110,-331 -184,-610 -221,-824 -20,-116 -23,-169 -24,-380 0,-212 3,-261 23,-361 156,-820 743,-1630 1774,-2449 59,-47 107,-88 108,-92 0,-4 -15,-28 -34,-52 -56,-73 -71,-126 -71,-246 0,-97 2,-110 30,-164 38,-76 108,-146 182,-183 53,-26 67,-28 168,-28 104,0 114,2 177,33 76,37 151,113 189,189 21,42 24,62 24,158 0,98 -3,116 -26,165 -14,31 -41,73 -59,93 -18,21 -31,39 -29,41 493,372 997,858 1285,1241 320,424 525,866 601,1295 21,120 26,177 26,335 1,365 -64,682 -263,1275 -82,241 -89,259 -85,200 28,-363 33,-658 15,-841 -48,-483 -204,-892 -479,-1259 -267,-355 -595,-629 -1096,-915 -93,-53 -175,-102 -181,-108 -6,-7 -19,-97 -28,-202 -44,-482 -63,-676 -69,-682 -4,-3 -7,12 -7,35 0,22 -12,163 -26,314 -14,150 -31,331 -37,403 l -12,129 -130,74 c -410,232 -649,405 -891,646 -349,350 -573,734 -683,1174 -81,322 -97,705 -52,1187 6,55 8,101 6,103 -2,2 -49,-135 -105,-304 z m 1865,-4264 72,-49 72,49 c 40,28 76,50 81,50 4,0 19,-13 33,-30 111,-132 48,-335 -120,-386 -178,-55 -345,119 -293,306 9,32 64,110 78,110 3,0 38,-22 77,-50 z"
       id="path4" />
  </g>
</svg>
