<?xml version="1.0" encoding="UTF-8" standalone="no"?>
<svg
   version="1.0"
   width="600pt"
   height="600pt"
   viewBox="0 0 600 600"
   preserveAspectRatio="xMidYMid"
   id="svg6"
   sodipodi:docname="push.svg"
   inkscape:version="1.3.2 (091e20e, 2023-11-25, custom)"
   xmlns:inkscape="http://www.inkscape.org/namespaces/inkscape"
   xmlns:sodipodi="http://sodipodi.sourceforge.net/DTD/sodipodi-0.dtd"
   xmlns="http://www.w3.org/2000/svg"
   xmlns:svg="http://www.w3.org/2000/svg">
  <defs
     id="defs6" />
  <sodipodi:namedview
     id="namedview6"
     pagecolor="#ffffff"
     bordercolor="#000000"
     borderopacity="0.25"
     inkscape:showpageshadow="2"
     inkscape:pageopacity="0.0"
     inkscape:pagecheckerboard="0"
     inkscape:deskcolor="#d1d1d1"
     inkscape:document-units="pt"
     inkscape:zoom="0.9"
     inkscape:cx="404.44444"
     inkscape:cy="422.77778"
     inkscape:window-width="2560"
     inkscape:window-height="1369"
     inkscape:window-x="1912"
     inkscape:window-y="515"
     inkscape:window-maximized="1"
     inkscape:current-layer="svg6" />
  <g
     transform="matrix(0.0509405,0,0,-0.0509405,-52.640537,639.52044)"
     fill="#000000"
     stroke="none"
     id="g6"
     inkscape:label="backdrop">
    <path
       id="path1"
       d="m 4313.6777,9472.293 c -2.4994,88.7858 -5.0645,177.57 -7.498,266.3574 -0.3267,34.4658 -0.1222,68.9335 -0.011,103.3999 0.3611,88.2189 1.0479,176.4357 1.7436,264.6527 1.3647,167.586 3.0483,335.169 4.9386,502.75 2.8591,256.317 5.7995,512.634 8.6877,768.952 0.054,4.796 0.1085,9.593 0.1628,14.39 -7.869,12.173 -15.6685,24.392 -23.6697,36.479 -11.877,17.669 -25.0585,34.556 -40.3347,49.429 -17.9307,17.618 -37.831,33.068 -58.0125,47.996 -15.9274,11.754 -32.3492,22.827 -48.1038,34.816 -16.1741,12.222 -31.9513,25.002 -46.8395,38.772 -12.8935,12.02 -24.6934,25.391 -33.727,40.585 -10.984,18.225 -17.8636,38.879 -20.1341,60.031 -1.9192,17.489 -0.6521,35.274 3.3269,52.398 4.1762,18.115 11.1408,35.424 18.4143,52.48 9.4761,21.971 19.7946,43.566 30.2363,65.09 11.6486,23.857 23.5677,47.582 35.7339,71.178 14.9508,28.871 30.0175,57.681 45.0108,86.53 22.0488,42.36 44.096,84.72 66.1459,127.079 50.4896,5.411 100.9818,10.797 151.4687,16.232 0.951,0.107 2.3651,0.271 3.0232,0.342 1.4535,0.171 3.1498,0.366 4.4535,0.522 28.7767,3.418 57.4785,7.436 86.1523,11.622 34.2791,4.835 68.9805,7.644 103.6038,5.812 22.7447,-1.151 45.3834,-4.309 67.5808,-9.398 25.7619,-5.853 50.9047,-14.191 75.4403,-23.94 26.1101,-10.333 51.6066,-22.14 76.8914,-34.334 68.3866,-33.46 132.0428,-76.214 190.1935,-125.27 41.605,-35.116 80.4611,-73.462 116.4228,-114.33 39.3038,-44.662 75.1921,-92.311 107.5289,-142.243 24.1308,-37.256 46.2569,-75.802 66.4179,-115.345 25.8276,-49.966 51.6561,-99.932 77.4831,-149.898 -16.7832,-230.793 -33.5687,-461.586 -50.3191,-692.381 -6.6043,-91.589 -13.2096,-183.177 -19.902,-274.758 -7.1758,-97.98 -14.4139,-195.955 -21.9501,-293.907 -4.3407,-56.05 -8.7675,-112.094 -13.5492,-168.108 -3.3619,-39.105 -6.8667,-78.2002 -11.0497,-117.2267 -2.3118,-21.0745 -4.798,-42.1391 -8.1292,-63.0801 -2.4301,-14.9998 -5.3998,-29.9465 -9.7589,-44.5159 -5.9832,-19.7835 -14.9659,-38.7828 -27.4856,-55.2873 -13.2994,-17.6449 -30.4456,-32.392 -49.9632,-42.7664 -13.4105,-7.3031 -27.6721,-12.8443 -41.8534,-18.435 -23.131,-9.0064 -46.4984,-17.3878 -69.8685,-25.7481 -50.2239,-17.8671 -100.6606,-35.1293 -151.1816,-52.1358 -57.6745,-19.4158 -115.5053,-38.3614 -173.2829,-57.4677 -137.7765,-45.4888 -275.5531,-90.9777 -413.3296,-136.4665 -0.3692,13.0488 -0.7383,26.0976 -1.1075,39.1465 z"
       style="fill:#ffffff;fill-opacity:1" />
    <path
       id="path2"
       d="m 9313.125,9435.1699 c -7.8489,2.2423 -15.6971,4.4845 -23.5449,6.7305 -1.5255,0.438 -3.2697,0.9324 -4.8793,1.3921 -9.5484,2.7309 -19.1093,5.4245 -28.6266,8.2602 -13.8153,4.4985 -26.6728,11.4665 -38.9177,19.2036 -16.3641,10.1598 -32.691,20.3799 -49.0039,30.6214 -6.3234,4.1022 -12.7115,8.115 -19.3499,11.6926 -19.559,10.6727 -40.349,18.8678 -61.331,26.2656 -24.9839,8.718 -50.3634,16.2534 -75.8502,23.3482 -8.6737,2.4157 -17.3709,4.7449 -26.0707,7.0639 -0.058,0.019 -1.1078,0.2921 -1.5346,0.4055 -3.1591,0.8316 -6.3181,1.6633 -9.4771,2.4949 -0.042,0.01 -1.1076,0.2863 -1.5325,0.3949 -1.9807,0.5129 -3.9614,1.0258 -5.9421,1.5387 -0.3271,0.087 -1.1629,0.299 -1.6849,0.434 -1.9495,0.5005 -3.8989,1.0011 -5.8484,1.5016 -0.2099,0.049 -1.1621,0.2941 -1.6588,0.4189 -25.4256,6.4839 -50.924,12.6784 -76.4525,18.7432 -0.3046,0.075 -1.1683,0.2761 -1.6874,0.3997 -12.4537,2.9466 -24.9151,5.8601 -37.3809,8.7546 -0.5453,0.1289 -1.4293,0.3309 -2.1044,0.4878 -29.7806,6.8726 -59.5727,13.6963 -89.3117,20.7474 -37.4893,8.8654 -74.9261,17.9616 -112.2172,27.6295 -16.5053,4.3086 -32.99,8.7346 -49.2476,13.9107 -14.388,4.7049 -28.3971,10.8243 -41.0685,19.1653 -18.4141,12.023 -34.0039,28.2581 -45.5158,46.9798 -9.556,15.4419 -16.1603,32.5664 -20.5841,50.1391 -4.0402,15.8928 -6.6054,32.1124 -8.9219,48.3317 -3.4833,25.0158 -6.0906,50.1438 -8.5236,75.2805 -4.2717,44.7386 -7.768,89.5471 -11.0647,134.3672 -4.6194,63.17 -8.7076,126.377 -12.6136,189.595 -2.5423,41.328 -4.9097,82.666 -7.2601,124.005 -2.563,44.9 -5.1265,89.799 -7.6938,134.699 -18.6764,-8.296 -39.0006,-12.999 -59.4586,-13.23 -9.6077,-0.199 -19.2173,0.701 -28.6807,2.329 -6.5536,1.147 -12.9812,2.91 -19.2982,4.983 -7.6934,2.465 -15.2978,5.366 -22.3074,9.421 -7.101,3.909 -14.2035,7.88 -20.7655,12.657 -4.5276,3.409 -8.4344,7.536 -12.5825,11.378 -5.6168,5.328 -11.098,10.812 -16.3531,16.492 -5.9017,10.444 -12.0141,20.775 -17.5478,31.422 -1.9125,3.409 -3.1778,7.147 -3.948,10.973 -2.4665,10.273 -5.5604,20.478 -6.3883,31.06 -1.2188,12.771 -1.064,25.702 0.9392,38.387 2.2802,15.12 6.7462,29.782 10.9824,44.438 7.8168,26.64 16.2858,53.083 24.702,79.538 18.9642,59.278 38.7307,118.295 58.5984,177.274 23.3606,69.518 46.718,139.036 70.073,208.556 0,108.428 0,216.856 0,325.285 29.5317,61.636 59.0862,123.262 88.5683,184.922 0.1426,0.31 0.5153,1.084 0.7461,1.572 26.1992,55.057 52.3986,110.115 78.5977,165.172 54.1444,39.743 108.2475,79.543 162.4378,119.224 39.4483,28.362 78.8408,56.834 119.3848,83.623 26.3115,17.291 53.2512,33.734 81.5066,47.675 22.8578,11.273 46.5633,20.841 70.8984,28.425 27.2118,8.53 55.0608,14.802 82.952,20.648 28.5302,6.042 57.025,12.334 85.8113,17.06 22.3299,3.577 45.0842,5.595 67.6671,3.455 21.448,-1.995 42.6078,-7.541 62.0843,-16.787 14.5141,-6.826 28.1195,-15.482 40.8683,-25.188 18.2205,-14.133 33.4763,-32.094 44.3184,-52.455 9.0854,-16.925 15.1434,-35.364 18.7923,-54.192 3.7283,-18.779 5.3398,-37.892 6.7074,-56.964 1.8193,-27.123 2.7079,-54.298 3.533,-81.466 1.3961,-48.045 2.1401,-96.106 2.8894,-144.165 1.0791,-73.478 1.8295,-146.961 2.5872,-220.443 1.2627,-126.912 2.3019,-253.827 3.4572,-380.741 0.4004,-44.115 0.8521,-88.375 1.3037,-132.399 1.182,-108.334 2.5903,-216.665 4.2949,-324.992 0.023,-1.656 0.057,-3.533 0.084,-5.274 0.8718,-54.706 1.851,-109.411 2.8845,-164.115 0.015,-0.889 0.041,-2.066 0.06,-3.066 0.7409,-37.226 1.5128,-74.453 2.3382,-111.678 0.021,-1.03 0.054,-2.332 0.08,-3.467 0.7632,-32.975 1.5497,-65.949 2.3928,-98.921 0.049,-1.998 0.1094,-4.199 0.1627,-6.275 1.6576,-63.563 3.515,-127.084 5.7628,-190.628 1.7881,-49.786 3.6814,-99.5699 6.2417,-149.3228 4.5848,-89.9745 9.0617,-179.9565 12.6914,-269.9756 0.8071,-20.7935 1.6066,-41.5913 1.8485,-62.4005 0.082,-11.753 -0.5129,-23.5644 -2.82,-35.1129 -2.4432,-12.8934 -6.3916,-25.5632 -12.4411,-37.2372 -6.0275,-12.0546 -12.0554,-24.1089 -18.0827,-36.1636 -29.6262,-19.322 -59.2524,-38.6441 -88.8769,-57.9687 -4.2657,1.2187 -8.5313,2.4375 -12.7969,3.6562 z"
       style="fill:#ffffff;fill-opacity:1" />
    <path
       id="path3"
       d="m 3920.5273,1352.9082 c -104.6008,52.048 -209.2087,104.0794 -313.7926,156.1612 -67.0713,33.651 -133.7864,68.0144 -200.0585,103.2141 -25.6301,13.6596 -51.2106,27.4197 -76.4985,41.7055 -27.1897,15.4844 -53.9719,31.6727 -80.6056,48.0913 -38.3506,23.7022 -76.2819,48.0766 -113.9891,72.7878 -68.6497,45.0367 -136.4587,91.346 -203.6743,138.4934 -60.6738,42.6043 -120.8295,85.9501 -180.2845,130.2403 -41.7876,31.1653 -83.234,62.7972 -123.9682,95.3304 -28.3184,22.6711 -56.3409,45.738 -83.343,69.9712 -10.6753,9.6042 -21.0862,19.498 -31.3337,29.5561 -13.2721,12.9462 -26.5484,25.9366 -38.6345,40.0156 -11.997,14.0255 -22.604,29.3632 -30.3889,46.1385 -9.9383,21.1983 -15.4461,44.5079 -15.6513,67.9379 -0.1298,11.4735 1.0018,22.9566 3.3009,34.1965 -26.3265,-8.1922 -54.7871,-9.3737 -81.7058,-3.412 -23.8513,5.2054 -46.3136,15.8663 -66.2259,29.8846 -18.6176,12.9571 -35.3648,28.3395 -51.8503,43.8555 -18.7791,17.7546 -37.1028,35.9819 -55.4535,54.1767 -94.5203,94.0968 -185.3154,191.9077 -272.799,292.5708 -81.669,93.9993 -160.4445,190.5101 -236.2736,289.2796 -70.3539,91.6326 -138.1876,185.2061 -203.1742,280.7222 -52.2389,76.7905 -102.6665,154.8212 -150.8807,234.2027 -13.0999,21.5738 -26.0669,43.2295 -38.6874,65.088 -25.909,44.7626 -50.8345,90.0875 -75.2853,135.6605 -32.1473,60.013 -63.3607,120.5311 -93.2961,181.6793 -15.2337,31.2024 -30.1396,62.5754 -44.0045,94.4134 -7.2974,16.8508 -14.3093,33.8498 -20.1276,51.2754 -5.7309,17.3772 -9.8885,35.4208 -10.5233,53.7638 -0.8765,21.3476 2.917,42.7359 9.9938,62.8456 6.5685,18.7573 15.7556,36.4704 25.6975,53.6353 8.6741,14.881 18.0215,29.3583 27.5932,43.6744 18.2394,27.1863 37.5645,53.6255 57.2306,79.7921 32.9691,43.7095 67.2595,86.4107 102.3715,128.4141 33.0956,39.519 67.0188,78.3501 101.9284,116.278 13.1542,14.2888 26.5083,28.3913 39.8706,42.4852 -36.1885,143.4246 -72.3795,286.8485 -108.5664,430.2734 79.4152,79.8695 158.8086,159.7608 238.2654,239.5888 42.628,42.4921 85.4209,84.8245 128.8933,126.4543 14.9366,14.2738 29.9326,28.4984 45.4913,42.0967 11.3125,9.7775 23.5454,18.6187 37.0023,25.2157 7.6823,3.8218 15.7342,6.8549 23.9331,9.3635 7.3124,2.4267 14.9241,3.8457 22.5789,4.6247 7.0754,0.8941 14.198,1.5256 21.3301,1.6035 6.3046,-0.4714 12.5857,-1.2254 18.8513,-2.0585 15.5128,-2.2698 30.5208,-7.3008 44.6835,-13.9529 9.0706,-4.2058 17.9563,-8.7963 26.8509,-13.3589 21.5278,-11.1386 42.8247,-22.7169 64.0675,-34.3879 27.0246,-14.9442 53.8362,-30.2694 80.7911,-45.3388 26.6576,-14.9545 53.3758,-29.8015 80.1988,-44.4576 25.0059,58.9157 49.6388,117.9891 74.0931,177.1356 8.5369,20.6514 17.0358,41.3185 25.5299,61.9875 0.2159,0.5183 0.5565,1.3574 0.8201,1.9987 21.2116,51.7025 42.2613,103.4716 63.068,155.3384 4.5101,11.2437 8.9981,22.4962 13.4811,33.7508 0.1337,0.3292 0.4429,1.116 0.6438,1.6205 10.3614,26.1116 20.672,52.2442 30.7129,78.4809 4.8624,12.7889 9.688,25.5946 14.2043,38.5104 2.2943,6.701 3.7627,13.6412 5.3949,20.5228 3.8873,17.2028 7.0749,34.5544 10.1354,51.9204 4.8565,28.0054 9.0743,56.1189 12.984,84.2716 1.6004,11.5825 3.1306,23.1744 4.6102,34.773 0.038,0.2739 0.1504,1.1906 0.217,1.7117 0.685,5.3985 1.3525,10.7991 2.0155,16.2004 0.033,0.2985 0.1435,1.1917 0.2062,1.7186 4.2078,34.4814 7.767,69.0374 11.7876,103.5403 7.413,64.7423 15.314,129.4282 23.5867,194.0661 4.2083,32.7028 8.5133,65.3946 13.2062,98.0318 1.1704,7.7556 2.3847,15.9645 3.4775,23.4453 0.6079,4.2183 1.2158,8.4366 1.8236,12.6549 0.03,0.1908 0.1676,1.1863 0.2394,1.6887 0.5152,3.6584 1.0305,7.3169 1.5458,10.9754 0.066,0.4958 0.1928,1.3941 0.2598,1.8602 0.5677,4.1032 1.1354,8.2065 1.7031,12.3097 0.051,0.3984 0.1621,1.1897 0.236,1.7385 3.9208,28.539 7.6797,57.0999 11.3988,85.6658 0.2151,1.6302 0.4497,3.4771 0.6708,5.191 9.3067,72.1988 18.255,144.4438 26.8555,216.7301 2.7873,23.494 5.5264,46.9938 8.2198,70.4988 0.1629,1.4052 0.3478,3.0469 0.5193,4.543 7.8192,68.5021 15.6535,137.0025 23.4787,205.5039 -13.6343,29.6381 -27.2627,59.279 -40.9121,88.9101 -7.0684,15.3301 -14.2042,30.8203 -21.3427,46.1916 -21.0494,45.5809 -41.4463,91.4598 -61.6199,137.434 -21.8161,49.7363 -43.206,99.6598 -64.1205,149.782 -23.8946,56.9297 -47.7992,113.8551 -71.7099,170.778 -2.4404,117.8647 -4.8758,235.7295 -7.3612,353.5932 -0.3901,16.859 -0.7856,33.7185 -1.2335,50.5402 -0.034,1.2803 -0.069,2.6787 -0.1027,3.8293 -0.9881,36.3695 -2.1813,72.7361 -4.0018,109.0744 -0.019,0.2942 -0.062,1.1987 -0.091,1.7273 -0.4477,8.8412 -0.9663,18.0949 -1.4741,26.6713 -1.2511,20.796 -2.7351,41.5778 -4.4861,62.3377 -0.023,0.235 -0.1029,1.1949 -0.1479,1.7095 -1.29,15.2013 -2.7169,30.3909 -4.2486,45.5698 -0.033,0.2837 -0.1228,1.1939 -0.1775,1.7184 -1.0093,9.9412 -2.0751,19.8766 -3.1682,29.809 -0.038,0.3082 -0.1339,1.193 -0.1942,1.7224 -0.2295,2.0522 -0.459,4.1043 -0.6886,6.1565 0.01,-0.052 -0.1149,1.0075 -0.1601,1.375 -0.9153,7.9916 -1.906,16.4293 -2.8226,24.1364 -2.9074,24.1848 -6.0202,48.3444 -9.2477,72.4886 -0.052,0.357 -0.1608,1.1899 -0.2345,1.7292 -1.6743,12.558 -3.4128,25.1073 -5.1445,37.6575 -0.036,0.2886 -0.1662,1.1887 -0.2384,1.7122 -4.028,28.8599 -8.1768,57.7028 -12.4061,86.5339 -0.1117,0.7381 -0.2628,1.7809 -0.3896,2.636 -7.7287,52.5858 -15.6845,105.1382 -23.7049,157.68 -2.4692,16.0958 -4.9383,32.1917 -7.4074,48.2875 -5.1697,33.6112 -10.3769,67.3744 -15.5812,101.041 -6.1421,39.7907 -12.3563,79.6515 -18.4908,119.4756 -6.3802,41.5359 -12.6403,83.09 -18.9656,124.6342 -16.4805,108.4801 -32.9513,216.9627 -49.2963,325.4624 -2.6203,17.5224 -5.2533,35.0434 -7.7472,52.5842 -2.177,17.0131 -4.1723,34.0486 -6.2744,51.0711 -3.0378,24.9124 -6.0774,49.8247 -9.1133,74.7374 50.8587,39.1043 101.6676,78.2712 152.5841,117.3 45.9942,34.8671 92.9085,68.4991 140.053,101.7871 47.4321,33.458 95.2257,66.404 143.3729,98.824 29.1053,19.563 58.3376,38.944 87.9529,57.728 15.1416,9.547 30.3624,18.998 46.0798,27.576 10.8472,5.853 22.1348,10.916 33.8272,14.833 24.9089,8.641 51.3087,13.575 77.732,12.618 26.0179,-0.897 51.9193,-7.676 74.699,-20.363 22.7885,-12.631 42.364,-31.054 56.1682,-53.167 9.9564,-15.797 16.9449,-33.257 22.548,-51.012 6.2,-19.415 11.1741,-39.193 16.0323,-58.979 8.0742,-33.218 15.3123,-66.632 22.4132,-100.07 12.6837,-60.0335 24.5524,-120.236 36.2204,-180.4743 18.7198,-96.9096 36.6768,-193.965 54.3729,-291.0662 27.717,-152.3528 54.673,-304.8419 81.2574,-457.3956 16.469,-94.4985 32.7781,-189.0248 48.9873,-283.5679 17.2922,-100.8718 34.4399,-201.7682 51.5249,-302.6751 3.8916,-23.0077 7.8207,-46.0299 11.7531,-69.0611 0.085,-0.4036 0.037,0.9854 0.07,1.294 0.5808,22.2991 1.4176,44.6085 3.4589,66.8281 1.6285,17.1677 3.9656,34.3502 8.6998,50.9683 4.9283,17.6288 12.6755,34.5108 23.2335,49.4857 12.3197,17.5701 28.4657,32.4549 47.057,43.1851 17.466,10.1495 36.9937,16.6269 56.9991,19.3091 16.5441,2.2731 33.3093,2.076 49.9455,1.1159 11.3012,-0.6251 22.5785,-1.6151 33.8405,-2.7321 -76.628,64.2742 -153.2608,128.5428 -229.8926,192.8125 0,205.2033 0,410.4065 -0.032,615.6098 -0.223,108.5601 -0.814,217.1197 -1.9049,325.6747 -0.046,4.7951 -0.091,9.5903 -0.1371,14.3854 -8e-4,0.3674 -0.012,1.161 -0.017,1.6915 -0.593,53.5477 -1.2989,107.0941 -2.1329,160.6386 -0.013,1.0203 -0.037,2.3072 -0.054,3.4327 -0.473,29.1887 -1.0086,58.3759 -1.5726,87.5639 -0.025,1.4 -0.061,3.035 -0.092,4.525 -0.3368,16.176 -0.6811,32.352 -1.0408,48.527 -0.4276,19.07 -0.8851,38.241 -1.3763,57.348 -0.03,1.144 -0.055,2.216 -0.083,3.282 -0.3584,13.886 -0.7432,27.771 -1.1364,41.655 -0.016,0.447 -0.038,1.267 -0.056,1.857 -0.3763,13.013 -0.7733,26.026 -1.1785,39.038 -0.016,0.404 -0.039,1.2 -0.058,1.754 -0.2019,6.23 -0.4039,12.46 -0.6058,18.689 -0.01,0.304 -0.04,1.169 -0.057,1.688 -1.0538,31.226 -2.2397,62.449 -3.5918,93.664 -0.013,0.387 -0.053,1.199 -0.076,1.749 -1.499,33.713 -3.2097,67.419 -5.4021,101.095 -0.02,0.244 -0.081,1.196 -0.1172,1.714 -0.1797,2.666 -0.3594,5.332 -0.5391,7.998 -0.011,0.195 -0.084,1.196 -0.1188,1.702 -0.405,5.889 -0.8439,11.774 -1.2894,17.66 0,-0.08 -0.091,1.126 -0.1261,1.544 -1.432,17.987 -3.0031,35.973 -5.3647,53.865 -0.6749,4.862 -1.4333,9.718 -2.6414,14.48 -6.8719,29.312 -13.6872,58.637 -20.5377,87.955 71.0335,275.029 142.062,550.06 213.0957,825.089 62.3224,-7.939 124.6549,-15.798 186.9648,-23.834 25.6729,-3.759 50.8888,-10.026 75.9609,-16.603 36.7882,-9.753 73.2094,-20.83 109.5071,-32.258 54.2437,-17.169 108.1201,-35.49 161.6574,-54.745 40.0592,-14.437 79.927,-29.431 119.303,-45.647 20.3542,-8.427 40.5824,-17.206 60.2688,-27.108 17.9382,-9.094 35.4425,-19.433 50.5503,-32.815 13.4511,-11.855 25.0135,-25.909 33.6584,-41.637 7.051,-12.777 12.1543,-26.597 15.3246,-40.835 3.1825,-14.049 4.6775,-28.4 6.2289,-42.699 2.4025,-22.956 4.1864,-45.97 5.9749,-68.979 4.7813,-62.475 8.4999,-125.024 12.1958,-187.57 4.2522,-71.143 8.5044,-142.285 12.7567,-213.428 29.1784,-80.845 58.3469,-161.694 87.5664,-242.525 17.9771,-49.692 36.1163,-99.503 53.6118,-149.435 7.3672,-21.133 14.621,-42.316 20.9739,-63.78 5.1111,-17.44 9.3164,-35.277 10.4514,-53.465 1.2173,-19.64 -1.0533,-39.552 -7.244,-58.257 -5.2593,-16.078 -13.2654,-31.261 -23.6237,-44.638 -6.564,-8.616 -14.2559,-16.33 -22.5011,-23.334 -6.4353,-5.316 -13.3783,-9.993 -20.5414,-14.267 -6.7763,-3.993 -13.9697,-7.2295 -21.3209,-10.0064 -7.2781,-2.8686 -14.8022,-5.1449 -22.5086,-6.5251 -8.4321,-1.7509 -17.0102,-2.9049 -25.6321,-2.975 -9.5076,-0.2984 -19.0448,0.3241 -28.4212,1.9382 -0.5336,0.012 -0.097,-1.1086 -0.2322,-1.5609 1.5225,-243.2929 3.0467,-486.5857 4.5682,-729.8786 -9.0411,-3.3722 -18.0824,-6.7438 -27.1231,-10.1172 15.3126,-15.089 27.2999,-33.4819 35.1443,-53.4859 7.1608,-18.0465 10.8937,-37.2458 13.1605,-56.4675 2.4045,-20.0872 3.5162,-40.2991 4.5455,-60.4947 1.7784,-37.5216 2.6275,-75.0791 3.3969,-112.6324 1.1586,-59.856 1.771,-119.7207 2.2895,-179.5851 0.6515,-78.6493 1.0162,-157.3006 1.5239,-235.9509 0.4447,-72.2938 0.8893,-144.5877 1.3339,-216.8815 0.6491,9.1296 1.2982,18.2591 1.9473,27.3887 0.03,0.3861 0.084,1.1978 0.1227,1.7468 0.6752,9.7283 1.3505,19.4565 2.0257,29.1848 0.076,1.1696 0.1769,2.5941 0.2623,3.8616 0.399,5.8124 0.8029,11.7706 1.1987,17.4919 3.3954,49.9791 6.6057,99.9705 9.7676,149.9649 0.031,0.5619 0.09,1.4642 0.1325,2.1567 3.3401,53.3611 6.5461,106.7305 9.6643,160.105 0.073,1.2042 0.1543,2.6623 0.2306,3.964 2.5685,44.1103 5.0545,88.2253 7.4612,132.3448 0.9217,16.8954 1.8493,34.0109 2.7658,50.9651 2.7521,50.6801 5.4408,101.3641 8.6124,152.02 1.648,25.7588 3.3442,51.5189 5.7123,77.2232 1.8471,19.5457 3.9733,39.0951 7.6016,58.4019 3.1463,16.6273 7.4858,33.0821 13.8843,48.7714 7.1169,17.6472 16.7573,34.2814 28.6472,49.1434 9.2843,11.6813 19.8887,22.2799 31.3483,31.8248 14.5637,12.2695 29.9619,23.4969 45.3955,34.6354 25.5817,18.3281 51.6274,35.9974 77.7647,53.5207 47.4007,31.6855 95.2835,62.6443 143.3855,93.2525 60.661,38.562 121.743,76.465 183.3449,113.5064 34.366,20.6292 68.9134,40.9658 103.902,60.5239 14.6416,8.1526 29.362,16.1736 44.3263,23.7207 13.2661,6.573 26.5446,13.0096 39.8263,19.5471 73.5844,36.0826 147.1747,72.1532 220.7618,108.2304 -0.01,-173.8134 0.019,-347.6268 -0.038,-521.4402 -0.239,-83.8562 -1.2658,-167.7072 -2.3667,-251.5556 -1.3773,-101.9262 -3.0919,-203.8476 -5.0397,-305.7645 -1.1796,-61.5709 -2.5232,-123.1387 -3.8593,-184.7066 -2.8969,-137.423 -5.7878,-274.8462 -8.6725,-412.2694 45.2654,-60.5151 90.5368,-121.0255 135.791,-181.5489 4.9488,92.9581 10.4632,185.8859 16.4634,278.7817 5.5084,85.1157 11.453,170.2038 17.9861,255.2472 2.8446,36.9589 5.8625,73.9042 8.9645,110.8422 1.5549,19.7845 3.098,39.5849 3.549,59.4315 0.2586,13.2778 -0.2581,26.6077 -2.3569,39.7371 -3.0624,20.2097 -8.0592,40.0503 -12.3968,60.0072 -11.9935,54.8761 -18.2859,111.1051 -17.1507,167.305 0.8675,44.9154 6.2887,89.7029 15.5423,133.6502 1.2947,6.2978 2.7242,12.5692 4.0901,18.8499 1.1867,8.8252 1.8562,17.7095 2.6163,26.5788 0.8456,10.6956 1.6086,21.3976 2.2982,32.1044 0.015,0.2935 0.075,1.1979 0.1079,1.7261 1.4623,23.0075 2.6328,46.0324 3.7065,69.061 0.015,0.2612 0.054,1.1986 0.078,1.7201 1.9121,42.2184 3.3568,84.4576 4.4073,126.706 0.1181,4.9563 0.2362,9.9126 0.3543,14.8688 0.012,0.6613 0.037,1.6367 0.053,2.423 0.975,44.3363 2.0218,88.6713 2.8126,133.0114 0.085,5.1853 0.17,10.3706 0.2549,15.5559 0,0.3703 0.017,1.2006 0.024,1.747 0.3519,23.6179 0.6059,47.2405 0.3038,70.8604 0,0.3788 -0.019,1.2006 -0.027,1.749 -0.4035,22.5805 -1.1363,45.428 -5.4949,67.7139 -2.3172,11.9999 -5.2844,23.8609 -8.2832,35.7051 -0.091,0.3683 -0.2957,1.1637 -0.4302,1.6956 -0.9021,3.5461 -1.8043,7.0922 -2.7065,10.6383 -0.054,0.1946 -0.2997,1.1604 -0.4278,1.6532 -12.9269,50.1573 -25.8554,100.3142 -38.7812,150.4718 20.6213,41.2602 41.3059,82.4891 61.8413,123.7921 6.3,12.9842 12.2365,26.2952 15.4288,40.4302 2.2711,9.604 3.856,19.355 5.2084,29.125 0,0.01 0.1546,1.131 0.2141,1.56 1.9901,14.9 3.7296,29.836 5.1424,44.802 0.8176,9.127 1.5387,18.711 2.239,27.566 2.7934,36.652 5.3121,73.324 7.8041,109.997 0.4731,7.015 0.95,14.145 1.4207,21.089 1.5424,23.194 3.0768,46.458 4.5859,69.686 0.5477,8.431 1.1008,17.031 1.6506,25.527 0.8102,12.567 1.6174,25.196 2.4276,37.803 0.1314,2.019 0.2692,4.24 0.403,6.338 3.7937,59.687 7.5058,119.38 11.136,179.078 0.7693,12.7 1.5432,25.553 2.3142,38.312 0.9416,15.647 1.8802,31.373 2.8214,47.061 2.0186,33.863 4.0059,67.923 5.9689,101.866 0.5884,10.205 1.1787,20.494 1.7686,30.741 0.1181,2.029 0.2419,4.26 0.3622,6.366 0.5971,10.546 1.2015,21.165 1.794,31.665 0.3562,6.338 0.7123,12.676 1.0684,19.014 2.252,40.187 4.3987,80.549 6.5403,120.807 2.9991,55.391 6.0848,110.778 9.1308,166.167 0.566,10.261 1.132,20.521 1.698,30.782 57.3607,42.88 114.6913,85.8 172.0986,128.618 55.7621,41.056 111.5854,82.033 167.8431,122.41 13.4894,9.692 27.1008,19.216 40.9009,28.461 21.2095,14.312 42.5907,28.394 64.5858,41.476 14.4508,8.545 29.4961,16.348 45.6192,21.225 17.3815,5.332 35.7316,7.558 53.8784,6.292 24.0429,-1.592 47.6286,-9.03 68.3742,-21.257 15.1606,-8.885 28.7374,-20.288 40.8137,-33.012 11.7776,-12.364 22.277,-25.864 32.5792,-39.459 15.8325,-21.095 30.9666,-42.701 46.0832,-64.311 24.3558,-34.957 48.355,-70.16 72.3725,-105.349 21.3311,-31.274 42.5335,-62.635 63.7074,-94.015 31.7643,-47.035 63.5272,-94.071 95.2923,-141.106 -6.9902,-70.296 -13.9324,-140.597 -20.9675,-210.888 -6.1184,-58.955 -13.0213,-117.824 -20.1524,-176.664 -5.5698,-45.458 -11.2879,-90.898 -16.901,-136.351 -5.2077,-41.998 -10.4165,-83.996 -15.6237,-125.994 3.0888,-13.825 4.0948,-28.052 3.6863,-42.194 -0.3151,-10.412 -1.1295,-20.804 -2.0786,-31.176 -2.2804,-24.765 -5.724,-49.399 -8.9427,-74.054 -3.5764,-26.226 -8.5405,-52.411 -17.4227,-77.408 -7.5052,-21.232 -17.731,-41.516 -30.4962,-60.074 6.9508,-15.384 11.1613,-31.927 13.0668,-48.679 1.9538,-17.088 1.9159,-34.322 1.6628,-51.4954 -0.4309,-22.6404 -1.692,-45.257 -3.2569,-67.8446 -1.3357,-18.6077 -3.121,-37.179 -4.6152,-55.7741 -0.048,-0.5614 -0.1181,-1.4623 -0.1746,-2.1538 -1.9453,-23.7618 -3.6538,-47.5545 -6.5431,-71.2258 -3.159,-25.4645 -7.9335,-50.8092 -15.7823,-75.2723 -7.1927,-22.5986 -16.8142,-44.4051 -28.4472,-65.0658 -18.115,-32.2727 -40.723,-61.7485 -64.3631,-90.1266 -20.2298,-24.229 -41.3363,-47.7071 -62.5498,-71.0738 -28.3699,-31.1915 -57.0973,-62.0547 -85.7454,-92.9901 43.6432,22.5436 87.287,45.0861 130.9297,67.6309 15.597,-72.7934 31.2572,-145.5728 46.7679,-218.3844 3.7344,-20.0678 4.1404,-40.5495 4.2848,-60.9027 0.096,-25.922 -0.7364,-51.8361 -1.6898,-77.7372 -1.6744,-43.1693 -4.128,-86.3049 -6.9411,-129.4138 -3.6251,-54.5413 -7.9342,-109.0426 -13.4572,-163.4265 -1.4857,-14.5235 -3.1479,-29.0282 -4.7415,-43.54 -0.9471,-9.2597 -1.6723,-18.5402 -2.3364,-27.824 -0.014,-0.1706 -0.084,-1.1943 -0.1191,-1.696 -0.1999,-2.8162 -0.3851,-5.6334 -0.5723,-8.4504 -0.01,-0.1706 -0.075,-1.195 -0.1059,-1.6968 -0.4035,-6.2284 -0.7453,-12.4605 -1.0972,-18.6919 0,0.038 -0.059,-1.1338 -0.082,-1.5591 -0.5262,-9.8783 -0.9619,-19.3259 -1.3881,-29.0745 -0.014,-0.2451 -0.049,-1.1598 -0.072,-1.6743 -0.1203,-2.8831 -0.2405,-5.7661 -0.3608,-8.6491 0,-0.058 -0.043,-1.1446 -0.058,-1.5855 -0.5302,-13.5264 -0.9955,-27.5438 -1.3898,-40.7684 -0.4073,-14.1326 -0.7571,-28.2667 -1.0558,-42.402 -0.01,-0.3031 -0.024,-1.2002 -0.035,-1.7313 -1.2661,-61.9522 -1.5765,-123.9239 -0.9489,-185.8859 3e-4,-0.2987 0.014,-1.1581 0.018,-1.6719 0.2973,-24.707 0.73,-49.413 1.4512,-74.1113 0,-0.2944 0.036,-1.1998 0.051,-1.7288 0.1382,-4.6708 0.3044,-9.8308 0.4528,-14.1953 0.4477,-12.6382 0.9467,-25.2752 1.6097,-37.904 0.01,-0.2359 0.065,-1.1976 0.092,-1.7134 0.054,-0.9953 0.1081,-1.9906 0.1622,-2.9858 0,-0.01 0.067,-1.1384 0.094,-1.5702 1.0034,-17.3052 2.2617,-34.5945 3.3896,-51.8919 3.2795,-48.9228 6.5296,-97.8475 9.8077,-146.7704 -4.2611,-2.6536 -8.5221,-5.3072 -12.7832,-7.9609 6.6425,-5.3541 12.9215,-11.1901 18.5373,-17.6195 3.7917,-4.4472 7.1963,-9.2058 10.6266,-13.9321 3.1278,-4.4327 6.106,-8.9866 8.7707,-13.7093 4.1772,-10.1232 9.0618,-20.0427 11.6149,-30.7474 2.5764,-10.0942 4.3976,-20.4123 4.8542,-30.833 1.2006,-21.9435 -2.7399,-43.9893 -10.2544,-64.5812 -6.2502,-17.5842 -14.4165,-34.4006 -22.7343,-51.0794 -9.4564,-18.7535 -19.7524,-37.0656 -30.1208,-55.3254 -8.005,-14.2646 -16.0099,-28.5292 -24.0149,-42.7938 -0.01,-179.0233 -0.01,-358.0466 -0.041,-537.0699 -0.056,-76.0529 -0.1105,-152.1072 -0.8235,-228.1574 -0.3358,-31.135 -0.802,-62.273 -1.9555,-93.3901 -0.7706,-19.6495 -1.8673,-39.3164 -4.4714,-58.8196 -2.6604,-19.3233 -7.3676,-38.5009 -15.5386,-56.2717 -9.4709,-20.7893 -23.3711,-39.6104 -40.8005,-54.4159 -22.4543,-19.1589 -50.5597,-31.6261 -79.8566,-35.2918 -8.7327,-1.138 -17.5614,-1.4504 -26.3591,-1.1617 19.1878,-17.3824 38.0259,-35.1456 57.1465,-52.6016 21.6112,15.4902 42.9883,31.3043 64.6241,46.7605 41.9452,30.0985 84.0351,60.0146 126.9883,88.6646 22.1219,14.7029 44.4657,29.126 67.7084,42.0092 19.5888,10.7938 40.1758,20.2488 62.0825,25.1933 13.4017,3.0501 27.1888,4.5005 40.9326,4.0248 9.9401,22.0918 20.9168,43.7341 33.3221,64.5493 16.2656,27.3829 34.8709,53.3388 55.0868,77.9367 25.2486,30.7835 52.693,59.6821 80.7266,87.9243 30.0092,30.1924 60.7993,59.5946 91.6837,88.8869 50.3205,47.6194 101.0632,94.7891 151.6772,142.0962 47.5995,44.4588 95.1961,88.9201 142.9349,133.2299 76.9466,71.4585 154.0385,142.7614 231.4135,213.7559 31.9836,29.3203 63.9834,58.6239 96.2068,87.6808 9.2935,8.3146 18.5194,16.7111 28.0773,24.7232 6.3781,5.346 13.1718,10.1809 20.2419,14.567 15.5674,9.7448 32.5499,17.3467 50.4081,21.7447 27.1587,6.7389 56.0553,6.2599 82.986,-1.3296 19.6394,-5.4842 38.1477,-14.6367 54.9219,-26.1741 18.5328,-12.7718 35.1386,-28.0735 51.2405,-43.7339 21.8234,-21.2919 42.9792,-43.2525 64.188,-65.1524 46.2913,-47.7679 92.1897,-95.9145 138.0189,-144.1255 58.2222,-61.2559 116.311,-122.6387 174.317,-184.0987 24.8923,-26.357 49.6944,-52.7985 74.4739,-79.2615 71.5543,-76.3465 143.1084,-152.6931 214.6628,-229.0395 -10.0674,-45.2519 -20.044,-90.5235 -30.226,-135.7495 -7.8513,-33.6314 -17.9905,-66.8435 -32.2116,-98.3635 -15.2076,-33.9169 -34.9584,-65.6795 -57.5223,-95.1734 -23.2101,-30.4641 -49.0762,-58.7846 -75.5952,-86.375 -32.6461,-33.8527 -66.5097,-66.4989 -100.3619,-99.1361 -45.7327,-44.031 -91.7841,-87.7318 -138.2309,-131.0091 -34.5725,-32.1948 -69.3625,-64.1589 -104.5779,-95.6501 -21.969,-19.6116 -44.0844,-39.0689 -66.7411,-57.8856 -11.9229,-9.8412 -23.9826,-19.549 -36.6871,-28.3718 -12.607,-8.7132 -26.1049,-16.2612 -40.5413,-21.4891 -14.2629,-5.2314 -29.3176,-8.272 -44.4891,-9.0331 -5.1649,-0.4309 -10.3701,-0.5257 -15.5268,0.061 -10.5181,0.8489 -21.0292,2.3346 -31.1797,5.2884 -14.8179,4.0469 -28.823,10.4991 -42.5764,17.2401 -7.3184,3.5688 -14.5824,7.2486 -21.8179,10.9823 6.6839,-9.681 13.2927,-19.4271 19.3305,-29.528 8.255,-13.9658 14.8808,-28.9923 18.6253,-44.8122 2.9488,-12.3022 4.3247,-24.9736 4.2395,-37.6195 -0.1059,-8.5781 -1.2684,-17.1063 -2.9393,-25.5098 -1.4203,-7.5737 -3.3934,-15.062 -6.2818,-22.2158 -3.0311,-7.8626 -6.3998,-15.6323 -10.7922,-22.8423 -7.1249,-12.2186 -16.0597,-23.3343 -26.1627,-33.2161 -8.4447,-8.3215 -17.4955,-15.9928 -26.4677,-23.7321 -19.8467,-16.9823 -40.0899,-33.4927 -60.3246,-50.0083 -28.3784,-23.0894 -56.9413,-45.9528 -85.6999,-68.5669 -58.4496,-45.7528 -116.9869,-91.5182 -174.79,-138.1439 -1.2092,-0.9748 -2.4185,-1.9495 -3.6277,-2.9242 -0.059,-0.043 -0.8903,-0.7227 -1.2355,-1.0016 -23.8793,-19.3793 -47.6869,-38.86 -70.8371,-59.1097 -6.7004,-5.8869 -13.3686,-11.814 -19.8434,-17.9493 -0.9415,-10.4233 -1.8045,-20.8535 -2.6484,-31.2852 -0.025,-0.3598 -0.095,-1.197 -0.1367,-1.7396 -0.9759,-12.2777 -1.9227,-24.5576 -2.8301,-36.8404 -0.035,-0.4449 -0.093,-1.2639 -0.1367,-1.852 -2.3143,-31.0891 -4.3227,-62.1998 -6.4547,-93.3015 -2.0074,-28.8446 -4.1747,-57.6811 -6.9278,-86.4653 -1.9347,-19.7081 -4.0301,-39.4117 -7.0314,-58.9901 -2.0397,-12.9941 -4.4468,-25.9508 -7.8276,-38.6692 -5.0091,-18.6988 -12.386,-36.8873 -23.0239,-53.1175 -9.3393,-14.3336 -21.0255,-27.1461 -34.5295,-37.6577 -21.079,-17.2408 -41.9724,-34.707 -62.9298,-52.0952 -0.7672,-0.6343 -1.7422,-1.4501 -2.5893,-2.1542 -111.5037,-92.8088 -222.811,-185.8533 -334.0961,-278.9242 -37.5076,-31.3966 -75.1009,-62.6908 -112.664,-94.021 -85.8155,-71.5195 -171.6718,-142.9897 -257.6788,-214.2796 -75.5249,-62.616 -151.1411,-125.1238 -227.0566,-187.2658 -34.7345,-28.4036 -69.5392,-56.7226 -104.5859,-84.7402 -16.4913,-13.1411 -33.0392,-26.2171 -49.9039,-38.8774 -14.0754,-10.4388 -28.8082,-20.0009 -44.1742,-28.4318 -31.0196,-17.1104 -64.2113,-29.858 -97.7523,-41.0581 -34.869,-11.5873 -70.2003,-21.7178 -105.6036,-31.5281 -58.9263,-16.2603 -118.0916,-31.6368 -177.2792,-46.9128 -72.89,-18.7465 -145.8008,-37.4147 -218.7011,-56.1239 -20.9612,-5.3768 -41.9226,-10.753 -62.8837,-16.1301 -11.11,5.5528 -22.2201,11.1054 -33.3301,16.6582 -10.9891,-28.8255 -22.0289,-57.6318 -33.2521,-86.3668 -31.9636,-82.0538 -64.7705,-163.7766 -97.9603,-245.3415 -27.9876,-68.7097 -56.3275,-137.2762 -84.9736,-205.7142 -38.8251,-92.7919 -78.242,-185.3366 -118.3887,-277.5648 -17.8789,-41.0584 -35.9665,-82.0251 -54.1521,-122.9485 -16.1565,-36.4448 -32.1529,-72.9606 -47.9646,-109.5564 -0.138,-0.329 -0.4746,-1.103 -0.6886,-1.6024 -1.3694,-3.1794 -2.7389,-6.3588 -4.1083,-9.5382 68.2212,-25.9726 136.3064,-52.3106 204.03,-79.5569 30.7281,-12.376 61.3764,-24.9607 91.7364,-38.2178 14.9528,-6.5789 29.8497,-13.3367 44.2258,-21.1121 15.6383,-8.6116 30.3128,-19.2282 42.4268,-32.4089 21.3424,-22.921 35.3954,-52.4529 39.9699,-83.4195 3.4951,-23.2085 1.7876,-47.0394 -3.8367,-69.7746 -5.3379,-22.0576 -13.8615,-43.1717 -22.8419,-63.9585 -9.8894,-22.6787 -20.6105,-44.9819 -31.401,-67.242 -19.2236,-39.5033 -38.9957,-78.7362 -58.8117,-117.9446 -26.8346,-52.9505 -53.8899,-105.7898 -81.3584,-158.4144 -11.234,-21.4854 -22.545,-42.9322 -34.1698,-64.209 -9.1906,-16.6587 -18.9259,-33.0078 -28.4034,-49.503 -26.4758,-45.7319 -52.9519,-91.4637 -79.4273,-137.1958 -85.0876,38.9216 -170.196,77.7952 -255.2502,116.7893 -3.1,1.4371 -6.1922,2.8911 -9.2986,4.3142 -24.5896,-44.918 -48.6259,-90.1358 -72.6036,-135.3825 -3.9551,-7.4819 -7.9101,-14.9637 -11.8652,-22.4456 -0.2757,-0.5322 -0.7145,-1.3571 -1.0527,-2.0015 -18.0011,-34.1217 -35.919,-68.287 -53.8047,-102.4692 -3.9132,-7.4933 -7.9058,-15.1251 -11.8495,-22.6717 -0.8859,-1.6969 -1.7346,-3.3147 -2.5948,-4.9645 -4.351,-8.3457 -8.7613,-16.7973 -13.0752,-25.0767 -18.7324,-35.9958 -37.4592,-71.9947 -56.4363,-107.8622 -22.014,-41.6517 -44.2564,-83.1846 -66.9807,-124.4534 -10.6813,-19.3327 -21.4758,-38.6084 -32.8049,-57.5706 -6.0421,-9.9978 -12.3568,-19.8678 -19.6824,-28.9849 -5.1783,-6.4819 -10.4992,-12.8481 -15.7037,-19.309 -26.8012,-32.8964 -53.603,-65.7923 -80.4038,-98.689 -6.9583,3.4622 -13.9166,6.9245 -20.875,10.3867 z M 2730.6367,2738.3379 c 17.3459,14.325 34.7647,28.5655 52.461,42.457 -3.6203,5.7374 -7.2531,11.4669 -10.8536,17.2168 -14.6194,-20.2988 -29.8913,-40.117 -45.2449,-59.8628 -2.1065,-2.6955 -4.213,-5.3909 -6.3195,-8.0864 3.319,2.7585 6.638,5.5169 9.957,8.2754 z m 784.9942,504.207 c 10.426,12.5057 20.7177,25.1226 30.9668,37.7735 -41.5419,17.0893 -82.872,34.6931 -123.9943,52.7682 -34.4367,15.1589 -68.7263,30.6597 -102.7022,46.8273 -20.3826,9.7443 -40.69,19.6768 -60.4972,30.5539 -15.9283,8.7772 -31.5546,18.4076 -45.0993,30.6338 -14.6018,13.1118 -26.8008,28.9584 -35.3366,46.6513 -11.3913,23.4459 -16.4833,49.9509 -14.3271,75.9441 1.1048,13.9957 4.2497,27.8065 9.1193,40.9679 5.2958,14.485 12.7875,28.0284 20.5678,41.2999 7.781,13.1238 15.9978,25.9834 24.2991,38.7824 15.5227,23.8587 31.5971,47.3539 47.9866,70.6244 33.2347,47.3609 66.4937,94.7049 99.7339,142.062 44.0784,-0.9492 88.1586,-1.8306 132.2352,-2.8583 22.7816,-1.0677 45.4645,-3.5311 68.1432,-5.8566 50.2765,-5.3362 100.4507,-11.5867 150.6009,-17.9883 37.3939,-4.8178 74.7581,-9.8639 112.0968,-15.0917 0.4068,-0.052 1.1895,-0.1633 1.7402,-0.2378 4.9024,-0.6753 9.8047,-1.3506 14.7071,-2.0259 0.3654,-0.053 1.1897,-0.1622 1.7309,-0.2366 3.438,-0.4674 6.876,-0.9347 10.314,-1.4021 -38.3118,15.4057 -76.7116,30.5915 -115.0256,45.9916 -38.4964,15.4688 -76.9553,31.0353 -115.2473,47.0048 -8.361,3.5406 -16.732,7.0688 -24.9556,10.9205 -15.6342,7.4224 -30.1372,17.3085 -42.4704,29.4722 -18.6634,18.2833 -32.4597,41.4923 -39.5298,66.6488 -6.0405,21.2587 -7.2613,43.832 -3.779,65.6452 2.0752,13.1827 5.879,26.0723 11.0937,38.3501 -18.4379,-30.0776 -36.8153,-60.1924 -55.3576,-90.2054 -17.1875,-26.8456 -35.5229,-52.9309 -53.9336,-78.9453 -32.6305,-45.931 -66.0794,-91.276 -99.9497,-136.299 -25.4141,-33.7081 -51.1131,-67.2082 -77.5874,-100.0927 -12.1169,-14.9873 -24.441,-29.8246 -37.5621,-43.9492 -8.2683,-8.9491 -16.5735,-17.8642 -24.8343,-26.8203 -37.007,-39.9671 -74.0152,-79.9332 -111.0214,-119.901 10.405,-11.3599 20.81,-22.7199 31.2148,-34.08 -31.4625,-41.1857 -62.9272,-82.3698 -94.3906,-123.5547 16.3343,8.0251 34.0957,13.073 52.181,15.038 20.9348,2.2917 42.208,0.4299 62.641,-4.5195 22.368,-5.3261 43.8226,-13.7855 64.9991,-22.6183 24.6146,-10.3528 48.8432,-21.591 73.0473,-32.8616 46.6978,-21.8397 93.0022,-44.5064 139.5364,-66.6905 22.0854,-10.4832 44.2452,-20.8096 66.476,-30.9809 15.3732,-7.0122 30.8956,-14.0261 46.4124,-20.8459 0.5637,-0.248 1.1274,-0.496 1.6912,-0.744 1.3554,1.6153 2.7109,3.2305 4.0664,4.8457 z m -750.5411,648.7715 c -21.8916,31.5597 -43.7057,63.1733 -65.3387,94.9111 -30.9727,45.3936 -61.8927,90.8231 -92.8465,136.2299 -2.5743,3.7778 -5.1487,7.5557 -7.723,11.3336 -18.6562,-0.094 -37.3124,-0.1916 -55.9687,-0.2832 71.4417,-78.4849 142.9224,-156.9344 214.4995,-235.2959 3.6014,-3.9458 7.205,-7.8895 10.811,-11.831 -1.1445,1.6451 -2.289,3.2903 -3.4336,4.9355 z m 775.9122,289.6426 c 9.7103,16.0131 21.2349,30.8257 33.0071,45.3567 17.3031,21.1761 35.3712,41.7109 53.5203,62.1613 35.9353,40.386 72.478,80.2246 109.0231,120.0577 65.8027,71.5721 131.9231,142.8519 198.0386,214.1351 24.1538,26.0375 48.3073,52.0752 72.4519,78.1212 -66.7044,-67.6105 -132.4457,-136.1649 -197.6508,-205.2205 -93.6609,-99.044 -187.2996,-198.109 -280.9527,-297.1603 3.9113,-6.2786 7.8204,-12.5585 11.7304,-18.8379 0.2774,0.4622 0.5547,0.9244 0.8321,1.3867 z m -192.2754,310.5078 c -7.8051,16.3315 -15.6575,32.7232 -23.4688,49 -18.1325,37.7816 -36.2907,75.5511 -54.6269,113.2344 -0.1636,0.3424 -0.5262,1.0793 -0.766,1.5727 -16.5082,33.8702 -33.1091,67.6978 -50.2446,101.256 -4.0572,7.9336 -8.1478,15.8501 -12.2863,23.7416 -3.4744,-14.763 -8.7219,-29.0506 -14.8048,-42.9244 -0.4409,-0.5896 0.3485,-1.0828 0.5577,-1.6215 46.6225,-74.437 93.2491,-148.8711 139.8376,-223.3293 8.2993,-13.3281 16.5985,-26.6561 24.8978,-39.9842 -3.0319,6.3516 -6.0638,12.7031 -9.0957,19.0547 z m 1400.6601,1021.8203 c 0.025,0.3291 -1.009,0.35 -1.3998,0.5686 -3.2682,0.9956 -6.5109,2.0751 -9.7213,3.2439 1.2014,-4.1531 2.3542,-8.3206 3.4239,-12.5098 2.5657,2.8991 5.1315,5.7982 7.6972,8.6973 z"
       style="fill:#ffffff;fill-opacity:1" />
    <path
       id="path4"
       d="m 9664.8691,1245.6641 c -31.7468,0.2391 -63.4377,9.7141 -89.874,27.347 -18.1629,11.9749 -33.6459,27.7058 -46.4607,45.2193 -9.3436,12.4907 -16.786,26.241 -24.3888,39.8211 -12.512,22.6365 -24.6415,45.4814 -36.7674,68.3261 -22.8513,43.1554 -45.4152,86.4627 -67.8851,129.8178 -19.8455,38.2837 -39.5173,76.657 -59.2377,115.005 -27.6715,53.69 -55.3788,107.3617 -83.2769,160.9344 -20.5667,39.4637 -41.3163,79.056 -62.4355,118.3135 -8.34,15.4619 -16.7484,30.8873 -25.3106,46.2275 4e-4,-0.01 -0.5584,0.9923 -0.7704,1.3667 -9.4641,16.8602 -19.0723,33.6474 -29.2804,50.0708 -5.5837,8.863 -11.3069,17.6616 -17.7224,25.9511 -2.1308,2.6986 -4.432,5.3145 -7.2795,7.2806 -4.0183,2.9788 -8.2719,5.638 -12.6485,8.0554 -9.6475,-2.5458 -18.6221,-7.0119 -27.9187,-10.544 -15.8031,-6.1181 -31.8091,-11.7379 -48.0673,-16.5271 -13.3141,-3.8698 -26.8252,-7.1935 -40.5725,-9.0949 -18.2913,-2.4987 -37.0323,-2.3054 -55.1382,1.4673 -19.4657,3.9813 -38.12,11.8817 -54.5014,23.129 -8.5022,5.6625 -16.4144,12.2568 -23.2172,19.8931 -6.7953,7.3172 -13.0316,15.1536 -18.5858,23.4536 -10.568,15.3254 -20.4092,31.1331 -30.3815,46.8478 -22.9755,36.3981 -45.4865,73.0866 -67.9922,109.7762 -36.3845,59.4035 -72.4502,119.0029 -108.1264,178.8348 -14.8984,25.0117 -29.7225,50.0704 -44.1296,75.3692 -12.619,22.5329 -24.2515,45.6451 -34.2227,69.477 -7.8814,18.9391 -14.6431,38.498 -17.9389,58.8023 -3.0935,18.9382 -2.9839,38.4443 0.8328,57.2708 3.5132,17.5758 10.2386,34.4972 19.7507,49.6886 10.1314,16.2476 23.2863,30.5177 38.2517,42.4246 14.3918,11.4993 30.2276,21.0315 46.3335,29.9085 17.9185,9.8417 36.2501,18.9067 54.6531,27.8008 33.8673,16.2869 68.0874,31.8261 102.3604,47.2364 36.2224,16.2441 72.5393,32.2767 108.9079,48.1907 12.3781,5.3822 24.7724,10.727 37.1691,16.066 -46.4257,110.5011 -92.4743,221.1605 -138.1884,331.9581 -34.1732,82.8487 -68.1244,165.7895 -101.6474,248.9035 -17.7321,44.0373 -35.3853,88.1089 -52.4672,132.4033 -6.4567,16.7243 -12.7668,33.5078 -18.6256,50.4522 -6.8596,19.8336 -13.2194,39.836 -19.4703,59.8684 -11.7157,37.8603 -22.8984,75.8836 -33.8453,113.9727 -7.2895,25.4372 -14.4633,50.9084 -21.454,76.4293 -3.3557,12.6957 -6.6187,25.4154 -9.8955,38.1316 -0.1808,0.687 -0.4348,1.6782 -0.6437,2.4819 -1.6698,6.4472 -3.3368,12.8942 -5.0028,19.3424 -27.941,5.5519 -55.8924,11.0578 -83.7617,16.9615 -47.4835,10.0046 -94.8467,20.6928 -141.6709,33.4659 -35.4896,9.7433 -70.6544,20.8546 -104.7884,34.6628 -25.8675,10.4961 -51.0996,22.5979 -75.285,36.5511 -4.1457,2.3096 -8.3044,4.5959 -12.4706,6.8684 -41.4911,-4.2506 -82.9539,-8.4912 -124.4355,-12.7519 -21.0919,-2.1898 -42.3252,-4.3252 -63.4588,-6.6164 -75.4317,-8.0571 -150.8635,-16.113 -226.2951,-24.1707 -114.2423,69.1227 -228.4853,138.2445 -342.7266,207.3691 -4.2814,44.3948 -8.5014,88.7591 -12.8455,133.1489 -1.796,18.2523 -3.4216,36.5207 -4.9812,54.7947 -1.4456,16.6969 -2.8927,33.3937 -4.394,50.0857 -0.035,0.3429 -0.1095,1.1957 -0.1596,1.734 -0.452,4.9532 -0.904,9.9065 -1.356,14.8597 -0.025,0.3004 -0.1114,1.1953 -0.1599,1.7238 -1.7125,18.2866 -3.4209,36.5735 -5.1311,54.8602 -2.9817,31.6611 -5.9974,63.5368 -9.0164,95.2793 -4.4399,46.524 -8.9084,93.1975 -13.4524,139.7701 -4.963,50.8897 -9.9579,101.899 -14.9336,152.8384 -0.1927,1.9717 -0.3854,3.9433 -0.5781,5.915 -17.4313,23.2524 -34.9015,46.4754 -52.2922,69.7578 -16.5423,22.3459 -32.6994,45.0019 -47.6053,68.4799 -9.5324,15.1309 -18.3274,30.9093 -23.9478,47.9538 -4.491,13.4424 -7.1457,27.5036 -7.7369,41.6681 -0.3455,5.539 -0.5143,11.0995 -0.3217,16.6442 1.7798,10.1167 3.1033,20.3389 5.7203,30.2872 1.0088,3.5695 2.5761,6.9439 3.8322,10.4277 3.0076,7.838 6.4674,15.5291 10.8477,22.7044 7.4524,12.9118 17.1551,24.335 27.2517,35.2367 18.1,19.7103 36.7686,38.8867 55.354,58.1369 44.048,45.5158 88.4778,90.6606 132.8933,135.817 57.6889,58.6005 115.5509,117.0297 173.4248,175.4475 95.4069,96.2545 191.007,192.3178 286.6748,288.3133 64.2371,64.4503 128.6165,128.7589 192.8132,193.2498 65.7603,66.0009 131.4302,132.092 196.9865,198.2956 34.4076,34.7669 68.9049,69.6641 103.2767,104.5508 0.9655,0.9798 1.9205,1.954 2.9325,2.9813 50.4077,51.1953 100.7615,102.4465 150.7283,154.0734 -23.6869,31.6685 -47.9378,62.9105 -72.3568,94.0165 -5.518,7.0254 -11.0492,14.0405 -16.5827,21.0538 -0.2508,0.3109 -0.7455,0.9412 -1.0896,1.3744 -18.3793,23.2847 -36.8789,46.474 -55.4126,69.6359 -31.7961,39.7024 -63.7569,79.2727 -95.7966,118.7787 -0.9595,1.1767 -2.0594,2.5359 -3.0728,3.7827 -45.6504,56.2526 -91.4631,112.3734 -137.3608,168.4244 -8.0591,9.8415 -16.2145,19.7894 -24.3106,29.6718 -25.6086,31.2275 -51.3099,62.5361 -76.9838,93.7705 -33.7691,41.0728 -67.625,82.2268 -101.5376,123.2415 -1.8091,2.1788 -3.7423,4.5192 -5.5996,6.7608 -28.588,34.5305 -57.2786,68.9766 -86.1622,103.2604 -0.2653,0.3077 -0.7751,0.917 -1.134,1.3401 -2.5224,2.9869 -5.0448,5.9738 -7.5671,8.9607 -0.5036,0.6002 -1.2059,1.4251 -1.7858,2.1116 -26.7293,31.5591 -53.6545,62.958 -81.2118,93.7989 -17.0384,18.9686 -34.2871,37.767 -52.3753,55.7448 -9.7445,9.6034 -19.701,19.0404 -30.5094,27.4495 -5.4991,4.2395 -11.3437,8.0684 -17.6423,11.0168 -41.6278,20.8125 -83.2563,41.6236 -124.8836,62.437 1.4431,70.4936 2.9551,140.9859 4.3145,211.4812 0.055,12.4005 0.3303,24.8234 -0.6114,37.2005 -3.0325,5.1226 -6.1573,10.1909 -9.0579,15.3907 -7.8862,13.7859 -15.3249,27.8628 -21.4914,42.5104 -6.3517,15.3823 -10.6665,31.6901 -11.8452,48.3223 -0.3369,3.9333 -0.6074,7.8719 -0.8848,11.8098 -0.031,0.3691 -0.087,1.1975 -0.1277,1.7425 -0.1407,2.1935 -0.3526,4.3914 -0.4487,6.5821 2.5955,12.8368 4.7857,25.7652 7.9748,38.4742 1.6676,6.049 4.4544,11.7201 7.6922,17.0727 4.8881,8.5543 9.7575,17.126 15.0889,25.4155 0.571,0.9562 1.1494,1.9063 2.0371,2.6049 7.5497,7.1287 14.5354,14.8746 22.6011,21.4422 4.2738,3.3637 8.7866,6.4107 13.3109,9.4232 0.4238,0.2994 1.2042,0.5233 0.4936,1.0267 -11.7723,15.7132 -21.8993,32.739 -29.259,50.9693 -9.1045,22.3461 -14.2142,46.1759 -16.4073,70.1629 -2.2131,22.6874 -2.2825,45.5062 -2.4752,68.2791 -0.1104,18.5184 0.1224,37.0383 0.717,55.5474 1.0078,33.3637 2.6063,66.7062 4.3232,100.0398 1.2941,24.6174 2.7223,49.2277 4.2642,73.8307 -6.5943,3.3111 -13.2025,6.6251 -19.5263,10.4333 -3.7341,2.4514 -7.0964,5.4094 -10.6132,8.1528 -5.2803,4.233 -10.4259,8.6482 -15.2511,13.3944 -2.0025,1.9727 -3.624,4.2753 -5.3471,6.4823 -0.8478,1.0228 -1.7423,2.0666 -2.5319,3.0023 -3.8351,4.4518 -7.5709,9.016 -10.7834,13.94 -4.6973,10.0015 -9.9683,19.7662 -13.7785,30.1576 -3.0681,10.9896 -6.0617,22.0913 -6.9649,33.5076 -1.4953,14.2338 -0.5814,28.5802 0.8453,42.7793 2.7735,27.7504 6.485,55.3946 10.1025,83.0442 6.8699,51.944 14.2878,103.8141 21.9445,155.6473 5.1113,34.322 10.3539,68.6268 16.1369,102.8428 2.1219,12.4078 4.3264,24.8103 7.1309,37.0846 4.5848,19.3184 11.6364,38.0585 20.9805,55.579 9.5106,17.7369 21.7634,34.1278 36.8918,47.4678 8.9927,8.0215 18.7744,15.2577 29.5705,20.6735 5.4607,2.7704 11.1132,5.1444 16.8001,7.4061 6.3928,2.4879 13.0027,4.4018 19.7289,5.7459 18.1303,4.0039 37.0087,4.5117 55.3387,1.5768 3.0376,-0.4731 6.0589,-1.0494 9.0641,-1.6969 -32.1186,33.8917 -64.2493,67.7723 -96.2303,101.7938 -19.1889,20.4085 -38.2498,40.9374 -57.1678,61.5972 -31.7906,34.5187 -63.5805,69.038 -95.3714,103.5563 -11.1815,117.4343 -22.3591,234.8689 -33.586,352.2986 -1.4342,14.466 -2.8685,28.933 -4.3027,43.399 -4.4222,44.47 -8.8802,89.039 -13.3243,133.546 -5.3087,52.883 -10.6499,105.914 -16.0116,158.85 -4.929,48.707 -9.8904,97.478 -14.901,146.204 -9.3759,91.107 -18.9177,182.333 -28.3836,273.484 -7.7861,74.863 -15.5713,149.726 -23.358,224.59 17.2173,34.968 34.37,69.968 51.6803,104.89 13.5474,26.143 28.4139,51.57 43.3387,76.942 23.577,39.869 47.8955,79.295 72.5595,118.5 21.8947,34.689 44.089,69.197 67.1303,103.139 10.1665,14.921 20.5823,29.68 31.5809,44.002 33.5063,44.225 67.0126,88.45 100.5189,132.675 50.5329,-32.616 101.076,-65.217 151.6185,-97.818 16.962,-11.11 33.6337,-22.655 50.3646,-34.108 40.1141,-27.556 80.0502,-55.37 120.039,-83.106 19.3326,-13.418 38.6486,-26.86 57.8068,-40.525 29.2163,-20.729 58.4012,-41.512 87.0754,-62.988 19.1248,-14.381 38.0046,-29.173 55.4195,-45.613 15.6873,-14.921 29.9161,-31.562 40.8414,-50.312 13.1564,-22.401 21.5557,-47.619 24.1437,-73.484 0.7702,-7.214 1.0002,-14.471 1.201,-21.719 0.7214,-15.529 1.6719,-31.047 2.5624,-46.567 0.1224,-2.028 0.2507,-4.26 0.3754,-6.366 0.8532,-14.685 1.7511,-29.367 2.6343,-44.05 3.2237,-53.055 6.5728,-106.271 9.9035,-159.384 1.6115,-25.448 3.2299,-51.048 4.844,-76.554 4.5887,-72.237 9.2278,-144.589 13.8785,-216.868 2.2029,-33.698 4.5062,-67.39 6.7505,-101.086 8.9702,-133.819 17.9404,-267.639 26.9106,-401.458 30.7247,-44.4699 61.4487,-88.9404 92.1739,-133.4101 -14.9762,-53.0725 -30.0214,-106.1255 -44.8949,-159.2268 -4.4335,-16.2427 -8.8513,-32.5877 -10.6911,-49.3669 -0.059,-0.5587 -0.1627,-1.458 -0.2388,-2.1473 -1.4441,-13.0868 -2.0361,-26.249 -2.437,-39.4035 0.01,0.059 -0.031,-1.1322 -0.041,-1.5548 -0.1922,-6.7606 -0.3491,-13.5223 -0.4374,-20.2851 0,-0.2138 -0.015,-1.1359 -0.022,-1.623 -0.024,-2.0527 -0.048,-4.1055 -0.072,-6.1582 4e-4,-0.2865 -0.011,-1.2002 -0.015,-1.7277 -0.2823,-30.1565 0.01,-60.3141 0.2763,-90.4696 6e-4,-0.345 0.013,-1.2006 0.017,-1.7413 0.5568,-49.6547 1.2965,-99.3072 1.9401,-148.9609 0.1799,-13.1366 0.3758,-26.2729 0.5777,-39.4091 0.012,-0.889 0.034,-2.0665 0.05,-3.0664 0.6148,-37.2034 1.3195,-74.4088 2.7299,-111.592 0.7381,-18.361 1.5987,-36.7288 3.3555,-55.0249 0.8152,-7.8151 1.5781,-15.6784 3.4838,-23.319 1.093,-3.7868 2.7609,-7.372 4.1203,-11.0652 5.6014,-14.4052 10.8228,-28.9989 14.4943,-44.0298 4.8254,-19.4512 7.1308,-39.5109 6.9996,-59.5472 -0.082,-24.483 -3.5704,-48.7875 -7.4934,-72.9039 -4.0576,-24.8023 -8.7904,-49.4892 -12.7579,-74.3068 -3.4195,-20.904 -6.6681,-41.8357 -9.7421,-62.7932 -0.03,-0.2305 -0.1711,-1.187 -0.2439,-1.6975 -2.616,-18.109 -5.1258,-36.2397 -6.9944,-54.4432 -0.5315,-5.1666 -0.7176,-10.3601 -0.6848,-15.5523 0.075,-21.8186 1.1542,-43.6183 2.3424,-65.3999 1.2546,-22.1556 2.7974,-44.2943 4.5377,-66.4169 0.028,-0.3099 0.096,-1.1966 0.1394,-1.7279 0.6412,-8.1267 1.3197,-16.2503 2.0247,-24.3717 0.024,-0.2267 0.1067,-1.1944 0.1534,-1.707 2.2547,-25.3443 4.7393,-50.6722 7.8447,-75.9277 0.1133,-0.9082 0.2265,-1.8164 0.3398,-2.7247 0,0 0.1455,-1.1305 0.2,-1.559 0.1391,-1.0774 0.2781,-2.1547 0.4172,-3.232 0.064,0.1683 -0.029,-1.1318 0.3534,-1.386 11.3187,-13.2505 22.8724,-26.2973 34.4239,-39.3445 0.1516,-0.1638 0.7977,-0.8951 1.1401,-1.2781 26.364,-29.6349 53.0318,-58.9981 79.8023,-88.2656 2.5781,-2.817 5.2786,-5.762 7.7803,-8.4992 7.6027,-8.2924 15.2152,-16.5758 22.8359,-24.8516 0.7491,-0.8071 1.6726,-1.8131 2.4887,-2.6966 3.8339,-4.1552 7.6624,-8.3153 11.5015,-12.4655 -6.2361,162.9424 -12.5586,325.8815 -18.9908,488.8163 -2.6343,66.8169 -5.288,133.633 -7.9389,200.4493 -4.4291,110.5806 -8.8954,221.2791 -13.5089,331.8981 -0.4332,10.2944 -0.8664,20.5888 -1.2996,30.8832 -0.064,1.4134 -0.1323,3.0638 -0.1979,4.5684 -0.561,13.0332 -1.122,26.0663 -1.683,39.0995 -0.012,0.3361 -0.054,1.1995 -0.077,1.7377 -0.9653,22.0025 -1.9821,44.0034 -3.1316,65.9974 -1.1557,23.5167 -1.8903,47.0663 -1.5495,70.6132 0.2945,17.7446 1.0724,35.5319 3.7245,53.0996 2.2516,14.8987 5.994,29.6237 11.8645,43.5241 8.5749,20.5449 21.6197,39.2506 38.1809,54.1529 6.1123,5.4679 12.575,10.5739 19.498,14.9808 6.9073,4.3243 14.1667,8.0817 21.6314,11.3457 19.7003,8.5138 41.1798,12.8038 62.6324,12.699 18.1036,-0.045 36.1324,-3.1271 53.4039,-8.484 20.9593,-6.3972 40.8741,-15.702 60.4646,-25.4206 22.0169,-11.025 43.5988,-22.8915 65.1081,-34.8689 38.2706,-21.4026 76.1562,-43.4834 114.0041,-65.6221 76.2871,-44.7208 152.1864,-90.0979 228.2064,-135.2705 105.2286,-62.5692 210.463,-125.1286 315.6977,-187.6874 2.8469,-196.4858 5.6968,-392.9715 8.5644,-589.457 0.6398,-40.2711 1.3653,-80.7105 2.1363,-121.0446 0.052,-2.7105 0.1014,-5.2998 0.1578,-8.0337 0.5998,-30.2704 1.2451,-60.5398 1.9266,-90.8084 0.018,-0.8889 0.048,-2.0663 0.07,-3.066 0.5887,-25.6435 1.2136,-51.2862 1.8651,-76.9282 1.8263,67.0311 4.3259,134.0423 7.1566,201.038 2.4971,59.1216 5.2993,118.2305 8.3515,177.326 3.238,62.0703 6.7781,124.1261 10.92,186.1433 2.1766,32.1622 4.51,64.3164 7.3901,96.4241 1.5885,17.391 3.3469,34.7777 5.946,52.0507 2.5839,16.6758 6.7255,33.2341 13.8276,48.596 6.2491,13.654 14.5457,26.3675 24.5598,37.5591 6.1177,6.9196 13.0566,13.0788 20.3505,18.7291 5.5977,4.3195 11.5296,8.1994 17.6776,11.6884 -43.321,14.8067 -86.6421,29.6127 -129.9629,44.4199 2.6497,170.7852 5.2993,341.5706 7.9911,512.3549 0.4547,27.2748 0.9187,54.5495 1.3448,81.8248 0.01,0.672 0.024,1.6668 0.035,2.4626 0.5971,40.3482 1.1936,80.6968 1.4821,121.0486 0.2027,26.9052 0.2955,53.8123 0.028,80.7173 0,0.345 -0.014,1.201 -0.02,1.741 -0.1802,15.584 -0.4741,31.169 -1.1106,46.741 0.013,-0.232 -0.049,1.104 -0.066,1.505 -0.9513,22.3 -2.6552,44.662 -7.3148,66.531 -2.5838,12.368 -5.3456,24.697 -8.0095,37.047 -5.9056,27.096 -11.8111,54.192 -17.7168,81.289 15.6495,61.593 31.2685,123.194 47.0332,184.757 0.068,0.253 0.2949,1.163 0.4241,1.669 1.7258,6.8 3.4323,13.605 5.1227,20.413 0.074,0.287 0.2876,1.166 0.415,1.68 11.9295,48.247 22.7911,96.823 30.0661,146.014 2.4461,16.422 4.4976,32.901 6.2631,49.41 -0.013,-0.08 0.1159,1.123 0.1579,1.54 1.4104,13.357 2.6063,26.736 3.6585,40.126 0.01,0.03 0.087,1.14 0.121,1.576 1.4139,18.318 2.5546,36.656 3.5216,55.002 0.067,1.185 0.1384,2.62 0.2051,3.9 0.7915,15.439 1.4713,30.884 2.0878,46.331 0.018,0.377 0.06,1.424 0.068,1.699 0.8898,22.999 1.6509,46.002 2.3302,69.008 0.014,0.404 0.034,1.2 0.051,1.754 0.2481,8.916 0.4904,17.832 0.7362,26.748 0.013,0.404 0.031,1.2 0.047,1.754 0.2331,9.053 0.4742,18.149 0.6999,27.15 2.5392,99.631 5.093,199.263 7.6344,298.894 247.206,82.401 494.4118,164.803 741.6168,247.205 27.93,-67.062 55.929,-134.094 83.779,-201.189 9.503,-24.064 17.82,-48.57 26.216,-73.035 17.912,-52.71 35.007,-105.695 51.863,-158.752 15.139,-47.76 29.89,-95.641 44.533,-143.555 26.617,-86.84 53.236,-173.679 79.851,-260.519 -6.88,-38.886 -13.822,-77.761 -20.632,-116.659 -3.07,-18.47 -5.033,-37.101 -6.873,-55.728 -1.516,-15.812 -2.814,-31.645 -3.985,-47.486 -0.01,-0.179 -0.09,-1.195 -0.123,-1.698 -3.225,-44.433 -5.561,-88.925 -7.606,-133.425 -0.01,-0.387 -0.05,-1.2 -0.08,-1.75 -0.367,-8.056 -0.695,-16.114 -1.045,-24.17 -0.05,-1.031 -0.1,-2.332 -0.146,-3.466 -0.958,-22.574 -1.777,-45.153 -2.608,-67.732 -0.07,-2.015 -0.145,-4.234 -0.216,-6.327 -0.6,-17.366 -1.165,-34.733 -1.719,-52.1 -0.02,-0.362 -0.04,-1.201 -0.06,-1.745 -0.937,-30.033 -1.769,-60.068 -2.572,-90.105 -0.02,-0.488 -0.03,-1.333 -0.05,-1.958 -0.182,-7.073 -0.364,-14.147 -0.546,-21.22 -0.03,-1.414 -0.08,-3.066 -0.112,-4.571 -0.545,-21.668 -1.058,-43.3373 -1.548,-65.0069 -0.04,-1.99 -0.09,-4.1836 -0.137,-6.2519 -0.829,-38.1204 -1.626,-76.2415 -2.332,-114.3643 -0.865,-46.6509 -1.659,-93.3031 -2.404,-139.956 -1.41,-91.4087 -2.594,-182.9567 -3.701,-274.4218 -2.414,-198.6856 -4.832,-397.3711 -7.244,-596.0567 -76.889,-65.4683 -153.789,-130.9229 -230.655,-196.418 13.714,1.9376 27.432,3.8854 41.217,5.2482 10.077,0.9672 20.217,1.2963 30.333,0.8527 15.273,-0.5706 30.53,-2.7734 45.179,-7.1991 22.82,-6.7867 44.146,-18.6487 61.768,-34.6773 18.449,-16.7018 32.871,-37.7472 42.09,-60.8453 7.492,-18.5198 11.654,-38.2053 14.23,-57.9628 2.08,-15.6344 3.579,-31.3392 4.979,-47.0466 0.903,-11.4974 1.52,-23.0158 1.96,-34.5397 4.273,26.4855 8.518,52.9756 12.756,79.4668 15.731,98.5442 31.309,197.3014 47.116,295.9056 31.994,199.8367 64.503,399.592 97.875,599.2042 13.036,77.9225 26.216,155.821 39.604,233.6837 12.912,75.0166 26.01,150.0012 39.525,224.9116 11.001,60.8409 22.194,121.6511 34.355,182.2726 4.794,23.732 9.727,47.442 15.37,70.989 3.6,14.831 7.486,29.65 13.105,43.864 7.103,17.853 17.245,34.579 30.397,48.631 20.159,21.751 46.921,37.217 75.753,44.087 23.192,5.598 47.522,5.678 70.961,1.551 22.457,-3.83 44.207,-10.888 65.562,-18.687 23.661,-8.71 46.864,-18.614 69.869,-28.919 36.802,-16.556 73.029,-34.362 108.909,-52.824 50.78,-26.162 100.79,-53.791 150.414,-82.076 43.742,-25.002 87.122,-50.65 129.834,-77.3772 20.268,-12.7151 40.377,-25.7031 59.903,-39.5367 11.616,-8.3159 23.013,-17.0152 33.349,-26.902 13.688,-13.1502 25.32,-28.554 33.488,-45.7245 4.694,-9.6517 8.18,-19.8569 10.73,-30.2733 0.951,-3.928 1.86,-7.8805 2.402,-11.8866 0.985,-9.6467 2.051,-19.3561 1.303,-29.0609 -0.918,-14.1808 -3.544,-28.1676 -5.681,-42.1961 -7.566,-47.538 -15.27,-95.0543 -22.83,-142.5935 -0.207,-1.3295 -0.459,-2.8973 -0.683,-4.3185 -3.815,-23.9207 -7.515,-47.8595 -11.383,-71.7717 -6.604,-39.9114 -13.481,-79.7791 -20.879,-119.5514 -4.784,-25.4697 -9.788,-50.9045 -15.568,-76.1693 -4.159,-18.0851 -8.734,-36.1093 -14.806,-53.6586 -6.019,-17.2752 -13.962,-33.9989 -24.742,-48.8346 -4.199,-5.8207 -8.793,-11.3578 -13.756,-16.5435 11.55,-22.3333 18.237,-47.0955 19.954,-72.1597 0.924,-12.9356 0.506,-25.9454 -0.924,-38.8286 -2.411,-23.3504 -5.625,-46.6074 -8.738,-69.8717 -6.25,-46.092 -12.941,-92.1227 -19.71,-138.1411 -7.406,-50.2532 -15.127,-100.4595 -22.52,-150.7148 -4.151,-28.1975 -8.27,-56.4 -12.126,-84.6396 -0.02,-0.2229 -0.16,-1.1884 -0.227,-1.6979 -0.559,-4.1482 -1.118,-8.2965 -1.678,-12.4447 -0.03,-0.2159 -0.157,-1.1885 -0.225,-1.6967 -0.234,-1.7768 -0.468,-3.5537 -0.702,-5.3306 -0.04,-0.3146 -0.154,-1.1907 -0.222,-1.7207 -0.23,-1.778 -0.46,-3.556 -0.69,-5.334 -0.04,-0.2821 -0.152,-1.1906 -0.219,-1.7134 -0.826,-6.4736 -1.629,-12.9499 -2.408,-19.4292 -0.03,-0.2578 -0.142,-1.1914 -0.205,-1.7093 -3.76,-31.3331 -6.795,-62.7559 -8.879,-94.2463 -0.483,-7.174 -0.905,-14.3518 -1.309,-21.5307 -0.01,-0.2689 -0.06,-1.1982 -0.09,-1.7212 -1.204,-21.9568 -2.054,-43.9313 -2.749,-65.9097 0,-0.2778 -0.04,-1.1995 -0.05,-1.7249 -0.119,-3.9921 -0.246,-7.984 -0.358,-11.9762 -0.01,-0.4462 -0.03,-1.2668 -0.05,-1.8564 -0.55,-20.0898 -1.021,-40.1816 -1.438,-60.2745 -0.01,-0.3789 -0.02,-1.2005 -0.04,-1.7489 -0.691,-34.7734 -1.308,-69.5484 -1.854,-104.3243 -0.637,-42.8759 -1.132,-85.7538 -1.705,-128.6305 -0.921,-71.1899 -1.844,-142.3798 -2.763,-213.5697 -46.426,-107.9482 -92.846,-215.8977 -139.313,-323.8288 -44.52,-102.6367 -89.114,-205.2417 -134.219,-307.6232 -12.547,-28.4589 -25.214,-56.8645 -38.013,-85.2108 -2.781,-6.1744 -5.559,-12.3513 -8.339,-18.5267 11.766,-21.7658 23.501,-43.5484 35.046,-65.4324 17.251,-32.5492 34.502,-65.0988 51.754,-97.6477 6.896,-71.1279 13.857,-142.2486 20.673,-213.3841 4.307,-47.1538 8.699,-94.2999 13.236,-141.4323 0.07,-0.6685 0.161,-1.6591 0.239,-2.4512 0.851,-8.763 1.701,-17.526 2.552,-26.289 0.04,-0.4012 0.117,-1.1949 0.17,-1.7464 4.778,-48.8423 9.764,-97.6643 15.041,-146.4554 2.824,-26.2014 5.782,-52.3881 8.835,-78.5638 0.05,-0.3922 0.142,-1.1924 0.207,-1.7408 0.958,-8.17 1.932,-16.3381 2.913,-24.5053 0.04,-0.3658 0.144,-1.1921 0.209,-1.7341 5.994,-49.5807 12.485,-99.1042 19.841,-148.5023 0.04,-0.2143 0.18,-1.1853 0.257,-1.692 0.517,-3.439 1.112,-7.3599 1.581,-10.4986 4.462,-29.2021 9.215,-58.3611 14.444,-87.4363 0.04,-0.2517 0.213,-1.1806 0.305,-1.693 3.917,-21.7402 8.099,-43.4327 12.583,-65.0629 0,-0.048 0.235,-1.1201 0.324,-1.5505 10.487,-50.3511 22.749,-100.351 37.473,-149.637 0.05,-0.1786 0.345,-1.1472 0.489,-1.6319 15.466,-51.6436 33.77,-102.4231 54.436,-152.2098 25.944,-62.5007 55.373,-123.4898 86.148,-183.7375 11.777,-23.0309 23.712,-45.9811 35.822,-68.8387 0.107,-0.2077 0.563,-1.059 0.804,-1.5149 1.607,-3.0198 3.214,-6.0396 4.821,-9.0594 20.349,10.984 40.643,22.069 60.966,33.101 44.341,23.8675 89.062,47.0595 134.567,68.64 16.651,7.8299 33.416,15.4693 50.641,21.963 12.389,4.5939 25.173,8.1575 38.207,10.3605 24.382,4.2974 49.643,4.0214 73.803,-1.5312 22.742,-5.15 44.373,-14.7123 63.96,-27.3026 20.55,-13.0583 39.021,-29.0315 57.179,-45.1679 21.384,-19.1218 42.236,-38.8256 63.2,-58.4042 39.554,-37.0539 78.93,-74.3018 117.828,-112.0447 25.401,-24.6952 50.661,-49.5458 75.188,-75.1133 15.917,-16.6392 31.637,-33.5203 45.907,-51.6112 11.446,-14.5652 21.631,-30.2825 28.715,-47.454 8.821,-21.1354 13.008,-44.2509 11.674,-67.1384 -0.538,-10.058 -2.164,-20.0182 -4.124,-29.8864 -3.043,-15.4396 -6.586,-30.775 -10.082,-46.1167 -7.215,-31.2836 -14.823,-62.4751 -22.531,-93.6405 -7.933,-31.9509 -16.138,-63.8333 -24.297,-95.7272 -9.141,-35.8673 -18.283,-71.7346 -27.424,-107.6019 14.493,-16.1791 28.595,-32.7025 42.708,-49.2123 32.66,-38.3258 64.888,-77.0167 97.052,-115.7579 53.171,-64.0981 105.961,-128.5107 158.478,-193.1453 36.188,-44.5517 72.219,-89.2324 107.992,-134.1179 24.581,-30.8872 49.084,-61.8406 73.053,-93.2067 5.379,-7.1169 10.908,-14.1284 15.96,-21.4848 4.466,-6.5772 8.268,-13.5914 11.599,-20.8048 9.329,-20.5616 13.873,-43.2677 13.261,-65.8348 -0.479,-18.2852 -4.287,-36.381 -10.31,-53.6185 -5.972,-17.4609 -13.694,-34.251 -21.548,-50.9281 -12.19,-25.556 -25.338,-50.6419 -38.726,-75.5869 -20.505,-38.0169 -41.978,-75.4998 -63.492,-112.9515 -68.626,-119.0556 -140.73,-236.1263 -216.905,-350.5068 -85.978,-129.124 -177.211,-254.7637 -273.763,-376.1903 -83.522,-105.0904 -170.962,-207.0537 -261.77,-305.9124 -66.995,-72.946 -135.763,-144.2593 -206.052,-214.0364 -34.422,-34.1223 -69.307,-67.7746 -104.458,-101.1436 -48.503,-46.0054 -97.552,-91.4356 -147.175,-136.2316 -35.4,-31.9208 -71.086,-63.5304 -107.376,-94.4374 -18.983,-16.1091 -38.126,-32.0416 -57.811,-47.2884 -12.088,-9.3022 -24.406,-18.3591 -37.482,-26.2356 -15.691,-9.3887 -32.735,-16.7105 -50.657,-20.5364 -8.669,-1.8796 -17.503,-2.9911 -26.367,-3.316 -6.204,-16.9334 -15.328,-32.7134 -26.335,-46.9688 -12.196,-15.8151 -26.512,-29.851 -41.365,-43.1484 -14.241,-12.6721 -29.107,-24.6208 -44.14,-36.3356 -26.696,-20.7117 -54.163,-40.4059 -81.839,-59.7809 -42.985,-30.0167 -86.713,-58.9534 -130.746,-87.4052 -67.114,-43.2761 -135.084,-85.2192 -203.673,-126.1165 -67.45,-40.187 -135.533,-79.3171 -204.34,-117.1335 -32.838,-18.028 -65.833,-35.7724 -99.082,-53.0312 -33.852,-17.4019 -68.216,-33.7829 -102.64,-50.0158 -54.925,-25.8298 -110.216,-50.874 -165.648,-75.5943 -57.484,-25.5857 -115.1645,-50.7322 -173.1089,-75.2581 -37.5166,-15.8462 -75.1272,-31.4816 -113.0529,-46.3268 -17.8914,-6.9703 -35.8491,-13.7965 -54.0757,-19.8469 -11.3552,-3.7158 -22.8903,-6.8575 -34.4837,-9.7343 -16.8741,-4.1245 -34.1655,-6.9203 -51.5731,-6.9152 -0.7791,8e-4 -1.5581,0 -2.3372,2e-4 z m 1021.4959,1423.4882 c 25.193,30.1171 49.929,60.6201 74.012,91.6329 -16.052,18.7412 -31.109,38.4095 -43.976,59.4896 -0.553,0.9058 -1.097,1.8178 -1.641,2.7291 -16.364,-23.5561 -33.365,-46.6605 -50.362,-69.7608 -9.363,-12.6784 -18.788,-25.3098 -28.252,-37.913 15.431,-17.083 30.359,-34.6127 45.038,-52.3438 1.727,2.0554 3.454,4.1107 5.181,6.166 z m 29.676,365.7813 c 10.012,22.9489 20.424,45.7218 31.063,68.3867 -13.651,15.0284 -26.61,30.6662 -39.458,46.3796 -20.784,25.4956 -41.102,51.3661 -61.354,77.2849 -21.09,27.0265 -42.081,54.1308 -63.04,81.2593 -17.854,23.1904 -35.662,46.4308 -52.553,70.3371 -11.777,16.758 -22.925,34.0516 -31.821,52.5337 -9.866,20.6267 -16.563,42.9149 -18.394,65.7586 -2.211,26.3828 1.919,53.263 11.916,77.7769 7.046,17.4356 16.913,33.5926 27.979,48.747 0.644,0.8937 1.287,1.7883 1.941,2.6749 -24.962,-15.2579 -54.426,-23.0476 -83.67,-22.0376 -25.937,0.8112 -51.55,8.4332 -73.942,21.4944 -18.065,10.4607 -33.962,24.3011 -48.17,39.5147 -13.684,14.6004 -26.179,30.2575 -38.445,46.0519 -17.323,22.4485 -34.053,45.3473 -50.674,68.3181 -27.1,37.4813 -53.672,75.3404 -80.571,112.9656 -46.938,65.7704 -93.874,131.5433 -140.809,197.3159 0.552,-4.2034 1.143,-8.4145 1.619,-12.6198 -0.529,-2.8938 -1.059,-5.7875 -1.59,-8.681 -0.04,-0.1873 -0.212,-1.179 -0.303,-1.6778 -1.759,-9.8494 -3.513,-19.7029 -5.62,-29.4848 -0.7106,-3.5769 -2.1057,-6.9815 -3.7965,-10.2009 -4.508,-9.1905 -8.6355,-18.6084 -14.0889,-27.2962 -2.7088,-4.2058 -6.0846,-7.9156 -9.1434,-11.86 -5.3906,-6.6812 -11.3281,-12.9321 -17.8804,-18.4863 -11.6748,-10.1848 -25.013,-18.2935 -38.8935,-25.0968 -12.9444,-6.4506 -26.1698,-12.3145 -39.3759,-18.2039 -23.5542,-10.4232 -47.2585,-20.5029 -70.9846,-30.5274 -38.4449,-16.1656 -77.0088,-32.0459 -115.437,-48.2517 -0.7372,-0.2853 -1.2162,-0.497 -0.1395,-0.2653 39.6132,6.2944 79.2327,12.5489 118.8349,18.9117 60.8342,9.7521 121.7774,19.5999 182.6246,29.5668 7.8793,1.2732 15.7492,2.6064 23.6212,3.9201 20.931,3.3729 42.511,2.5615 63.145,-2.2926 20.418,-4.7449 39.842,-13.5103 57.121,-25.3518 13.35,-9.0876 25.428,-19.9454 36.385,-31.787 15.118,-16.2752 28.331,-34.1846 41.219,-52.2407 16.736,-23.5891 32.723,-47.6972 48.691,-71.8091 15.039,-22.7589 29.953,-45.6002 44.801,-68.4833 4.64,-7.2615 9.338,-14.7544 13.849,-21.9287 32.597,-51.7556 65.181,-103.5198 97.776,-155.2773 -97.293,-37.9349 -194.607,-75.8163 -291.871,-113.8242 -45.836,-18.0535 -92.025,-35.1934 -138.2441,-52.2346 -37.4525,-13.7841 -74.9948,-27.3229 -112.5864,-40.7225 9.7727,-14.5215 19.5172,-29.0619 29.2949,-43.58 49.4852,19.5733 98.7986,39.5787 148.0076,59.8364 2.646,1.091 5.293,2.182 7.94,3.2729 0.292,0.1252 1.108,0.4606 1.602,0.6664 11.591,4.7919 23.176,9.6023 34.753,14.4293 0.365,0.1492 1.108,0.4628 1.618,0.6749 21.793,9.0984 43.537,18.3153 65.417,27.205 36.257,14.77 72.742,28.9982 109.609,42.1795 19.529,6.9387 39.188,13.5876 59.234,18.887 17.382,4.4924 35.324,7.3765 53.321,6.7464 23.782,-0.686 47.315,-7.0319 68.406,-17.9949 15.442,-7.9633 29.56,-18.3366 42.296,-30.1211 15.667,-14.4311 29.379,-30.8103 42.54,-47.5123 14.243,-18.1808 27.715,-36.9492 41.043,-55.8067 16.645,-23.6204 32.943,-47.4831 49.073,-71.4572 14.31,-21.6415 28.282,-43.5067 42.019,-65.5162 14.885,-23.8788 29.416,-47.985 43.213,-72.5109 0.294,0.6816 0.589,1.3633 0.883,2.0449 z m -45.463,767.1406 c 38.82,44.0578 77.905,87.8804 117.06,131.6403 48.109,53.7171 96.419,107.2541 144.572,160.9324 8.573,9.549 17.148,19.0968 25.712,28.6539 -20.796,-0.3506 -41.592,-0.809 -62.377,-1.5762 -8.691,-11.4925 -17.05,-23.2319 -25.378,-34.9889 -4.442,-6.2751 -8.837,-12.583 -13.233,-18.89 -0.126,-0.1876 -0.683,-0.986 -0.975,-1.4094 -23.115,-33.2916 -45.789,-66.8876 -68.989,-100.1203 -39.108,-56.224 -78.8,-112.0428 -119.154,-167.3805 0.921,1.0463 1.842,2.0925 2.762,3.1387 z m -690.3534,364.584 c -7.9164,9.238 -15.832,18.4766 -23.748,27.7148 7.6881,-9.8121 15.435,-19.5925 22.5527,-29.832 0.3984,0.7057 0.7969,1.4115 1.1953,2.1172 z m 157.1404,257.2461 c 57.039,86.9733 114.415,173.725 172.033,260.3155 52.405,78.7331 104.943,157.3784 157.963,235.6994 17.444,25.7361 34.886,51.4742 52.537,77.0694 11.577,16.8223 23.257,33.5735 34.793,50.4235 -1.36,1.6824 -2.731,3.356 -4.097,5.0332 -41.093,-47.3837 -81.91,-95.0063 -122.5,-142.8213 -12.314,-14.502 -24.607,-29.0223 -36.877,-43.5615 -0.622,-0.7328 -1.418,-1.6821 -2.107,-2.4981 -8.723,-10.3408 -17.43,-20.6939 -26.131,-31.0527 -0.244,-0.2963 -0.771,-0.9208 -1.123,-1.3427 -13.703,-16.3385 -27.367,-32.7087 -40.985,-49.1182 -0.199,-0.2476 -0.765,-0.9255 -1.104,-1.3381 -20.572,-24.8744 -41.171,-49.732 -61.12,-75.1113 -2.311,-3.0105 -4.801,-5.9005 -6.722,-9.1892 -8.897,-14.6016 -16.563,-29.9054 -24.067,-45.2561 -13.751,-28.3828 -26.141,-57.4172 -37.308,-86.9104 -13.202,-34.4396 -26.631,-68.7922 -40.309,-103.0454 -6.201,-15.4922 -12.465,-30.9598 -18.829,-46.3858 1.984,3.0299 3.969,6.0598 5.953,9.0898 z m -829.3298,541.3027 c 1.4799,0.1448 2.9596,0.2919 4.4394,0.4375 -4.9641,3.9342 -9.8182,8.0054 -14.6055,12.1524 3.3909,-4.1914 6.7644,-8.4247 10.1661,-12.5899 z m -370.2071,574.4278 c -18.333,-11.9204 -38.9649,-20.0679 -60.2414,-24.939 -3.0552,-0.7203 -6.128,-1.3636 -9.2058,-1.979 10.0269,-12.7427 20.0718,-25.4713 30.1347,-38.1856 13.1042,21.7012 26.2084,43.4024 39.3125,65.1036 z m 274.3086,454.2714 c -5.7213,57.9353 -11.3979,115.8749 -17.185,173.8035 -2.7098,25.9308 -5.4196,51.8615 -8.1294,77.7923 -1.5568,14.784 -3.1205,29.7032 -4.68,44.5392 -0.02,1.1866 -0.2238,0.014 -0.3772,-0.5112 -19.7144,-73.9318 -39.4757,-147.8515 -59.2507,-221.7676 -26.3287,-98.3912 -52.723,-196.7638 -79.2047,-295.1137 -9.497,-35.2417 -19.0126,-70.4784 -28.6007,-105.6956 65.8092,108.9844 131.6185,217.9688 197.4277,326.9531 z"
       style="fill:#ffffff;fill-opacity:1" />
    <path
       id="path5"
       d="m 7760.9102,5878.8789 c -36.9243,36.9044 -73.8039,73.8535 -110.7655,110.7205 -9.0891,9.0106 -18.337,17.8589 -27.4964,26.7978 -38.3001,37.2055 -76.6004,74.4107 -114.9003,111.6165 137.3515,135.9843 274.7082,271.9632 412.04,407.9672 39.2618,39.1525 78.4983,78.331 117.4952,117.7476 0.4457,0.4566 1.1242,1.1389 1.6592,1.6821 36.3828,36.8474 72.6698,73.7975 108.1678,111.5012 13.4116,14.2852 26.7317,28.6587 39.7668,43.2894 0.1432,0.1558 0.7961,0.896 1.1363,1.2777 0.6876,0.7746 1.3753,1.5492 2.0629,2.3238 0.1142,0.1366 0.7915,0.8987 1.124,1.2779 13.4707,15.2836 26.6774,30.823 38.9548,47.0888 6.7091,8.8596 13.0023,18.0275 18.9732,27.3991 11.3822,17.5519 22.9848,34.9657 35.0567,52.0522 7.3445,10.3401 14.7704,20.6311 22.6344,30.5848 8.6471,10.9317 18.0713,21.3362 28.917,30.1363 11.9258,9.7741 25.3571,17.7198 39.7148,23.3542 11.9957,5.109 24.8875,7.6768 37.7612,9.372 9.5466,1.1667 19.2106,1.0703 28.7755,0.173 20.4687,-1.7783 40.5087,-7.946 58.5419,-17.7694 12.2359,-6.6016 23.5259,-14.8355 34.0445,-23.9006 11.9038,-10.2494 23.1252,-21.2656 34.0373,-32.5571 11.1361,-11.5819 21.9569,-23.4696 32.4099,-35.6719 10.2511,-12.025 20.1413,-24.3764 29.2494,-37.2938 18.8986,-27.5076 29.0158,-60.8467 29.0369,-94.1915 0.1035,-26.7362 -6.1101,-53.2921 -16.736,-77.7563 -11.2025,-26.042 -26.9513,-49.8375 -44.0278,-72.3608 -17.3724,-22.8577 -36.2877,-44.4906 -55.6144,-65.7037 -30.5627,-33.4221 -62.4036,-65.6461 -94.556,-97.5323 -38.7037,-38.3224 -78.0361,-76.0039 -117.5568,-113.4812 -57.4705,-54.4543 -115.4701,-108.3472 -173.6066,-162.0894 -67.644,-62.4678 -135.557,-124.6432 -203.3848,-186.9113 -57.7204,-52.9656 -115.4412,-105.9308 -173.1612,-158.8967 -6.5847,6.5846 -13.1693,13.1693 -19.7539,19.7539 z"
       style="fill:#ffffff;fill-opacity:1" />
    <path
       id="path6"
       d="m 7158.6973,5347.2129 c -30.9717,0.2144 -61.6862,9.885 -87.545,26.8535 -13.0268,8.5347 -24.9323,18.6791 -36.0461,29.5618 -21.8335,21.8741 -38.8768,48.493 -49.6815,77.4443 -8.5611,23.1464 -12.6327,48.0799 -10.8118,72.7414 1.746,24.6744 9.1419,48.7572 20.2678,70.7818 11.7113,23.3174 27.131,44.5325 43.508,64.7604 18.8483,23.2179 39.1763,45.1822 59.8068,66.8146 26.1857,27.3529 53.1491,53.9483 80.3207,80.3176 31.5596,30.6157 63.5564,60.7768 95.6969,90.7809 69.9427,65.444 139.8845,130.8891 209.8279,196.3324 94.5029,-92.0838 189.0072,-184.1661 283.5117,-276.2481 -44.8933,-44.8842 -89.7333,-89.8201 -134.6938,-134.6366 -57.4583,-55.8331 -115.8759,-110.6709 -174.7688,-164.986 -33.9898,-31.3055 -68.1765,-62.3997 -102.755,-93.0544 -17.942,-15.8613 -35.9861,-31.6174 -54.5217,-46.7845 -8.9578,-7.2812 -18.2048,-14.2201 -27.8968,-20.4989 -13.5589,-8.9668 -27.361,-17.709 -42.2072,-24.4123 -16.3046,-7.4316 -33.6939,-12.6179 -51.5196,-14.6553 -6.7978,-0.8074 -13.6476,-1.1676 -20.4925,-1.1126 z"
       style="fill:#ffffff;fill-opacity:1" />
  </g>
  <g
     transform="matrix(0.0509405,0,0,-0.0509405,-52.640537,639.52044)"
     fill="#000000"
     stroke="none"
     id="g12"
     inkscape:label="g12">
    <path
       d="m 4515,12040 c -33,-5 -85,-12 -116,-15 l -56,-6 -76,-146 c -41,-80 -74,-150 -71,-157 3,-6 30,-29 61,-51 90,-63 128,-101 171,-168 l 40,-62 -9,-795 c -5,-437 -8,-843 -7,-901 l 3,-106 315,104 c 173,57 320,109 327,116 15,15 26,138 87,987 l 44,605 -61,118 c -101,197 -254,354 -422,433 -101,48 -143,56 -230,44 z"
       id="path7" />
    <path
       d="m 9096,11989 c -105,-22 -131,-36 -300,-158 l -128,-94 -69,-145 -69,-144 v -158 -158 l -85,-253 c -47,-139 -83,-254 -81,-256 4,-5 90,64 223,179 56,48 104,88 107,88 7,0 -13,-54 -74,-200 l -52,-125 16,-280 c 19,-317 33,-466 44,-476 4,-4 99,-28 212,-54 250,-57 339,-86 407,-131 29,-18 54,-34 55,-34 2,0 -5,159 -15,352 -11,234 -20,638 -25,1196 -7,818 -8,844 -26,858 -24,17 -28,17 -140,-7 z"
       id="path8" />
    <path
       d="m 5934,11322 c -44,-31 -130,-94 -191,-139 l -111,-83 -7,-127 c -14,-272 -46,-783 -55,-883 -9,-88 -16,-116 -44,-172 l -34,-68 25,-97 c 25,-97 25,-102 19,-368 -3,-148 -11,-290 -17,-315 -22,-93 -22,-174 -1,-266 18,-78 20,-102 12,-199 -19,-222 -40,-556 -50,-784 -5,-128 -12,-236 -15,-240 -3,-3 -9,-1 -13,5 -4,5 -94,125 -200,267 l -193,258 10,476 c 6,261 11,596 11,744 v 269 l -51,-25 c -129,-66 -538,-326 -576,-367 -20,-22 -22,-43 -37,-323 -19,-354 -44,-722 -54,-784 -7,-43 -8,-44 -192,-172 -102,-70 -209,-142 -239,-160 -52,-32 -54,-32 -68,-13 -10,13 -13,36 -11,70 5,57 1,51 146,218 l 93,107 -3,489 c -2,385 -6,492 -16,502 -10,10 -78,14 -270,18 l -257,5 70,27 c 39,15 153,58 255,96 l 185,69 -3,479 -3,479 48,-50 c 26,-27 67,-72 91,-100 53,-61 55,-68 -53,230 l -83,230 -15,251 c -8,139 -17,257 -21,262 -17,27 -413,165 -506,177 l -55,7 -86,-333 -86,-333 14,-60 c 19,-89 32,-532 33,-1146 v -535 l 248,-208 c 136,-114 265,-223 287,-243 l 40,-35 -30,5 c -289,53 -519,86 -529,76 -17,-17 -11,-340 9,-495 9,-71 30,-202 46,-290 16,-88 31,-173 34,-188 8,-45 -11,-31 -118,89 -107,120 -158,190 -175,244 -6,19 -59,316 -117,660 -170,1003 -280,1589 -304,1613 -6,6 -22,5 -42,-3 -35,-15 -289,-188 -413,-283 l -78,-60 5,-41 c 3,-22 37,-246 75,-496 108,-696 112,-727 119,-1055 l 6,-290 63,-150 c 34,-82 93,-217 132,-300 l 69,-150 -32,-280 c -18,-154 -42,-343 -54,-420 -11,-77 -30,-230 -42,-340 -13,-120 -31,-233 -45,-281 -18,-63 -268,-669 -291,-707 -4,-7 -85,34 -281,145 -57,32 -107,58 -110,58 -4,0 -85,-78 -180,-173 l -173,-174 54,-214 54,-214 -71,-75 c -143,-151 -308,-367 -309,-404 0,-32 151,-330 248,-491 233,-388 550,-791 873,-1109 71,-70 83,-78 97,-66 38,32 275,324 275,339 0,4 -23,46 -51,92 -106,173 -370,673 -341,644 5,-5 63,-107 127,-225 65,-118 139,-247 166,-286 54,-77 105,-131 116,-121 3,4 0,46 -9,94 l -15,87 123,162 123,161 -196,214 c -108,118 -261,286 -341,374 -172,190 -183,172 108,174 l 196,1 154,-226 c 85,-124 169,-243 187,-263 l 33,-36 50,54 c 45,49 205,264 251,337 l 19,31 -170,273 -171,273 22,54 c 25,62 35,43 -94,181 l -77,84 87,98 88,98 35,-40 c 19,-22 74,-93 123,-157 87,-114 108,-154 267,-486 l 62,-130 156,165 c 266,282 449,458 672,649 118,101 221,189 228,196 16,14 7,39 -148,420 l -122,299 31,121 c 57,217 104,375 111,375 8,0 11,-8 172,-555 66,-225 125,-418 130,-427 6,-13 21,-18 48,-18 56,0 194,-20 203,-30 13,-12 -301,-363 -943,-1055 -402,-433 -432,-468 -416,-477 7,-4 105,-44 216,-88 227,-91 280,-115 280,-131 0,-17 -102,-160 -124,-174 -17,-10 -62,-7 -261,21 -132,18 -261,33 -287,33 l -47,1 -66,-94 c -36,-52 -65,-98 -65,-104 0,-11 215,-108 370,-168 52,-20 97,-38 99,-40 2,-1 -46,-64 -105,-138 -86,-107 -114,-136 -133,-136 -13,0 -123,48 -243,106 -184,89 -222,104 -232,93 -83,-94 -226,-280 -226,-296 0,-5 28,-54 63,-109 85,-134 117,-190 117,-204 0,-6 -22,1 -49,16 l -48,27 -29,-21 c -66,-48 -298,-249 -312,-270 -15,-22 -13,-25 45,-81 124,-118 555,-424 773,-549 58,-33 194,-104 303,-158 l 199,-99 22,27 c 12,15 82,144 155,285 147,282 227,430 240,438 5,2 67,-22 137,-55 l 129,-59 33,57 c 18,31 78,147 133,256 82,163 98,201 87,212 -12,11 -173,76 -380,154 l -86,32 13,37 c 7,20 56,135 110,256 122,275 271,636 360,868 76,198 64,188 155,142 l 44,-22 230,59 c 271,70 326,88 375,125 60,45 285,230 720,593 227,190 419,350 427,356 9,7 16,62 24,180 6,93 13,181 16,197 6,30 58,76 327,286 86,68 157,127 157,130 0,12 -260,355 -301,397 -22,22 -86,69 -144,105 -57,35 -102,66 -100,67 2,2 48,-10 102,-27 116,-36 248,-99 474,-227 91,-52 171,-94 177,-94 13,0 175,146 359,324 150,145 181,190 204,291 l 12,54 -209,223 c -115,122 -261,276 -325,342 -112,116 -116,119 -138,104 -12,-9 -202,-183 -422,-388 -450,-421 -411,-371 -512,-641 -30,-80 -62,-159 -71,-175 l -15,-29 v 40 c -1,22 4,82 9,133 6,52 8,98 4,103 -6,11 -76,-33 -239,-151 -68,-50 -127,-90 -132,-90 -5,0 -55,43 -111,95 -116,108 -131,117 -411,231 -348,142 -593,248 -583,252 6,2 180,-31 388,-72 425,-84 648,-126 676,-126 17,0 18,21 18,479 v 478 l 46,82 c 26,45 44,84 41,87 -7,7 -172,24 -240,24 -39,0 -57,4 -55,11 2,6 59,46 126,88 l 122,76 -6,90 c -10,135 -7,457 6,565 16,137 30,388 23,422 l -6,28 -242,-125 c -134,-69 -245,-125 -248,-125 -12,0 -19,72 -9,93 5,12 136,159 290,326 314,340 283,290 302,496 5,60 6,113 2,117 -5,5 -43,3 -86,-3 -43,-5 -80,-8 -83,-6 -2,3 31,30 74,60 115,81 123,92 134,182 6,43 9,79 7,80 -2,2 -84,0 -183,-4 -99,-4 -181,-7 -183,-6 -1,1 82,31 185,67 l 188,65 16,129 c 9,71 23,188 30,261 l 13,131 -104,154 c -136,200 -163,237 -175,237 -5,0 -46,-26 -91,-57 z M 4069,5143 c -178,-196 -474,-503 -483,-500 -18,6 -246,457 -231,457 2,0 45,-57 96,-127 146,-204 162,-223 181,-223 10,0 115,94 235,209 206,198 259,247 202,184 z M 2927,4263 c 50,-65 104,-130 120,-145 l 29,-28 84,40 c 45,23 87,39 93,37 14,-4 -192,-167 -213,-167 -9,0 -118,185 -169,286 -65,129 -60,127 56,-23 z"
       id="path9" />
    <path
       d="m 7657,11338 c -42,-56 -163,-250 -196,-315 l -31,-63 34,-327 c 19,-181 47,-460 63,-622 l 28,-294 70,-76 c 38,-42 160,-170 269,-285 109,-116 207,-224 217,-241 20,-32 25,-90 9,-100 -5,-3 -116,48 -246,115 -129,66 -239,118 -244,115 -4,-3 -10,-15 -13,-27 -10,-41 -57,-372 -53,-375 2,-3 26,36 52,86 27,50 50,88 52,86 2,-2 -4,-98 -12,-214 -9,-116 -16,-254 -16,-305 0,-87 2,-97 26,-126 15,-17 81,-70 148,-117 67,-47 123,-88 126,-90 2,-2 -69,-1 -158,3 -89,4 -162,4 -162,1 0,-3 10,-23 23,-44 19,-33 22,-50 20,-136 l -2,-97 48,-24 c 61,-32 121,-96 398,-433 432,-525 583,-718 583,-746 0,-7 -310,-322 -690,-702 -379,-380 -690,-695 -690,-701 0,-6 29,-49 64,-95 l 63,-84 22,-225 c 12,-124 24,-252 27,-285 3,-33 7,-83 10,-111 l 5,-52 119,-72 119,-72 206,22 205,21 53,-29 c 65,-38 145,-62 317,-97 l 136,-27 38,-147 c 22,-80 54,-190 73,-244 26,-76 197,-493 347,-848 l 15,-37 -167,-72 c -194,-85 -278,-125 -287,-140 -4,-6 11,-43 33,-83 42,-75 238,-397 250,-409 4,-3 33,5 66,18 71,31 116,26 175,-16 48,-35 72,-76 275,-470 86,-168 163,-314 171,-324 13,-18 18,-18 57,-7 79,24 462,192 597,262 335,175 767,456 758,493 -2,4 -39,48 -82,96 l -80,88 -65,-36 c -36,-20 -112,-64 -170,-98 -58,-34 -107,-60 -109,-58 -5,4 208,211 399,387 58,54 106,94 108,89 1,-5 -6,-31 -17,-58 l -19,-50 78,-134 c 43,-74 82,-135 88,-135 19,0 256,211 431,384 393,390 687,775 967,1270 54,95 90,169 85,175 -89,119 -440,547 -494,603 l -41,43 52,204 c 29,112 52,211 52,219 0,15 -93,108 -268,271 -65,60 -77,68 -103,62 -16,-3 -98,-43 -181,-88 -84,-46 -160,-86 -169,-90 -14,-5 -31,20 -92,135 -210,398 -250,565 -322,1357 l -17,175 -53,100 -54,100 45,100 c 25,55 101,229 169,386 l 123,286 4,309 c 5,300 6,317 46,584 23,151 42,287 42,302 0,33 -21,46 -133,78 -43,13 -74,26 -70,30 4,4 53,22 108,39 55,17 106,35 114,40 10,6 27,86 53,243 20,128 38,236 38,240 0,10 -142,98 -286,176 -142,77 -262,128 -274,115 -16,-17 -127,-656 -265,-1528 -81,-511 -114,-691 -138,-746 -15,-36 -128,-168 -221,-259 -55,-53 -56,-54 -51,-25 57,321 88,547 92,687 3,87 2,187 -2,223 -6,62 -8,65 -33,65 -14,0 -131,-18 -260,-41 -129,-22 -241,-39 -250,-37 -18,3 77,91 360,333 l 175,149 7,576 c 8,660 20,981 40,1094 l 14,79 -80,261 c -44,144 -93,293 -109,332 l -30,72 -258,-86 -258,-86 -6,-235 c -7,-251 -16,-323 -67,-519 l -31,-122 17,-78 c 15,-69 16,-118 10,-463 l -6,-386 237,-81 c 258,-88 318,-110 310,-118 -2,-3 -49,-9 -103,-15 -176,-17 -379,-50 -391,-62 -12,-12 -43,-617 -43,-831 v -96 l 120,-142 121,-143 -6,-65 c -3,-35 -8,-67 -11,-69 -3,-3 -20,3 -37,13 -55,31 -378,259 -420,297 -38,33 -41,40 -48,105 -4,38 -11,286 -15,552 l -7,483 -291,173 c -322,192 -392,230 -407,221 -6,-4 -8,-48 -4,-118 6,-111 52,-1285 57,-1445 2,-45 0,-82 -3,-82 -14,0 -445,464 -451,485 -12,45 -30,270 -26,325 2,30 13,103 23,162 19,106 19,109 1,155 -17,42 -20,84 -23,333 -4,277 -3,287 20,370 l 24,85 -38,55 -38,55 -36,537 c -19,295 -35,550 -35,566 0,28 -15,41 -172,152 -95,66 -187,130 -205,141 l -31,20 z M 9284,6715 c 19,-181 45,-426 57,-542 l 21,-213 -157,-260 -157,-260 27,-33 c 52,-63 310,-319 335,-332 14,-7 51,-16 83,-19 60,-8 73,2 45,34 -7,8 -2,5 12,-6 39,-33 60,-41 130,-48 111,-12 220,-28 220,-33 0,-3 -12,-15 -27,-26 -16,-12 -50,-42 -76,-66 l -48,-44 28,-29 c 38,-40 121,-100 132,-96 5,1 66,80 136,175 69,95 131,176 137,179 11,7 -187,-384 -219,-433 -8,-13 -20,-23 -27,-23 -6,0 -57,48 -113,107 l -103,107 -35,-17 c -42,-20 -43,-32 -6,-84 25,-35 178,-220 259,-313 l 30,-35 20,45 c 11,25 41,100 67,168 26,69 63,144 83,170 69,90 404,482 413,482 10,0 152,-169 170,-201 10,-19 2,-35 -66,-133 -108,-155 -457,-682 -489,-737 l -26,-46 147,-206 c 118,-167 149,-205 160,-196 19,17 153,199 266,365 83,121 101,142 128,148 41,8 429,8 429,0 0,-10 -64,-83 -278,-321 -246,-273 -346,-389 -362,-418 -12,-22 -5,-33 103,-172 110,-142 144,-181 150,-172 55,73 169,219 171,219 2,0 -48,-102 -110,-226 -63,-124 -114,-237 -114,-250 0,-15 20,-46 55,-84 30,-33 55,-66 55,-75 0,-16 -134,-186 -215,-273 l -51,-54 -88,111 c -49,61 -95,111 -104,111 -8,0 -35,-12 -60,-26 -53,-31 -55,-35 75,139 57,75 106,143 109,150 2,7 -42,83 -98,168 -75,111 -109,155 -125,157 -12,2 -108,-33 -214,-78 -105,-44 -220,-90 -255,-103 -74,-26 -52,-43 -174,137 -45,65 -79,123 -77,130 2,6 71,34 153,63 82,29 202,73 267,99 l 118,46 -17,27 c -112,172 -127,191 -148,186 -12,-2 -140,-23 -285,-46 l -265,-42 -24,29 c -63,77 -112,143 -112,152 0,11 114,63 342,158 92,38 168,71 168,74 0,3 -84,107 -186,230 -232,280 -284,346 -284,356 0,5 37,46 82,91 61,61 77,83 63,83 -11,0 -81,-7 -155,-14 -74,-8 -136,-13 -137,-13 0,1 -148,184 -327,406 -186,231 -323,408 -318,413 5,5 66,12 135,15 104,5 127,9 131,22 3,9 80,295 171,636 177,665 206,766 211,750 2,-5 19,-158 38,-340 z m 1346,-2442 c -90,-165 -153,-273 -162,-279 -12,-7 -98,59 -167,130 l -54,55 84,-44 c 46,-25 91,-45 100,-45 9,0 37,28 64,63 78,101 169,207 173,202 2,-2 -15,-39 -38,-82 z"
       id="path10" />
    <path
       d="m 8370,6808 c -42,-66 -115,-144 -353,-381 l -301,-298 35,-34 34,-34 170,156 c 471,432 584,552 554,590 -24,33 -73,83 -80,83 -3,0 -30,-37 -59,-82 z"
       id="path11" />
    <path
       d="m 7342,5791 c -157,-148 -222,-221 -222,-249 0,-10 9,-27 20,-37 19,-17 21,-17 57,7 31,21 218,192 336,307 l 27,27 -39,38 -39,38 z"
       id="path12" />
  </g>
</svg>
