<?xml version="1.0" encoding="UTF-8" standalone="no"?>
<svg
   version="1.0"
   width="600pt"
   height="600pt"
   viewBox="0 0 600 599.99999"
   preserveAspectRatio="xMidYMid"
   id="svg1"
   sodipodi:docname="regeneration.svg"
   inkscape:version="1.3.2 (091e20ef0f, 2023-11-25, custom)"
   xmlns:inkscape="http://www.inkscape.org/namespaces/inkscape"
   xmlns:sodipodi="http://sodipodi.sourceforge.net/DTD/sodipodi-0.dtd"
   xmlns="http://www.w3.org/2000/svg"
   xmlns:svg="http://www.w3.org/2000/svg">
  <defs
     id="defs1" />
  <sodipodi:namedview
     id="namedview1"
     pagecolor="#ffffff"
     bordercolor="#000000"
     borderopacity="0.25"
     inkscape:showpageshadow="2"
     inkscape:pageopacity="0.0"
     inkscape:pagecheckerboard="0"
     inkscape:deskcolor="#d1d1d1"
     inkscape:document-units="pt"
     inkscape:zoom="1.0323529"
     inkscape:cx="355.98291"
     inkscape:cy="394.72934"
     inkscape:window-width="1872"
     inkscape:window-height="1032"
     inkscape:window-x="48"
     inkscape:window-y="-36"
     inkscape:window-maximized="1"
     inkscape:current-layer="svg1"
     showguides="true" />
  <g
     transform="matrix(0.14484232,0,0,-0.14484232,-130.21536,717.29592)"
     fill="#000000"
     stroke="none"
     id="g2">
    <path
       d="m 1915,4664 c -430,-76 -798,-404 -935,-832 -47,-145 -63,-264 -57,-427 3,-77 12,-173 21,-213 38,-172 116,-347 213,-477 29,-39 300,-310 606,-609 1076,-1049 1014,-994 1146,-1018 71,-13 169,0 232,33 54,27 99,68 484,443 308,300 465,453 943,921 205,201 275,295 352,472 63,147 91,275 97,448 4,113 1,173 -11,242 -70,405 -321,742 -680,918 -61,30 -156,67 -211,82 -90,24 -117,27 -270,27 -142,-1 -183,-4 -247,-22 -239,-65 -428,-185 -571,-360 l -59,-71 -58,72 c -194,241 -504,389 -812,386 -56,0 -139,-7 -183,-15 z m 1575,-569 5,-70 68,-3 67,-3 v -58 c 0,-68 -4,-71 -85,-71 h -54 l -3,-67 -3,-68 h -60 -60 l -3,68 -3,67 h -57 c -77,0 -84,6 -80,71 l 3,54 68,3 67,3 v 68 c 0,37 3,71 7,75 4,4 32,6 63,4 l 55,-3 z M 1900,3981 c 5,-11 10,-69 10,-130 v -111 h 119 c 89,0 121,-3 130,-14 8,-9 11,-50 9,-117 l -3,-104 -127,-3 -128,-3 v -110 c 0,-61 -5,-119 -10,-130 -10,-17 -22,-19 -125,-19 -135,0 -124,-13 -128,150 l -2,105 -115,3 c -63,1 -121,5 -127,7 -18,6 -18,206 -1,223 8,8 52,12 130,12 h 118 v 118 c 0,78 4,122 12,130 8,8 49,12 120,12 96,0 108,-2 118,-19 z m 2378,-113 3,-128 h 123 c 94,0 126,-3 135,-14 8,-9 11,-50 9,-117 l -3,-104 -130,-5 -130,-5 -5,-125 -5,-125 -111,-3 c -83,-2 -114,1 -122,11 -7,7 -13,63 -14,128 l -3,114 -120,3 c -98,2 -122,5 -132,19 -16,21 -17,176 -3,204 10,17 22,19 135,19 h 125 v 118 c 0,80 4,122 12,130 9,9 46,12 123,10 l 110,-3 z M 3153,3683 c 23,-3 50,-18 68,-35 l 29,-30 v -218 -219 l 220,-3 220,-3 32,-33 33,-32 3,-183 c 4,-203 -3,-245 -47,-276 -26,-19 -46,-21 -242,-23 l -214,-3 -5,-222 c -7,-290 16,-266 -248,-274 -216,-7 -261,-1 -291,38 -20,24 -21,39 -21,244 v 219 h -218 c -301,0 -292,-9 -292,275 0,280 -5,275 304,275 h 206 v 210 c 0,304 -7,297 270,299 85,0 172,-2 193,-6 z m -693,-47 v -45 l 43,-3 c 41,-3 42,-4 45,-40 3,-40 4,-40 -53,-42 -29,-1 -30,-3 -33,-49 l -3,-48 -37,3 c -36,3 -37,4 -42,48 -5,42 -7,45 -35,46 -55,1 -56,2 -53,42 3,36 4,37 46,40 41,3 42,4 42,41 0,46 4,51 47,51 32,0 33,-1 33,-44 z m 1744,-732 c 3,-9 6,-42 6,-75 v -59 h 63 c 84,0 89,-5 85,-76 l -3,-59 -72,-3 -73,-3 v -69 c 0,-78 -10,-90 -74,-90 -63,0 -66,5 -66,86 v 74 h -68 c -79,0 -92,9 -92,63 0,67 11,77 90,77 h 70 v 68 c 0,38 3,72 7,75 3,4 32,7 64,7 43,0 58,-4 63,-16 z m -1976,-446 3,-68 h 59 c 40,0 64,-5 74,-16 19,-18 22,-94 4,-112 -7,-7 -39,-12 -75,-12 h -63 v -63 c 0,-36 -5,-68 -12,-75 -16,-16 -100,-16 -116,0 -7,7 -12,39 -12,75 v 62 l -67,3 -68,3 -3,59 c -4,71 2,76 81,76 h 57 v 63 c 0,35 3,67 7,71 4,4 34,6 68,4 l 60,-3 z"
       id="path2" />
  </g>
</svg>
