<?xml version="1.0" encoding="UTF-8" standalone="no"?>
<svg
   version="1.0"
   width="600pt"
   height="600pt"
   viewBox="0 0 600 599.99999"
   preserveAspectRatio="xMidYMid"
   id="svg1"
   sodipodi:docname="regeneration.svg"
   inkscape:version="1.3.2 (091e20e, 2023-11-25, custom)"
   xmlns:inkscape="http://www.inkscape.org/namespaces/inkscape"
   xmlns:sodipodi="http://sodipodi.sourceforge.net/DTD/sodipodi-0.dtd"
   xmlns="http://www.w3.org/2000/svg"
   xmlns:svg="http://www.w3.org/2000/svg">
  <defs
     id="defs1" />
  <sodipodi:namedview
     id="namedview1"
     pagecolor="#ffffff"
     bordercolor="#000000"
     borderopacity="0.25"
     inkscape:showpageshadow="2"
     inkscape:pageopacity="0.0"
     inkscape:pagecheckerboard="0"
     inkscape:deskcolor="#d1d1d1"
     inkscape:document-units="pt"
     inkscape:zoom="1.0323529"
     inkscape:cx="355.49859"
     inkscape:cy="394.72936"
     inkscape:window-width="2560"
     inkscape:window-height="1369"
     inkscape:window-x="1912"
     inkscape:window-y="515"
     inkscape:window-maximized="1"
     inkscape:current-layer="svg1"
     showguides="true" />
  <g
     transform="matrix(0.14248584,0,0,-0.14248584,-123.66518,709.14783)"
     fill="#000000"
     stroke="none"
     id="g2"
     inkscape:label="backdrop">
    <path
       id="path2"
       d="m 2965.2793,1031.2637 c -23.3593,0.1402 -46.7286,2.1779 -69.6899,6.5212 -20.3625,3.5318 -40.9728,6.268 -60.742,12.5064 -21.2469,6.5714 -41.2116,16.7656 -59.929,28.685 -26.1164,16.6477 -50.336,36.0415 -74.1049,55.839 -27.4619,22.9883 -54.1151,46.9193 -80.6047,71.0151 -39.6085,36.1621 -78.6394,72.9517 -117.5298,109.8835 -66.3081,63.023 -132.082,126.6043 -197.7978,190.2426 -72.3259,70.0895 -144.4792,140.3568 -216.6254,210.6311 -116.5668,113.575 -233.0765,227.2084 -349.5912,340.8368 -75.6398,73.831 -151.063,147.8865 -226.2761,222.1517 -65.8142,65.0253 -131.4834,130.1976 -196.7762,195.7479 -31.3727,31.499 -62.6573,63.0874 -93.7659,94.8475 -23.5091,24.0475 -46.9346,48.1798 -69.9796,72.6735 -10.0589,10.7474 -20.0507,21.5659 -29.6177,32.756 -5.2089,6.1855 -9.992,12.71 -14.7044,19.2767 -40.0036,55.1737 -74.5557,114.1838 -104.6569,175.2903 -31.38359,63.8654 -57.84641,130.1402 -79.23609,198.006 -12.10005,38.4462 -22.56088,77.4164 -31.08515,116.8125 -4.11275,19.9062 -6.71555,40.0832 -9.15498,60.2507 -4.19074,35.4672 -7.14743,71.0698 -9.48787,106.7032 -3.34241,51.9035 -4.78831,103.9554 -3.35402,155.9564 1.24853,45.2384 4.77841,90.4372 11.26763,135.2343 7.24501,50.2609 18.11461,99.9727 31.93044,148.8288 8.20443,29.0878 17.29495,57.925 27.1716,86.488 41.29171,118.493 100.28884,230.7465 174.02974,332.2537 89.3511,123.0643 200.2949,230.4942 326.6006,315.2514 79.3385,53.2679 164.7218,97.6026 254.1791,131.256 69.0519,25.9977 140.5141,45.6377 213.2107,58.2914 27.7871,4.769 55.85,7.6958 83.9217,10.1773 30.0479,2.5913 60.1746,4.3536 90.3305,4.9426 29.3711,0.5123 58.7689,0.053 88.0867,-1.8518 120.2374,-7.6464 238.9004,-36.498 349.9137,-83.1342 91.3835,-38.3885 177.7111,-88.8549 255.8232,-149.8866 48.6878,-38.0416 94.1778,-80.2009 135.5781,-126.0745 15.0407,-16.6233 29.4649,-33.796 43.4509,-51.3136 4.1856,-5.1974 8.3712,-10.3947 12.5568,-15.592 10.836,13.0295 21.604,26.1161 32.5364,39.0652 49.5517,58.3148 105.1734,111.4976 165.8725,158.1115 59.6883,45.8702 124.2081,85.3874 191.9223,118.2449 67.2933,32.6953 137.6611,58.9146 209.6099,79.3465 14.6352,4.1356 29.2826,8.2558 44.0922,11.728 22.5848,5.2653 45.5346,8.9402 68.6251,11.0775 32.0552,3.0941 64.2695,3.9494 96.4499,4.6246 25.8462,0.4932 51.6976,0.7672 77.5487,0.7944 39.4346,-0.088 78.8908,-0.1389 118.2859,-2.1053 29.0691,-1.5167 58.1124,-4.5293 86.6668,-10.2864 24.67,-4.8652 49.0248,-11.1795 73.2752,-17.7931 31.4596,-8.9659 62.2745,-20.0237 92.853,-31.6031 33.4484,-12.765 66.5436,-26.4755 99.0862,-41.405 34.3719,-15.86 67.9433,-33.4332 100.7384,-52.3331 78.4237,-45.264 152.0621,-98.8208 219.2237,-159.5564 67.412,-60.916 128.2896,-129.0433 181.3791,-202.7734 62.8386,-87.2469 114.7243,-182.3397 154.4007,-282.2622 36.0069,-90.6595 62.0316,-185.2579 77.7808,-281.5193 4.2666,-26.1609 7.3068,-52.5206 9.0931,-78.967 2.166,-31.9061 2.5909,-63.905 2.282,-95.8749 -0.2673,-25.2897 -1.0126,-50.5721 -1.9736,-75.844 -1.7554,-44.4163 -5.0811,-88.79 -10.7409,-132.8866 -5.6544,-44.2382 -13.6631,-88.1896 -24.4035,-131.4809 -11.4868,-46.4386 -26.0307,-92.1016 -43.0874,-136.7893 -11.6076,-30.5485 -24.3682,-60.6526 -38.0336,-90.336 -20.7229,-45.1876 -43.5971,-89.4545 -69.9242,-131.6505 -23.2021,-37.2877 -48.9436,-72.9666 -76.5387,-107.1215 -33.022,-40.9488 -68.4991,-79.8476 -104.8402,-117.8573 -39.0684,-40.8248 -79.3182,-80.494 -119.7288,-119.9838 -125.2869,-122.6275 -250.5678,-245.2587 -375.94,-367.799 -104.8219,-102.4582 -209.7063,-204.8563 -314.676,-307.1654 -98.0245,-95.56 -196.0736,-191.0948 -294.1762,-286.5745 -66.3814,-64.5705 -132.796,-129.1063 -199.6506,-193.1871 -31.2721,-29.943 -62.6617,-59.7667 -94.4727,-89.1377 -20.4399,-18.8291 -41.0738,-37.4631 -62.3864,-55.3038 -14.0566,-11.7116 -28.4834,-23.0264 -43.7537,-33.1241 -9.6177,-6.3658 -19.6188,-12.141 -29.8944,-17.3759 -12.7988,-6.6168 -25.9919,-12.4806 -39.5424,-17.3846 -25.2455,-9.2179 -51.4263,-15.7492 -77.9108,-20.2282 -27.5363,-4.6214 -55.4672,-6.9165 -83.3896,-6.7871 z m -803.7051,1120.539 c 4.9112,0.054 9.823,0.2697 14.7129,0.7383 0.307,2.4446 0.5598,4.8957 0.7793,7.3496 0.023,0.2433 0.1009,1.1953 0.145,1.7117 0.6809,8.4207 0.9708,16.868 0.9901,25.3152 0.061,11.7491 -0.017,23.4985 0.019,35.2477 0,26.54 0,53.08 0,79.62 40.1797,0.01 80.3599,-0.061 120.5393,0.059 3.2582,0.052 6.9866,0.188 9.9414,0.3193 6.4386,0.2987 12.8669,0.8223 19.2634,1.6179 0.4513,7.3583 0.2241,14.7581 -0.5839,22.084 -0.3939,3.3461 -0.942,6.6759 -1.711,9.9571 -6.2936,1.1915 -12.7007,1.6342 -19.0865,2.0009 -14.6311,0.6848 -29.2814,0.2902 -43.9217,0.394 -27.0689,0.01 -54.1377,0.01 -81.2066,0.015 -2.0241,45.8036 -4.0496,91.6072 -6.0879,137.4102 -3.3317,0.165 -6.6882,0.3397 -9.9503,0.4956 -7.6971,0.3545 -15.3937,0.7869 -23.1005,0.8442 -0.7192,-15.3362 -0.496,-30.6937 -0.5443,-46.0414 0.01,-30.9074 5e-4,-61.8148 -6e-4,-92.7222 -40.231,-0.011 -80.4622,0.072 -120.6929,-0.067 -6.0664,-0.09 -12.1359,-0.1604 -18.1938,-0.5172 0.1602,-11.0074 0.9056,-21.9944 1.4218,-32.9883 45.8247,-2.0328 91.6487,-4.0815 137.4727,-6.1289 0.011,-39.1479 -0.067,-78.2961 0.065,-117.4436 0.1722,-9.5301 0.7266,-19.0588 1.8584,-28.5252 2.2264,-0.2246 4.459,-0.3837 6.6934,-0.5039 0.081,-0.01 1.1455,-0.054 1.5898,-0.076 0.1546,-7e-4 1.1305,-0.042 1.6035,-0.059 2.6606,-0.082 5.3226,-0.1097 7.9844,-0.1075 z m 720.7188,26.4629 c 13.9983,0.049 27.9958,0.2288 41.9922,0.4629 0.488,0.01 1.3335,0.026 1.9586,0.037 11.0931,0.2083 22.1844,0.4964 33.2757,0.7809 1.4141,0.037 3.0655,0.086 4.5709,0.1271 30.2113,0.8649 60.4199,1.8309 90.6368,2.4846 10.9577,0.2597 21.9156,0.5133 32.8724,0.8121 1.9974,0.054 4.1983,0.12 6.274,0.1786 10.5138,0.3111 21.026,0.7038 31.5287,1.2823 0.3948,0.02 1.1988,0.069 1.7502,0.1003 0.7067,0.042 1.5441,0.087 2.0883,0.1237 12.3312,0.7766 24.6894,1.7403 36.8429,4.0493 5.2352,1.0724 10.5491,2.195 15.3725,4.5739 1.2464,0.6138 2.4873,1.371 3.1666,2.6342 1.8955,3.3021 3.0396,6.9789 4.0113,10.6432 2.8124,11.3957 4.0934,23.1023 5.0173,34.7828 1.0934,13.8769 1.6531,27.7889 2.081,41.7001 0.013,0.3703 0.033,1.2003 0.049,1.7466 0.9786,34.9192 1.3281,69.852 2.1451,104.7749 1.3646,62.9957 2.8302,125.9891 4.234,188.984 0.7318,32.5099 1.4639,65.0197 2.1955,97.5296 93.0584,1.2975 186.1162,2.638 279.1755,3.8692 23.5036,0.2516 47.1522,0.5621 70.5628,0.9433 17.324,0.3247 34.6479,0.6968 51.9648,1.3028 0.3956,0.019 1.1998,0.046 1.7518,0.068 1.6361,0.062 3.2722,0.1239 4.9084,0.1859 0.3528,0.012 1.1996,0.052 1.7416,0.074 6.059,0.2513 12.1152,0.5635 18.1685,0.9257 0.2935,0.016 1.1979,0.077 1.726,0.1097 4.2501,0.262 8.4949,0.6029 12.7369,0.9723 0.3087,0.025 1.1954,0.1107 1.7258,0.159 7.3357,0.7124 14.6901,1.5567 21.861,3.3075 2.7039,0.6862 5.3512,1.6906 7.6374,3.3179 4.7995,3.3481 9.736,6.7791 13.2,11.5858 3.9195,5.6861 5.9618,12.3983 7.6188,19.0329 2.9911,12.3462 4.3776,25.0097 5.4704,37.6443 0.047,0.5822 0.1158,1.3619 0.1447,1.7672 0.5258,6.5551 0.899,13.1212 1.2169,19.6893 0.015,0.2944 0.052,1.1992 0.076,1.728 0.2334,5.13 0.4084,10.2624 0.5702,15.395 0.014,0.3891 0.033,1.17 0.049,1.709 0.081,3.1984 0.1474,6.397 0.2109,9.5957 0,0.4043 0.019,1.2006 0.027,1.7549 0.8577,48.5879 -0.4496,97.1755 -1.182,145.756 -0.7145,43.5908 -1.429,87.1816 -2.1435,130.7723 -7.2556,7.0606 -14.6202,14.0706 -21.7382,21.3005 -4.679,4.825 -9.3581,9.65 -14.0372,14.4749 -156.5254,2.1333 -313.0507,4.2681 -469.5761,6.4004 0,155.7162 0,311.4323 0,467.1485 -1.8814,1.9466 -3.8892,4.0209 -5.6856,5.8886 -2.979,3.0207 -5.8644,6.1411 -8.9528,9.0493 -8.7016,7.6289 -18.792,13.7008 -29.6566,17.6988 -4.4162,1.5665 -9.0651,2.2881 -13.7035,2.817 -9.1021,1.0469 -18.2624,1.439 -27.4058,1.9486 -1.7753,0.081 -3.7825,0.1801 -5.4141,0.252 -1.8197,0.077 -3.6393,0.1549 -5.459,0.2324 -0.6716,0.03 -1.6656,0.065 -2.461,0.097 -18.5869,0.7186 -37.1838,1.1443 -55.7812,1.4751 -1.6562,0.023 -3.5329,0.056 -5.2739,0.082 -34.6578,0.5361 -69.3218,0.758 -103.9829,0.4368 -18.456,-0.1385 -36.9124,-0.2715 -55.3662,-0.5951 -1.1815,-0.019 -2.6173,-0.051 -3.8965,-0.074 -5.557,-0.1168 -11.1137,-0.2505 -16.6699,-0.4003 -0.2401,-0.01 -1.173,-0.037 -1.6797,-0.057 -9.7821,-0.3108 -19.5127,-0.7226 -29.2774,-1.3691 -0.3266,-0.019 -1.1977,-0.083 -1.7331,-0.1193 -0.6484,-0.046 -1.2797,-0.087 -1.8044,-0.1291 -3.0699,-0.221 -6.1375,-0.4724 -9.2027,-0.7516 -0.3003,-0.025 -1.195,-0.1132 -1.7236,-0.1626 -8.2387,-0.7929 -16.462,-1.8361 -24.5908,-3.4097 0.011,0.01 -1.1158,-0.226 -1.5372,-0.3107 -6.4461,-1.3845 -12.897,-3.0224 -18.9175,-5.7604 -3.9735,-1.8112 -7.7746,-4.3505 -10.191,-8.0697 -3.203,-4.733 -5.0307,-10.2258 -6.6254,-15.6679 -1.088,-3.8557 -1.9577,-7.7701 -2.7055,-11.705 -0.046,-0.2406 -0.2201,-1.1693 -0.3094,-1.6775 -1.4297,-7.9106 -2.382,-15.8981 -3.1379,-23.8986 -0.024,-0.3005 -0.1081,-1.1956 -0.155,-1.7243 -0.061,-0.6857 -0.1033,-1.1007 -0.1515,-1.688 -0.2365,-2.7063 -0.441,-5.4152 -0.6349,-8.1248 -0.018,-0.3352 -0.08,-1.198 -0.1146,-1.7355 -0.686,-10.3076 -1.0956,-20.631 -1.4108,-30.956 -0.014,-0.4042 -0.034,-1.2002 -0.05,-1.7543 -0.1713,-5.842 -0.2882,-11.6853 -0.384,-17.5289 -0.012,-1.0308 -0.034,-2.3331 -0.05,-3.4683 -0.5292,-36.4618 -0.3054,-72.9284 -0.3562,-109.3926 0.01,-86.0965 0.01,-172.193 0.015,-258.2894 -105.7627,-4e-4 -211.5255,0.01 -317.2883,-0.036 -17.4189,-0.052 -34.8382,-0.1606 -52.2547,-0.4742 -0.7671,-0.014 -1.8363,-0.035 -2.7216,-0.056 -15.1326,-0.3366 -30.2671,-0.7988 -45.3721,-1.8017 -1.6651,-0.1203 -3.55,-0.2429 -5.2989,-0.3775 -11.6582,-0.8763 -23.3122,-2.058 -34.8222,-4.146 0,0 -1.1193,-0.2128 -1.543,-0.2927 -8.0752,-1.6048 -16.1753,-3.517 -23.6927,-6.9531 -4.096,-1.9339 -8.1142,-4.4147 -10.7842,-8.1655 -3.4554,-4.6762 -5.3719,-10.2567 -7.0492,-15.7645 -2.6993,-9.3458 -4.1273,-19.001 -5.2962,-28.6405 -1.4533,-12.3664 -2.1565,-24.8055 -2.705,-37.2403 -0.049,-1.2054 -0.1032,-2.6647 -0.1542,-3.9677 -0.027,-0.6913 -0.043,-1.1115 -0.061,-1.7043 -0.049,-1.4738 -0.1021,-3.2 -0.1485,-4.5175 -0.1183,-4.2426 -0.2362,-8.3538 -0.321,-12.6217 -0.047,-2.6671 -0.095,-5.3342 -0.1419,-8.0013 0,-0.389 -0.015,-1.17 -0.021,-1.709 -0.497,-36.3013 -0.2606,-72.6068 -0.3398,-108.9101 -0.01,-25.7932 -0.071,-51.588 0.3301,-77.379 0.013,-0.889 0.036,-2.0664 0.053,-3.0663 0.4098,-20.2009 1.0094,-40.433 3.2819,-60.5242 1.3316,-11.2513 3.0893,-22.5752 7.1063,-33.222 1.7523,-4.3663 4.0458,-8.8352 8.0673,-11.5212 4.8861,-3.3907 10.6501,-5.1761 16.3194,-6.7698 11.0252,-2.9048 22.375,-4.307 33.6985,-5.4406 6.5046,-0.6199 13.0238,-1.0738 19.5476,-1.4344 0.3109,-0.019 1.1989,-0.062 1.7312,-0.09 3.6325,-0.1978 7.2669,-0.3544 10.9016,-0.5058 0.3087,-0.01 1.1453,-0.042 1.6562,-0.061 3.205,-0.1137 6.6506,-0.227 9.7071,-0.3203 1.9708,-0.051 3.9853,-0.1103 5.863,-0.1526 3.308,-0.082 6.708,-0.153 9.9266,-0.208 26.54,-0.4449 53.0849,-0.381 79.6276,-0.39 80.5666,0.036 161.1333,0.01 241.7,0.016 20.1666,0 40.3333,0 60.5,0 0.01,-108.6057 -0.036,-217.2115 0.054,-325.8172 0.052,-26.123 0.1776,-52.2467 0.6177,-78.3664 0.012,-0.7668 0.034,-1.8374 0.051,-2.7221 0.082,-4.9311 0.2291,-9.8595 0.3552,-14.7896 0.01,-0.2456 0.039,-1.1678 0.055,-1.6739 0.2098,-6.7361 0.4618,-13.4714 0.8261,-20.2011 0.023,-0.3443 0.069,-1.1987 0.1011,-1.7385 0.5436,-8.7981 1.1225,-17.6219 2.6629,-26.3123 0.4966,-2.3918 0.7983,-4.9036 1.9743,-7.0801 2.6242,-3.275 5.0771,-6.7357 8.1699,-9.5976 3.5891,-3.2026 8.1394,-4.993 12.6562,-6.4496 8.3146,-2.6502 16.9818,-3.9335 25.6056,-5.1051 7.5372,-0.9414 15.108,-1.5931 22.6875,-2.0781 0.361,-0.025 1.1984,-0.074 1.7419,-0.1078 0.6979,-0.043 1.0616,-0.066 1.6385,-0.094 8.7041,-0.4862 17.416,-0.8342 26.1313,-1.0381 0.3789,-0.011 1.2004,-0.026 1.7488,-0.038 11.1404,-0.234 22.2843,-0.3133 33.427,-0.3001 z m 1253.4101,343.5117 c 6.9376,0.1028 13.8955,0.036 20.8028,0.7891 1.1453,8.4895 1.4109,17.0683 1.5935,25.6237 0.221,13.0892 0.082,26.1809 0.1233,39.2712 0,30.4107 0,60.8214 0,91.2321 49.1537,2.0262 98.3076,4.0494 147.4609,6.0878 0.2526,5.0124 0.5052,10.0248 0.7578,15.0372 0.036,0.6713 0.079,1.665 0.1171,2.4601 0.2305,5.0699 0.5066,10.1272 0.5919,15.2254 -1.8007,0.1067 -3.6023,0.1968 -5.4043,0.2773 -0.2202,0.012 -1.198,0.046 -1.7108,0.067 -0.7106,0.029 -1.0089,0.037 -1.6845,0.058 -12.7433,0.3899 -25.495,0.2865 -38.2426,0.3212 -33.9644,-0.01 -67.9289,-0.01 -101.8934,-0.015 -0.01,39.257 0.069,78.5142 -0.058,117.771 -0.024,1.3368 -0.048,2.6735 -0.073,4.0102 -0.011,0.3115 -0.03,1.2002 -0.044,1.7331 -0.1985,8.7491 -0.631,17.4924 -1.2745,26.2201 -10.4368,0.3767 -20.8873,0.3068 -31.3248,-0.01 -0.9855,-0.038 -1.971,-0.077 -2.9564,-0.1152 -1.067,-21.7941 -0.5944,-43.6203 -0.7071,-65.4305 0,-28.0616 0,-56.1232 0,-84.1848 -43.4581,0 -86.9165,0.069 -130.3745,-0.055 -2.2723,-0.041 -4.5451,-0.057 -6.8169,-0.1226 -0.3957,-0.016 -1.2001,-0.038 -1.7522,-0.057 -6.7277,-0.2364 -13.474,-0.4884 -20.1442,-1.4549 -0.8618,-8.1386 -0.8389,-16.3367 -0.8938,-24.511 0.01,-2.8495 0.05,-5.7 0.2063,-8.5457 2.9469,-0.3803 5.9099,-0.6203 8.873,-0.8339 0.3946,-0.031 1.1977,-0.084 1.7487,-0.124 4.9203,-0.3198 9.8499,-0.4667 14.7786,-0.5792 0.3536,-0.01 1.2006,-0.022 1.7431,-0.033 14.0289,-0.2253 28.0602,-0.062 42.0901,-0.1141 30.1832,0 60.3665,-0.01 90.5497,-0.01 0.01,-46.6577 -0.067,-93.3156 0.066,-139.973 0.043,-3.4622 0.077,-6.9246 0.1487,-10.3864 0.011,-0.2615 0.032,-1.1994 0.047,-1.7213 0.061,-2.5889 0.1633,-5.1769 0.2972,-7.7631 4.4519,-0.1274 8.9059,-0.1333 13.3593,-0.1465 z m -2409.2363,769.7559 c 23.4686,0.1293 46.9373,0.258 70.4062,0.2998 17.726,0.103 35.4623,0.1923 53.1676,1.1365 1.2305,0.07 2.4601,0.1548 3.6899,0.2375 2.2592,21.0111 3.3288,42.131 3.9981,63.2463 0.084,2.5262 0.138,5.0532 0.205,7.5799 0.01,0.365 0.025,1.1474 0.034,1.6765 0.4324,24.117 0.1814,48.2386 0.2548,72.3579 0,37.1702 0,74.3403 0,111.5105 85.4798,2.0114 170.9596,4.0207 256.4394,6.0313 0.4864,16.8272 0.9814,33.7794 1.4375,50.5293 0.3046,11.8817 0.6687,23.763 0.6986,35.6495 0.034,6.1385 0,12.2773 -0.1127,18.4149 -0.01,0.4021 -0.025,1.4665 -0.034,1.7426 -0.04,1.5194 -0.078,3.0388 -0.1165,4.5582 0,0.2262 -0.037,1.1456 -0.053,1.6387 -0.04,1.2304 -0.081,2.4609 -0.1211,3.6914 -0.012,0.1499 -0.048,1.1347 -0.07,1.6094 -0.082,1.7169 -0.1513,3.4344 -0.2519,5.1504 -0.025,0.361 -0.073,1.1985 -0.1069,1.742 -0.104,1.8614 -0.2401,3.7207 -0.3736,5.5802 -10.1985,0.9054 -20.4322,1.3434 -30.6641,1.6543 -0.3957,0.014 -1.2002,0.033 -1.7524,0.049 -22.045,0.583 -44.0999,0.5977 -66.1511,0.6046 -52.9247,-0.013 -105.8495,0 -158.7742,0 -0.01,57.5023 0.049,115.0048 -0.053,172.507 -0.05,4.8125 -0.1309,9.6246 -0.2283,14.4364 -0.012,0.3198 -0.031,1.2001 -0.045,1.7349 -0.099,4.4773 -0.2415,8.9532 -0.3886,13.4291 -0.01,0.286 -0.046,1.1993 -0.066,1.7264 -0.6801,18.0148 -1.7287,36.0254 -3.6204,53.9569 -0.01,0.6917 -0.055,1.1144 -0.8104,0.9569 -5.4955,0.3613 -11.0011,0.5429 -16.505,0.7231 -0.2862,0 -1.1998,0.03 -1.7271,0.042 -1.129,0.029 -2.5575,0.064 -3.4979,0.091 -1.8312,0.038 -3.6625,0.07 -5.4938,0.1054 -0.3788,0 -1.2006,0.016 -1.749,0.023 -21.8092,0.3136 -43.6231,0.356 -65.4329,0.079 -0.9704,-0.016 -1.9381,-0.027 -2.8027,-0.044 -1.9472,-0.037 -3.8943,-0.074 -5.8415,-0.1115 -0.3619,-0.012 -1.2004,-0.03 -1.7448,-0.044 -7.9015,-0.1801 -15.8015,-0.4453 -23.6947,-0.8529 -0.3864,-0.018 -1.1989,-0.065 -1.7485,-0.094 -0.5829,-0.033 -1.2385,-0.065 -1.6623,-0.094 -3.0742,-0.1784 -6.1471,-0.3809 -9.2181,-0.609 -0.4029,-0.034 -1.1971,-0.092 -1.7498,-0.1357 -1.8229,-0.1364 -3.6424,-0.3135 -5.4631,-0.4756 -0.3515,-3.6273 -0.6272,-7.2612 -0.8808,-10.8965 -0.019,-0.2606 -0.077,-1.1974 -0.1117,-1.7182 -0.1337,-1.9909 -0.2444,-3.9832 -0.361,-5.9752 -0.018,-0.3949 -0.064,-1.199 -0.093,-1.7505 -0.038,-0.7062 -0.076,-1.4124 -0.1141,-2.1186 -0.017,-0.2943 -0.057,-1.199 -0.082,-1.7277 -0.039,-0.8649 -0.097,-2.0154 -0.1248,-2.6984 -0.1261,-2.9174 -0.24,-5.8353 -0.3435,-8.7536 -0.019,-0.488 -0.044,-1.3331 -0.066,-1.9579 -0.7694,-23.9274 -0.728,-47.8708 -0.7197,-71.8077 0.01,-49.3171 0,-98.6341 3e-4,-147.9512 -61.1486,0 -122.2974,0.044 -183.446,-0.052 -10.682,-0.09 -21.3643,-0.2228 -32.0422,-0.5397 -0.3235,-0.015 -1.1738,-0.039 -1.6993,-0.057 -13.4214,-0.4055 -26.8446,-1.0042 -40.2168,-2.2559 -1.3244,-11.8111 -1.9882,-23.6832 -2.5175,-35.5527 -0.011,-0.2245 -0.045,-1.1416 -0.064,-1.6328 -0.039,-1.0391 -0.08,-2.0782 -0.1191,-3.1172 -0.01,-0.3363 -0.039,-1.2001 -0.055,-1.7385 -0.1039,-2.8475 -0.1585,-5.6964 -0.2341,-8.5447 -0.01,-0.3006 -0.023,-1.1453 -0.033,-1.6543 -0.024,-1.4658 -0.058,-3.0719 -0.075,-4.4101 -0.1991,-12.8637 -0.1319,-25.7317 0.2297,-38.5919 0.015,-0.3787 0.038,-1.2001 0.056,-1.7483 0.1406,-4.6147 0.3253,-9.228 0.5457,-13.8396 0.016,-0.3611 0.061,-1.1991 0.089,-1.7429 0.034,-0.6515 0.083,-1.641 0.1086,-2.0891 0.2861,-5.2671 0.6604,-10.5935 1.1231,-15.8789 0.015,-0.1896 0.1088,-1.1689 0.1543,-1.6641 12.3145,-0.758 24.6683,-1.3955 36.9558,-1.8886 0.978,-0.04 2.0158,-0.086 2.8778,-0.1206 6.5678,-0.2644 13.1372,-0.4847 19.7074,-0.6822 0.3958,-0.014 1.2002,-0.033 1.7525,-0.049 2.8523,-0.075 5.7645,-0.16 8.5315,-0.2251 14.6772,-0.3639 29.3566,-0.6401 44.0324,-1.0604 44.6619,-1.1586 89.4033,-2.3402 134.0981,-3.5091 1.4321,-0.037 2.8643,-0.075 4.2964,-0.112 1.2266,-64.7642 2.4442,-129.5287 3.7732,-194.291 0.1077,-5.6121 0.2382,-11.358 0.3714,-16.8847 0.363,-12.9963 0.6496,-26.0127 1.9341,-38.9582 0.1121,-1.0493 0.2352,-2.0976 0.3764,-3.1434 8.042,-0.647 16.1189,-0.5592 24.1797,-0.6504 z m 2396.1035,1.6602 c 8.5507,0.027 17.1009,0.1252 25.6504,0.2675 0.8828,0.015 2.0531,0.036 3.0467,0.059 6.1636,0.139 12.4107,0.2923 18.5217,0.4435 18.4692,0.4784 36.9373,0.9954 55.4062,1.4863 3.3269,83.1511 6.6535,166.3021 9.9805,249.4531 86.4883,3.3247 172.9765,6.6526 259.4648,9.9786 0.6698,23.4299 1.3795,46.8592 1.9486,70.2917 0.2967,16.5486 0.3987,33.1114 -0.3665,49.6497 -0.018,0.2859 -0.06,1.1987 -0.088,1.7255 -0.1482,3.1185 -0.3454,6.2099 -0.5665,9.2881 -13.4219,1.2128 -26.9008,1.5775 -40.3672,1.9258 -0.3704,0.01 -1.2005,0.023 -1.747,0.034 -35.2312,0.6568 -70.47,0.3443 -105.705,0.4269 -39.1091,0 -78.2182,0 -117.3273,0 -2.0113,85.4537 -4.0207,170.9075 -6.0313,256.3613 -15.6139,0.4245 -31.2278,0.8489 -46.8418,1.2734 -6.3253,0.1587 -12.7865,0.3276 -19.164,0.4903 -0.9786,0.025 -1.9571,0.051 -2.9356,0.076 -0.3115,0.01 -1.2002,0.024 -1.7332,0.035 -15.7229,0.3288 -31.4525,0.4899 -47.1769,0.172 -0.3198,-0.012 -1.2002,-0.032 -1.735,-0.047 -6.735,-0.172 -13.47,-0.4206 -20.1908,-0.9006 -1.2834,-13.8726 -1.8496,-27.8005 -2.2637,-41.7227 -0.023,-1.0306 -0.059,-2.3327 -0.086,-3.4676 -0.6499,-27.1945 -0.4633,-54.3993 -0.4751,-81.5992 -0.023,-43.5591 0,-87.1182 -0.011,-130.6773 -67.5812,0 -135.1625,0.051 -202.7437,-0.056 -8.6227,-0.049 -17.2455,-0.097 -25.8676,-0.2229 -0.3703,0 -1.2005,-0.021 -1.747,-0.03 -1.7243,-0.03 -3.4486,-0.061 -5.1729,-0.091 -0.3535,-0.011 -1.2004,-0.028 -1.7429,-0.042 -9.8334,-0.2302 -19.6713,-0.4991 -29.4817,-1.2414 -1.6733,-14.0788 -2.4057,-28.2532 -2.7956,-42.4201 -0.025,-1.0501 -0.05,-2.1002 -0.075,-3.1502 -0.01,-0.2994 -0.021,-1.1595 -0.031,-1.6738 -0.297,-16.4832 -0.091,-33.1466 0.7411,-49.6776 0.046,-0.8697 0.1045,-2.0546 0.1418,-2.7287 0.3848,-6.9251 0.9038,-13.8431 1.5585,-20.748 0.024,-0.1854 0.123,-1.1916 0.1759,-1.6949 0.3587,-3.5144 0.7781,-7.023 1.2929,-10.518 13.064,-1.5396 26.3988,-2.1736 39.418,-2.7188 2.7155,-0.1041 5.431,-0.2083 8.1465,-0.3125 0.2781,0 1.1669,-0.037 1.6796,-0.051 19.5973,-0.6581 39.2031,-1.0142 58.8046,-1.5196 50.4638,-1.2546 100.9271,-2.5232 151.3908,-3.7831 1.57,-60.031 3.1937,-120.0584 4.6784,-180.0915 0.028,-0.9713 0.051,-1.8326 0.082,-2.7256 0.5381,-16.6209 1.4139,-33.2341 2.8373,-49.804 0.015,-0.1935 0.1088,-1.1932 0.1543,-1.6987 0.3133,-3.4684 0.6318,-6.9128 1.0176,-10.3696 0.1195,-1.0241 0.2628,-2.3186 0.3914,-3.4466 0.1256,-1.0823 0.2633,-2.1631 0.3937,-3.2449 12.4972,-0.8403 25.0269,-0.9104 37.5469,-0.9628 z m -1702.3691,223.9804 c 4.035,8.9765 9.9755,17.1282 17.5176,23.4766 -9.8353,0.6864 -19.6706,1.3734 -29.5059,2.0586 0,4.6133 0,9.2265 0.01,13.8398 -4.451,-3.9527 -9.4598,-7.2662 -14.795,-9.9004 10.7569,-6.4236 19.6242,-15.9317 25.3219,-27.0877 0.4571,-0.886 0.9008,-1.7792 1.3246,-2.6818 0.044,0.098 0.087,0.1966 0.1309,0.2949 z m 994.4433,289.6016 c 6.9362,0 13.8809,6e-4 20.8203,0 1.9957,45.0038 4.0073,90.0069 6.0235,135.0098 39.396,0.01 78.7924,-0.077 118.1882,0.069 3.6477,0.047 7.2958,0.085 10.9426,0.1807 0.3703,0.016 1.2001,0.039 1.7464,0.058 1.8717,0.056 3.7432,0.1223 5.613,0.2254 0.2503,9.0502 0.2567,18.1052 0.2442,27.1582 -43.8615,1.9523 -87.7237,3.8901 -131.586,5.8242 -3.3478,46.8281 -6.6925,93.6563 -10.039,140.4844 -8.0612,0.4147 -16.1194,0.9329 -24.1895,1.1348 -0.8993,-19.5089 -0.58,-39.0441 -0.6309,-58.5664 0,-28.9558 0,-57.9115 0,-86.8672 -45.8922,-2.0568 -91.7846,-4.1086 -137.6777,-6.1445 -0.2047,-3.6605 -0.4044,-7.4022 -0.5904,-10.9803 -0.1969,-3.9867 -0.433,-7.9721 -0.5248,-11.9631 14.9485,-0.8063 29.9258,-0.5781 44.8894,-0.6243 30.2127,0.01 60.4253,4e-4 90.6379,-7e-4 2.0165,-44.9996 4.0277,-89.9995 6.0235,-135 h 0.1 z"
       style="fill:#ffffff;fill-opacity:1" />
  </g>
  <g
     transform="matrix(0.14248584,0,0,-0.14248584,-123.66518,709.14783)"
     fill="#000000"
     stroke="none"
     id="g1">
    <path
       d="m 1915,4664 c -430,-76 -798,-404 -935,-832 -47,-145 -63,-264 -57,-427 3,-77 12,-173 21,-213 38,-172 116,-347 213,-477 29,-39 300,-310 606,-609 1076,-1049 1014,-994 1146,-1018 71,-13 169,0 232,33 54,27 99,68 484,443 308,300 465,453 943,921 205,201 275,295 352,472 63,147 91,275 97,448 4,113 1,173 -11,242 -70,405 -321,742 -680,918 -61,30 -156,67 -211,82 -90,24 -117,27 -270,27 -142,-1 -183,-4 -247,-22 -239,-65 -428,-185 -571,-360 l -59,-71 -58,72 c -194,241 -504,389 -812,386 -56,0 -139,-7 -183,-15 z m 1575,-569 5,-70 68,-3 67,-3 v -58 c 0,-68 -4,-71 -85,-71 h -54 l -3,-67 -3,-68 h -60 -60 l -3,68 -3,67 h -57 c -77,0 -84,6 -80,71 l 3,54 68,3 67,3 v 68 c 0,37 3,71 7,75 4,4 32,6 63,4 l 55,-3 z M 1900,3981 c 5,-11 10,-69 10,-130 v -111 h 119 c 89,0 121,-3 130,-14 8,-9 11,-50 9,-117 l -3,-104 -127,-3 -128,-3 v -110 c 0,-61 -5,-119 -10,-130 -10,-17 -22,-19 -125,-19 -135,0 -124,-13 -128,150 l -2,105 -115,3 c -63,1 -121,5 -127,7 -18,6 -18,206 -1,223 8,8 52,12 130,12 h 118 v 118 c 0,78 4,122 12,130 8,8 49,12 120,12 96,0 108,-2 118,-19 z m 2378,-113 3,-128 h 123 c 94,0 126,-3 135,-14 8,-9 11,-50 9,-117 l -3,-104 -130,-5 -130,-5 -5,-125 -5,-125 -111,-3 c -83,-2 -114,1 -122,11 -7,7 -13,63 -14,128 l -3,114 -120,3 c -98,2 -122,5 -132,19 -16,21 -17,176 -3,204 10,17 22,19 135,19 h 125 v 118 c 0,80 4,122 12,130 9,9 46,12 123,10 l 110,-3 z M 3153,3683 c 23,-3 50,-18 68,-35 l 29,-30 v -218 -219 l 220,-3 220,-3 32,-33 33,-32 3,-183 c 4,-203 -3,-245 -47,-276 -26,-19 -46,-21 -242,-23 l -214,-3 -5,-222 c -7,-290 16,-266 -248,-274 -216,-7 -261,-1 -291,38 -20,24 -21,39 -21,244 v 219 h -218 c -301,0 -292,-9 -292,275 0,280 -5,275 304,275 h 206 v 210 c 0,304 -7,297 270,299 85,0 172,-2 193,-6 z m -693,-47 v -45 l 43,-3 c 41,-3 42,-4 45,-40 3,-40 4,-40 -53,-42 -29,-1 -30,-3 -33,-49 l -3,-48 -37,3 c -36,3 -37,4 -42,48 -5,42 -7,45 -35,46 -55,1 -56,2 -53,42 3,36 4,37 46,40 41,3 42,4 42,41 0,46 4,51 47,51 32,0 33,-1 33,-44 z m 1744,-732 c 3,-9 6,-42 6,-75 v -59 h 63 c 84,0 89,-5 85,-76 l -3,-59 -72,-3 -73,-3 v -69 c 0,-78 -10,-90 -74,-90 -63,0 -66,5 -66,86 v 74 h -68 c -79,0 -92,9 -92,63 0,67 11,77 90,77 h 70 v 68 c 0,38 3,72 7,75 3,4 32,7 64,7 43,0 58,-4 63,-16 z m -1976,-446 3,-68 h 59 c 40,0 64,-5 74,-16 19,-18 22,-94 4,-112 -7,-7 -39,-12 -75,-12 h -63 v -63 c 0,-36 -5,-68 -12,-75 -16,-16 -100,-16 -116,0 -7,7 -12,39 -12,75 v 62 l -67,3 -68,3 -3,59 c -4,71 2,76 81,76 h 57 v 63 c 0,35 3,67 7,71 4,4 34,6 68,4 l 60,-3 z"
       id="path1" />
  </g>
</svg>
