<?xml version="1.0" encoding="UTF-8" standalone="no"?>
<svg
   version="1.0"
   width="600pt"
   height="600pt"
   viewBox="0 0 600 600"
   preserveAspectRatio="xMidYMid"
   id="svg1"
   sodipodi:docname="resistance.svg"
   inkscape:version="1.3.2 (091e20ef0f, 2023-11-25, custom)"
   xmlns:inkscape="http://www.inkscape.org/namespaces/inkscape"
   xmlns:sodipodi="http://sodipodi.sourceforge.net/DTD/sodipodi-0.dtd"
   xmlns="http://www.w3.org/2000/svg"
   xmlns:svg="http://www.w3.org/2000/svg">
  <defs
     id="defs1" />
  <sodipodi:namedview
     id="namedview1"
     pagecolor="#000000"
     bordercolor="#000000"
     borderopacity="0.25"
     inkscape:showpageshadow="2"
     inkscape:pageopacity="0.0"
     inkscape:pagecheckerboard="0"
     inkscape:deskcolor="#d1d1d1"
     inkscape:document-units="pt"
     inkscape:zoom="1"
     inkscape:cx="431"
     inkscape:cy="398.5"
     inkscape:window-width="1872"
     inkscape:window-height="1032"
     inkscape:window-x="48"
     inkscape:window-y="-36"
     inkscape:window-maximized="1"
     inkscape:current-layer="svg1" />
  <g
     transform="matrix(0.15051926,0,0,-0.15032979,29.064671,570.84418)"
     fill="#000000"
     stroke="none"
     id="g1">
    <path
       id="path2"
       style="fill:#ffffff"
       d="m 1792.3359,471.26172 c -52.8444,0.26057 -105.7223,1.887 -158.373,6.59137 -23.2792,2.11828 -46.4975,5.09958 -69.4475,9.57615 -91.3992,17.18973 -180.8783,44.31906 -266.698,80.11439 -107.7137,44.93206 -209.7185,103.4769 -303.00248,173.60216 -70.12024,52.72123 -135.31766,112.02538 -194.14051,177.12256 -27.8592,30.85128 -54.31218,62.98161 -79.0856,96.36365 -26.1044,35.4974 -49.43186,72.9703 -70.95284,111.3989 -33.92507,60.6902 -63.27607,123.8819 -88.85262,188.5172 -21.34963,54.1675 -39.97517,109.4372 -55.04135,165.6868 -8.77815,32.8942 -16.32429,66.1327 -22.09139,99.6912 -4.42411,26.3358 -6.94951,52.9492 -8.85067,79.5731 -3.43016,48.8416 -4.61659,97.8183 -4.5242,146.7727 0.11911,45.621 1.45587,91.2528 4.69511,136.7637 1.72074,23.5661 3.99885,47.1101 7.61207,70.4676 3.0431,19.2736 6.95287,38.3995 11.16153,57.4487 9.88303,44.1714 22.35885,87.7368 36.58637,130.697 18.52956,55.748 40.14848,110.4621 64.52336,163.9107 22.33412,48.8817 47.05177,96.7038 74.71002,142.7938 16.72738,27.8052 34.57913,54.9552 53.96838,80.982 14.86834,19.7853 30.65186,38.8662 46.82959,57.59 27.7087,31.9581 56.80523,62.6957 86.79384,92.5181 28.68721,28.4795 58.27176,56.0626 88.83342,82.523 19.70341,17.0103 39.82584,33.5506 60.62857,49.2029 17.879,13.3227 36.2543,25.9711 54.9175,38.1675 50.5412,32.9331 103.485,62.0993 157.8551,88.1963 54.6185,26.1442 110.7753,49.0985 168.1554,68.4536 46.8332,15.7593 94.5292,29.0678 142.9704,38.888 18.579,3.7584 37.2764,6.9152 56.0424,9.581 32.1758,4.7703 64.3298,9.6867 96.4981,14.5059 12.0563,1.6558 24.226,2.2928 36.3802,2.6964 23.5254,0.7318 47.0693,0.3973 70.5934,-0.2145 34.6527,-0.9733 69.2789,-2.7941 103.8624,-5.1741 34.201,-2.3904 68.3652,-5.4114 102.4048,-9.5217 19.212,-2.3432 38.374,-5.1719 57.357,-8.9655 44.3097,-8.5967 88.1923,-19.4095 131.3909,-32.4966 65.1241,-19.7144 128.6994,-44.5508 189.9104,-74.2697 73.6811,-35.7462 143.9279,-78.5237 209.6905,-127.3193 56.6432,-42.0027 109.9802,-88.4305 159.681,-138.4465 26.8766,-27.0575 52.8385,-55.0408 77.3952,-84.2266 65.5106,-77.7167 121.9037,-163.0995 167.7561,-253.8114 25.6402,-50.692 48.0122,-103.0328 67.0015,-156.5716 25.1615,-71.0119 44.4049,-144.1197 57.4731,-218.3151 4.9519,-28.7191 7.5539,-57.7803 9.5642,-86.8344 3.1122,-46.0072 4.2071,-92.1301 4.2204,-138.2356 -0.062,-45.3674 -1.3045,-90.7464 -4.3962,-136.013 -1.6942,-24.2735 -3.9751,-48.5236 -7.5838,-72.5933 -2.5909,-16.7647 -5.9244,-33.4033 -9.3444,-50.0151 -13.9891,-67.1244 -33.0042,-133.1967 -56.7377,-197.5229 -28.0453,-76.0701 -62.7416,-149.7195 -104.0546,-219.4926 -16.3922,-27.9649 -33.1147,-55.7606 -51.2868,-82.6144 -14.5338,-21.546 -30.0143,-42.45623 -46.4769,-62.56875 -27.586,-33.75973 -57.4895,-65.52924 -87.6873,-96.94353 -13.7229,-14.28841 -27.6424,-28.39248 -41.9833,-42.06288 -67.8041,-64.86096 -142.8448,-122.05374 -222.8008,-171.11368 -77.7593,-47.68271 -160.2334,-87.67033 -245.8165,-119.22318 -73.4997,-27.0828 -149.3244,-47.9346 -226.4397,-61.7342 -26.5908,-4.70078 -53.4964,-7.34137 -80.4112,-9.32045 -47.4966,-3.4741 -95.1319,-4.70154 -142.7469,-4.77908 -2.8787,0.001 -5.7573,0.002 -8.636,0.003 z M 1799.9434,832 c 4.8952,0.0194 9.7904,0.0536 14.6855,0.10156 0.303,0.002 1.1787,0.0148 1.7039,0.023 16.0177,0.23433 32.5385,0.83124 48.2123,1.74482 2.2962,0.14118 4.5923,0.28237 6.8885,0.42355 0.1785,0.009 1.1948,0.081 1.6982,0.11446 19.1832,1.27339 38.332,3.06877 57.4151,5.40507 0.3008,0.0415 1.1283,0.14126 1.6308,0.20508 3.3057,0.41428 7.0183,0.8973 10.0659,1.30464 11.8828,1.6102 23.7379,3.42668 35.5552,5.46294 1.7186,0.30569 3.6223,0.636 5.4121,0.95117 0.2517,0.0421 1.1807,0.21318 1.6931,0.30495 13.9095,2.50125 27.7612,5.32322 41.5433,8.45091 0.3126,0.0689 1.1701,0.26851 1.6917,0.38754 8.6984,1.99155 17.3669,4.11257 26.0036,6.3566 0.2829,0.0707 1.161,0.30452 1.6725,0.43788 10.8391,2.83683 21.6241,5.87964 32.3509,9.11485 0.26,0.0759 1.148,0.34934 1.6496,0.50123 54.5838,16.59087 107.5692,38.44076 157.9569,65.19617 24.3904,12.94028 48.1728,27.021 71.2939,42.1112 0.2163,0.14798 1.0027,0.65898 1.4384,0.94668 8.8141,5.77644 17.6061,11.76018 26.169,17.79941 39.8984,28.12859 77.61,59.31889 113.0586,92.87109 0.2736,0.2646 0.8323,0.79 1.2149,1.1543 10.5003,9.97 20.7946,20.1559 30.9062,30.5196 0.1706,0.1709 0.8354,0.8607 1.1965,1.2316 2.4869,2.5532 4.9538,5.1256 7.4207,7.6981 0.2041,0.2203 0.827,0.8701 1.1918,1.2553 29.9851,31.5086 58.5893,64.3821 84.7577,99.1434 25.313,33.5773 48.2822,68.9432 68.2915,105.9351 12.4451,22.9558 23.7659,46.5165 34.0344,70.5236 0.1107,0.2711 0.4688,1.105 0.6745,1.5922 12.6352,29.6741 23.6738,60.0139 33.4602,90.7411 1.8925,5.9209 3.7389,11.8566 5.5743,17.7956 0.088,0.278 0.3502,1.148 0.5051,1.6535 0.6663,2.1864 1.3325,4.3729 1.9988,6.5594 0.1077,0.3696 0.3456,1.1499 0.5032,1.6767 0.5052,1.6813 1.0053,3.3641 1.5085,5.0459 0.1067,0.3471 0.3401,1.1516 0.4953,1.6738 8.4309,28.5494 16.0088,57.3849 21.536,86.6485 0.056,0.277 0.2207,1.1797 0.3185,1.6972 3.8969,20.7448 6.7379,41.6832 8.6074,62.7068 3.15,35.0106 3.9355,70.1836 4.0478,105.3198 0.07,35.4654 -0.3684,70.9636 -2.9507,106.3479 -0.8595,11.7476 -2.0186,23.9278 -3.4065,35.34 -3.2798,27.1114 -8.3895,53.985 -14.9192,80.4969 -7.0582,28.7701 -15.5747,57.1597 -24.5758,85.3749 -8.0413,25.0065 -16.6663,49.8386 -26.4353,74.227 -9.9005,24.6699 -21.0952,48.8254 -33.6895,72.2377 -0.1613,0.3087 -0.5373,0.999 -0.801,1.4902 -12.9509,24.0343 -27.1168,47.3932 -41.8383,70.3788 -0.1662,0.2652 -0.6492,1.0098 -0.937,1.459 -5.7435,8.9306 -11.534,17.8319 -17.4634,26.6406 -50.444,-49.6111 -100.5394,-99.5749 -150.6185,-149.5538 -60.6211,-60.5465 -121.1249,-121.2104 -181.5865,-181.9161 -66.1054,-66.3929 -132.1572,-132.8586 -198.1657,-199.3726 -169.3638,-170.6951 -338.4703,-341.6991 -507.165,-513.0756 -41.77,-42.4526 -83.5552,-85.0078 -125.2844,-127.5459 -22.3514,-22.8205 -44.703,-45.6407 -67.0237,-68.4911 -29.6544,-30.3955 -59.4013,-60.885 -88.9592,-91.4451 -5.845,-6.0554 -11.8133,-12.2242 -17.6997,-18.33403 -1.0733,-1.11465 -2.1466,-2.22929 -3.22,-3.34394 8.7202,-5.7606 17.4876,-11.44979 26.3086,-17.05469 0.2513,-0.15363 1.0155,-0.64003 1.4637,-0.92146 33.2068,-21.00203 67.2985,-40.7344 102.9535,-57.30681 20.5639,-9.61789 41.6045,-18.19456 62.934,-25.95998 6.642,-2.43167 13.3128,-4.784 20.0023,-7.08128 0.2976,-0.10531 1.1364,-0.38726 1.6416,-0.56034 22.4371,-7.65235 45.1295,-14.54207 67.9613,-20.91479 29.2979,-8.15933 58.9442,-15.14898 88.947,-20.17868 22.248,-3.77558 45.1695,-6.51359 67.3506,-8.27767 26.7767,-2.13278 53.636,-3.07075 80.4921,-3.34195 0.3535,6e-4 1.2007,-0.009 1.7433,-0.0127 5.6362,-0.0531 11.2727,-0.0622 16.9091,-0.0908 z m -799.8438,434.5801 c 31.4226,30.203 62.6628,60.5953 93.8645,91.0264 26.4199,25.7945 52.8168,51.6657 79.1492,77.5165 81.0961,79.6425 161.9133,159.5689 242.6011,239.6251 75.4116,74.8319 150.6776,149.8103 225.8366,224.8958 59.2511,59.1679 118.4968,118.3411 177.6384,177.6184 34.5336,34.6131 69.0918,69.3126 103.5864,104.0096 86.8341,87.3753 173.5278,174.9641 259.8364,262.9102 40.1182,40.9215 80.2526,81.9788 120.1127,123.2097 7.0313,7.2766 14.1157,14.6275 21.1618,21.9539 1.2211,1.2655 2.5849,2.6938 3.8608,4.0219 3.7705,3.927 7.5354,7.8595 11.2955,11.7965 -52.9533,34.05 -107.7077,65.6157 -165.4538,90.8602 -16.0308,7.0179 -32.2921,13.5075 -48.7396,19.4835 -0.053,0.022 -1.078,0.3868 -1.4929,0.5365 -31.4565,11.3682 -63.6481,20.6566 -96.2414,28.1474 -20.1123,4.6289 -40.3716,8.6083 -60.7111,12.1001 -15.4013,2.6093 -30.9249,4.4183 -46.455,6.0598 -12.7522,1.3059 -25.5248,2.4456 -38.2793,3.4316 -0.3017,0.026 -1.197,0.09 -1.7266,0.1311 -10.1033,0.7757 -20.2139,1.452 -30.3281,2.0701 -0.4032,0.021 -1.1986,0.071 -1.7519,0.1026 -23.7842,1.4058 -47.5944,2.419 -71.418,2.8036 -0.2287,0.01 -1.199,0.016 -1.7139,0.023 -13.478,0.1654 -26.9679,0.1989 -40.4339,-0.4681 -5.3759,-0.2724 -10.7297,-0.8765 -16.0393,-1.7559 -4.1405,-0.6054 -8.2787,-1.2272 -12.4164,-1.8516 -0.5545,-0.081 -1.4502,-0.2217 -2.1355,-0.3255 -1.5987,-0.245 -3.1974,-0.49 -4.7961,-0.7351 -0.3892,-0.064 -1.1862,-0.1861 -1.7315,-0.2724 -22.4676,-3.4973 -44.883,-7.3371 -67.2119,-11.6338 -0.3168,-0.058 -1.1785,-0.2291 -1.7043,-0.3305 -8.1029,-1.5657 -16.1918,-3.2031 -24.2703,-4.8902 -0.3317,-0.067 -1.1747,-0.2485 -1.7023,-0.3595 -35.0607,-7.3878 -69.8639,-16.0632 -104.1454,-26.5018 -0.3282,-0.105 -1.1476,-0.3531 -1.664,-0.5129 -22.8693,-7.0102 -45.4896,-14.8429 -67.7481,-23.6043 -0.2377,-0.099 -1.1149,-0.4431 -1.5989,-0.6366 -8.5258,-3.3657 -16.9883,-6.8898 -25.3952,-10.5412 -0.2383,-0.1097 -1.0989,-0.4818 -1.5767,-0.6925 -25.0025,-10.946 -49.4219,-23.1551 -73.1605,-36.6672 -14.4163,-8.1905 -28.9908,-17.1068 -43.0693,-26.3318 -36.3289,-23.8112 -70.7292,-50.4816 -103.5182,-78.9482 -17.1332,-14.8654 -33.8537,-30.2045 -50.2202,-45.9091 -0.273,-0.2692 -0.864,-0.8339 -1.2587,-1.2162 -10.1218,-9.7398 -20.0647,-19.6647 -29.8195,-29.7721 -0.067,-0.077 -0.7942,-0.8303 -1.1034,-1.1556 -31.4336,-32.7109 -60.8723,-67.3625 -87.7266,-103.9342 -0.034,-0.04 -0.6745,-0.9251 -0.9346,-1.2803 -27.07471,-36.9621 -51.49747,-75.8793 -72.77965,-116.4587 -4.40833,-8.4069 -8.67781,-16.8862 -12.82876,-25.4231 -0.0147,-0.046 -0.49455,-1.0321 -0.68294,-1.4291 -0.7717,-1.6076 -1.54341,-3.2152 -2.31511,-4.8229 -0.0207,-0.035 -0.48728,-1.0348 -0.67482,-1.4308 -7.82205,-16.535 -15.12898,-33.3133 -21.91502,-50.2996 -0.0889,-0.2354 -0.44113,-1.1156 -0.63145,-1.5994 -0.40736,-1.0287 -0.81471,-2.0575 -1.22207,-3.0862 -0.079,-0.1901 -0.43499,-1.1168 -0.62108,-1.5917 -16.45913,-42.1865 -29.64767,-85.6393 -39.59962,-129.8126 -0.42511,-1.9009 -0.89679,-4.0018 -1.32306,-5.9837 -4.30482,-19.6836 -7.93806,-39.5117 -10.9953,-59.4264 -0.0333,-0.2464 -0.17791,-1.1864 -0.25409,-1.6999 -0.42433,-2.7741 -0.82274,-5.552 -1.22443,-8.3294 -0.0378,-0.2481 -0.1661,-1.1881 -0.23877,-1.7027 -0.15413,-1.1056 -0.30826,-2.2113 -0.4624,-3.3169 -0.0326,-0.2724 -0.15937,-1.1894 -0.22817,-1.7097 -3.06476,-22.7148 -5.34104,-45.5352 -6.8812,-68.4036 -0.0282,-0.3778 -0.0795,-1.1981 -0.11656,-1.7453 -0.67244,-10.1077 -1.1679,-20.2264 -1.56704,-30.3484 0.003,-0.081 -0.0385,-1.1467 -0.0521,-1.5916 -0.3324,-9.2691 -0.56833,-18.5419 -0.66276,-27.8166 1.5e-4,-0.4044 -0.01,-1.2006 -0.0137,-1.755 -0.10717,-12.0829 -0.0168,-24.1663 0.0801,-36.2489 2.6e-4,-0.2747 0.0135,-1.0928 0.0176,-1.5762 0.0724,-5.4821 0.16689,-10.964 0.28711,-16.4453 0.012,-0.3704 0.0296,-1.2004 0.0437,-1.7467 0.15611,-6.7057 0.36202,-13.4101 0.6204,-20.1127 0.01,-0.3026 0.0493,-1.1994 0.0705,-1.7301 0.0514,-1.2416 0.10274,-2.4833 0.15411,-3.7249 0.0161,-0.2695 0.056,-1.1987 0.0812,-1.722 1.27809,-28.4636 3.71294,-56.9029 8.2015,-85.0508 5.23731,-33.2252 13.28704,-65.9432 22.64146,-98.2309 6.72775,-23.1561 13.93175,-46.175 21.68129,-69.01 0.12222,-0.3395 0.39028,-1.1356 0.56836,-1.6499 9.46463,-27.7189 20.08256,-55.063 32.39769,-81.6465 6.53307,-14.1181 13.54884,-28.0107 20.95192,-41.6919 0.0468,-0.075 0.55062,-1.0072 0.7659,-1.3983 16.41697,-30.1563 34.63963,-59.2893 53.51535,-87.9572 1.98698,1.9063 3.97396,3.8125 5.96091,5.7188 z" />
    <path
       d="m 1690,3054 c -14,-2 -59,-9 -100,-15 -171,-25 -390,-118 -539,-229 -87,-66 -201,-179 -266,-265 -100,-134 -195,-358 -226,-535 -17,-96 -17,-324 0,-420 31,-177 126,-401 226,-535 193,-257 490,-440 805,-496 96,-17 324,-17 420,0 258,46 507,177 687,362 93,96 125,136 184,237 78,131 133,281 160,432 17,96 17,323 0,420 -44,248 -158,474 -329,652 -188,197 -418,324 -676,373 -80,16 -298,28 -346,19 z m 296,-225 c 165,-29 286,-84 467,-210 5,-3 -323,-338 -729,-743 -405,-405 -740,-733 -743,-729 -100,143 -136,210 -174,328 -40,125 -50,191 -50,325 0,293 105,542 316,747 185,179 348,255 642,297 43,6 202,-2 271,-15 z m 681,-446 c 64,-97 93,-156 126,-258 40,-125 50,-191 50,-325 0,-134 -10,-200 -50,-325 -51,-158 -123,-275 -246,-402 -205,-211 -454,-316 -747,-316 -128,0 -206,12 -324,49 -115,37 -184,73 -329,175 -7,5 1448,1474 1463,1478 3,0 29,-34 57,-76 z"
       id="path1" />
  </g>
</svg>
