<?xml version="1.0" encoding="UTF-8" standalone="no"?>
<svg
   version="1.0"
   width="600pt"
   height="600pt"
   viewBox="0 0 600 600"
   preserveAspectRatio="xMidYMid"
   id="svg6"
   sodipodi:docname="push.svg"
   inkscape:version="1.3.2 (091e20ef0f, 2023-11-25, custom)"
   xmlns:inkscape="http://www.inkscape.org/namespaces/inkscape"
   xmlns:sodipodi="http://sodipodi.sourceforge.net/DTD/sodipodi-0.dtd"
   xmlns="http://www.w3.org/2000/svg"
   xmlns:svg="http://www.w3.org/2000/svg">
  <defs
     id="defs6" />
  <sodipodi:namedview
     id="namedview6"
     pagecolor="#ffffff"
     bordercolor="#000000"
     borderopacity="0.25"
     inkscape:showpageshadow="2"
     inkscape:pageopacity="0.0"
     inkscape:pagecheckerboard="0"
     inkscape:deskcolor="#d1d1d1"
     inkscape:document-units="pt"
     inkscape:zoom="0.9"
     inkscape:cx="403.88889"
     inkscape:cy="421.66667"
     inkscape:window-width="1872"
     inkscape:window-height="1032"
     inkscape:window-x="48"
     inkscape:window-y="-36"
     inkscape:window-maximized="1"
     inkscape:current-layer="svg6" />
  <g
     transform="matrix(0.05143544,0,0,-0.05143544,-56.150911,645.55407)"
     fill="#000000"
     stroke="none"
     id="g6">
    <path
       d="m 4515,12040 c -33,-5 -85,-12 -116,-15 l -56,-6 -76,-146 c -41,-80 -74,-150 -71,-157 3,-6 30,-29 61,-51 90,-63 128,-101 171,-168 l 40,-62 -9,-795 c -5,-437 -8,-843 -7,-901 l 3,-106 315,104 c 173,57 320,109 327,116 15,15 26,138 87,987 l 44,605 -61,118 c -101,197 -254,354 -422,433 -101,48 -143,56 -230,44 z"
       id="path1" />
    <path
       d="m 9096,11989 c -105,-22 -131,-36 -300,-158 l -128,-94 -69,-145 -69,-144 v -158 -158 l -85,-253 c -47,-139 -83,-254 -81,-256 4,-5 90,64 223,179 56,48 104,88 107,88 7,0 -13,-54 -74,-200 l -52,-125 16,-280 c 19,-317 33,-466 44,-476 4,-4 99,-28 212,-54 250,-57 339,-86 407,-131 29,-18 54,-34 55,-34 2,0 -5,159 -15,352 -11,234 -20,638 -25,1196 -7,818 -8,844 -26,858 -24,17 -28,17 -140,-7 z"
       id="path2" />
    <path
       d="m 5934,11322 c -44,-31 -130,-94 -191,-139 l -111,-83 -7,-127 c -14,-272 -46,-783 -55,-883 -9,-88 -16,-116 -44,-172 l -34,-68 25,-97 c 25,-97 25,-102 19,-368 -3,-148 -11,-290 -17,-315 -22,-93 -22,-174 -1,-266 18,-78 20,-102 12,-199 -19,-222 -40,-556 -50,-784 -5,-128 -12,-236 -15,-240 -3,-3 -9,-1 -13,5 -4,5 -94,125 -200,267 l -193,258 10,476 c 6,261 11,596 11,744 v 269 l -51,-25 c -129,-66 -538,-326 -576,-367 -20,-22 -22,-43 -37,-323 -19,-354 -44,-722 -54,-784 -7,-43 -8,-44 -192,-172 -102,-70 -209,-142 -239,-160 -52,-32 -54,-32 -68,-13 -10,13 -13,36 -11,70 5,57 1,51 146,218 l 93,107 -3,489 c -2,385 -6,492 -16,502 -10,10 -78,14 -270,18 l -257,5 70,27 c 39,15 153,58 255,96 l 185,69 -3,479 -3,479 48,-50 c 26,-27 67,-72 91,-100 53,-61 55,-68 -53,230 l -83,230 -15,251 c -8,139 -17,257 -21,262 -17,27 -413,165 -506,177 l -55,7 -86,-333 -86,-333 14,-60 c 19,-89 32,-532 33,-1146 v -535 l 248,-208 c 136,-114 265,-223 287,-243 l 40,-35 -30,5 c -289,53 -519,86 -529,76 -17,-17 -11,-340 9,-495 9,-71 30,-202 46,-290 16,-88 31,-173 34,-188 8,-45 -11,-31 -118,89 -107,120 -158,190 -175,244 -6,19 -59,316 -117,660 -170,1003 -280,1589 -304,1613 -6,6 -22,5 -42,-3 -35,-15 -289,-188 -413,-283 l -78,-60 5,-41 c 3,-22 37,-246 75,-496 108,-696 112,-727 119,-1055 l 6,-290 63,-150 c 34,-82 93,-217 132,-300 l 69,-150 -32,-280 c -18,-154 -42,-343 -54,-420 -11,-77 -30,-230 -42,-340 -13,-120 -31,-233 -45,-281 -18,-63 -268,-669 -291,-707 -4,-7 -85,34 -281,145 -57,32 -107,58 -110,58 -4,0 -85,-78 -180,-173 l -173,-174 54,-214 54,-214 -71,-75 c -143,-151 -308,-367 -309,-404 0,-32 151,-330 248,-491 233,-388 550,-791 873,-1109 71,-70 83,-78 97,-66 38,32 275,324 275,339 0,4 -23,46 -51,92 -106,173 -370,673 -341,644 5,-5 63,-107 127,-225 65,-118 139,-247 166,-286 54,-77 105,-131 116,-121 3,4 0,46 -9,94 l -15,87 123,162 123,161 -196,214 c -108,118 -261,286 -341,374 -172,190 -183,172 108,174 l 196,1 154,-226 c 85,-124 169,-243 187,-263 l 33,-36 50,54 c 45,49 205,264 251,337 l 19,31 -170,273 -171,273 22,54 c 25,62 35,43 -94,181 l -77,84 87,98 88,98 35,-40 c 19,-22 74,-93 123,-157 87,-114 108,-154 267,-486 l 62,-130 156,165 c 266,282 449,458 672,649 118,101 221,189 228,196 16,14 7,39 -148,420 l -122,299 31,121 c 57,217 104,375 111,375 8,0 11,-8 172,-555 66,-225 125,-418 130,-427 6,-13 21,-18 48,-18 56,0 194,-20 203,-30 13,-12 -301,-363 -943,-1055 -402,-433 -432,-468 -416,-477 7,-4 105,-44 216,-88 227,-91 280,-115 280,-131 0,-17 -102,-160 -124,-174 -17,-10 -62,-7 -261,21 -132,18 -261,33 -287,33 l -47,1 -66,-94 c -36,-52 -65,-98 -65,-104 0,-11 215,-108 370,-168 52,-20 97,-38 99,-40 2,-1 -46,-64 -105,-138 -86,-107 -114,-136 -133,-136 -13,0 -123,48 -243,106 -184,89 -222,104 -232,93 -83,-94 -226,-280 -226,-296 0,-5 28,-54 63,-109 85,-134 117,-190 117,-204 0,-6 -22,1 -49,16 l -48,27 -29,-21 c -66,-48 -298,-249 -312,-270 -15,-22 -13,-25 45,-81 124,-118 555,-424 773,-549 58,-33 194,-104 303,-158 l 199,-99 22,27 c 12,15 82,144 155,285 147,282 227,430 240,438 5,2 67,-22 137,-55 l 129,-59 33,57 c 18,31 78,147 133,256 82,163 98,201 87,212 -12,11 -173,76 -380,154 l -86,32 13,37 c 7,20 56,135 110,256 122,275 271,636 360,868 76,198 64,188 155,142 l 44,-22 230,59 c 271,70 326,88 375,125 60,45 285,230 720,593 227,190 419,350 427,356 9,7 16,62 24,180 6,93 13,181 16,197 6,30 58,76 327,286 86,68 157,127 157,130 0,12 -260,355 -301,397 -22,22 -86,69 -144,105 -57,35 -102,66 -100,67 2,2 48,-10 102,-27 116,-36 248,-99 474,-227 91,-52 171,-94 177,-94 13,0 175,146 359,324 150,145 181,190 204,291 l 12,54 -209,223 c -115,122 -261,276 -325,342 -112,116 -116,119 -138,104 -12,-9 -202,-183 -422,-388 -450,-421 -411,-371 -512,-641 -30,-80 -62,-159 -71,-175 l -15,-29 v 40 c -1,22 4,82 9,133 6,52 8,98 4,103 -6,11 -76,-33 -239,-151 -68,-50 -127,-90 -132,-90 -5,0 -55,43 -111,95 -116,108 -131,117 -411,231 -348,142 -593,248 -583,252 6,2 180,-31 388,-72 425,-84 648,-126 676,-126 17,0 18,21 18,479 v 478 l 46,82 c 26,45 44,84 41,87 -7,7 -172,24 -240,24 -39,0 -57,4 -55,11 2,6 59,46 126,88 l 122,76 -6,90 c -10,135 -7,457 6,565 16,137 30,388 23,422 l -6,28 -242,-125 c -134,-69 -245,-125 -248,-125 -12,0 -19,72 -9,93 5,12 136,159 290,326 314,340 283,290 302,496 5,60 6,113 2,117 -5,5 -43,3 -86,-3 -43,-5 -80,-8 -83,-6 -2,3 31,30 74,60 115,81 123,92 134,182 6,43 9,79 7,80 -2,2 -84,0 -183,-4 -99,-4 -181,-7 -183,-6 -1,1 82,31 185,67 l 188,65 16,129 c 9,71 23,188 30,261 l 13,131 -104,154 c -136,200 -163,237 -175,237 -5,0 -46,-26 -91,-57 z M 4069,5143 c -178,-196 -474,-503 -483,-500 -18,6 -246,457 -231,457 2,0 45,-57 96,-127 146,-204 162,-223 181,-223 10,0 115,94 235,209 206,198 259,247 202,184 z M 2927,4263 c 50,-65 104,-130 120,-145 l 29,-28 84,40 c 45,23 87,39 93,37 14,-4 -192,-167 -213,-167 -9,0 -118,185 -169,286 -65,129 -60,127 56,-23 z"
       id="path3" />
    <path
       d="m 7657,11338 c -42,-56 -163,-250 -196,-315 l -31,-63 34,-327 c 19,-181 47,-460 63,-622 l 28,-294 70,-76 c 38,-42 160,-170 269,-285 109,-116 207,-224 217,-241 20,-32 25,-90 9,-100 -5,-3 -116,48 -246,115 -129,66 -239,118 -244,115 -4,-3 -10,-15 -13,-27 -10,-41 -57,-372 -53,-375 2,-3 26,36 52,86 27,50 50,88 52,86 2,-2 -4,-98 -12,-214 -9,-116 -16,-254 -16,-305 0,-87 2,-97 26,-126 15,-17 81,-70 148,-117 67,-47 123,-88 126,-90 2,-2 -69,-1 -158,3 -89,4 -162,4 -162,1 0,-3 10,-23 23,-44 19,-33 22,-50 20,-136 l -2,-97 48,-24 c 61,-32 121,-96 398,-433 432,-525 583,-718 583,-746 0,-7 -310,-322 -690,-702 -379,-380 -690,-695 -690,-701 0,-6 29,-49 64,-95 l 63,-84 22,-225 c 12,-124 24,-252 27,-285 3,-33 7,-83 10,-111 l 5,-52 119,-72 119,-72 206,22 205,21 53,-29 c 65,-38 145,-62 317,-97 l 136,-27 38,-147 c 22,-80 54,-190 73,-244 26,-76 197,-493 347,-848 l 15,-37 -167,-72 c -194,-85 -278,-125 -287,-140 -4,-6 11,-43 33,-83 42,-75 238,-397 250,-409 4,-3 33,5 66,18 71,31 116,26 175,-16 48,-35 72,-76 275,-470 86,-168 163,-314 171,-324 13,-18 18,-18 57,-7 79,24 462,192 597,262 335,175 767,456 758,493 -2,4 -39,48 -82,96 l -80,88 -65,-36 c -36,-20 -112,-64 -170,-98 -58,-34 -107,-60 -109,-58 -5,4 208,211 399,387 58,54 106,94 108,89 1,-5 -6,-31 -17,-58 l -19,-50 78,-134 c 43,-74 82,-135 88,-135 19,0 256,211 431,384 393,390 687,775 967,1270 54,95 90,169 85,175 -89,119 -440,547 -494,603 l -41,43 52,204 c 29,112 52,211 52,219 0,15 -93,108 -268,271 -65,60 -77,68 -103,62 -16,-3 -98,-43 -181,-88 -84,-46 -160,-86 -169,-90 -14,-5 -31,20 -92,135 -210,398 -250,565 -322,1357 l -17,175 -53,100 -54,100 45,100 c 25,55 101,229 169,386 l 123,286 4,309 c 5,300 6,317 46,584 23,151 42,287 42,302 0,33 -21,46 -133,78 -43,13 -74,26 -70,30 4,4 53,22 108,39 55,17 106,35 114,40 10,6 27,86 53,243 20,128 38,236 38,240 0,10 -142,98 -286,176 -142,77 -262,128 -274,115 -16,-17 -127,-656 -265,-1528 -81,-511 -114,-691 -138,-746 -15,-36 -128,-168 -221,-259 -55,-53 -56,-54 -51,-25 57,321 88,547 92,687 3,87 2,187 -2,223 -6,62 -8,65 -33,65 -14,0 -131,-18 -260,-41 -129,-22 -241,-39 -250,-37 -18,3 77,91 360,333 l 175,149 7,576 c 8,660 20,981 40,1094 l 14,79 -80,261 c -44,144 -93,293 -109,332 l -30,72 -258,-86 -258,-86 -6,-235 c -7,-251 -16,-323 -67,-519 l -31,-122 17,-78 c 15,-69 16,-118 10,-463 l -6,-386 237,-81 c 258,-88 318,-110 310,-118 -2,-3 -49,-9 -103,-15 -176,-17 -379,-50 -391,-62 -12,-12 -43,-617 -43,-831 v -96 l 120,-142 121,-143 -6,-65 c -3,-35 -8,-67 -11,-69 -3,-3 -20,3 -37,13 -55,31 -378,259 -420,297 -38,33 -41,40 -48,105 -4,38 -11,286 -15,552 l -7,483 -291,173 c -322,192 -392,230 -407,221 -6,-4 -8,-48 -4,-118 6,-111 52,-1285 57,-1445 2,-45 0,-82 -3,-82 -14,0 -445,464 -451,485 -12,45 -30,270 -26,325 2,30 13,103 23,162 19,106 19,109 1,155 -17,42 -20,84 -23,333 -4,277 -3,287 20,370 l 24,85 -38,55 -38,55 -36,537 c -19,295 -35,550 -35,566 0,28 -15,41 -172,152 -95,66 -187,130 -205,141 l -31,20 z M 9284,6715 c 19,-181 45,-426 57,-542 l 21,-213 -157,-260 -157,-260 27,-33 c 52,-63 310,-319 335,-332 14,-7 51,-16 83,-19 60,-8 73,2 45,34 -7,8 -2,5 12,-6 39,-33 60,-41 130,-48 111,-12 220,-28 220,-33 0,-3 -12,-15 -27,-26 -16,-12 -50,-42 -76,-66 l -48,-44 28,-29 c 38,-40 121,-100 132,-96 5,1 66,80 136,175 69,95 131,176 137,179 11,7 -187,-384 -219,-433 -8,-13 -20,-23 -27,-23 -6,0 -57,48 -113,107 l -103,107 -35,-17 c -42,-20 -43,-32 -6,-84 25,-35 178,-220 259,-313 l 30,-35 20,45 c 11,25 41,100 67,168 26,69 63,144 83,170 69,90 404,482 413,482 10,0 152,-169 170,-201 10,-19 2,-35 -66,-133 -108,-155 -457,-682 -489,-737 l -26,-46 147,-206 c 118,-167 149,-205 160,-196 19,17 153,199 266,365 83,121 101,142 128,148 41,8 429,8 429,0 0,-10 -64,-83 -278,-321 -246,-273 -346,-389 -362,-418 -12,-22 -5,-33 103,-172 110,-142 144,-181 150,-172 55,73 169,219 171,219 2,0 -48,-102 -110,-226 -63,-124 -114,-237 -114,-250 0,-15 20,-46 55,-84 30,-33 55,-66 55,-75 0,-16 -134,-186 -215,-273 l -51,-54 -88,111 c -49,61 -95,111 -104,111 -8,0 -35,-12 -60,-26 -53,-31 -55,-35 75,139 57,75 106,143 109,150 2,7 -42,83 -98,168 -75,111 -109,155 -125,157 -12,2 -108,-33 -214,-78 -105,-44 -220,-90 -255,-103 -74,-26 -52,-43 -174,137 -45,65 -79,123 -77,130 2,6 71,34 153,63 82,29 202,73 267,99 l 118,46 -17,27 c -112,172 -127,191 -148,186 -12,-2 -140,-23 -285,-46 l -265,-42 -24,29 c -63,77 -112,143 -112,152 0,11 114,63 342,158 92,38 168,71 168,74 0,3 -84,107 -186,230 -232,280 -284,346 -284,356 0,5 37,46 82,91 61,61 77,83 63,83 -11,0 -81,-7 -155,-14 -74,-8 -136,-13 -137,-13 0,1 -148,184 -327,406 -186,231 -323,408 -318,413 5,5 66,12 135,15 104,5 127,9 131,22 3,9 80,295 171,636 177,665 206,766 211,750 2,-5 19,-158 38,-340 z m 1346,-2442 c -90,-165 -153,-273 -162,-279 -12,-7 -98,59 -167,130 l -54,55 84,-44 c 46,-25 91,-45 100,-45 9,0 37,28 64,63 78,101 169,207 173,202 2,-2 -15,-39 -38,-82 z"
       id="path4" />
    <path
       d="m 8370,6808 c -42,-66 -115,-144 -353,-381 l -301,-298 35,-34 34,-34 170,156 c 471,432 584,552 554,590 -24,33 -73,83 -80,83 -3,0 -30,-37 -59,-82 z"
       id="path5" />
    <path
       d="m 7342,5791 c -157,-148 -222,-221 -222,-249 0,-10 9,-27 20,-37 19,-17 21,-17 57,7 31,21 218,192 336,307 l 27,27 -39,38 -39,38 z"
       id="path6" />
  </g>
</svg>
