<?xml version="1.0" encoding="UTF-8" standalone="no"?>
<svg
   version="1.0"
   width="600pt"
   height="600pt"
   viewBox="0 0 600 600"
   preserveAspectRatio="xMidYMid"
   id="svg2"
   sodipodi:docname="stun.svg"
   inkscape:version="1.3.2 (091e20ef0f, 2023-11-25, custom)"
   xmlns:inkscape="http://www.inkscape.org/namespaces/inkscape"
   xmlns:sodipodi="http://sodipodi.sourceforge.net/DTD/sodipodi-0.dtd"
   xmlns="http://www.w3.org/2000/svg"
   xmlns:svg="http://www.w3.org/2000/svg">
  <defs
     id="defs2" />
  <sodipodi:namedview
     id="namedview2"
     pagecolor="#ffffff"
     bordercolor="#000000"
     borderopacity="0.25"
     inkscape:showpageshadow="2"
     inkscape:pageopacity="0.0"
     inkscape:pagecheckerboard="0"
     inkscape:deskcolor="#d1d1d1"
     inkscape:document-units="pt"
     inkscape:zoom="0.98697479"
     inkscape:cx="352.08599"
     inkscape:cy="377.41592"
     inkscape:window-width="1872"
     inkscape:window-height="1032"
     inkscape:window-x="48"
     inkscape:window-y="-36"
     inkscape:window-maximized="1"
     inkscape:current-layer="svg2" />
  <g
     transform="matrix(0.12751085,0,0,-0.12751085,-92.223755,682.36995)"
     fill="#000000"
     stroke="none"
     id="g2">
    <path
       id="path1"
       d="m 1289.9947,5060.0021 c -1,-32 36.0077,-170.9962 60.0077,-224.9958 18,-39 35.996,-81.0056 40.996,-95.0056 9,-24 8.0019,-23.9981 -5.9981,-5.9981 -8,11 -14.9953,26.0029 -14.9953,33.0029 0,35.9996 -21.0065,2.9934 -50.0065,-79.0062 -17.9996,-50.9996 -37.0045,-96.9987 -43.0041,-102.9987 -7,-7 -7.9991,-4.0069 -2.9991,7.9931 4,13 -10.9945,47.0019 -46.9941,107.0019 -54,88.9996 -147.007,205.0089 -147.007,183.0089 0,-43 35.0049,-161.0066 69.0049,-234.0062 23,-48 40.996,-89.9974 40.996,-92.9974 0,-15 -41.9923,16.996 -52.9923,40.996 l -11.0053,24.9966 -11.9963,-32.9897 c -7,-19 -13.0003,-26.0035 -13.0003,-17.0035 -1,15 -28.0033,37.9969 -46.0033,37.9969 -3,0 1.0013,-12.9906 10.0013,-29.9906 9,-16 19.9966,-30.0038 24.9966,-30.0038 9,0 -13.991,-90.0022 -29.9906,-120.0022 -6,-10 -23.004,15.0037 -59.0036,88.0033 -46,94.9996 -150.99694,233.9989 -150.99694,199.9993 1,-41 43.00039,-165.007 84.00019,-247.0066 44.99984,-87.9996 45.99243,-92.9993 23.99251,-86.9993 -12.99996,3 -62.00105,16.0039 -110.00089,30.0039 l -85.99517,23.9925 43.99507,-95.9965 c 82.99968,-178.9992 74.00301,-168.993 204.00233,-220.9926 l 115.0082,-46.0033 62.9935,-124.0053 c 50,-96.9996 59.9992,-121.9981 44.9992,-118.9981 -11,2 -29.0033,26.9986 -46.0033,60.9986 -23.9996,50.9996 -29.9932,56.9973 -49.9932,50.9973 -51.9996,-16 -118.0088,-55.9952 -141.00879,-85.9952 -47.99984,-63.9996 -45.98831,-122.0024 6.01129,-204.0024 21,-32.9996 31.9938,-63.0018 33.9938,-94.0014 1,-25 4.9972,-58.9898 8.9972,-74.9898 5,-22 0.01,-44.0103 -17.9944,-80.0103 -55.9996,-112.9996 -48.99862,-157.9915 39.0011,-239.9911 61.9996,-59 62.9963,-61.0056 53.9963,-95.0056 -5,-19 -18.9947,-86.9928 -30.9947,-149.9928 -12,-62.9996 -29.0061,-126.9997 -37.0061,-141.9997 -13.9996,-25 -14.9949,-35.0119 -1.9949,-90.0115 22.9996,-105.9996 15.9976,-148.9931 -36.002,-220.9927 -57.99976,-78.9996 -96.00042,-153.0069 -126.0003,-247.0065 -19.99992,-66 -23.00163,-94.9957 -23.00163,-240.9953 v -166.0054 l -30.00384,-8.9972 c -16.99992,-5 -36.99324,-22.9954 -49.9932,-43.995 -18.99992,-33 -20.00256,-51.006 -20.00256,-308.0052 v -272.0031 l -0.47562,-0.1586 c 0.19558,-1.3689 0.39485,-2.738 0.58131,-4.1088 1.52506,-10.8018 2.44104,-21.6666 3.05191,-32.5537 0.48154,-9.318 0.60345,-18.6542 0.70022,-27.9825 0.0302,-3.4531 0.0231,-6.9055 0.0396,-10.358 5.82445,-4.2989 11.61197,-10.1568 17.04313,-17.8358 5.52801,-7.8159 10.54781,-15.9763 15.40488,-24.2303 1.98173,-1.278 4.10259,-2.5249 5.83959,-3.8579 l 182.81075,-1.9025 c 315.99886,-3 661.99846,-11.0079 767.99806,-18.0075 184.9992,-11 194.0087,-10.9978 212.0087,7.0022 11,10 41.9958,78.0023 69.9958,149.0019 27.9996,71.9996 53.9995,136.9937 57.9995,146.9937 6,14 33.9981,5.0061 205.9973,-62.9935 205.9992,-81.9996 202.0095,-80.996 267.0091,-53.9964 13,5 14.9963,0.988 11.9963,-19.0116 -5,-22 1e-4,-27.992 28.9997,-39.992 39,-16.9996 241.0018,-68.0087 333.0018,-86.0083 32.9996,-6 69.992,-12.9994 81.992,-15.9994 13,-2 30.0101,-17.9942 38.0101,-33.9938 10,-20 22.997,-30.00388 37.997,-30.00388 13,0 27.0029,-4.00132 33.0029,-10.00128 5,-5 30.9913,-12.99941 55.9913,-15.99941 41,-5.99996 50.0043,-2.99007 85.0043,25.00981 37,29.99996 42.0037,30.99656 101.0037,24.99656 52.9996,-6 65.992,-10.9979 81.992,-34.99784 17,-21.99992 33.0028,-29.00517 91.0024,-40.00513 l 69.9958,-11.99625 29.0129,34.99788 c 26,30.99994 35.9896,36.00014 90.9892,42.00014 61,6 64.006,5.0033 95.0056,-24.99664 33,-31.99988 33.0054,-32.00981 111.005,-25.00981 43,3.99996 78.9879,10.00447 80.9879,14.00443 1,4 11.0067,21.00118 21.0067,39.00102 16,26 28.9948,33.0055 72.9948,40.0051 48,9 55.0021,6.9997 78.0021,-13.0003 22,-20 34.0043,-23.0117 85.0043,-19.0117 77.9996,5 94.0037,12.0083 101.0037,44.0083 9.9996,39 21.9983,49.9926 76.9979,65.9926 47,14 51.9965,14.0019 82.9961,-5.9981 28,-17 39.0059,-19.0013 66.0059,-10.0013 17.9996,6 44.9948,12.9994 59.9944,15.9994 21,4 29.997,14.0083 37.997,44.0083 9,33 17.0036,41.9945 59.0036,59.9945 54.9996,22.9996 76.9952,26.0053 85.9952,11.0053 10.9996,-17.9996 54.9996,-11.0046 99.9996,14.9954 35.9996,20.9996 45.0064,32.9976 50.0064,63.9976 5,32 12.0017,41.0077 52.0013,60.0077 40,19 50.0031,21.0013 75.0031,10.0013 21.9996,-9 31.996,-9 40.996,0 6,6 16.9966,10.9921 24.9966,10.9921 14.9996,0 115.0013,70.0041 165.0013,114.0041 24,21.9996 27.0048,32.0037 27.0048,88.0033 0,35 -5.0013,105.9995 -10.0013,157.9991 -8,84 -11.9979,98.0035 -34.9979,117.0031 -14,13 -38.0055,22.9885 -53.0055,22.9885 -22.9996,0 -31.9954,9.0086 -56.9954,57.0086 -35.9996,69.9996 -108.0086,142.9944 -170.0086,172.9944 -44.9996,22 -54.9942,22.9994 -188.9938,15.9994 -76.9996,-3 -189.9969,-12.9975 -250.9965,-21.9975 -59.9996,-9 -137.0086,-16.9985 -170.0086,-18.9985 -32.9996,-1 -72.9942,-6.0013 -88.9942,-10.0013 -31,-9 -168.0029,6.002 -346.0021,36.002 -382.9984,64.9996 -679.9947,186.9967 -679.9947,279.9963 0,15.9996 -11.0098,39.0004 -25.0098,55.0004 -15,17 -24.9966,38.9995 -24.9966,57.9995 0,58 -61.9949,126.0003 -114.9949,126.0003 -29,0 -105.0068,71.9996 -105.0068,99.9996 -1,14 -6.9954,52.0043 -14.9954,85.0043 -22.9996,92.9996 -21.0002,101.9926 15.9994,65.9926 58,-57.9996 151.9952,-65.999 198.9952,-15.9994 13,14 26.0038,25.0098 30.0038,25.0098 4,0 21.0011,-39.0084 39.0011,-86.0084 17.9996,-46.9996 59.9977,-136.9992 92.9973,-199.9992 50,-95.9996 62.9965,-114.004 82.9961,-114.004 28,0 55.0005,24.0064 55.0005,50.0064 0,10 -22.9973,70.9975 -50.9973,134.9975 -86.9996,198.9992 -178.9926,446.9999 -178.9926,480.9995 0,19 -17.001,65.0019 -39.001,107.0019 l -38.0101,72.9948 L 3558,3595.0059 c 161.9996,126.9992 300.9964,233.9961 308.996,237.9961 7,5 108.0013,11.9994 223.0009,15.9994 188.9992,6 212.0053,9.0048 237.0053,27.0048 30.9996,23 40.9934,64.9879 20.9934,80.9879 -20,16 -100.9941,33.007 -159.9941,34.007 -50.9996,1 -51.9966,1.0004 -24.9966,13.0004 30,13 74.9966,8.0043 224.9958,-27.9957 l 62.9936,-14.0044 117.0031,86.9992 c 63.9996,47 167.004,122.0055 227.004,166.0055 130.9992,94.9996 275.9927,207.9957 362.9923,282.9953 48,41.9996 60.0014,56.9967 52.0014,66.9967 -11,13 -134.9953,45.0077 -227.9949,60.0077 -30.9996,5 -39.9978,9.9893 -34.9978,19.9893 5,7 74.0045,75.0064 156.0041,150.006 80.9996,76 146.9937,142.9928 146.9937,149.9928 0,7 -6.9994,19.0007 -15.9994,26.0007 -14,11 -27.0065,7.9993 -92.0065,-26.0007 -41.9996,-21.9996 -125.9901,-69.9977 -187.9897,-105.9977 l -111.005,-65.9926 -5.9981,120.993 c -5,122.9996 -10.9998,156.0042 -28.9998,156.0042 -38.9996,0 -514.0063,-347.9972 -531.0059,-389.9972 -7,-13.9996 -16.9926,-25.0016 -23.9926,-23.0016 -21.9996,8 -336.0095,-219.9973 -422.0091,-305.9969 l -46.9942,-46.0033 -23.0016,-176.9976 -23.9925,-176.0067 -285.0035,-221.9967 -283.9994,-221.9968 -15.9994,23.9925 c -34,48 -118.001,130.9979 -152.001,147.9979 -19,9 -56.0056,20.0057 -82.0052,24.0057 -47,7 -51.0019,10.0047 -107.0019,85.0043 -9.9996,14 -26.995,23.9925 -43.995,23.9925 -26,0 -25.9966,0.9986 -24.9966,60.9986 1,72.9996 -16.0102,142.006 -38.0102,150.006 -9,3 -51.9877,3 -96.9873,0 -53,-4 -123.0002,-0.9987 -197.0002,10.0013 -317.9984,43.9996 -596.0013,59.9937 -588.0013,33.9937 3,-8.9996 55.9916,-16.9966 168.9912,-24.9966 89.9996,-6.9996 252.0029,-25.001 359.0025,-39.001 138.9992,-19 214.0022,-23.9985 262.0018,-18.9985 79.9996,7 81.9996,4.9984 99.9996,-110.0008 12,-75 10.9956,-76.0041 -14.0044,-101.0037 l -24.9966,-26.0007 -7.0022,84.0002 c -4,45.9996 -10.9994,90.0005 -15.9994,97.0005 -5,9 -21.9973,12.0104 -50.9973,9.0104 -24,-3 -107.0002,2.9912 -183.9998,13.9912 -187.9992,24 -435.0003,47.9983 -507.0003,47.9983 h -57.9995 l 40.0051,-79.9971 c 44,-86.9996 46.9966,-99.9996 24.9966,-99.9996 -21.9996,0 -73.0024,100.9989 -191.002,373.9977 l -107.0018,247.9975 31.0079,112.0091 c 18,60.9996 31.9989,120.9937 31.9989,133.9933 0,29 -101.005,262.0038 -111.005,256.0038 -4,-2 -23.9992,-44.0015 -44.9992,-94.0015 -21,-48.9996 -40.9992,-87.0052 -44.9992,-82.0052 -3.9996,4 -23.9991,48.0009 -44.9991,97.0005 -21,50 -47.9986,104.0022 -60.9986,120.0022 -34,45 -82.0093,101.0056 -83.0093,95.0056 z m 3477.632,-83.8813 c 10.375,1.125 17.3734,-4.1183 17.3734,-16.1183 -1,-81 -18.9957,-220.0027 -27.9957,-217.0027 -8,2 -10.0063,32.0024 -8.0063,91.0024 l 2.9991,88.0033 -78.993,-55.0004 -78.002,-55.0005 -30.0039,-120.0021 c -16,-66 -34.001,-123.9994 -39.001,-128.9994 -9,-9 -8.9971,-2.0014 20.0025,160.9982 l 18.9985,108.9968 69.9958,47.0073 c 37.9996,27 81.0059,59.9993 95.0055,73.9989 13.5,13.5 27.2521,20.9915 37.6271,22.1165 z m 255.6602,-166.5735 c 3.6719,-2.5196 -11.407,-20.1694 -43.2816,-49.544 -115.9996,-105.9996 -261.0114,-222.0084 -374.011,-299.008 -63.9996,-43.9996 -250.9986,-184.9999 -415.9978,-312.9991 -280.9988,-218.9992 -297.9972,-232.9984 -276.9972,-244.9984 20,-11 19.0015,-12.0004 -18.9985,-13.0004 -29.9996,0 -46.0017,-6.0007 -65.0017,-26.0007 -13,-13.9996 -44.0049,-38.0017 -69.0049,-52.0013 -25,-14 -242.9903,-180.0004 -484.9895,-367.9996 -465.998,-361.9988 -513.0034,-398.998 -811.0022,-644.9968 -103.9996,-85 -324.0063,-263.9998 -489.0059,-396.9994 C 1809.9974,2269 1640.9948,2129.9941 1599.9948,2093.9945 c -146.9996,-127.9996 -210.0005,-171.9897 -210.0005,-145.9897 0,5 55.0016,52.989 123.0012,106.9886 67,55 163.0091,135.0099 212.0087,180.0099 92.9996,82.9996 500.9955,423.9998 779.9943,651.999 87.9996,70.9996 192.0031,158.992 230.0031,194.992 38.9996,34.9996 201.9972,165.0121 363.9964,287.0117 364.9984,276.9988 668.0058,514.9953 702.0054,550.9953 14,15 38.0005,35.0032 55.0005,46.0032 56.9996,36 619.9995,460.9906 693.9991,523.9906 58.9996,48.9996 283.0021,204.0014 446.0017,307.001 16.125,10.125 25.0791,14.0629 27.2822,12.5512 z m -508.2818,-30.5456 c 6,0 -25.0008,-32.0043 -68.0008,-72.0039 l -79.0061,-72.004 -27.9957,-104.9936 c -16,-57.9996 -30.9979,-121.9997 -34.9979,-141.9997 -8,-39 -24.0083,-48.0057 -44.0083,-24.0057 -9.9996,11 -5.0024,44.0014 21.9976,152.001 30.9996,122.9992 38.003,139.0013 62.0026,152.0009 15,8 57.0019,36.0068 94.0015,63.0068 36,27 71.0071,48.9982 76.0071,47.9982 z m -284.7657,-209.8023 c 2.7892,0.5506 4.9857,0.3031 6.5795,-0.7399 2.125,-1.3903 3.184,-4.2055 3.184,-8.4555 0,-15.9996 -48.9987,-59.0102 -89.9983,-80.0102 -19,-10 -53.0071,-34.9958 -76.0071,-56.9954 -39,-36 -41.9923,-43.0013 -52.9923,-123.0013 -16,-104.9996 -20.0029,-120.0021 -33.0029,-120.0021 -6,0 -7.9991,13.0101 -2.9991,38.0101 4,20 9.9913,72.9903 13.9913,116.9899 l 6.0113,80.0103 75.9939,49.9932 c 42,26.9996 90.0059,62.0024 108.0059,78.002 19.125,15.75 32.8664,24.5471 41.2338,26.1989 z m 877.7611,-29.1979 c 2,-6 2.0041,-12.0045 1.0041,-14.0045 -2,-1 -48.0078,-36.997 -102.0078,-79.997 -91.9996,-72.9996 -120.9992,-88.0051 -99.9996,-53.0055 14,25 198.0033,158.007 201.0033,147.007 z m -3650.0054,-99.9996 c 4,-1 25.0077,-11.0061 47.0073,-24.0057 45,-26 40.002,-18.0008 136.0016,-226 166.9992,-363.9984 177.9932,-389.9971 162.9932,-389.9971 -8,0 -31.0005,36.9987 -55.0005,89.9983 l -40.996,89.0075 -46.9941,2.999 c -56,4 -66,31.002 -13.0004,36.002 25,3 31.9907,7.9894 29.9907,19.9894 -3,13.9996 -13.9936,16.0044 -62.9936,14.0044 -32.9996,-2 -61.0026,-4.9981 -62.0026,-5.9981 -1,-1 19.9982,-53.0082 47.9982,-115.0082 28,-61.9996 49.0073,-119.9993 47.0073,-128.9993 -5,-22 -81.0004,117.0018 -168.0004,307.001 l -68.0007,149.0019 13.9912,72.004 c 16,86.9996 22.9988,110.0009 31.9988,110.0009 z m 2507.0056,-79.9971 c 6,0 -15.9942,-25.0004 -46.9942,-55.0004 -62.9996,-61 -60.0002,-54.0069 -84.0002,-192.0061 -17.9996,-105.9996 -26.0092,-129.0022 -41.0092,-120.0022 -5,3 -2.0028,49.0104 8.9972,109.01 9,57 17.0076,116.9934 18.0076,133.9934 0,26 9.0012,36.998 68.0008,76.998 37,26 71.998,47.0073 76.998,47.0073 z m 742.9618,-2.1667 c 31.7809,1.0313 103.7817,-8.3399 124.0317,-18.8399 10,-6 16.0004,-14.0026 13.0004,-20.0026 -8,-12 -144.9962,-114.9913 -224.9958,-168.9913 -36,-23.9996 -97.9966,-68.0046 -137.9966,-98.0046 -39.9996,-30 -75.0062,-52.0023 -79.0062,-49.0023 -11.9996,13 9.01,38.0058 54.0096,66.0058 26,17 78.994,50.998 117.994,76.998 l 69.0049,47.9982 -39.0011,8.9972 c -21.9996,5 -72.9999,6.0031 -112.9999,4.0031 -64.9996,-4.9996 -73.009,-3.9946 -70.009,11.0054 3,15 19.0011,16.9912 139.0007,13.9912 l 135.0107,-2.999 56.9954,42.0001 c 30.9996,23 53.9973,46.0064 50.9973,50.0064 -3,5 -27.0005,10.9953 -55.0005,14.9953 -27,4 -52.0045,11.0035 -56.0045,17.0035 -1.75,3 4.3751,4.4918 14.9689,4.8355 z m -3468.9651,-87.8316 c 5,0 29.0005,-9.0067 55.0005,-21.0067 44.9996,-19.9996 49.0072,-24.003 118.0072,-162.0022 120.9992,-241.9992 139.9889,-286.9985 119.9889,-286.9985 -12,0 -30.0008,25.0034 -55.0004,75.003 -20,41 -40.9992,75.003 -44.9992,75.003 -5,0 -24.0001,-5.0054 -42.0001,-11.0054 -26,-8.9996 -33.996,-9.005 -40.996,1.995 -11,18 6.0001,36.0083 42.0001,44.0083 29,7 36.9981,18.9906 18.9985,29.9906 -5,3 -36.9917,1.0019 -68.9917,-5.9981 l -60.0077,-10.9922 44.9992,-89.0074 c 23.9996,-48.9996 44.0083,-91.0015 44.0083,-94.0015 0,-3 -7.0086,-4.994 -15.0086,-4.994 -18,0 -54.9921,62.9946 -110.9917,188.9938 -42,96.9996 -43.0026,100.0068 -33.003,163.0064 13,88.9996 17.9957,108.0059 27.9957,108.0059 z m 2935.2507,-341.1269 c 51.25,-0.875 97.7527,-4.3824 100.7527,-9.8824 4,-6 4.999,-11.9912 2.999,-13.9912 -2,-2 -69.9969,-7.0054 -150.9969,-11.0054 -105.9992,-5 -147.0069,-3.9969 -147.0069,4.0031 0,7 10.0016,13.9998 23.0016,15.9994 12,3 31.0001,6.9972 42.0001,8.9972 22,5 78.0008,6.7543 129.2504,5.8793 z m -3029.5032,-30.2549 c 11,1.375 17.7486,-3.6254 22.2486,-14.6254 3,-9 -2.9998,-20.9947 -15.9994,-30.9947 -21,-14 -20.9941,-16.007 -4.9941,-34.007 21,-23 89.0028,-42.9986 204.0024,-60.9986 130.9996,-20 621.9947,-17.0015 779.9943,5.9981 169.9992,23 288.0015,50.0012 362.0015,81.0012 106.9992,45.9996 102.9977,49.999 105.9977,-97.0006 1,-70.9996 6.0104,-127.9952 9.0104,-127.9952 4,0 26.9973,7.0035 50.9973,17.0035 29,10.9996 45.9922,12.9981 52.9922,5.9981 14,-14 -33.992,-44.0064 -81.992,-50.0064 -34.9996,-5 -39.001,-8.9938 -39.001,-33.9938 0,-26 -15.0048,-47.002 -27.0048,-36.002 -3,3 -5.0031,73.0001 -4.0031,155.0001 l 1.004,149.9928 -66.9967,-27.9957 c -152.9992,-63.9996 -439.0005,-101.9987 -777.9993,-102.9987 -319.9984,-1 -510.0008,24.0066 -591.0004,79.0062 -19,13 -37.0011,23.9925 -39.0011,23.9925 -11.9996,0 -3.0078,-59.9989 10.9922,-73.9989 20,-21 95.0117,-42.0021 232.0113,-65.0017 62.9996,-11 115.998,-21.9925 118.998,-23.9925 20,-20 -22.0002,-27.0048 -170.9994,-27.0048 h -162.0023 l -30.9947,33.0029 c -41,42.9996 -53.0055,68.9962 -53.0055,111.9958 0,49 22.9967,89.0022 66.9967,120.0022 21.5,14.5 36.7472,22.2476 47.7472,23.6226 z m 1615.2533,-128.6294 c 4,0 13.0066,-6.9998 21.0066,-15.9994 11,-13 7.9965,-19.0011 -17.0035,-39.0011 -29,-23 -72.0011,-39.9947 -81.0011,-30.9947 -6,5 65.998,85.9952 76.998,85.9952 z m 48.9098,-77.0377 c 24.0937,-0.8906 51.8379,-17.9614 57.0879,-38.9614 7,-27.9996 -1.9953,-73.9989 -14.9953,-73.9989 -5,0 -11.9994,14.008 -15.9994,31.008 -8,36.9996 -29.9964,46.9962 -53.9964,24.9966 -12,-11 -21.0098,-14.0019 -25.0098,-7.0023 -9,13 9.0083,47.004 31.0079,59.0036 6.25,3.75 13.8739,5.2513 21.9051,4.9544 z m 124.4677,-43.7044 c 14.125,-0.75 33.1255,-7.2495 56.6255,-19.2495 41,-20.9996 152.9934,-146.0013 146.9938,-165.0013 -8,-23 -37.0012,-7.0014 -81.0012,47.9982 -44.9996,54 -106.9956,97.0006 -140.9956,97.0006 -17,0 -17.9972,1.9925 -8.9972,23.9925 4,11 13.2497,16.0095 27.3747,15.2595 z m -625.9983,-10.1334 c 20.625,0.625 41.1214,-2.6202 55.6214,-10.1202 26,-12.9996 55.9954,-49.0058 56.9954,-66.0058 0,-20.9996 -26.9967,-14.9905 -53.9963,12.0095 -47,46.9996 -115.9991,18.9926 -115.9991,-47.0074 0,-49.9996 33.0066,-78.002 92.0066,-78.002 49.9996,0 61.9997,-11.9907 28.9997,-29.9907 -28,-14.9996 -77.005,-12.0059 -111.005,4.9941 -74.9996,38.9996 -79.9968,162.0033 -8.9972,201.0033 15,8 35.7495,12.4942 56.3745,13.1192 z m 487.2751,-9.3407 c 9.6788,-1.9084 19.7286,-11.1511 25.3533,-25.7761 6,-13.9996 19.9989,-94.997 31.9989,-179.9966 l 20.9934,-155.0001 -20.9934,-21.0066 -21.0067,-20.9934 -4.994,33.9937 c -38,226.9992 -56.0105,351.0025 -51.0105,359.0025 2.75,4.75 6.3256,7.747 10.2787,9.1689 2.9648,1.0664 6.1541,1.2439 9.3803,0.6077 z m -86.6557,-59.7831 c 11,0 12.0022,-9.0001 7.0022,-42.0001 -8,-49.9996 -9.9925,-51.9909 -23.9925,-42.9909 -12,7 -15.0032,67.9888 -4.0032,77.9888 3,4 12.9935,7.0022 20.9935,7.0022 z m 226.5151,-7.5571 c 10.9375,-3.7734 70.1088,-69.9441 102.4834,-115.4441 l 27.0048,-37.9969 -30.0038,-23.9925 c -16,-13 -31.9979,-20.0035 -34.9979,-17.0035 -5,6 -49.9926,135.9929 -65.9926,191.9929 -0.625,2.25 -0.056,2.9832 1.5061,2.4441 z m -1821.7658,-4.4391 c 11,-1.75 30.2477,-8.4979 67.2477,-21.9975 39,-14 66.0008,-30.0052 68.0008,-40.0052 4,-18.9996 -15.9905,-19.994 -87.9901,-4.994 -49,10 -78.0018,36.9904 -65.0018,58.9904 4,6.5 6.7434,9.7563 17.7434,8.0063 z m 1240.2514,-27.9957 c 16,0 83.0064,-14.0079 150.006,-31.0079 134.9996,-34 181.9929,-52.9939 191.9929,-75.9939 10,-27 -10.0001,-36.0022 -42.0001,-20.0026 -16,9 -86.99,32.0014 -158.99,52.0014 -73.9996,21 -137.0019,44.0046 -149.0019,56.0046 -19,18.9996 -19.0069,18.9984 7.9931,18.9984 z m -445.1165,-11.0053 c 13.625,0.5 22.1165,-1.4982 22.1165,-5.9982 0,-5 -125.9967,-53.0018 -279.9963,-107.0018 -154.9992,-54.9996 -283.0035,-101.9977 -285.0035,-105.9977 -2,-3 122.0071,-19.997 276.0063,-37.997 154.9996,-17 282.9985,-33.0019 286.9985,-36.0019 16,-16 -29.0096,-21.9957 -241.0084,-27.9957 -206.9992,-6 -242.9899,-4.0129 -329.9895,12.9871 -53.9996,11 -105.999,25.008 -115.999,31.008 -48,29.9996 -64.0098,106.9971 -25.0098,121.9971 9,3 149.9999,36.004 312.9991,72.004 162.9996,36.9996 309.9996,69.9989 325.9996,73.9989 20.4996,5.5 39.2615,8.4972 52.8865,8.9972 z m 847.1231,-18.9985 c 2,0 7.9953,-29.9967 14.9953,-66.9967 12,-76.9996 3.0025,-140.0086 -21.9975,-157.0082 -9,-6 -19.0067,-7.9982 -21.0067,-5.9982 -5.9996,6 21.0089,230.0031 28.0089,230.0031 z m 136.8868,-11.5074 c 6.496,-2.3784 11.4842,-13.5495 17.1092,-35.4867 33.9996,-128.9996 33.994,-134.0102 17.9944,-151.0102 -9,-8.9996 -18.9935,-13.9921 -20.9935,-10.9921 -3,3 -14.0057,44.0024 -24.0057,91.0024 -14,61.9996 -15.9972,89.9873 -8.9972,96.9873 4.5,4.5 8.3738,7.5705 11.8113,9.0236 2.5781,1.0899 4.9162,1.2685 7.0815,0.4757 z m -1758.006,-49.4119 c 3.3359,-1.3926 6.112,-4.9597 8.112,-11.0847 2,-6 -6.0026,-37.9957 -20.0026,-69.9957 -45,-112.9996 -4.9995,-162.0011 155.0001,-194.0011 42.9996,-8 88.0037,-17.0026 101.0037,-20.0026 24.9996,-5 30.0059,-31.9919 8.0063,-39.9919 -8,-3 -49.0025,1.0013 -91.0025,10.0013 -157.9992,33 -234.997,87.9954 -234.997,169.9954 0,68.2496 50.5284,164.8273 73.88,155.0793 z m 1417.0904,-62.2669 c 3.0938,-0.3125 7.0227,-1.3141 12.0227,-2.8141 12,-3 24.0048,-9.0054 27.0048,-11.0054 6,-5 -30.0001,-32.9897 -42.0001,-32.9897 -4,0 -8.0063,12.0007 -8.0063,26.0007 0,16.5 1.6977,21.746 10.9789,20.8085 z m 87.3956,-38.935 c 13.375,3.625 21.6277,-0.3814 21.6277,-12.8814 0,-51 -258.9926,-189.995 -291.9926,-156.995 -7.9996,7.9996 13.0006,22.9954 84.0002,56.9954 53,24.9996 112.9938,60.997 133.9934,79.997 20.5,18 38.9967,29.259 52.3713,32.884 z m 588.0146,-0.8191 c 12.4219,0.9375 26.1183,-17.8037 51.6183,-68.0537 32.9996,-61.9996 33.9906,-67.0108 29.9906,-164.0104 -2,-81.9996 -6.996,-108.9928 -27.9956,-149.9928 -20,-40 -31.9936,-52.0027 -62.9936,-62.0027 -32,-11 -44.003,-9.9968 -75.003,4.0032 l -37.0061,16.9903 52.0014,5.0072 c 65,8 88.0028,29.0019 104.0028,94.0015 22,92.9996 14.9939,168.9956 -24.0057,240.9952 -24,46 -30.9881,68.0071 -22.9885,76.0071 4.25,4.25 8.2388,6.7426 12.3794,7.0551 z m -842.38,-20.0554 c 38.9996,-4 54.9948,-10.008 72.9948,-31.008 32.9996,-38.9996 19.9939,-47.0016 -37.0061,-23.0016 -46.9996,20 -51.9961,20.0069 -82.9961,5.0073 -44.9996,-21 -63.9941,-66.006 -46.9941,-108.006 22.9996,-55.9996 94.9963,-74.9991 166.9963,-44.9991 20,8 38.0051,13.0054 40.0051,11.0054 12,-12 -22.0027,-46.0027 -62.0027,-62.0027 -38.9996,-14 -52.0087,-14.994 -86.0083,-4.994 -64,18.9996 -99.9978,57.9949 -105.9978,114.9949 -11,92.9996 46.0089,150.0038 141.0089,143.0038 z m 772.992,-41.0092 c 2,-1 21.0042,-43.9928 43.0042,-94.9924 38,-87.9996 38.9998,-94.001 28.9998,-139.0006 -17,-67 -27.0055,-82.0053 -53.0055,-82.0053 -37,0 -69.9896,48.9983 -103.9896,147.9979 l -30.0038,90.0115 55.9913,40.996 c 31,22 57.0036,38.9929 59.0036,36.9929 z m -399.1264,-26.7406 c 7.375,-0.5 12.6274,-4.2564 15.1274,-11.2564 6,-20 -4.0026,-46.0014 -20.0026,-52.0014 -16.9996,-7 -100.9927,12.9966 -107.9927,24.9966 -3,4 10.9989,11.0086 31.9989,15.0086 20.9996,4 44.9922,9.9953 52.9922,14.9953 11,6 20.5018,8.7573 27.8768,8.2573 z m -174.8045,-100.211 c 6.5625,2.0156 24.9307,-2.2985 66.9307,-15.0481 l 53.0054,-15.9995 -44.0082,-37.9969 c -24,-22 -46.9973,-39.0051 -50.9973,-40.0051 -5,0 -27.9957,86.0068 -27.9957,105.0068 0,2 0.8776,3.3709 3.0651,4.0428 z m 393.9343,-3.0387 c 2,-2 9.9944,-50.0022 17.9944,-107.0018 6.9996,-57 23.007,-151.01 34.007,-209.0096 39.9996,-196.9992 51.9934,-581.9937 20.9934,-640.9937 -8,-13 -7.9909,-55.0019 -0.9909,-136.0015 8,-91 7.9918,-121.0035 -2.0082,-130.0035 -27.9996,-28 -37.995,2.002 -43.995,123.0012 -4,85 -10.0067,124.0016 -21.0067,136.0016 -11,13 -14.9944,50.0064 -17.9944,150.006 -5,222.9992 -13.9995,325.9979 -44.9991,502.9971 -16,93.9996 -31.007,184.0033 -34.007,201.0033 -4,20 0.01,34.991 8.0063,42.991 12,9 15.9934,1.0027 20.9934,-50.9973 4,-34.9996 18.008,-116.9961 31.008,-182.9957 12.9996,-65.9996 26.9947,-165.0018 30.9947,-220.0018 3,-54.9996 8.0013,-110.9962 10.0013,-124.9962 1,-14 2.999,-83.0004 2.999,-155 1,-131.9996 8.9992,-170.9975 31.9988,-147.9979 15,15 15,308.9956 0,453.9948 -6,58 -21.9982,158.9962 -34.9978,224.9958 -34,166.9996 -41.0007,241.0032 -26.0007,259.0028 7,9 15.0035,14.0054 17.0035,11.0054 z m -1503.4292,-31.6157 c 42.6094,0.9844 128.6835,-4.6385 135.4335,-11.3885 15,-12 -27.0034,-27.0007 -75.003,-26.0007 -52,1 -84.0002,13.9938 -84.0002,33.9938 0,2 9.3666,3.0673 23.5697,3.3954 z m -280.1944,-35.0111 c 7.625,1.875 15.6194,-1.8797 19.6194,-12.3793 8,-20 -19.9995,-193.0023 -44.9991,-275.0023 -18,-60.9996 -19.0013,-77.9921 -10.0013,-110.9917 17,-55 15.0069,-70.9999 -7.9931,-70.9999 -14,0 -22.0039,10.991 -30.0039,42.991 -6,23 -12.9994,48.0045 -15.9994,56.0045 -2,7 7.0026,47.9984 20.0026,89.9984 13,41.9996 28.9979,112.0041 34.9979,156.0041 7,43.9996 14.0035,89.9987 17.0035,102.9987 2.5,12 9.7484,19.5015 17.3734,21.3765 z m 2144.621,-29.3828 c 4,0 20.0019,-36.9962 36.0019,-82.9962 16,-44.9996 58.0015,-152.0056 94.0015,-237.0052 35,-84.9996 66.0049,-160.9963 69.0049,-166.9963 3,-8 -3.0085,-13.0004 -15.0085,-13.0004 -26,0 -92.0021,130.0051 -78.0021,153.0051 6,9 2.0037,32.0008 -11.9963,68.0008 -46.9996,117.9996 -101.9945,265.0035 -101.9945,272.0031 0,4 2.9931,6.9891 7.9931,6.9891 z m -487.7508,-0.37 c 5.75,1.125 9.7503,-1.6272 9.7503,-8.6272 0,-5 3.0022,-24.0005 7.0022,-42.0001 l 5.9981,-33.9938 -27.9957,26.9915 c -22.9996,23 -25.0085,30.0042 -15.0085,43.0042 7,8.5 14.5036,13.5004 20.2536,14.6254 z m -1398.5148,-61.8309 c 8.5781,3.1406 28.2611,-6.7913 109.2611,-48.7909 96.9996,-50 113.0039,-64.003 85.0043,-75.003 -18,-7 -208.003,104.0031 -201.0034,117.0031 2.25,3.25 3.8787,5.7439 6.738,6.7908 z m 1353.3967,-12.9211 c 2.875,-1.125 8.8664,-6.8754 18.8664,-17.8754 21,-22 26.0007,-37.9984 26.0007,-76.998 0,-80.9996 -70.9953,-279.0046 -114.9949,-324.0046 -21,-20.9996 -44.9992,-20.9996 -44.9992,0 0,9 19.9951,48.0034 43.9951,88.0034 76.9996,122.9996 101.9998,236.0059 70.9998,321.0055 -2.5,7.5 -2.7429,10.9941 0.1321,9.8691 z m -307.6352,-16.1183 c 8.75,0.5 11.5084,-1.7512 8.5084,-6.7512 -3,-4 -32.0021,-30.0045 -65.0017,-56.0045 -51,-39 -60.9986,-43.9957 -60.9986,-27.9957 0,29 36.9952,71.0012 72.9948,81.0012 21,6 35.7471,9.2502 44.4971,9.7502 z m 238.8814,-29.1318 c 18.875,-0.375 38.1283,-5.6295 47.6283,-15.6295 23,-23 20.0018,-36.9907 -5.9982,-29.9907 -12.9996,3 -40.0121,8.9963 -61.0117,11.9963 -30,5 -34.9875,9.0026 -25.9875,20.0026 8,9.4996 26.4941,13.9963 45.3691,13.6213 z m -51.6315,-67.6177 c 6.5,1.75 21.7562,-15.0014 40.2562,-52.0014 27.9996,-54.9996 35.005,-105.0102 11.0054,-80.0102 -7,8 -25.0011,41.008 -39.0011,73.008 -16.5,37 -18.7605,57.2536 -12.2605,59.0036 z m -944.7446,-52.0014 c 12,0 39.0027,-9.0066 62.0027,-21.0066 42,-22 137.9965,-105.0022 137.9965,-120.0022 0,-18 -19.9968,-7.9967 -95.9964,46.0033 -42,29.9996 -86.9996,57.9985 -99.9996,60.9985 -29,7 -32.0028,34.007 -4.0032,34.007 z m 889.9952,-47.5094 c 6.75,-1 7.0041,-9.4986 1.0041,-25.4986 -9,-26 -64.9987,-56.9954 -102.9987,-56.9954 -34.9996,0 -80.003,19.9938 -75.003,33.9938 2,7 24.0055,10.0063 53.0055,8.0063 39,-3 56.0002,1.9934 84.0002,20.9934 20,14 33.2419,20.5005 39.9919,19.5005 z m 270.9991,-13.4891 c 4,0 9.0003,-6.0045 13.0003,-14.0045 4,-11 -1.9925,-14.9953 -23.9925,-14.9953 -45.9996,0 -38.0078,19.9998 10.9922,28.9998 z m -1526.8139,-9.6446 c 12.0893,-2.072 31.8186,-11.919 58.8186,-29.3565 47.9996,-30 60.0079,-50.0064 31.0079,-50.0064 -18.9996,0 -104.0027,56.9958 -104.0027,69.9958 0,4.5 1.5568,7.448 4.6505,8.8386 2.3203,1.043 5.4958,1.2191 9.5257,0.5285 z m 1481.207,-70.8677 c 26.2965,1.6875 69.6126,-4.4892 69.6126,-13.4892 0,-5 -20.9945,-11.0095 -46.9941,-12.0095 -45,-2 -57.0089,4.0067 -41.0093,21.0067 2.75,2.5 9.6252,3.9295 18.3908,4.492 z m 282.7178,-27.7975 c 8.7598,-0.252 25.0176,-6.8146 47.8926,-20.6896 33.9996,-22 73.9989,-90.0126 73.9989,-129.0126 0,-12 10.007,-34.9932 21.0066,-49.9932 12,-16 17.9954,-34.0051 14.9954,-40.0051 -10,-16 -36.002,-12.9968 -36.002,4.0032 0,7.9996 -9.0026,18.9966 -20.0026,24.9966 -14,7.9996 -19.9893,21.0032 -19.9893,46.0032 0,43 -18.004,80.0072 -59.0036,118.0072 -31.25,30 -37.4953,47.1102 -22.896,46.6903 z m -42.6474,-2.7877 c 3.914,-2.7539 9.162,-17.2776 15.537,-43.9026 14,-62.9996 11.0059,-134.0066 -4.9941,-134.0066 -11,0 -14.9944,21.0056 -17.9944,95.0056 -1.8746,59.3746 0.928,87.4934 7.4515,82.9036 z m -437.2555,-20.4518 c 8.4567,-0.8691 3.9296,-16.3341 -9.1954,-54.4587 -23,-68 -18.0056,-104.0029 17.9944,-133.0025 39.9996,-31 79.9984,-25.9915 118.998,15.0085 30,31.9996 33.0011,32.9953 39.0011,14.9953 19,-59.9996 -89.9995,-113.9926 -157.9991,-78.993 -64,33 -84.9945,80.9977 -72.9949,163.9973 6,35 12.9942,47.9945 33.9938,59.9945 15.375,8.25 25.1278,12.9801 30.2021,12.4586 z m -1066.134,-4.9676 c 25.6207,2.9942 94.3007,-43.4909 110.9257,-78.4909 17.9996,-36.9996 37.0086,-42.9981 57.0086,-18.9985 19,22 47.9981,18.0012 118.9981,-18.9984 59.9996,-31 63.0038,-33.9992 43.0042,-44.9992 -17,-9 -30.0103,-7.0078 -67.0099,10.9922 -45,21.9996 -45.993,22.0031 -78.993,4.0031 -18,-10 -46.0027,-15.9912 -62.0027,-13.9912 -23.9996,2 -31.0001,9.991 -42.0001,42.991 -11.9996,37.9996 -35.9983,67.0024 -76.9979,91.0024 -11,6 -15.0054,14.9975 -11.0054,21.9975 1.625,2.625 4.4122,4.0643 8.0724,4.492 z m 1300.0609,-23.4904 c 7.375,-1.25 16.3768,-7.4985 27.8768,-18.9985 19.9996,-20 27.0003,-50.0064 13.0003,-50.0064 -18,0 -66.0036,48.0127 -59.0036,58.0127 5,8.5 10.7515,12.2422 18.1265,10.9922 z M 1799.994,2570 c 13,0 20.0076,-4.9963 18.0076,-11.9963 -3,-7 -11.0076,-13.0003 -18.0076,-13.0003 -7,0 -14.9903,6.0003 -16.9903,13.0003 -3,7 3.9903,11.9963 16.9903,11.9963 z m -639.6196,-0.7531 c 19.625,-0.75 47.1303,-5.7463 83.6303,-15.2463 129.9992,-32 325.9941,-145.0057 414.9937,-237.0053 40,-42 34.0069,-71.9934 -7.9931,-33.9938 -90.9996,84.9996 -319.9999,207.0025 -438.9995,233.0021 -81.9996,17 -98.0033,25.991 -88.0033,42.991 5,7.5 16.7469,11.0023 36.3719,10.2523 z m -40.7318,-80.3934 c 2.6692,0.6941 5.0648,0.5337 7.2797,-0.4624 2.9531,-1.3281 5.5723,-4.1394 8.0723,-8.3894 3,-5 -16.99,-43.9956 -45.99,-85.9952 -98.9996,-147.9996 -131.00844,-254.0109 -128.00848,-432.0105 1,-92.9996 -0.99629,-116.9899 -11.99625,-116.9899 -37.99984,0 -30.99443,260.9907 11.00537,384.9899 22.99992,69 83.00066,177.9994 126.00026,228.999 15.1875,18 25.6295,27.7762 33.6371,29.8585 z m 2065.0467,-9.6842 c 3.9551,-0.3047 3.813,-7.2902 -0.687,-21.1652 -8,-27.9996 -76.0084,-128.0085 -86.0084,-128.0085 -21,0 -3.9926,47.0101 34.007,96.0097 28.125,35.625 46.0966,53.6718 52.6884,53.164 z m -1126.3927,-66.6796 c 11.7656,3.7031 41.9577,-10.7372 189.7073,-77.4868 44.9996,-21 80.9929,-40.0092 78.9929,-41.0092 -8,-9 -264.9944,74.0065 -285.9944,92.0065 -2,2 1.9931,9.9944 7.9931,17.9944 3.5,4 5.3792,7.2607 9.3011,8.4951 z m -806.0478,-5.1129 c 16,-1.875 41.7501,-7.8776 80.7501,-18.3776 43.9996,-11.9996 45.0037,-35.0029 1.0041,-33.0029 -38,2 -104.0028,29.9992 -104.0028,44.9992 0,6 6.2486,8.2563 22.2486,6.3813 z m 1953.1037,-9.3804 c 10.2377,-1.9755 20.3949,-9.7434 22.6449,-20.9934 2,-11 -3.0035,-17.0035 -17.0035,-17.0035 -23,0 -34.9875,14.9947 -25.9875,30.9947 2.5,3.75 6.1837,6.0095 10.3712,6.9626 3.1406,0.7148 6.5623,0.6973 9.9749,0.04 z m -271.3558,-29.8717 c 5,-1.375 5.9981,-7.1265 5.9981,-18.1265 0,-10 -10.9966,-29.9951 -24.9966,-43.9951 -36,-35.9996 -32.0043,-68.0094 14.9953,-112.009 22,-21 40.0052,-41.9942 40.0052,-46.9942 0,-19.9996 -65.9937,4.0033 -91.9933,33.0029 -49,53 -33.999,155.9967 26.0006,179.9967 16,6.5 24.9907,9.5002 29.9907,8.1252 z m 367.0087,-8.1252 c 6,0 20.9979,-12.9998 34.9979,-28.9998 53.9996,-64.9996 292.0015,-152.9936 549.0003,-204.9932 147.9996,-30 329.9966,-56.0127 392.9962,-58.0127 44,-1 48.0026,-3.9916 33.003,-26.9916 -7,-11 -31.0018,-11.0009 -152.001,2.9991 -405.9984,45.9996 -791.0031,168.9935 -866.0027,275.9931 -14,19.9996 -9.9937,40.0051 8.0063,40.0051 z m -149.0019,-30.0039 c 5,0 39.003,-23.0017 75.003,-52.0013 81.9996,-65 135.9894,-131.9987 161.989,-202.9983 38,-99.9996 20.0018,-179.9908 -47.9982,-213.9904 -66.9996,-34 -134.9955,-41.0093 -411.9947,-41.0093 -294.9988,0 -420.9991,-10.0001 -525.9987,-42.0001 -176.9992,-52.9996 -245.9996,-68.9944 -254.9996,-59.9944 -26,25.9996 226.9903,118.0019 371.9895,136.0015 25,3 203.0052,6.0023 395.0044,7.0023 368.9984,2.9996 392.0058,4.9935 434.0054,49.9931 30,32 27.9965,105.0081 -4.0031,173.0077 -23,48.9996 -112.0034,144.9983 -188.003,202.9983 -27,20.9996 -28.994,42.9909 -4.994,42.9909 z m -1879.5011,-48.9891 c 10.75,-1 42.9985,-23.0058 96.4985,-66.0058 44.9996,-35.9996 81.0011,-70.003 81.0011,-75.003 0,-5 -22.9973,-47.9968 -50.9973,-95.9964 l -51.0105,-85.9952 37.0061,-38.0102 c 23.9996,-24.9996 34.9988,-43.9963 31.9988,-53.9963 -10,-24 -19.004,-19.993 -72.004,34.007 l -49.9932,50.9973 21.9976,39.9919 21.9975,40.0051 -36.9928,15.9994 c -38,15 -82.0053,50.0018 -82.0053,65.0018 0,3.9996 19.9951,7.9931 43.9951,7.9931 45,0 76.0071,18.0086 76.0071,44.0082 0,7 -15.9979,32.9958 -34.9979,56.9954 -32.4996,41 -43.2508,61.0077 -32.5008,60.0077 z m 300.0781,-66.9438 c 11.109,2.0625 27.4143,-4.3073 27.4143,-14.0573 0,-5 -4.9922,-11.9994 -10.9922,-15.9994 -13.9996,-8 -32.9966,10.9966 -24.9966,24.9966 1.75,2.75 4.8713,4.3726 8.5745,5.0601 z m 209.5777,-74.2235 c 18.0937,-1.4063 46.5914,-25.5839 99.841,-81.8335 43,-46 78.0021,-90.0046 78.0021,-98.0046 0,-8 -16.9973,-26.0052 -37.9969,-40.0052 l -37.0061,-24.9966 34.9979,-2.999 c 54.9996,-4 89.9977,-21.9964 105.9977,-53.9964 21,-40.9996 73.0058,-216.0099 66.0058,-222.0099 -19,-20 -33.9976,4 -63.9976,99.9996 -23,75.9996 -37.9964,110.0062 -53.9964,121.0062 -12.9996,8 -60.0003,17.0026 -112.9999,20.0026 -50,3 -91.0024,8.9963 -91.0024,11.9963 0,3.9996 32.9989,25.9976 73.9989,50.9972 l 75.003,44.0083 -50.0064,57.9995 c -28,32 -63.993,67.9924 -78.993,81.992 -15.9996,13 -26.0016,27.0039 -23.0016,30.0039 4.25,4.25 9.1226,6.3083 15.1539,5.8396 z m 881.8831,-10.8204 c 23.2031,0.047 40.9536,-1.5205 49.9536,-5.0205 9,-3 15.9994,-11.9985 15.9994,-18.9985 0,-9 -25.9996,-15.0025 -86.9992,-20.0025 -130.9996,-10 -208.9952,-22.9936 -298.9948,-49.9932 -90.9996,-28 -104.0027,-30.0082 -104.0027,-15.0086 0,15 88.0086,55.999 157.0082,73.999 78.7496,20.2496 197.4265,34.8836 267.0355,35.0243 z m 2279.2354,-10.7412 c 42.2809,-1.0312 63.4712,-6.2718 89.7208,-18.2718 76,-36 176.9976,-163.01 176.9976,-222.01 0,-32.9996 -22.9967,-14.9995 -53.9963,42.0001 -35,64 -87.996,118.9988 -140.9956,144.9988 -51,25 -186.0024,25 -404.0016,0 -114.9996,-14 -156.0077,-21.9888 -173.0077,-35.9888 -20,-17.9996 -22.99,-18.0122 -45.99,-3.0122 -24,16 -26.0055,15.005 -40.0051,-1.995 -42,-54.9996 -96.0035,-192.9984 -130.0035,-331.9976 -20,-83 -39.9992,-153.9995 -44.9992,-157.9991 -15.9996,-16 -4.9961,117.0031 17.0035,217.0027 28,122.9992 49.995,170.9965 114.995,250.9965 42.9996,54.9996 72.0087,70.9982 86.0083,47.9982 9,-15 34.9979,-12.0009 34.9979,2.9991 0,9.9996 41.9983,19.9978 147.9979,34.9978 180.9992,27 194.0077,28.0039 315.0073,30.0039 19.75,0.5 36.1769,0.6212 50.2707,0.2774 z m -1704.4193,-70.0882 c 2.3906,0.6875 5.3925,0.565 9.1425,-0.185 11,-2 17.0035,-13.0029 17.0035,-33.0029 0,-20 -6.0035,-31.0029 -17.0035,-33.0029 -14.9996,-3 -17.9943,4.0029 -17.9943,33.0029 0,21.75 1.6799,31.1254 8.8518,33.1879 z m -100.7923,-18.2718 c 11.25,2.7656 21.9315,-6.4224 21.9315,-22.9224 0,-29 -7.0007,-36.9906 -26.0007,-29.9906 -14,5 -19.0022,34.99 -7.0022,45.99 3.5,3.75 7.3214,6.0011 11.0714,6.923 z m 1565.1147,-3.2501 c 19.7442,0.3281 40.9509,0.076 63.8259,-0.6738 83.9996,-3 130.9878,-9.9935 151.9878,-20.9935 40.9996,-21 65.0045,-57.9955 56.0045,-85.9951 -6,-19 -8.9994,-20.0114 -15.9994,-6.0114 -13,23 -72.0036,37.0061 -159.0032,37.0061 h -74.9898 l 32.9897,-20.0026 c 47,-28.9996 40.003,-39.9919 -24.9966,-39.9919 -71.9996,0 -167.0018,-42.0028 -207.0014,-91.0024 l -26.9916,-34.007 5.9981,34.9979 c 4,19 11.9903,41.0073 16.9903,47.0073 13,16 3.0047,43.0042 -14.9953,43.0042 -18,0 -57.9983,-44 -89.9983,-99.9996 l -27.0048,-44.9992 v 55.9914 c 0,50.9996 4.0055,61.0018 40.0051,107.0018 68.25,85.7496 134.9708,116.3709 273.179,118.6678 z m -2012.6093,-20.8217 c 33.8699,1.2206 64.8842,1.289 89.5756,0 32.9215,-1.7188 54.6,-5.8418 56.85,-12.8418 6,-16 -8.0035,-18.0061 -217.0027,-37.0061 -95.9996,-8 -201.993,-22.9947 -233.993,-30.9947 -104.9996,-28 -91.0002,9.9951 15.9994,43.9951 59.625,19.1247 186.9613,33.1858 288.5707,36.8475 z m -930.5684,-25.8422 c 11,0 20.0026,-7.0085 20.0026,-15.0085 0,-8 -9.0026,-14.9953 -20.0026,-14.9953 -11,0 -20.0026,6.9953 -20.0026,14.9953 0,8 9.0026,15.0085 20.0026,15.0085 z m 480.339,-89.047 c 5.9687,-0.3907 9.6577,-1.9548 9.6577,-4.9544 0,-11 -85.9945,-66.0059 -101.9945,-66.0059 -29,0 -21.0047,29.0068 14.9953,50.0064 21,12.75 59.4352,22.1254 77.3415,20.9539 z m 1905.6603,-13.9516 c 3,-2 -8.9966,-55.0076 -24.9966,-118.0072 -16,-63 -35.0042,-126.9947 -43.0042,-143.9947 -12,-29 -12.9994,-28.0027 -15.9994,37.9969 -2,48 -6.9994,66.9967 -15.9994,66.9967 -8,0 -15.9985,-8.9934 -18.9985,-20.9934 -7,-27 -42.0001,-22.0019 -42.0001,5.9981 0,42 -55.008,49.0013 -73.008,10.0013 -12,-25 -35.9941,-33.0085 -46.9941,-15.0085 -3,5 -1.006,19.0038 4.994,30.0038 9,18 6.0021,21.0083 -34.9979,31.0079 -24.9996,6 -44.9991,16.9926 -44.9991,23.9926 0,10.9996 7.9988,11.0031 31.9988,4.0031 49.9996,-14 68.0008,-10.9987 68.0008,10.0013 0,10 6.9994,23.9988 15.9994,31.9988 13,10 16.9966,9.9918 24.9966,-2.0082 5,-8 7.0031,-23.9979 4.0031,-34.9979 -3,-13.9996 1.0054,-23.9956 11.0054,-27.9956 27,-11 63.9976,-5.9978 63.9976,7.0022 0,7 6.9954,22.0029 14.9954,33.0029 14.9996,19 15.0038,19 30.0038,0 8,-11 16.0076,-18.0085 18.0076,-15.0085 40,52.9996 69.9948,89.0084 72.9948,86.0084 z m 1144.3211,-19.8969 c 8.0563,1.3242 12.9232,-3.3564 16.6732,-13.106 8,-22 -85.9908,-115.0049 -171.9904,-169.0045 -208.9992,-130.9996 -626.01,-289.0025 -945.0088,-359.0025 -173.9992,-37.9996 -531.9956,-74.9938 -721.9948,-75.9938 -25,0 -27.9957,-3.002 -27.9957,-36.002 v -34.9979 l -33.0029,33.9938 c -38.9996,41 -61.0052,47.9993 -282.0044,86.9993 -190.9992,32.9996 -252.9984,48.0094 -544.9972,125.0094 -242.9988,64.9996 -355.9982,88.9968 -515.9974,108.9968 -107.9996,14 -487.0003,56.0045 -507.0003,56.0045 -5,0 -5.0082,-26.009 -2.0082,-57.0086 l 7.0023,-57.9995 -43.9951,62.0026 c -33,48 -50.0081,62.9967 -73.0081,66.9967 -15.9996,3 -87.9944,12.0067 -159.994,21.0067 -142.9996,19 -289.00683,53.0002 -360.00655,84.0002 l -45.99004,20.0025 -9.0104,-25.0098 c -6,-13.9996 -9.98807,-101.9923 -9.98807,-194.9919 0,-135.9996 -3.00448,-169.0045 -14.00444,-169.0045 -39.99984,0 -33.00265,377.9969 8.99719,418.9969 12.99996,14 20.00692,13.0009 63.00676,-2.9991 142.99955,-55.9996 239.00225,-72.9934 662.00025,-120.993 655.9976,-74 695.9909,-80.003 1049.9893,-175.0026 436.9984,-116.9996 668.0028,-155.0001 940.0016,-155.0001 423.9984,1 802.0102,82.9958 1242.0086,269.995 208.9992,88.9996 329.9934,158.0075 401.9934,231.0071 40.6246,40 62.8964,58.8973 76.3242,61.1043 z M 1874.997,1799.8749 c 8,0.125 16.0026,-2.8783 20.0026,-8.8783 3,-5 1.0059,-12.9994 -4.9941,-15.9994 -14.9996,-9 -43.011,3.0085 -35.011,15.0085 4,6.5 12.0025,9.7442 20.0025,9.8692 z m 3446.4259,-21.7069 c 2.4463,0.7245 4.5919,0.5115 6.619,-0.5549 2.7032,-1.4219 5.2035,-4.3641 7.9535,-8.6141 14,-22.9996 -136.0019,-153.9939 -249.0015,-217.9935 -49,-28 -57.9936,-29.9991 -62.9936,-15.9995 -4,9 -4.999,16.9985 -2.999,18.9985 2,1 30.9976,17.002 63.9976,36.002 75.9996,41.9996 164.0037,108.9963 201.0033,153.9959 18,21.375 28.0816,31.9921 35.4207,34.1656 z m 3.5804,-108.2966 c 6.7496,-3.125 -1.5039,-20.8652 -30.0039,-50.8652 -44.9996,-45.9996 -155.9985,-129.0125 -173.9985,-129.0125 -24,0 -8.9999,21.0127 42.0001,58.0127 28,22 74.9946,59.9911 101.9946,84.9911 31.4996,28.4996 53.2577,39.9989 60.0077,36.8739 z m -2559.628,-60.2455 c 10.875,1.875 28.1183,-1.6222 51.6183,-10.6222 15,-6 64.0059,-14.0035 108.0059,-17.0035 74.9996,-7 79.9961,-8.9951 82.9961,-30.9947 l 4.0032,-24.0058 -88.9943,5.9982 c -111.9996,6 -166.9994,24.0004 -170.9994,55.0004 -2,12.5 2.4952,19.7526 13.3702,21.6276 z m -1603.5608,-11.4414 c 3,-0.1875 6.6903,-0.9299 11.1903,-2.1799 12,-4 77.9941,-16.0048 146.9937,-27.0048 109.9996,-18.9996 164.002,-38.0058 149.002,-53.0054 -6,-6 -119.9944,9.0079 -230.994,31.0079 -73.9996,14 -88.0033,20.002 -88.0033,36.002 0,11.25 2.8113,15.7427 11.8113,15.1802 z m 2286.1846,-8.178 c 12,0 13.0064,-11.0005 8.0064,-55.0005 l -6.0114,-54.0095 157.0083,-2.9991 c 143.9992,-3 154.9952,-4.0035 127.9952,-17.0035 -19,-9 -78.9954,-15.9985 -156.995,-18.9985 -116.9996,-4 -128.0085,-6.0016 -128.0085,-23.0016 0,-12 -6.9893,-18.9985 -19.9893,-18.9985 -15,0 -20.0026,7.0099 -20.0026,25.0099 0,20.9996 -5.0083,24.9966 -31.0079,24.9966 -43,0 -231.9902,38.9932 -242.9902,49.9932 -20,19.9996 5.9931,21.0113 107.9927,6.0113 58.9996,-9 120.0016,-16.0126 136.0016,-16.0126 27.9996,0 30.0038,3.0105 30.0038,38.0101 0,40 13.9973,62.0027 37.9969,62.0027 z m 1868.2976,-2.1007 c 3.9897,1.032 7.0745,0.9443 9.3011,-0.251 2.9687,-1.5938 4.3995,-5.1487 4.3995,-10.6487 0,-16.9996 -99.9912,-99.0014 -113.9908,-94.0014 -21,7 -10.0122,25.0017 38.9878,65.0017 29.2497,23.625 49.3334,36.8035 61.3024,39.8994 z m -3694.1194,-61.1835 c 6.3906,0.9062 13.8258,0.7733 21.8258,-0.7267 17,-3 140.9935,-16.9947 275.9931,-30.9947 301.9988,-30 362.0018,-40.9994 675.0006,-115.999 448.9984,-107.9996 537.9985,-129.006 654.9981,-150.006 105.9996,-19 129.0035,-28.9923 130.0035,-52.9923 0,-19 -251.9976,32.0011 -689.996,139.0007 -455.998,111.9996 -411.0083,103.9985 -925.0063,160.9981 -81.9996,9 -153.99,19.9926 -158.99,23.9926 -12.75,11.9996 -3.0007,24.0085 16.1712,26.7273 z m -435.6833,-19.9762 c 4,0.25 8.5115,-0.2439 12.5115,-1.7439 9,-4 61.9981,-16.0048 118.9981,-27.0048 55.9996,-12 101.9945,-24.9997 101.9945,-28.9997 0,-13 -29.0032,-10.9937 -146.0028,8.0063 -95.9996,15 -118.0002,25.9941 -97.0006,46.9941 2,1.5 5.4993,2.498 9.4993,2.748 z m 565.3829,-78.372 c 9.625,0.875 26.6288,-0.3689 54.1284,-3.3689 38,-4 101.9998,-10.0045 141.9998,-14.0045 112.9992,-9 87.9976,-26.0057 -36.002,-24.0057 -114.9996,2 -163.0086,10.9988 -170.0086,31.9988 -2,5.5 0.2574,8.5053 9.8824,9.3803 z m 27.4936,-80.499 c 7.125,1.375 19.1311,0.6239 38.6311,-1.8761 26,-3 80.0022,-7.9963 120.0022,-11.9963 47.9996,-4 71.9916,-10.0076 68.9916,-18.0076 -2,-6.9996 -29.9961,-9.9927 -82.9961,-7.9931 -115.9992,4 -153.9959,10.9998 -153.9959,28.9998 0,6 2.2421,9.4983 9.3671,10.8733 z m 16.9639,-77.8436 c 8.4204,-0.468 19.4135,-1.5255 33.6635,-3.0255 34.9996,-4 80.0037,-7.0022 101.0037,-7.0022 31.9996,0 39.001,-3.0029 39.001,-20.0025 0,-17 -6.0074,-19.9985 -47.0074,-18.9985 -96.9996,2 -147.9969,13.0029 -150.9969,33.0029 -1.9996,9 -1.7447,13.7474 6.1303,15.4974 3.9375,0.875 9.7853,0.9965 18.2058,0.5284 z M 850.99524,1228.005 c 5.99996,-2 11.00537,-8.0003 11.00537,-13.0003 0,-5 -5.00541,-11.0004 -11.00537,-13.0004 -6,-2 -10.99216,4.0004 -10.99216,13.0004 0,9 4.99216,15.0003 10.99216,13.0003 z m 915.87696,-48.0114 c 23.875,0.5 58.6267,-1.4982 102.1267,-5.9982 41,-5 60.9986,-10.9893 60.9986,-19.9893 0,-11 -18.9937,-12.0063 -91.9933,-8.0063 -96.9996,6 -108.006,8.9966 -108.006,24.9966 0,5.5 12.999,8.4972 36.874,8.9972 z m -682.8748,-22.9884 c 66.9996,-2 91.0014,-5.9995 94.0014,-15.9995 4,-11.9996 -7.0036,-13.0022 -59.0036,-7.0022 -114.9992,11 -134.99756,25.0017 -34.9978,23.0017 z m 293.2872,-40.494 c 28.4062,1.7344 94.2097,-4.2615 125.7097,-12.5115 27.9996,-8 19.0087,-24.0057 -13.9913,-24.0057 -39.9996,0 -118.0094,20.012 -125.0094,32.012 -1.5,2.5 3.8223,3.9271 13.291,4.5052 z m 438.22,-6.6323 c 24.75,-0.125 52.4896,-3.3824 68.4896,-9.8824 14,-5 26.0007,-14.9934 26.0007,-20.9934 0,-8 -18.9967,-10.0073 -66.9967,-5.0073 -71.9996,7 -86.0021,12.0048 -78.0021,27.0048 4,6 25.7585,9.0033 50.5085,8.8783 z" />
    <path
       d="m 1310,4750 c 13,-23 20,-26 20,-6 0,8 -7,16 -15,20 -13,4 -14,2 -5,-14 z"
       id="path2" />
  </g>
</svg>
